<svg width="131" height="110" viewBox="0 0 131 110" fill="none" xmlns="http://www.w3.org/2000/svg">
<path d="M59.3768 5.3676C61.4616 2.26765 65.1484 0.635132 68.7676 0.170445C78.1338 -1.08299 87.8937 4.70114 91.3468 13.4263C93.5238 19.0086 93.0718 25.4684 90.4612 30.8276C88.4348 35.0831 84.8495 38.5346 80.5969 40.5676C76.089 42.7749 71.0154 43.5361 66.034 43.637C57.9347 43.7624 49.8691 42.9033 41.7882 42.5273C30.4202 41.9342 18.8339 41.7813 7.72114 44.5847C5.09515 45.2084 2.56141 46.1317 0 46.9632C9.32625 42.0871 19.9347 40.3231 30.3618 39.8095C41.327 39.2164 52.2983 40.103 63.2666 40.1213C69.2596 40.0082 75.5786 39.3784 80.7506 36.095C88.2719 31.335 91.2422 20.5097 86.802 12.7445C83.9331 7.69715 78.5828 4.08665 72.7742 3.42631C68.5985 2.92188 63.4818 3.89405 61.231 7.81944C58.5527 12.5336 60.2009 19.1737 64.7887 22.0963C66.3938 23.1388 68.4109 23.7289 70.3112 23.2367C72.1746 22.7169 73.832 21.0233 73.8013 19.0208C73.7059 16.8625 71.3137 15.1841 69.2319 15.875C69.0228 16.6026 68.8014 17.3302 68.537 18.0426C68.6569 17.2477 68.8107 16.462 68.9644 15.6763C71.412 14.3862 74.5546 16.3947 74.7637 19.0422C74.9974 21.7417 72.8019 24.1477 70.259 24.7805C67.7621 25.4011 65.1177 24.6215 63.0083 23.2581C57.3596 19.4916 55.5639 11.008 59.3768 5.3676Z" fill="#3E3E3E"/>
<path d="M103.432 10.0361C106.126 12.8212 107.396 16.7374 107.399 20.5558C107.482 25.3311 105.695 30.0849 102.58 33.7077C98.3156 38.7275 91.9843 41.8427 85.4531 42.5826C90.3269 40.4059 95.1422 37.8195 98.8783 33.9492C102.971 29.8648 105.477 24.1877 105.397 18.3944C105.422 15.4931 104.616 12.6622 103.432 10.0361Z" fill="#3E3E3E"/>
<path d="M114.565 24.7383C117.412 30.9137 111.351 38.8501 104.596 37.7587C108.421 35.7073 111.668 32.5004 113.347 28.4772C113.873 27.2727 114.208 25.9978 114.565 24.7383Z" fill="#3E3E3E"/>
<path d="M94.3486 47.7607C101.089 47.8372 107.857 49.219 113.982 52.0438C118.013 53.8751 121.688 56.492 124.692 59.7356C127.911 63.2758 130.325 67.6903 130.842 72.4901C131.331 77.0544 130.771 82.01 127.985 85.8131C124.861 90.1482 118.173 91.848 113.598 88.8C110.197 86.6019 108.798 81.2458 111.866 78.2008C111.414 79.2983 110.892 80.4387 111.036 81.6585C111.248 84.3365 113.259 86.7884 115.87 87.5068C118.087 88.1427 120.522 87.626 122.478 86.4674C124.634 85.1773 126.039 82.9027 126.638 80.512C127.73 76.0119 127.25 71.1113 125.095 66.9872C122.601 62.1599 118.484 58.3385 113.905 55.4739C107.921 51.7381 101.126 49.5736 94.3486 47.7607Z" fill="#3E3E3E"/>
<path d="M39.4256 48.4296C46.6302 47.7814 53.9547 47.8854 61.0485 49.4262C67.2845 50.7163 73.3082 52.9052 79.0276 55.6781C84.6147 58.3867 89.9251 61.7496 94.5129 65.9409C98.5073 69.6034 101.957 74.0638 103.593 79.2762C106.207 87.237 103.842 96.6867 97.4249 102.211C92.7848 106.335 86.6534 108.665 80.4667 109.028C75.0394 109.322 69.4031 107.992 65.0182 104.712C61.399 102.067 58.813 98.0441 58.0597 93.6295C57.374 89.9059 58.0535 85.843 60.3474 82.7675C63.6284 78.2826 70.0119 76.3108 75.2424 78.2949C79.907 80.0069 83.4155 84.6568 83.4586 89.6461C83.4063 91.5018 82.8497 93.5653 81.2631 94.7057C79.658 95.8979 77.032 96.0416 75.6821 94.3999C74.2984 92.587 75.8451 89.4902 78.225 89.857C76.2848 89.8417 74.9226 92.1774 76.008 93.7977C76.9428 95.0847 78.9169 95.0786 80.1715 94.2593C81.6505 93.4003 82.1579 91.566 82.1579 89.964C81.9334 85.0573 77.8345 80.7589 73.0161 79.958C69.935 79.481 66.7094 80.493 64.3664 82.5168C62.1063 84.4 60.8763 87.3349 60.8702 90.2453C60.8732 94.5773 63.0534 98.8114 66.488 101.456C69.7444 104.009 73.9048 105.274 78.0282 105.32C83.8921 105.479 89.8452 103.526 94.3315 99.7377C97.4126 97.1697 99.5712 93.547 100.368 89.6308C101.275 85.6473 100.666 81.4009 98.8916 77.7385C96.6807 73.1038 93.0831 69.2763 89.1441 66.0326C84.3841 62.1837 79.043 59.0929 73.4958 56.5096C68.9172 54.4032 64.1419 52.7096 59.2312 51.5448C52.5094 49.9643 45.557 49.4965 38.6692 49.7625C33.2543 49.9337 27.8516 50.38 22.4336 50.4565C28.0853 49.683 33.7462 48.9615 39.4256 48.4296Z" fill="#3E3E3E"/>
<path d="M42.9971 58.92C47.425 57.2416 52.6031 57.422 56.7789 59.7148C58.5316 60.632 60.0783 61.9557 61.1668 63.6066C63.2055 66.5598 63.5591 70.4882 62.4183 73.845C61.1238 77.6634 57.0864 80.6686 52.9475 80.0143C50.1463 79.6108 48.2767 77.1528 47.1359 74.7774C46.2042 72.8147 46.5271 70.0694 48.5073 68.871C50.0448 67.7979 52.4617 68.602 52.9475 70.4271C53.2243 71.0966 52.8215 71.7478 52.5878 72.3592C52.6462 72.5121 52.763 72.8208 52.8214 72.9768C51.8836 73.041 52.2188 72.1574 52.3356 71.5888C52.6892 70.5524 51.5853 69.672 50.6506 69.5436C49.1531 69.461 48.1045 71.173 48.3997 72.5274C48.7503 74.2577 50.0233 75.6212 51.3024 76.7646C53.0859 78.3207 55.838 77.642 57.5322 76.2877C60.8132 73.6921 61.3267 68.6601 59.3218 65.1443C57.5538 62.0016 54.1683 60.1061 50.7428 59.2685C48.2152 58.6143 45.5769 58.6815 42.9971 58.92Z" fill="#3E3E3E"/>
</svg>
