<svg width="41" height="50" viewBox="0 0 41 50" fill="none" xmlns="http://www.w3.org/2000/svg">
<path opacity="0.9" d="M26.8969 0.0718296C29.9309 0.00792037 32.9682 -0.0627206 36.0023 0.0987342C36.9239 0.155916 37.9263 0.529288 38.4443 1.33656C38.9555 2.68202 39.0161 4.18893 38.6999 5.5882C38.5721 6.24411 37.9094 6.55693 37.4553 6.96393C38.6898 9.36894 40.7315 11.5049 40.9872 14.3034C41.1251 15.326 40.1294 16.6714 39.0362 16.2678C38.7873 15.4235 40.4456 15.2721 40.2438 14.3202C40.005 12.1069 38.5754 10.267 37.5663 8.34975C37.2064 7.86539 37.045 6.9572 36.2848 7.04802C32.9043 6.9942 29.4801 7.17584 26.1434 6.50311C25.9887 7.05475 25.8575 7.61648 25.6624 8.16139C24.7004 8.42375 23.9066 7.70057 23.4996 6.90675C22.5477 5.13075 21.5218 3.34802 20.0788 1.92183C19.2917 1.16838 18.1379 1.20538 17.1356 1.05065C14.6263 0.670559 12.1338 1.30629 9.63127 1.42738C7.89227 1.67965 5.67228 1.49465 4.59928 3.18657C2.99145 5.57139 3.04863 8.56503 2.59454 11.2963C2.4499 12.6283 1.19189 13.6004 1.27934 14.9795C1.44752 15.659 2.08327 16.0424 2.57772 16.473C2.05636 18.2624 2.42299 20.1393 2.3389 21.9691L2.72236 21.9221C2.75599 20.5497 2.51382 19.073 3.18991 17.815C3.51618 19.8097 3.311 21.8346 3.14618 23.836C2.95445 23.3011 2.7728 22.7731 2.58444 22.2416C2.54071 26.7892 2.38936 31.3335 2.45327 35.8812C2.49363 37.0854 2.61135 38.2963 2.4869 39.5005C2.07317 40.6945 1.03381 41.6195 0.879087 42.9179C0.488904 44.297 1.16835 45.6122 1.70653 46.8433C3.12599 47.6506 4.74391 48.0038 6.36182 48.1047C9.37901 48.2258 12.3726 48.6832 15.3898 48.7404C19.3219 48.5991 23.2574 48.7269 27.1861 48.5285C28.878 48.3906 30.5801 48.737 32.2652 48.4679C33.7116 48.2358 35.1748 48.182 36.638 48.2123C38.1281 48.3569 39.4937 47.0518 39.672 45.6122C39.8435 44.3979 39.8133 43.15 39.5374 41.9559C39.413 41.2125 38.5855 41.078 38.0271 40.7887C37.9161 35.8812 38.081 30.9736 38.2424 26.0694C38.3366 23.1431 37.9834 20.2167 38.2559 17.2937C37.6773 17.3038 37.0383 17.3912 36.6985 16.8127C37.3612 16.7656 38.1045 16.1837 38.7571 16.5335C39.2213 17.7209 38.7268 19.1336 38.8412 20.4084C39.2213 26.5706 38.4207 32.7328 38.7234 38.895C38.6259 40.1597 40.079 40.6979 40.3279 41.8449C40.6441 43.3955 40.6373 45.037 40.2371 46.5708C39.9646 47.7078 38.9488 48.4881 37.9431 48.959C36.9407 49.0868 35.9316 48.9691 34.9292 48.9758C33.2306 48.9119 31.5622 49.4535 29.8636 49.2449C28.4071 49.0801 26.9473 49.2786 25.4942 49.3122C22.2382 49.3929 18.9856 49.3257 15.7329 49.3963C12.4904 49.329 9.26801 48.9086 6.02882 48.8278C4.08127 48.6025 1.41727 48.4007 0.626813 46.2513C-0.315007 44.4719 -0.207387 42.2082 1.03043 40.6004C2.16398 39.2684 1.83772 37.4184 1.80072 35.8105C1.68636 31.8313 1.88817 27.8522 1.90163 23.873C1.68635 21.5016 1.63254 19.1269 1.54508 16.7521C1.0809 16.0121 0.310624 15.2721 0.535988 14.3236C0.572988 13.042 1.81753 12.2247 1.93526 10.9734C2.41626 7.99994 2.31199 4.67665 4.31335 2.2111C5.49063 0.690735 7.59964 0.912735 9.30501 0.697462C11.9118 0.556189 14.522 -0.0257189 17.1356 0.310645C18.2557 0.4351 19.4598 0.546106 20.3781 1.27265C22.3997 2.93766 23.069 5.66893 24.956 7.43821C25.1343 7.02448 25.3159 6.60739 25.4976 6.19702C25.0267 4.46138 24.438 2.57774 25.104 0.815192C25.3698 0.108827 26.2712 0.14583 26.8969 0.0718296ZM27.3442 0.78492C27.3341 0.852193 27.3106 0.986735 27.3005 1.05401C29.1673 1.1011 31.0341 1.21884 32.9043 1.15829C34.2161 1.1112 35.565 1.3332 36.8465 0.946379C33.7015 0.502378 30.5094 0.801739 27.3442 0.78492ZM25.6456 1.24238C25.5077 2.46338 25.4942 3.72138 25.8474 4.90875C25.955 5.26866 26.1266 5.67902 26.5538 5.74629C28.276 6.34839 30.1327 6.17011 31.9255 6.30129C33.9235 6.31138 36.0022 6.48294 37.9061 5.73957C37.4486 5.33593 36.9878 4.93566 36.675 4.41093C37.0988 4.54211 37.526 4.68002 37.9532 4.82466C37.8354 4.41429 37.7211 4.00729 37.6101 3.60029C37.3948 3.88956 37.1762 4.1822 36.9609 4.47484C37.082 3.82565 36.5404 2.79302 37.1392 2.36584C37.7749 1.78729 37.9767 2.94774 38.3467 3.2942C38.1651 2.77956 37.9868 2.27165 37.8119 1.76037C34.8452 2.0631 31.8549 1.79402 28.8814 1.75702C27.7748 1.79402 26.7051 1.50811 25.6456 1.24238Z" fill="#020202"/>
<path opacity="0.9" d="M8.27344 2.53058C9.18835 2.0664 10.2143 1.92177 11.2334 1.91504C10.5809 2.86022 9.25899 2.96113 8.27344 2.53058Z" fill="#020202"/>
<path opacity="0.9" d="M26.1795 1.91818C26.8623 1.53136 27.0338 3.00128 26.4048 3.12237C25.8834 3.02482 25.8666 2.23773 26.1795 1.91818Z" fill="#020202"/>
<path opacity="0.9" d="M35.9932 2.32886C36.6188 2.05641 36.8778 3.5095 36.2858 3.65414C35.7981 3.45905 35.7106 2.71904 35.9932 2.32886Z" fill="#020202"/>
<path opacity="0.9" d="M27.8959 4.19906C27.1559 3.71134 27.119 2.79306 27.7379 2.19434C27.8186 2.86034 27.8724 3.52634 27.8959 4.19906Z" fill="#020202"/>
<path opacity="0.9" d="M28.7822 4.46143C28.1801 3.76179 28.2743 2.8267 28.8764 2.16406C28.8966 2.92761 28.8697 3.69788 28.7822 4.46143Z" fill="#020202"/>
<path opacity="0.9" d="M30.9988 2.34253C31.5168 2.9278 31.8498 3.91335 31.0122 4.39771C30.9651 3.71153 30.9618 3.02535 30.9988 2.34253Z" fill="#020202"/>
<path opacity="0.9" d="M35.2852 3.02881C35.746 3.09945 35.8267 3.33489 35.5274 3.73517C35.0598 3.6578 34.9791 3.42235 35.2852 3.02881Z" fill="#020202"/>
<path opacity="0.9" d="M3.93383 8.49083C3.46965 6.44909 4.3913 3.87255 6.52721 3.23682C6.14039 3.87255 5.61902 4.41409 5.22211 5.03972C4.7882 6.19009 4.83865 7.55237 3.93383 8.49083Z" fill="#020202"/>
<path opacity="0.9" d="M26.2099 3.87936C26.7077 3.52281 27.1854 4.42763 26.7683 4.76735C26.2536 5.12054 25.7928 4.22245 26.2099 3.87936Z" fill="#020202"/>
<path opacity="0.9" d="M8.83711 4.41144C11.3464 4.29371 13.8691 4.32399 16.375 4.4888C17.5119 4.51571 18.4437 5.40707 18.9213 6.3758C19.2005 7.3748 18.9886 8.64962 18.1477 9.32908C17.2395 10.2036 15.8705 9.66881 14.7571 9.8269C12.379 9.78654 9.66793 10.4996 7.57911 9.02299C6.53638 7.61362 6.83238 4.7478 8.83711 4.41144ZM8.08702 5.27589C7.8112 6.31526 7.30666 7.51608 8.00293 8.50163C9.00866 9.41317 10.4517 9.15417 11.6928 9.22481C13.5832 9.18781 15.5139 9.2719 17.3639 8.81781C18.2923 8.58908 18.4571 7.41853 18.3394 6.61799C17.9089 5.60216 16.7854 5.11781 15.7359 5.12117C13.1897 4.99672 10.6165 4.9328 8.08702 5.27589Z" fill="#020202"/>
<path opacity="0.9" d="M27.196 4.71343C27.603 4.38716 28.232 5.0767 27.7611 5.40634C27.3373 5.73934 26.7318 5.04643 27.196 4.71343Z" fill="#020202"/>
<path opacity="0.9" d="M36.0698 4.48145C36.2817 4.72026 36.4902 4.96581 36.6954 5.21808C36.2548 5.46363 35.8007 5.68564 35.3567 5.91773C35.2524 5.55109 35.1548 5.18445 35.0674 4.82118C35.2793 4.9389 35.7098 5.18109 35.9251 5.29882C35.9621 5.097 36.0361 4.68663 36.0698 4.48145Z" fill="#020202"/>
<path opacity="0.9" d="M28.573 4.89849C29.1112 4.71686 29.3063 4.90186 29.1583 5.45686C28.6168 5.63513 28.4217 5.44677 28.573 4.89849Z" fill="#020202"/>
<path opacity="0.9" d="M30.9022 5.05362C31.4437 4.87199 31.6388 5.05698 31.4875 5.60526C30.9392 5.78353 30.7441 5.59854 30.9022 5.05362Z" fill="#020202"/>
<path opacity="0.9" d="M36.0986 13.8493C36.9597 13.6508 37.8376 13.5095 38.7021 13.3145C38.692 13.4255 38.6685 13.6407 38.655 13.7484C38.248 13.8997 37.8578 14.0847 37.4878 14.3034C36.9866 14.2563 36.4888 14.1856 36.0986 13.8493Z" fill="#020202"/>
<path opacity="0.9" d="M33.3311 13.9804C34.1518 13.9568 34.9759 13.977 35.8 14.051C35.1003 14.5993 33.8491 14.939 33.3311 13.9804Z" fill="#020202"/>
<path opacity="0.9" d="M4.13867 16.537C5.16122 16.4495 6.34523 16.1334 7.15587 16.9675C6.14341 17.0886 4.91904 17.4048 4.13867 16.537Z" fill="#020202"/>
<path opacity="0.9" d="M8.3916 16.7519C11.0522 16.3146 13.7533 16.7889 16.424 16.4727C17.8939 16.2911 19.3066 16.8158 20.7564 16.9167C23.6995 16.7889 26.6495 17.0311 29.596 16.8763C31.9876 16.6476 34.3926 16.6947 36.7942 16.6443C36.0307 17.65 34.6852 17.4078 33.5853 17.4078C31.5738 17.2901 29.5792 17.6803 27.5677 17.576C24.5203 17.6634 21.4695 17.6096 18.4321 17.3809C15.5293 17.1791 12.6264 17.5255 9.72698 17.4011C9.16525 17.4583 8.75151 17.1253 8.3916 16.7519Z" fill="#020202"/>
<path opacity="0.9" d="M4.32654 17.7372C8.13754 17.6531 11.9317 18.3494 15.7427 18.0668C19.7825 18.0467 23.8121 18.346 27.8552 18.2216C30.5697 18.1005 33.2976 18.4537 36.0087 18.1476C36.1399 18.2653 36.3989 18.5007 36.5267 18.6185C35.9078 21.9821 36.483 25.4029 36.4796 28.7901C36.715 32.48 36.3316 36.1834 36.7016 39.8666C36.5671 40.906 36.8597 42.5071 35.6286 42.9511C34.6666 43.3783 33.57 43.2807 32.5509 43.2C32.5307 43.0453 32.4869 42.7291 32.4668 42.5744C33.533 42.4028 34.6128 42.3322 35.679 42.1573C36.0827 40.1794 35.7699 38.1613 35.8573 36.1633C36.0726 30.4484 35.5411 24.7437 35.5781 19.0322C31.6595 18.9044 27.7408 18.8775 23.8222 18.9447C20.2466 18.7429 16.661 18.7194 13.0821 18.8068C10.2364 18.6992 7.39753 18.3158 4.54516 18.4772C4.60234 23.6909 5.00262 28.9112 4.67298 34.1249C4.47116 36.2406 5.16744 38.3227 4.99253 40.425C4.81426 40.4553 4.46443 40.5091 4.28952 40.536C4.13479 38.1848 3.83206 35.8269 4.03388 33.4656C4.2357 28.9852 4.1348 24.4948 3.89935 20.0178C3.81189 19.2239 4.00699 18.4537 4.32654 17.7372Z" fill="#020202"/>
<path opacity="0.9" d="M17.5708 26.4885C19.5024 26.1605 21.951 26.3011 22.7771 28.1644C22.4087 29.5177 20.8337 30.0017 19.538 30.465C19.336 31.2041 19.8589 33.1403 18.3969 32.8228C18.1294 30.7096 18.1473 28.5652 17.5708 26.4885ZM19.0091 27.1547C19.2409 27.8261 19.0625 28.7213 19.7341 29.2314C20.3879 28.9556 20.9823 28.5964 21.5469 28.2061C20.8872 27.5659 19.8768 27.4305 19.0091 27.1547Z" fill="#020202"/>
<path opacity="0.9" d="M25.3813 26.3497C26.0215 27.1483 26.3978 28.0871 26.774 29.0206C27.768 28.3029 28.6384 27.2724 29.9188 27.035C30.3007 28.3731 28.397 29.0476 27.6669 29.9864C28.9305 31.0764 30.2221 32.1555 31.2385 33.4828C29.3179 33.7418 28.2734 31.9774 27.0043 30.9522C26.7516 31.7724 26.482 32.5871 26.1844 33.4019C25.3701 31.1411 25.5554 28.6969 25.3813 26.3497Z" fill="#020202"/>
<path opacity="0.9" d="M9.83619 26.5176C11.1466 27.9609 12.1744 29.7007 13.2948 31.3343C13.2558 29.6727 13.1876 28.0112 13.1974 26.3497C14.8926 28.0001 14.0109 30.9203 14.3178 33.158C12.5641 33.0014 11.8285 31.0434 10.8104 29.7063C10.6546 30.8811 11.5022 33.6895 9.80696 33.4993C9.73876 31.172 9.74851 28.8448 9.83619 26.5176Z" fill="#020202"/>
<path opacity="0.9" d="M2.95187 32.4437C2.92496 30.7215 2.36995 28.9017 3.21423 27.2771C3.66159 29.7797 3.63133 32.336 3.57751 34.8688C3.52705 36.0327 3.48669 37.22 3.12006 38.3401C2.61887 36.3959 3.07633 34.4114 2.95187 32.4437Z" fill="#020202"/>
<path opacity="0.9" d="M4.14014 41.7203C6.55187 42.013 8.97033 42.1307 11.3955 42.013C14.4194 42.3527 17.4602 42.0836 20.4807 42.4435C24.1505 42.79 27.8337 42.1812 31.5 42.6285C31.2208 42.8909 30.908 43.0792 30.5582 43.1902C25.9601 43.1936 21.3486 43.308 16.7706 42.79C14.5136 42.9918 12.2701 42.5814 10.0164 42.716C8.73825 42.79 7.52397 42.2787 6.25251 42.2955C5.51924 42.2316 4.59086 42.4839 4.14014 41.7203Z" fill="#020202"/>
<path opacity="0.9" d="M3.59349 47.1462C2.70549 45.8344 1.84441 44.055 2.91741 42.5784C3.41187 43.1973 2.94096 44.0113 3.14951 44.7143C3.36814 45.4946 3.64059 46.2582 3.89622 47.0352C3.81886 47.0621 3.67085 47.1159 3.59349 47.1462Z" fill="#020202"/>
</svg>
