<svg width="45" height="44" viewBox="0 0 45 44" fill="none" xmlns="http://www.w3.org/2000/svg">
<path d="M33.1854 0.852796C33.4571 0.45118 33.8953 0.0672815 34.4033 0.0708251C34.9076 0.328332 35.5455 0.550403 35.7676 1.1233C36.031 2.46989 36.3735 3.84248 36.1692 5.22451C36.6086 5.25404 37.048 5.2883 37.4839 5.35563C38.3214 5.26467 39.1742 5.26231 40.0023 5.43359C40.587 5.56352 41.1835 5.34145 41.767 5.47493C42.3222 5.59541 42.7994 5.92852 43.1916 6.32777C43.8637 6.83334 44.3669 7.57869 44.5122 8.41382C45.0366 11.4756 45.0012 14.5975 44.9847 17.6947C45.0095 18.4849 45.0272 19.2823 44.8453 20.056C44.8843 21.1592 44.8701 22.2672 44.9551 23.3705C45.0414 23.9694 44.7543 24.5493 44.8406 25.1506C44.954 26.1676 44.785 27.187 44.8051 28.2064C44.7803 29.3061 44.8524 30.4082 44.7744 31.5068C44.7224 32.6514 44.8051 33.7936 44.791 34.9382C44.7118 36.0427 44.8725 37.1495 44.772 38.2551C44.791 38.9461 44.5488 39.6017 44.3374 40.2478C44.0881 40.8148 43.7255 41.3747 43.1609 41.6712C42.647 41.9382 42.1462 42.2453 41.5993 42.4425C40.4476 42.7048 39.3018 43.0863 38.104 43.0391C36.7633 42.9847 35.4179 43.117 34.082 42.9706C33.2976 42.9268 32.5027 42.9765 31.7301 42.8146C31.3285 42.7438 30.947 42.9351 30.5489 42.9516C29.6417 42.9694 28.7357 43.0662 27.8274 42.9989C25.2251 42.9835 22.6229 43.1028 20.023 43.0332C19.1135 42.9481 18.2134 43.1619 17.3062 43.169C16.3187 43.1312 15.33 43.1158 14.3543 42.9434C13.3349 42.9481 12.3132 42.928 11.2926 42.9162C10.148 43.006 9.0022 42.8583 7.85759 42.9434C7.26816 42.9741 6.68109 42.8855 6.09166 42.8784C5.61208 42.8631 5.15613 42.6693 4.67419 42.6941C4.17571 42.6989 3.64652 42.7957 3.18112 42.5618C2.66256 42.3114 2.14991 42.048 1.65734 41.7527C0.890726 41.2471 0.584789 40.3258 0.356812 39.4824C0.193803 39.0111 0.25759 38.5043 0.19026 38.0177C0.0933994 37.2711 0.252865 36.5246 0.232784 35.7769C0.139467 34.1633 0.341457 32.5427 0.156004 30.9315C0.157185 29.2353 0.173722 27.5378 0.117024 25.8428C0.187897 25.2463 0.156004 24.6474 0.0367003 24.0603C0.0213443 23.048 0.164273 22.0357 0.117024 21.0222C0.157185 20.6147 0.196166 20.2001 0.0662309 19.8032C-0.0778786 18.8558 0.0662312 17.8931 0.0130761 16.9399C-0.0164545 15.8154 0.0378818 14.6908 0.0130761 13.5651C0.0378818 12.3426 0.186716 11.1259 0.263495 9.90452C0.447766 8.94301 0.489109 7.88463 1.1754 7.11447C1.74593 6.54394 2.32237 5.90726 3.13033 5.68637C3.71858 5.46075 4.34108 5.77496 4.93996 5.63203C5.82706 5.46075 6.74488 5.42059 7.6367 5.57651C7.68277 4.41537 7.47724 3.2247 7.8316 2.09663C8.01469 1.46113 8.41158 0.838621 9.03409 0.562215C9.67904 0.212572 10.539 0.420468 11.0115 0.960287C11.3328 1.48357 11.3635 2.11316 11.4627 2.70259C11.634 3.59324 11.5076 4.50042 11.4532 5.39579C12.084 5.49265 12.7207 5.41469 13.3538 5.43004C14.163 5.45367 14.9709 5.48674 15.7789 5.44894C17.4314 5.49737 19.0851 5.47729 20.7377 5.48083C22.0736 5.42532 23.4143 5.51155 24.7491 5.38752C25.6149 5.37925 26.482 5.42532 27.3478 5.37807C28.9472 5.07449 30.5997 5.47493 32.1896 5.09221C32.4212 5.05205 32.655 5.02606 32.8889 5.00244C32.8771 4.38584 32.8488 3.76806 32.9185 3.15382C32.9385 2.38366 32.8748 1.57925 33.1854 0.852796ZM33.8859 4.99653C34.2981 5.07568 34.7116 5.15245 35.125 5.22687C35.2785 3.97123 35.0305 2.71204 34.812 1.47885C34.7541 1.04534 34.2521 0.974462 33.9012 0.960287C33.6863 2.29271 33.8693 3.65348 33.8859 4.99653ZM9.45461 1.343C9.12268 1.46349 8.93487 1.79187 8.80021 2.09781C8.34426 3.15618 8.56396 4.33032 8.53089 5.4454C9.22309 5.44894 9.91292 5.3698 10.6051 5.38634C10.5768 4.5961 10.7126 3.80113 10.5744 3.01562C10.5 2.55849 10.5402 2.073 10.3547 1.64067C10.2094 1.29812 9.77236 1.21661 9.45461 1.343ZM14.1145 6.3892C12.938 6.51323 11.7545 6.42345 10.5744 6.45535C9.92001 6.50378 9.25498 6.47543 8.61239 6.33132C8.75296 6.89949 8.6998 7.57278 9.09788 8.04055C9.55974 8.11024 10.0629 8.09843 10.4681 8.36657C10.7055 8.53903 10.9111 8.78236 10.9807 9.07294C11.0953 9.73088 10.9004 10.4018 10.6004 10.9842C10.2921 11.5559 9.57863 11.7791 8.96912 11.6563C8.46001 11.5488 8.18952 11.0444 7.97571 10.618C7.60127 9.94232 7.74065 9.0753 8.17298 8.45988C7.86822 7.79013 7.78081 7.05541 7.66623 6.33604C6.89962 6.32659 6.13182 6.3573 5.36639 6.27934C4.96359 6.2191 4.59859 6.43408 4.21351 6.50259C3.87096 6.54984 3.5095 6.50259 3.18466 6.6408C2.78305 6.7979 2.51727 7.15345 2.19716 7.42631C1.82153 7.74761 1.56639 8.19647 1.47661 8.68195C1.22029 9.90807 1.03365 11.1566 1.0183 12.4111C1.8487 12.3733 2.68619 12.4571 3.51186 12.3249C4.32337 12.1961 5.1455 12.1666 5.96409 12.1051C6.60313 12.1418 7.21264 12.4158 7.85995 12.3922C8.45057 12.3768 9.04118 12.3721 9.63297 12.3556C10.5402 12.2977 11.4509 12.417 12.3557 12.3189C13.5346 12.241 14.7146 12.3272 15.8946 12.2847C17.116 12.3579 18.3327 12.1311 19.5553 12.2292C20.655 12.2457 21.7559 12.2103 22.8556 12.2268C24.1101 12.306 25.3716 12.3993 26.6273 12.3154C27.8427 12.078 29.0783 12.2693 30.3032 12.2221C31.2458 12.2067 32.192 11.9977 33.1311 12.1677C33.6095 12.228 34.0831 12.1134 34.5592 12.078C36.8319 11.8287 39.1282 12.15 41.3973 11.8465C42.2525 11.7224 43.1148 11.7803 43.9747 11.7661C43.9039 10.8247 43.7952 9.88444 43.6015 8.96072C43.5318 8.60281 43.4857 8.23191 43.3156 7.90471C43.0912 7.43222 42.6411 7.13928 42.2938 6.76719C41.9477 6.38802 41.4091 6.33486 40.9283 6.3195C40.4818 6.3195 40.0885 6.01239 39.6373 6.07381C38.4797 6.21319 37.3138 6.1376 36.1527 6.15295C36.1101 6.47779 36.0759 6.80499 36.0015 7.12392C35.8739 7.496 35.6235 7.80903 35.3978 8.12678C35.562 8.32641 35.8077 8.50005 35.8361 8.77645C35.9105 9.31037 35.6424 9.81357 35.3695 10.253C35.0269 10.7196 34.4422 11.1247 33.8398 10.9995C33.2362 10.7999 32.668 10.4042 32.3834 9.82302C32.1637 9.34817 32.3278 8.81898 32.4507 8.34294C32.5227 8.11733 32.6007 7.83502 32.857 7.75942C33.2149 7.65311 33.5421 7.47592 33.8634 7.28929C34.1032 7.31528 34.3111 7.44876 34.5415 7.51018C34.9785 7.22669 35.0541 6.65143 35.1179 6.17776C30.2453 6.15886 25.3728 6.17185 20.5014 6.1754C19.1773 6.17067 17.8508 6.13642 16.5301 6.23446C15.7281 6.33014 14.919 6.3384 14.1145 6.3892ZM33.3307 9.42022C33.5221 9.66473 33.7642 9.9246 34.0855 9.97894C34.5131 9.86672 34.7009 9.44148 34.871 9.07885C34.5048 8.68786 34.0064 8.44689 33.4618 8.56029C33.4075 8.84378 33.3094 9.12728 33.3307 9.42022ZM8.87226 9.132C8.8321 9.35053 8.78131 9.56787 8.77068 9.78994C8.81793 10.103 9.0211 10.3617 9.16639 10.6357C9.2975 10.6392 9.42862 10.6416 9.55974 10.644C9.84323 10.2447 9.98143 9.76986 9.99088 9.28202C9.88812 9.25603 9.78653 9.23004 9.68376 9.20524C9.41208 9.20051 9.14158 9.16744 8.87226 9.132ZM39.8759 13.0005C39.1612 13.1021 38.4513 12.8729 37.739 12.9804C37.2713 13.0513 36.8023 12.9296 36.3334 12.9722C35.6991 13.0265 35.0612 12.9875 34.4281 13.0572C33.1535 13.2498 31.8565 13.0371 30.5785 13.212C29.9725 13.2946 29.3571 13.3017 28.7499 13.219C27.8108 13.0797 26.88 13.382 25.9398 13.3289C25.2263 13.3041 24.5117 13.3112 23.7994 13.2793C22.343 13.1978 20.8841 13.2864 19.4289 13.2627C18.2512 13.147 17.0735 13.3513 15.8958 13.2698C14.3201 13.3454 12.7384 13.1623 11.1662 13.3502C9.98498 13.3596 8.80139 13.3076 7.62135 13.3797C7.02601 13.3702 6.45902 13.1163 5.86014 13.1434C5.22818 13.1753 4.5915 13.1281 3.96427 13.2285C2.95551 13.3785 1.93257 13.3797 0.917894 13.3017C1.05373 14.4889 0.913169 15.6843 0.974593 16.8749C1.02184 17.8105 0.84584 18.7436 0.945062 19.678C1.02539 20.3548 0.966325 21.0376 1.03011 21.7156C1.09272 22.6216 0.896632 23.5276 1.00176 24.4324C1.075 24.9427 0.920257 25.4483 0.958056 25.9609C0.95215 27.6938 0.910806 29.4266 0.921437 31.1595C0.974593 31.9863 1.06791 32.8108 1.09035 33.6389C1.08563 34.3488 1.0561 35.0575 1.0998 35.7663C1.11988 37.3184 1.0431 38.9485 1.68687 40.399C2.09912 41.1857 2.97795 41.4503 3.72803 41.7976C4.15918 41.8885 4.6104 41.8082 5.04155 41.9134C5.85305 42.1354 6.70117 41.9819 7.52803 42.0669C8.54979 42.172 9.57273 41.9606 10.5957 42.061C11.8135 42.0799 13.0337 42.0586 14.2516 42.0551C14.9154 42.1331 15.5769 42.2429 16.2478 42.2016C17.3499 42.2689 18.4544 42.2016 19.5529 42.1047C20.3798 42.2039 21.2102 42.1827 22.0417 42.1661C24.9877 41.9878 27.9408 42.0976 30.8868 42.0705C32.1424 41.8756 33.4181 42.0256 34.6749 41.8543C35.2703 41.7834 35.8585 41.9571 36.4539 41.9181C37.237 41.8838 38.0202 41.8259 38.8057 41.8448C39.525 41.8803 40.2161 41.6121 40.9366 41.6452C41.4079 41.6771 41.754 41.2849 42.2052 41.2129C42.5254 41.0109 42.8608 40.8136 43.0912 40.5042C43.4408 40.1238 43.5235 39.5982 43.657 39.1198C43.9724 37.785 43.807 36.4065 43.9192 35.0516C43.9062 33.7558 43.9003 32.4576 44.0645 31.1701C44.0988 29.2754 44.0397 27.3784 44.0409 25.4837C43.9818 24.9758 43.9369 24.4667 43.9795 23.9552C43.9712 22.6157 43.9346 21.2738 43.9924 19.9355C44.1094 19.1559 44.1011 18.3621 44.0102 17.5813C43.9015 16.7875 44.1377 15.9937 44.0172 15.1988C43.9027 14.392 44.0988 13.5876 44.0491 12.7808C42.6518 12.7241 41.2626 12.8529 39.8759 13.0005Z" fill="black"/>
<path d="M27.4811 14.2502C27.6914 14.3873 27.8627 14.5715 28.0552 14.731C29.0947 14.9046 30.1554 14.6802 31.2008 14.7889C31.4926 14.8621 31.6107 15.1586 31.6804 15.4208C31.9733 16.2371 31.8529 17.1218 31.7584 17.9628C31.8765 18.6668 31.9485 19.3803 31.9013 20.0938C31.6296 20.1824 31.3603 20.2721 31.091 20.3643C31.0484 20.3288 30.9646 20.258 30.922 20.2225C30.4992 20.421 30.0409 20.3938 29.6038 20.2627C28.9081 20.441 28.1899 20.3855 27.48 20.4304C26.9614 20.4599 26.4287 20.3017 26.0294 19.9697C25.7577 19.5374 25.8546 19.0118 25.8192 18.5298C25.7955 17.5447 25.5475 16.5454 25.7873 15.5685C25.8251 15.3842 25.9704 15.2531 26.0767 15.1066C26.3105 14.6566 26.8433 14.6566 27.2827 14.6637C27.3477 14.5255 27.4138 14.3873 27.4811 14.2502ZM26.6708 15.6335C26.5704 15.722 26.5409 15.9843 26.7145 16.0044C26.9283 15.9737 26.9189 15.4811 26.6708 15.6335ZM27.5957 15.6311C27.3488 16.1497 27.1575 16.6954 26.8622 17.1891C26.7157 17.4018 26.7441 17.6652 26.7393 17.9097C26.7464 18.4578 26.698 19.0118 26.8149 19.5528C27.1421 18.8901 27.5544 18.2688 27.8154 17.5742C28.0847 16.9517 28.4379 16.3694 28.6659 15.7291C28.3068 15.7138 27.9501 15.6783 27.5957 15.6311ZM29.2081 15.7622C28.6931 17.0557 27.9843 18.2581 27.3996 19.5209C27.7587 19.5303 28.1143 19.4843 28.4675 19.4252C28.8124 18.7023 29.1916 17.9959 29.5459 17.2777C29.7869 16.7379 29.9641 16.1721 30.2228 15.6394C29.8873 15.6996 29.5483 15.741 29.2081 15.7622ZM29.1467 19.3732C29.4987 19.2716 29.8649 19.2586 30.2204 19.3508C30.4118 18.9456 30.7094 18.5889 30.8441 18.1589C30.9315 17.2576 30.7838 16.3528 30.8583 15.4504C30.3645 16.7887 29.9263 18.166 29.1467 19.3732Z" fill="black"/>
<path d="M3.33919 14.8369C3.98532 14.5924 4.69051 14.655 5.36145 14.7484C6.34187 14.8818 7.33173 14.6905 8.31451 14.7861C8.53658 14.8251 8.69841 15.02 8.7622 15.2279C9.09648 16.0938 9.01616 17.0494 8.89568 17.9495C8.99608 18.6653 9.12011 19.3894 9.02915 20.1135C8.69841 20.2056 8.35704 20.3722 8.00857 20.2576C7.6046 20.4147 7.17817 20.3875 6.77065 20.2635C5.96624 20.4478 5.1382 20.4466 4.31725 20.4194C3.91917 20.4159 3.57308 20.1997 3.20926 20.0686C2.79347 19.3268 3.05452 18.4657 2.91868 17.666C2.78284 16.8875 2.80528 16.082 2.98364 15.3118C3.09232 15.2492 3.20099 15.1866 3.31084 15.1252C3.31793 15.0531 3.33211 14.909 3.33919 14.8369ZM3.78806 15.6083C3.79396 15.8481 3.80223 16.0879 3.8105 16.3276C3.90146 16.0985 3.99595 15.8729 4.09045 15.6461C4.01485 15.6366 3.86366 15.6177 3.78806 15.6083ZM4.78029 15.6319C4.47908 16.2001 4.16959 16.7682 3.91799 17.36C3.87783 17.9069 3.88728 18.4574 3.8861 19.0055C3.87429 19.2252 3.93926 19.4378 4.07273 19.615C4.07628 19.3457 3.99595 19.0657 4.10108 18.807C4.49089 17.718 5.06378 16.7056 5.69928 15.7441C5.39216 15.711 5.08623 15.6732 4.78029 15.6319ZM8.00857 15.45C7.51364 16.8214 6.71041 18.057 6.18122 19.4142C6.54268 19.3043 6.91949 19.2594 7.2963 19.2925C7.54081 18.7326 7.69555 18.1349 8.01094 17.6081C8.06882 16.8875 7.88573 16.167 8.00857 15.45ZM6.20839 15.7276C5.73235 16.6938 5.17482 17.6211 4.78029 18.6263C4.6728 18.9086 4.50742 19.1661 4.27354 19.3622C4.33851 19.4189 4.40466 19.4744 4.47081 19.5299C4.79801 19.5252 5.12521 19.504 5.4465 19.4437C5.90599 18.1314 6.67615 16.962 7.2644 15.7075C6.9124 15.7264 6.56039 15.7394 6.20839 15.7276ZM7.88336 19.2654C7.94715 19.2783 8.07709 19.3067 8.14205 19.3197C8.10425 19.1319 8.06764 18.9441 8.02984 18.7574C7.98023 18.9263 7.9318 19.0953 7.88336 19.2654Z" fill="black"/>
<path d="M11.7222 14.6975C12.2844 14.6302 12.8526 14.6822 13.4113 14.7613C13.9913 14.8322 14.576 14.7849 15.1572 14.7601C15.6391 14.8251 16.3041 14.5758 16.6231 15.059C17.1924 16.2177 16.727 17.5265 16.9302 18.7491C17.0117 19.1921 17.0141 19.6421 16.9963 20.0898C16.7436 20.1701 16.4908 20.2505 16.2368 20.326C15.9651 20.2505 15.6946 20.3331 15.4253 20.3662C15.1076 20.4205 14.804 20.1938 14.4886 20.2942C14.1732 20.3709 13.8484 20.4076 13.5224 20.3981C12.9814 20.3875 12.4297 20.4973 11.897 20.3638C11.6419 20.2788 11.3985 20.1642 11.1469 20.0685C10.7146 19.2878 10.9804 18.3865 10.8398 17.5466C10.7099 16.8143 10.7748 16.0666 10.906 15.3401C10.9969 15.2716 11.089 15.2019 11.18 15.1334C11.2969 14.9208 11.4635 14.7223 11.7222 14.6975ZM11.7163 15.6141C11.7198 15.9709 11.7245 16.3288 11.7375 16.6855C11.8958 16.343 12.0565 16.0016 12.2077 15.6555C12.0435 15.6425 11.8793 15.6283 11.7163 15.6141ZM12.6908 15.6307C12.4345 16.2437 12.2336 16.8769 11.9915 17.4947C11.7269 18.1372 11.845 18.8483 11.8427 19.5228C11.9218 19.5157 12.0813 19.5004 12.1604 19.4921C12.4132 18.5365 12.9412 17.6931 13.3546 16.8036C13.5484 16.4386 13.7503 16.0784 13.9606 15.7216C13.5354 15.724 13.1113 15.6968 12.6908 15.6307ZM14.4461 15.7665C13.8496 17.0233 13.2023 18.2565 12.6813 19.5476C13.0841 19.4945 13.4869 19.4354 13.8944 19.4283C14.4898 18.1857 15.2174 16.9773 15.5186 15.6189C15.1607 15.6626 14.804 15.7228 14.4461 15.7665ZM14.6008 19.2606C15.1253 19.3539 15.6533 19.3291 16.1766 19.244C16.0443 19.2145 15.9132 19.1862 15.782 19.159C15.8636 18.879 16.0679 18.6097 16.0053 18.305C15.9049 17.6293 15.9604 16.9454 15.925 16.2662C15.5493 17.2915 15.1229 18.2991 14.6008 19.2606Z" fill="black"/>
<path d="M19.0316 14.7915C19.4769 14.5837 19.9931 14.6864 20.468 14.6994C21.2122 14.827 21.9681 14.8081 22.7194 14.7608C23.186 14.8223 23.7919 14.5955 24.1416 15.0042C24.5786 15.7897 24.4759 16.7099 24.4452 17.5721C24.3755 18.4203 24.6129 19.2566 24.5456 20.1047C24.0424 20.2819 23.5073 20.2996 22.984 20.3705C22.73 20.413 22.4891 20.3043 22.2516 20.2346C22.104 20.3752 21.9551 20.5146 21.8039 20.6516C21.7449 20.589 21.6256 20.4638 21.5665 20.4012C21.0137 20.3693 20.4633 20.4343 19.9116 20.4284C19.4758 20.4402 19.0954 20.211 18.6997 20.0657C18.2827 19.3168 18.5343 18.451 18.4067 17.6442C18.3004 17.0359 18.2827 16.4098 18.376 15.7991C18.4221 15.3798 18.7245 15.0526 19.0316 14.7915ZM19.2773 15.6302C19.2785 16.157 19.2879 16.6827 19.3033 17.2095C19.3375 17.1883 19.4049 17.1457 19.4391 17.1233C19.6836 16.6224 19.979 16.1464 20.1987 15.6326C19.8904 15.6373 19.5832 15.6397 19.2773 15.6302ZM20.6877 15.7117C20.3262 16.5693 19.9589 17.4245 19.5206 18.2466C19.3068 18.6293 19.4013 19.0853 19.3966 19.5023C19.6234 19.507 19.849 19.5129 20.0758 19.5212C20.5967 18.1817 21.4401 17.0111 22.0839 15.7342C21.6185 15.7129 21.1531 15.7141 20.6877 15.7117ZM22.4973 15.7023C22.1205 16.3649 21.8642 17.0831 21.5193 17.7611C21.2677 18.3376 20.9003 18.8538 20.6818 19.4456C21.1472 19.4444 21.6291 19.4952 22.0721 19.3133C22.2327 19.0286 22.4087 18.7522 22.5375 18.4498C22.9261 17.5214 23.5699 16.6484 23.5167 15.5936C23.1765 15.6231 22.8352 15.6479 22.4973 15.7023ZM22.7229 19.4042C23.0182 19.3475 23.3147 19.2932 23.6148 19.2625C23.6219 18.7912 23.6289 18.314 23.4718 17.8615C23.2072 18.3683 22.9757 18.8916 22.7229 19.4042Z" fill="black"/>
<path d="M33.6912 14.8133C34.1341 14.6857 34.5972 14.6715 35.0508 14.5947C35.991 14.9432 37.0081 14.7412 37.9837 14.7601C38.3263 14.7672 38.7752 14.6845 38.9842 15.0341C39.4485 15.9401 39.2985 16.9843 39.2358 17.96C39.2902 18.6723 39.4213 19.381 39.354 20.0981C39.0847 20.1843 38.8142 20.2717 38.546 20.3615C38.5047 20.3272 38.4196 20.2599 38.3783 20.2256C38.0546 20.3414 37.7038 20.4489 37.366 20.3201C37.0541 20.1807 36.7387 20.3189 36.4363 20.4099C36.3619 20.5292 36.2875 20.6497 36.2131 20.769C36.0855 20.6426 35.9615 20.5138 35.8398 20.3827C35.2941 20.4111 34.7484 20.4536 34.2027 20.4371C33.9759 20.3272 33.768 20.1807 33.5471 20.0591C33.234 19.5523 33.2707 18.9523 33.2364 18.3817C33.247 17.3564 33.025 16.3134 33.3037 15.3023C33.4148 15.2444 33.527 15.1853 33.6392 15.1275C33.6522 15.0495 33.6782 14.8912 33.6912 14.8133ZM34.1341 15.6307C34.0113 15.7122 33.99 15.998 34.1802 16.0027C34.3255 15.9472 34.3846 15.8421 34.3538 15.6874C34.2995 15.6732 34.1897 15.6448 34.1341 15.6307ZM35.0035 15.6165C34.6799 16.2792 34.1093 16.9111 34.1908 17.6931C34.2121 18.2979 34.1778 18.9027 34.2322 19.5063C34.8937 18.2872 35.4488 17.0139 35.9934 15.7405C35.6615 15.7074 35.3319 15.6637 35.0035 15.6165ZM36.5297 15.7405C36.0607 16.9548 35.626 18.1916 34.9787 19.3267C34.974 19.3799 34.9657 19.485 34.961 19.5382C35.3791 19.511 35.7949 19.446 36.2143 19.4307C36.825 18.1975 37.2715 16.891 37.8054 15.6236C37.3849 15.7015 36.9584 15.7559 36.5297 15.7405ZM38.2826 16.2744C38.0983 16.7457 37.9294 17.223 37.7262 17.6872C37.4924 18.2211 37.1652 18.7089 36.9384 19.2464C37.1959 19.2806 37.451 19.3244 37.705 19.3811C37.9271 18.8282 38.3535 18.325 38.3263 17.699C38.3346 17.2241 38.3109 16.7481 38.2826 16.2744Z" fill="black"/>
<path d="M3.57886 21.6579C4.199 21.4547 4.85694 21.6154 5.49008 21.6484C6.4327 21.7217 7.37768 21.5835 8.31911 21.6591C8.79633 21.7949 8.82704 22.3713 8.94752 22.7706C9.0432 23.4628 8.96524 24.1656 8.91445 24.859C8.96879 25.5772 9.14124 26.2954 9.01958 27.0183C8.68411 27.1151 8.34274 27.2545 7.98719 27.1707C7.58675 27.2935 7.1686 27.2911 6.78234 27.121C5.86925 27.388 4.90537 27.2829 3.96748 27.2947C3.70879 27.147 3.40167 27.0667 3.18197 26.8635C2.78507 26.1973 3.05439 25.3917 2.93509 24.6653C2.79689 23.8561 2.77799 23.0163 2.99179 22.219C3.1926 22.0382 3.34734 21.802 3.57886 21.6579ZM3.79148 22.5036C3.79502 23.1982 3.7962 23.8951 3.85999 24.5885C4.18483 23.8987 4.44824 23.1817 4.81206 22.5107C4.47186 22.5107 4.13167 22.5119 3.79148 22.5036ZM6.87684 22.6206C6.46695 23.9105 5.93068 25.1555 5.2751 26.3379C5.80074 26.3733 6.32757 26.3143 6.82368 26.1335C7.19931 25.3906 7.44146 24.5944 7.73322 23.8183C7.95411 23.3966 7.96711 22.9159 8.03562 22.454C7.64818 22.5036 7.26192 22.5568 6.87684 22.6206ZM4.43643 24.8826C4.25688 25.3894 3.834 25.8276 3.89424 26.3981C4.17419 26.3379 4.63133 26.5482 4.75063 26.1832C5.33888 25.0232 5.83854 23.8219 6.30158 22.6076C5.99328 22.6064 5.68498 22.6076 5.37786 22.6123C5.05893 23.3671 4.73409 24.1184 4.43643 24.8826ZM7.21821 26.2918C7.51824 26.2434 7.81473 26.1796 8.11476 26.1324C8.12303 25.6138 8.07932 25.0988 7.99191 24.5885C7.81709 25.1933 7.4769 25.7237 7.21821 26.2918Z" fill="black"/>
<path d="M11.3711 21.6671C11.918 21.5548 12.4802 21.5312 13.0331 21.6139C14.0631 21.7427 15.099 21.5974 16.1326 21.647C16.3251 21.6612 16.4775 21.7994 16.6429 21.8879C16.9488 22.7042 16.9453 23.5747 16.885 24.4323C16.8035 25.284 17.0728 26.1203 16.9972 26.9719C16.722 27.0653 16.4468 27.1598 16.1704 27.2519C16.1196 27.2165 16.0168 27.1456 15.9649 27.1101C15.5668 27.3098 15.1226 27.2991 14.7139 27.1361C13.9863 27.3452 13.2256 27.2814 12.4779 27.3098C12.0385 27.3369 11.6345 27.1527 11.2258 27.0251C11.0852 26.7794 10.9824 26.516 10.8986 26.2467L10.8691 26.3093C11.0321 25.004 10.5678 23.6917 10.8856 22.4006C10.9151 22.2199 11.0899 22.1242 11.2033 21.999C11.2589 21.8879 11.3156 21.7781 11.3711 21.6671ZM11.716 22.4963C11.7184 22.9487 11.7231 23.3999 11.7361 23.8523C11.964 23.4023 12.231 22.9735 12.4554 22.5223C12.2086 22.5152 11.9617 22.5069 11.716 22.4963ZM14.9762 22.6073C14.3395 23.8441 13.7453 25.1009 13.1228 26.3435C13.5823 26.3494 14.0442 26.3412 14.493 26.2337C14.8309 25.6112 15.0837 24.9485 15.3872 24.3106C15.6731 23.7224 15.8916 23.1034 15.9778 22.4526C15.6424 22.4975 15.3081 22.5435 14.9762 22.6073ZM13.0803 22.6073C12.7803 23.4968 12.2263 24.2728 11.8837 25.1434C11.7774 25.5497 11.8329 25.9773 11.8388 26.392C12.0207 26.3884 12.2038 26.3861 12.3857 26.3849C12.7614 25.76 13.0921 25.1091 13.4075 24.4512C13.7595 23.8405 14.1351 23.2428 14.4635 22.6179C14.0017 22.6026 13.541 22.6061 13.0803 22.6073ZM15.1073 26.2963C15.301 26.262 15.4935 26.223 15.6837 26.1722C15.8078 26.1663 15.9318 26.1604 16.0558 26.1545C16.0865 25.5391 15.9708 24.9355 15.9117 24.326C15.6825 24.9993 15.3742 25.6395 15.1073 26.2963Z" fill="black"/>
<path d="M18.9201 21.6687C19.4422 21.5648 19.9785 21.5282 20.5077 21.605C21.5672 21.7467 22.6362 21.6002 23.7005 21.6463C23.8942 21.6451 24.0643 21.7762 24.1706 21.931C24.6065 22.8263 24.473 23.8469 24.4163 24.8061C24.4565 25.5325 24.5923 26.2531 24.5486 26.9831C24.2994 27.0587 24.0537 27.1626 23.7926 27.1874C23.28 27.1981 22.7532 27.3315 22.2594 27.1295C21.9157 27.2134 21.5672 27.2937 21.2105 27.2902C20.3683 27.2843 19.4339 27.4603 18.7087 26.9146C18.2338 26.2165 18.561 25.3317 18.4098 24.5521C18.2539 23.7631 18.3082 22.9527 18.476 22.1708C18.574 22.1318 18.672 22.0928 18.7713 22.055C18.8197 21.9262 18.8693 21.7975 18.9201 21.6687ZM19.2768 22.4991C19.2756 23.0449 19.2981 23.5894 19.2957 24.1351C19.4446 23.5611 19.7198 23.0342 20.0021 22.5169C19.76 22.5133 19.5178 22.5074 19.2768 22.4991ZM22.0208 22.6444C21.6889 23.313 21.3995 24.0005 21.0924 24.682C20.8278 25.2809 20.4569 25.8278 20.2194 26.4409C20.7002 26.3547 21.1881 26.3204 21.6759 26.3358C22.2488 25.0707 22.8004 23.7949 23.2753 22.4885C22.8571 22.5452 22.4413 22.609 22.0208 22.6444ZM19.9348 24.3525C19.7387 25.0317 19.2674 25.6518 19.3926 26.3925C19.4729 26.3936 19.6347 26.3936 19.7162 26.3936C20.3328 25.1498 20.8715 23.8717 21.4586 22.6149C21.1987 22.6102 20.9412 22.6066 20.6825 22.6019C20.3872 23.1642 20.1167 23.7418 19.9348 24.3525ZM22.5063 26.2472C22.8807 26.2743 23.2493 26.2011 23.6178 26.1409C23.6379 25.3105 23.4395 24.4966 23.495 23.665C23.2705 24.5651 22.7378 25.3506 22.5063 26.2472Z" fill="black"/>
<path d="M26.259 21.6741C26.8142 21.5571 27.3859 21.5288 27.9494 21.6138C28.9971 21.7437 30.0519 21.5949 31.1032 21.6481C31.5096 21.68 31.636 22.1158 31.721 22.4454C31.9939 23.2534 31.786 24.1086 31.7813 24.9354C31.8663 25.6276 31.9608 26.3222 31.8911 27.0203C31.5533 27.1101 31.2119 27.2412 30.8564 27.1715C30.4406 27.279 30.0071 27.3014 29.6054 27.123C28.879 27.3664 28.1053 27.2742 27.354 27.3097C26.8709 27.3451 26.4433 27.1041 26.0169 26.9187C25.6814 26.1178 25.8716 25.2402 25.7476 24.4039C25.6472 23.6479 25.6507 22.8695 25.8692 22.1336C25.9318 22.1194 26.057 22.0898 26.1208 22.0745C26.1657 21.941 26.2118 21.8075 26.259 21.6741ZM26.6536 22.5045C26.6323 23.4648 26.7587 24.4204 26.7469 25.3807C27.1568 24.4358 27.7179 23.5439 27.9009 22.5139C27.4852 22.5056 27.0694 22.5139 26.6536 22.5045ZM29.8523 22.6013C29.6184 23.9207 28.9936 25.1244 28.4526 26.3363C28.6404 26.3387 28.8282 26.3399 29.0172 26.3411C29.2593 25.7871 29.5594 25.2579 29.7318 24.6755C29.9905 24.0424 30.0886 23.3278 30.4985 22.7655C30.5894 22.7407 30.7701 22.6899 30.8611 22.6651L30.8764 22.456C30.5339 22.5009 30.1925 22.547 29.8523 22.6013ZM27.2371 25.741C27.1603 25.9808 26.9312 26.0918 26.7327 26.2111C26.7552 26.2572 26.8024 26.3505 26.8248 26.3966C27.1213 26.3919 27.4178 26.3907 27.7143 26.386C28.3333 25.1646 28.9251 23.9219 29.3468 22.6167C29.0562 22.6084 28.7656 22.6049 28.475 22.6013C28.2529 23.714 27.7084 24.7216 27.2371 25.741ZM29.6799 26.1355C30.1004 26.2974 30.541 26.2442 30.9674 26.1379C30.9733 25.213 30.8245 24.2964 30.8434 23.3703C30.4276 24.2798 30.1571 25.252 29.6799 26.1355Z" fill="black"/>
<path d="M33.7075 21.6767C34.382 21.5149 35.0742 21.5716 35.7581 21.6224C36.696 21.7417 37.6421 21.5834 38.5824 21.6531C38.7856 21.6826 38.9167 21.8693 39.0738 21.9862C39.3608 22.8981 39.336 23.8561 39.2344 24.7963C39.2781 25.5393 39.4305 26.2776 39.3455 27.0241C38.6048 27.2131 37.8016 27.336 37.0527 27.1316C36.1573 27.3891 35.2147 27.2781 34.2957 27.297C33.8717 27.0903 33.2763 26.8942 33.235 26.3449C33.4393 24.9534 32.9149 23.5431 33.3118 22.1681C33.4193 22.1138 33.5279 22.0594 33.6366 22.0063C33.6543 21.9236 33.6898 21.7594 33.7075 21.6767ZM34.1067 22.5071C34.1067 23.067 34.1256 23.6269 34.1623 24.1845C34.454 23.6305 34.7139 23.0599 35.0186 22.513C34.7139 22.5201 34.4103 22.5248 34.1067 22.5071ZM37.3232 22.6028C36.5767 23.8809 35.9353 25.2228 35.0872 26.4382C35.5407 26.3497 36.0038 26.3237 36.4668 26.3343C36.8165 25.6421 37.3008 25.0208 37.5807 24.2943C37.8264 23.6695 38.215 23.1096 38.3958 22.4587C38.0367 22.4977 37.6788 22.5414 37.3232 22.6028ZM35.6223 22.6123C35.2691 23.4663 34.8509 24.2884 34.3997 25.0928C34.1268 25.5216 34.1528 26.0496 34.2957 26.5186C35.1616 25.2617 35.8313 23.8844 36.6617 22.6064C36.3145 22.6052 35.9684 22.6075 35.6223 22.6123ZM37.2807 26.1654C37.654 26.3166 38.0461 26.215 38.4229 26.137C38.4418 25.4448 38.3343 24.7621 38.2954 24.0746C38.0544 24.8152 37.6351 25.4767 37.2807 26.1654Z" fill="black"/>
<path d="M3.34782 28.4062C4.08372 28.1475 4.87278 28.2751 5.62877 28.3483C6.49224 28.4393 7.3569 28.2408 8.22155 28.3282C8.43063 28.3637 8.62908 28.496 8.71413 28.6956C9.09921 29.5886 9.02006 30.5938 8.89485 31.5341C8.99644 32.2487 9.11692 32.9704 9.03424 33.6934C8.69877 33.7926 8.35503 33.9532 8.00185 33.8422C7.60023 34.0017 7.17617 33.9698 6.76983 33.8493C6.00558 34.0206 5.2177 33.9851 4.43927 34.0123C3.99749 34.0312 3.60887 33.8044 3.20962 33.6544C2.81627 32.9586 3.02653 32.1542 2.93794 31.4006C2.82218 30.66 2.76666 29.8898 2.93085 29.1515C2.95447 28.9283 3.15174 28.7995 3.29348 28.6495C3.30766 28.5893 3.33483 28.4664 3.34782 28.4062ZM3.78842 29.2141C3.7896 29.813 3.80968 30.4131 3.82385 31.012C3.8522 31.0096 3.90772 31.0025 3.93607 31.0002C4.3306 30.4107 4.70505 29.8083 5.12675 29.2378C4.68142 29.2094 4.23492 29.226 3.78842 29.2141ZM5.88155 29.2933C5.46103 30.0422 4.97319 30.7497 4.52432 31.4821C4.21012 31.9983 3.77542 32.5487 3.93016 33.1949C4.34714 32.9775 4.48298 32.5062 4.7393 32.1448C5.29802 31.175 6.00558 30.3032 6.54776 29.3228C6.32569 29.3098 6.10362 29.3004 5.88155 29.2933ZM7.25768 29.226C7.10057 29.9288 6.66352 30.5182 6.28316 31.1147C5.80004 31.7467 5.42441 32.4495 4.96019 33.0945C5.30275 33.046 5.64767 33.0177 5.99258 33.0236C6.36939 32.4224 6.76747 31.8294 7.05096 31.1762C7.29075 30.6564 7.48683 30.0977 7.89199 29.6784C7.94869 29.5165 8.00303 29.3535 8.05855 29.1917C7.79159 29.2047 7.52463 29.2165 7.25768 29.226ZM6.82298 32.8275C7.00962 32.87 7.19743 32.9161 7.38407 32.9622C7.62504 32.9102 7.87073 32.8712 8.11643 32.8452C8.12115 32.0975 7.98767 31.3569 8.00421 30.608C7.70654 31.3935 7.3439 32.1625 6.82298 32.8275Z" fill="black"/>
<path d="M11.6162 28.3049C12.2482 28.1904 12.8955 28.2837 13.5298 28.3451C14.398 28.4431 15.2674 28.2411 16.1368 28.3274C16.3966 28.3569 16.627 28.5459 16.6943 28.7999C17.1491 29.9256 16.738 31.1505 16.9282 32.3164C17.0109 32.7641 17.0144 33.2212 16.9943 33.6748C16.7427 33.7551 16.4899 33.8354 16.2372 33.911C15.8285 33.7929 15.4186 34.0551 15.0134 33.9122C14.6 33.7516 14.1913 34.0043 13.7719 33.9795C13.2557 33.9654 12.7407 34.0386 12.2245 34.0032C11.8406 33.9902 11.5064 33.7811 11.1532 33.6535C11.0799 33.474 11.0079 33.2944 10.9382 33.1149C10.8579 33.1102 10.6972 33.0995 10.6169 33.0948C10.6015 32.8444 10.6263 32.5916 10.7421 32.3648C10.9665 31.923 10.8827 31.4139 10.8142 30.9438C10.7114 30.2752 10.7929 29.6007 10.8992 28.9393C10.9925 28.8601 11.0858 28.781 11.1803 28.7018C11.2949 28.5412 11.3918 28.3274 11.6162 28.3049ZM14.7937 29.309C14.1688 30.593 13.5381 31.8746 12.8305 33.1149C13.2179 33.0487 13.6089 33.0157 14.0023 33.0145C14.5787 31.7139 15.2827 30.4748 15.8958 29.1909C15.5261 29.2109 15.1575 29.2405 14.7937 29.309ZM11.7154 29.2003C11.7166 29.6114 11.7202 30.0224 11.7509 30.4323C11.9788 30.0591 12.1489 29.6539 12.312 29.2499C12.1123 29.2334 11.9139 29.2168 11.7154 29.2003ZM12.9226 29.2913C12.6238 30.1311 12.2009 30.9237 11.8714 31.7529C11.804 32.2136 11.7485 32.7227 11.9422 33.1621C11.9918 33.1302 12.0934 33.0688 12.1442 33.0381C12.8293 31.7907 13.4684 30.5174 14.2066 29.2995C13.779 29.3007 13.3502 29.3007 12.9226 29.2913ZM14.7193 32.8491C15.1622 32.9401 15.6135 32.9093 16.0588 32.8633C16.0694 32.0175 15.8887 31.1871 15.9336 30.3402C15.4824 31.1541 15.1705 32.0352 14.7193 32.8491Z" fill="black"/>
<path d="M19.2529 28.2857C20.225 28.151 21.1901 28.4558 22.1634 28.3542C22.8391 28.2881 23.5195 28.3341 24.1963 28.2845C24.3109 28.3377 24.4267 28.392 24.5424 28.4464C24.5554 28.6011 24.5672 28.7558 24.5778 28.9106C24.5082 29.0051 24.4385 29.0996 24.37 29.1953C24.5483 29.8355 24.4538 30.5088 24.4432 31.1632C24.3747 32.0042 24.6145 32.8346 24.5436 33.6768C24.2967 33.7548 24.0487 33.8327 23.8006 33.906C23.3895 33.7926 22.9773 34.0595 22.5709 33.9107C22.1599 33.7394 21.7512 34.0064 21.3318 33.9804C20.7377 33.9579 20.1412 34.0713 19.5517 33.9733C19.2552 33.9001 18.9836 33.7536 18.6977 33.6508C18.3103 32.9539 18.5028 32.1519 18.4272 31.3971C18.3138 30.5985 18.2075 29.741 18.4993 28.9685C18.7083 28.7074 18.8902 28.3436 19.2529 28.2857ZM20.0833 29.2012C20.4377 29.5603 20.7849 29.9264 21.1641 30.2595C21.2775 30.3422 21.4606 30.4946 21.5976 30.3741C22.0418 29.9938 22.5083 29.6382 22.9159 29.2165C21.9827 29.3996 21.0212 29.3051 20.0833 29.2012ZM19.2753 29.5732C19.2954 30.53 19.4572 31.4809 19.3828 32.4413C19.7844 31.9759 20.2758 31.6014 20.7164 31.175C20.1837 30.6907 19.7136 30.1426 19.2753 29.5732ZM22.1445 31.1821C22.5851 31.625 23.0824 32.0101 23.6447 32.2877C23.4557 31.553 23.5136 30.7946 23.4911 30.0446C23.0363 30.4166 22.5674 30.7722 22.1445 31.1821ZM20.0372 33.0933C20.8842 33.0968 21.7287 33.0106 22.5544 32.8263C22.1221 32.5523 21.7205 32.231 21.3413 31.8861C20.9314 32.3149 20.4577 32.6751 20.0372 33.0933Z" fill="black"/>
<path d="M26.5879 28.2902C27.2364 28.1969 27.8908 28.2902 28.5381 28.3517C29.3673 28.4284 30.1953 28.2583 31.0246 28.3174C31.3447 28.3375 31.5892 28.6056 31.6494 28.9092C31.9754 29.7526 31.8609 30.6728 31.7581 31.5469C31.8774 32.2509 31.9483 32.9643 31.8998 33.679C31.6293 33.7664 31.36 33.8562 31.0907 33.9483C31.0482 33.9129 30.9643 33.842 30.9218 33.8066C30.5001 34.005 30.0418 33.9767 29.6047 33.8467C28.9078 34.0251 28.1884 33.9707 27.4785 34.0144C26.96 34.044 26.4296 33.8845 26.0292 33.5538C25.6972 32.9679 25.8402 32.271 25.7929 31.6307C25.7303 30.8086 25.585 29.9688 25.787 29.1549C25.8201 28.9624 25.9701 28.8277 26.0788 28.6765C26.2146 28.5088 26.3505 28.308 26.5879 28.2902ZM29.7169 29.3014C28.6928 29.3734 27.6758 29.1785 26.6517 29.2151C26.6529 29.8246 26.6765 30.4342 26.7214 31.0425C26.7769 31.7241 26.6942 32.4115 26.7863 33.0931C27.5494 33.1226 28.3125 33.0683 29.072 32.9903C29.6886 32.7848 30.3359 32.962 30.969 32.8663C30.9537 31.6355 30.7741 30.4094 30.858 29.1762C30.4765 29.2092 30.0961 29.2506 29.7169 29.3014Z" fill="black"/>
<path d="M34.0537 28.292C34.6927 28.1975 35.3388 28.2897 35.9767 28.3511C36.839 28.4385 37.7048 28.2341 38.5671 28.3322C38.8967 28.3924 39.0727 28.7114 39.1388 29.0114C39.4377 29.856 39.2546 30.7608 39.2357 31.6313C39.3078 32.3129 39.4105 32.9957 39.3515 33.6831C39.0821 33.7694 38.8116 33.8568 38.5435 33.9465C38.501 33.9123 38.4171 33.845 38.3746 33.8107C38.0509 33.9276 37.7013 34.0292 37.3623 33.9076C36.9831 33.7564 36.6087 33.9867 36.2236 33.9773C35.5656 33.9737 34.9053 34.0517 34.2486 33.9702C34.0206 33.8497 33.7832 33.7469 33.5434 33.6501C33.0674 32.8492 33.3981 31.8924 33.2008 31.0242C33.1902 30.2446 32.9599 29.2842 33.5576 28.6606C33.6828 28.4916 33.821 28.305 34.0537 28.292ZM34.1045 29.2146C34.1021 29.9044 34.1375 30.593 34.199 31.2805C34.225 31.8841 34.16 32.4913 34.2344 33.0937C35.0057 33.1244 35.7783 33.0701 36.5449 32.9862C37.1556 32.7866 37.7958 32.9661 38.4218 32.8657C38.4053 31.6361 38.2317 30.41 38.3108 29.1791C37.9245 29.2098 37.5395 29.2547 37.1556 29.3031C36.1362 29.3693 35.1239 29.1827 34.1045 29.2146Z" fill="black"/>
<path d="M3.95453 34.7017C4.63138 34.4076 5.37437 34.632 6.07838 34.6592C6.99855 34.7254 7.92463 34.5753 8.84126 34.6746C9.27832 34.8482 9.29485 35.3774 9.41652 35.7648C9.55709 36.6956 9.3232 37.6394 9.46022 38.5726C9.537 39.0522 9.55709 39.5389 9.49921 40.022C8.7444 40.2759 7.93172 40.2464 7.14975 40.185C6.25438 40.3409 5.34129 40.3102 4.43647 40.2984C4.14826 40.107 3.69939 40.0728 3.57182 39.7089C3.30132 39.0675 3.51158 38.3541 3.40763 37.6831C3.25997 36.8563 3.25643 35.9975 3.46787 35.1801C3.5541 35.1329 3.64033 35.0868 3.72656 35.0396C3.79507 34.9214 3.87067 34.808 3.95453 34.7017ZM4.26165 35.5132C4.26402 36.0318 4.2522 36.5527 4.32898 37.0677C4.44002 37.8367 4.33253 38.6163 4.38804 39.39C5.35192 39.416 6.32289 39.3829 7.27023 39.1892C7.67185 39.2447 8.08173 39.2861 8.4739 39.1467C8.50461 39.1845 8.56604 39.2601 8.59557 39.2979C8.60738 38.7911 8.58139 38.2868 8.50343 37.7859C8.48571 37.0134 8.45737 36.2397 8.49044 35.466C7.09305 35.7424 5.66967 35.5758 4.26165 35.5132Z" fill="black"/>
<path d="M11.3759 34.6747C11.8898 34.5578 12.4225 34.5165 12.9458 34.6062C14.0479 34.7669 15.1629 34.5826 16.2686 34.6641C16.7127 34.8188 16.76 35.335 16.871 35.7248C17.008 36.6958 16.7789 37.6798 16.9312 38.6519C17.0151 39.0949 17.0116 39.5473 16.9974 39.9973C16.3938 40.2383 15.7335 40.2359 15.0933 40.2206C14.6078 40.1131 14.1306 40.2926 13.6451 40.295C13.0592 40.3009 12.4733 40.3222 11.8874 40.2974C11.6453 40.1674 11.3842 40.0729 11.1574 39.9206C10.7074 39.291 10.9613 38.4901 10.8751 37.7778C10.7723 36.9911 10.6908 36.1784 10.8905 35.4C10.9247 35.2216 11.0972 35.1271 11.2094 35.0031C11.2649 34.8933 11.3204 34.7834 11.3759 34.6747ZM11.7161 35.5099C11.7173 35.9871 11.715 36.4655 11.7776 36.9391C11.8839 37.7506 11.8024 38.5704 11.8366 39.3855C12.7993 39.4174 13.7703 39.3866 14.7153 39.1906C15.1169 39.2343 15.5256 39.291 15.9178 39.148C15.9508 39.1823 16.017 39.252 16.05 39.2874C16.0477 38.9472 16.0489 38.607 16.05 38.268C15.9638 37.9916 15.9331 37.7034 15.9414 37.4164C15.9544 36.7655 15.9012 36.1158 15.9426 35.4673C14.5452 35.7449 13.123 35.5748 11.7161 35.5099Z" fill="black"/>
</svg>
