<svg width="32" height="32" viewBox="0 0 32 32" fill="none" xmlns="http://www.w3.org/2000/svg">
<path d="M25.3735 0H18.0641V1.03225H15.9996V4.6452H18.0641V5.67745H20.9575C20.5204 6.77985 19.3658 8.95182 16.9585 9.29547L16.5157 9.35889V11.2944L16.9678 11.3506C17.0029 11.3552 17.1965 11.3769 17.5092 11.3769C18.6411 11.3769 21.3336 11.0833 23.7415 8.61776V10.4748C22.2514 10.9202 21.1608 12.3024 21.1608 13.9355V16.5161C21.1608 18.7886 19.7316 19.5581 18.0774 20.449C16.3773 21.3641 14.4512 22.4015 14.4512 25.2903V28.3871C14.4512 30.3793 16.0723 32 18.0641 32H27.8706C29.8623 32 31.4835 30.3793 31.4835 28.3871V13.9355C31.4835 12.1193 30.1344 10.6158 28.3868 10.3638V9.33411C28.8636 6.62339 31.5341 5.68924 31.6466 5.65103L31.9996 5.53332V2.20853L25.3735 0ZM18.0641 3.61295H17.0319V2.06451H18.0641V3.61295ZM17.5479 10.3463V10.2359C20.497 9.56853 21.7064 6.72722 22.0589 5.67745H23.7415V7.04466C21.4415 10.0108 18.6328 10.3412 17.5479 10.3463ZM30.4512 13.9355V28.3871C30.4512 29.81 29.2935 30.9677 27.8705 30.9677H18.064C16.6411 30.9677 15.4833 29.8101 15.4833 28.3871V25.2903C15.4833 23.0178 16.9125 22.2482 18.5666 21.3574C19.4405 20.8872 20.3721 20.3824 21.0729 19.6128H24.7737V18.5806H21.7653C22.0311 18.016 22.1931 17.344 22.1931 16.5161V15.9999H24.7737V14.9676H22.193V13.9354C22.193 12.5125 23.3507 11.3547 24.7737 11.3547H27.8705C29.2934 11.3548 30.4512 12.5125 30.4512 13.9355ZM30.9672 4.8119C30.0805 5.20256 27.8194 6.45525 27.3616 9.20518L27.3564 10.3225H24.7737V4.6452H19.0963V1.03225H25.2062L30.9672 2.95274V4.8119Z" fill="black"/>
<path d="M28.3867 28.9031H27.3545V29.9353H28.3867V28.9031Z" fill="black"/>
<path d="M26.3233 28.9031H25.291V29.9353H26.3233V28.9031Z" fill="black"/>
<path d="M24.2578 28.9031H23.2256V29.9353H24.2578V28.9031Z" fill="black"/>
<path d="M18.5811 28.9031H17.5488V29.9353H18.5811V28.9031Z" fill="black"/>
<path d="M13.4191 2.58044H6.19336V3.6127H13.4191V2.58044Z" fill="black"/>
<path d="M3.09671 2.58044H2.06445V3.6127H3.09671V2.58044Z" fill="black"/>
<path d="M5.16116 2.58044H4.12891V3.6127H5.16116V2.58044Z" fill="black"/>
<path d="M1.03225 2.58044H0V3.6127H1.03225V2.58044Z" fill="black"/>
<path d="M8.92544 7.37707L9.65527 8.10706L10.6872 7.07488L9.9574 6.34489L8.92544 7.37707Z" fill="black"/>
<path d="M12.0346 0.542771L10.4863 0.0266113L10.16 1.00594L11.7083 1.5221L12.0346 0.542771Z" fill="black"/>
<path d="M7.37745 8.92518L8.10742 9.65503L9.13958 8.62305L8.40961 7.8932L7.37745 8.92518Z" fill="black"/>
<path d="M3.38227 7.28054L3.84375 8.20386L4.87584 7.68762L4.41435 6.7643L3.38227 7.28054Z" fill="black"/>
<path d="M10.4743 5.82862L11.2041 6.55859L12.2361 5.52644L11.5062 4.79647L10.4743 5.82862Z" fill="black"/>
<path d="M5.44653 6.24829L5.9082 7.17151L6.9404 6.65548L6.47872 5.73226L5.44653 6.24829Z" fill="black"/>
<path d="M8.54294 4.69955L7.51074 5.21558L7.97242 6.1388L9.00462 5.62277L8.54294 4.69955Z" fill="black"/>
</svg>
