<svg width="78" height="58" viewBox="0 0 78 58" fill="none" xmlns="http://www.w3.org/2000/svg">
<path opacity="0.91" d="M38.9362 0.994716C40.8206 0.0388843 42.9922 -0.0344825 45.0632 0.00953603C47.48 0.095477 50.0079 0.98633 51.5003 2.97765C52.4226 4.2982 53.2443 5.72147 53.6824 7.28308C54.2987 9.33938 54.5418 11.4879 54.655 13.6259C54.6864 14.0452 54.5963 14.4623 54.4978 14.8689C54.7011 15.5544 55.0113 16.3027 54.6822 17.0049C54.4622 17.814 53.8564 18.6357 54.1897 19.4972C54.5041 20.3503 55.091 21.0902 55.2251 22.0125C57.9815 21.9098 60.74 21.7568 63.5006 21.849C64.4103 21.8784 65.5003 21.7442 66.1879 22.48C67.041 23.2744 66.9026 24.53 67.0599 25.5822C67.8228 25.6095 68.5921 25.534 69.3509 25.6241C70.0825 25.9511 70.487 26.7623 71.2374 27.0432C72.1534 27.0705 73.0527 26.8378 73.9708 26.8357C75.3102 26.8315 76.614 26.4395 77.9534 26.45C77.9639 26.536 77.9869 26.7057 77.9995 26.7917C76.5951 27.0286 75.1781 27.1983 73.7591 27.2906C72.8577 27.3555 71.9564 27.6176 71.0551 27.4331C70.1642 27.125 69.789 25.8925 68.7451 25.9428C68.1247 25.9302 67.4896 25.8589 66.8859 26.0203C66.278 26.3997 65.9342 27.06 65.4584 27.5756C65.385 27.8502 65.3096 28.1227 65.2341 28.3973C65.0539 28.2862 64.8736 28.1772 64.6954 28.0682C64.6891 28.2087 64.6766 28.4895 64.6703 28.63C64.5445 28.6551 64.2909 28.7054 64.1651 28.7327C65.5842 29.2924 66.8502 28.041 67.347 26.8168C67.4896 27.6259 67.892 28.4057 68.6026 28.8543C69.1057 29.1016 69.6926 29.1645 70.1453 29.5208C69.2775 29.7367 68.4936 29.2986 67.827 28.7998C67.6237 29.3636 68.0492 29.8541 68.0765 30.4075C68.0513 30.768 67.7683 31.0384 67.6216 31.3549C68.1834 31.4115 68.7514 31.4073 69.3132 31.4954C69.3258 31.5436 69.353 31.64 69.3677 31.6882C68.7263 31.7846 68.0786 31.7867 67.4351 31.749C67.2925 33.3232 67.4455 34.8995 67.3848 36.4758C67.3638 38.1422 67.5147 39.8317 67.215 41.4813C67.0494 42.5671 66.1208 43.3741 65.1461 43.7598C63.335 44.4222 61.3605 44.5605 59.453 44.3656C59.1952 45.5478 59.6165 46.8935 58.8242 47.9185C57.7866 48.2602 56.7784 48.7045 55.6989 48.9121C54.6927 49.0944 53.7285 49.5011 52.6972 49.522C51.5402 49.5388 50.3831 49.673 49.2302 49.5598C48.0837 49.4508 46.9161 49.6059 45.7863 49.3397C44.5831 49.0378 43.3401 48.8869 42.1726 48.4488C42.313 48.3377 42.4535 48.2266 42.5939 48.1176C44.1367 48.5767 45.7129 49.0651 47.3395 49.0483C48.593 49.0441 49.8465 49.195 51.1021 49.0965C52.8335 48.9833 54.6697 49.0043 56.2439 48.1679C54.7933 48.235 53.433 48.9288 51.972 48.7947C50.9931 48.7653 50.0205 48.9749 49.0458 48.9079C48.9431 48.8429 48.7397 48.7108 48.637 48.6459C50.9491 48.4824 53.2716 48.4048 55.5479 47.9269C56.6903 47.8158 57.5979 47.0046 58.732 46.8683L58.078 47.6146C59.3692 47.4029 58.841 46.0047 58.8158 45.1411C58.6942 45.0007 58.5747 44.8645 58.4595 44.7261C58.4343 44.9755 58.3861 45.4765 58.363 45.726C58.0465 44.8246 57.9564 43.8709 58.1346 42.9318C58.0864 41.2696 57.8663 39.5864 58.1052 37.9284C58.5244 38.6285 58.3526 39.4732 58.4071 40.2488C58.4553 41.2654 58.3085 42.2904 58.4637 43.3028C58.5328 43.8373 58.4972 44.4285 58.8997 44.8498C59.191 42.4015 58.8871 39.9449 58.8556 37.4945C58.4678 37.5092 58.0822 37.5113 57.6965 37.505C57.7279 37.3855 57.7908 37.1444 57.8222 37.025C58.034 37.0857 58.2478 37.1444 58.4658 37.1989C58.5748 37.0836 58.6838 36.9684 58.7927 36.8531C58.4301 35.5786 58.013 34.3189 57.4743 33.1094C56.8329 31.684 56.4095 30.1769 55.8037 28.7411C54.2211 29.2253 52.5547 29.1729 50.9197 29.1917C49.1611 29.175 47.4003 29.1834 45.6438 29.0953C44.9122 29.0723 44.1995 28.8417 43.6252 28.3847C42.5394 31.1076 41.3614 33.7906 40.3993 36.5596C41.1581 36.9935 42.028 37.1277 42.8538 37.3834C42.7784 37.4442 42.6274 37.5699 42.552 37.6328C41.7345 37.5658 40.9694 37.243 40.2211 36.9327C40.3511 38.488 40.2253 40.0538 40.3951 41.6071C40.5167 42.8647 40.3196 44.1455 40.6257 45.3843C40.8416 46.0697 40.5879 46.8348 40.938 47.4867C40.9024 47.3043 40.8332 46.9396 40.7996 46.7572C42.1936 47.5119 43.7426 47.8808 45.2749 48.235C46.2433 48.3838 47.2284 48.3838 48.1969 48.5473C48.1948 48.583 48.1927 48.6521 48.1927 48.6857C46.26 49.0043 44.3693 48.3838 42.5059 47.9751L42.4954 48.1218C42.3592 48.0799 42.0825 47.9961 41.9462 47.9541L42.1286 47.8137C41.9504 47.7508 41.5941 47.625 41.418 47.5622L41.8372 47.799C41.6968 47.9038 41.5584 48.0086 41.4201 48.1155C41.0554 47.8577 40.6257 47.6628 40.3469 47.3043C40.1687 46.3988 40.1981 45.4618 40.022 44.5542C38.2654 44.6653 36.4963 44.6045 34.7523 44.3572C33.5114 44.1602 32.2181 43.808 31.3021 42.8962C29.8809 41.6574 29.1536 39.8652 28.5227 38.138C27.7052 36.5114 26.7032 34.9414 25.3386 33.7194C23.8776 32.3548 22.1525 31.3319 20.5448 30.1602C19.4443 29.3678 18.1049 29.0178 16.9604 28.3093C16.8913 27.693 17.3608 27.2549 17.7674 26.8755C19.7734 27.8984 21.7501 28.9863 23.5737 30.3132C26.3385 32.0173 28.6652 34.5033 29.9291 37.5196C30.7445 39.3517 31.7842 41.2948 33.6498 42.2359C35.662 43.0765 37.8881 42.8794 40.0157 42.9423C40.0995 40.8147 39.6719 38.6788 39.9088 36.5638C40.9233 34.5578 41.548 32.3904 42.4388 30.3299C42.8077 29.5439 42.9628 28.6698 43.3464 27.8922C45.2686 26.8839 47.5093 27.1858 49.5887 26.8504C49.5635 25.8107 49.4231 24.7668 49.5321 23.7293C49.7522 22.568 50.9973 22.0335 52.0642 21.9706C51.7938 21.3229 51.471 20.6626 51.5003 19.9437C51.4836 18.4512 52.7957 17.2816 52.5526 15.7556C52.234 13.4666 52.2759 11.1253 51.689 8.87404C51.3494 7.29147 50.6933 5.78645 49.8381 4.41978C48.0962 2.3006 45.1449 1.75142 42.5394 1.89814C41.0616 1.92539 39.7117 2.70725 38.6784 3.71548C38.0223 4.37157 37.8881 5.3253 37.5716 6.15956C36.9428 7.73584 37.1084 9.46514 37.0392 11.1253C36.8086 16.4473 36.6116 21.7715 36.6787 27.0998C37.0036 27.2549 37.3306 27.4184 37.645 27.6029C37.5444 29.6927 37.5884 31.793 37.689 33.8871C38.0453 34.0443 38.4583 34.1407 38.7308 34.4425C38.7685 35.0567 38.6301 35.6625 38.561 36.2704C37.6513 36.6917 36.4544 37.1256 35.5426 36.5596C36.4271 36.2955 37.712 36.656 38.2067 35.6604C36.4649 35.9832 34.6936 35.9014 32.9559 35.6122C33.5177 36.394 34.5469 36.3416 35.4 36.4737L35.4084 36.7084C34.5909 36.6938 33.6917 36.83 32.9559 36.3961C32.4214 36.0041 32.4717 35.2558 32.5346 34.6752C32.7841 34.2623 33.2997 34.2036 33.7126 34.0485C33.7504 33.7718 33.7881 33.4951 33.8279 33.2226C33.2242 33.1576 32.5179 33.166 32.0651 32.6923C31.5096 31.9272 31.4656 30.854 32.0064 30.0679C31.5557 28.913 30.6355 28.0389 30.078 26.9489C29.8223 26.5422 30.2331 26.1084 30.6272 26.0287C31.1302 26.1545 31.3189 26.6974 31.6186 27.0642C32.1992 27.8335 32.5472 28.7578 33.1739 29.4894C33.2578 29.502 33.4213 29.525 33.503 29.5376C33.7609 28.9046 33.4234 28.1814 33.6078 27.5316C33.807 27.3346 34.0732 27.2256 34.3163 27.0935C34.6349 24.0793 34.3436 21.0504 34.5385 18.032C34.6894 14.0074 34.7188 9.96612 35.3015 5.97301C35.6013 3.85592 36.9553 1.8688 38.9362 0.994716ZM41.8728 0.510512C39.7977 0.801873 37.6114 1.77028 36.5822 3.69661C35.4 6.3545 35.4398 9.31632 35.1904 12.1608C35.094 15.6592 34.7775 19.1513 34.8802 22.6539C34.9452 24.2533 34.7293 25.8526 34.8781 27.452C35.3497 27.5232 35.8192 27.5945 36.2909 27.6721C35.9492 26.3808 36.4586 25.0624 36.2867 23.7502C36.1567 23.7628 35.8947 23.7879 35.7647 23.8026C35.6327 22.9495 35.7543 22.0901 35.8465 21.2391C35.9681 21.2432 36.2112 21.2495 36.3328 21.2537C36.3139 20.8156 36.2909 20.3608 35.9052 20.0799C35.8193 19.34 36.4187 18.7698 36.3768 18.0425C36.4376 14.9675 36.6535 11.8966 36.6724 8.81954C36.6745 7.28727 37.1733 5.8116 37.7372 4.4051C38.6176 2.90218 40.2337 1.90234 41.9253 1.57115C43.6252 1.328 45.344 1.63194 46.9874 2.06164C48.2451 2.34252 49.3057 3.18726 50.1546 4.12003C52.1103 7.11539 52.6532 10.7773 52.7517 14.2862C53.2359 14.3491 53.7222 14.3889 54.2106 14.412C54.3322 13.016 54.0136 11.6388 53.9423 10.2512C53.9255 10.7249 53.9025 11.2007 53.8648 11.6766C53.1563 10.7291 53.4372 9.44418 53.0515 8.36677C53.1395 8.28502 53.3177 8.12153 53.4078 8.03978C53.1206 6.49913 52.3849 5.08216 51.5548 3.76789C50.8463 2.6779 49.8465 1.78915 48.6685 1.23787C46.5661 0.189806 44.145 0.307188 41.8728 0.510512ZM52.8398 14.7264C52.867 15.3448 52.932 15.9631 52.9068 16.5815C52.8209 17.8371 51.7477 18.8327 51.8902 20.1281C52.0537 21.0106 52.7014 21.7463 52.7035 22.6749C52.9509 23.8844 51.995 24.8528 51.8378 25.9973C52.1229 26.7372 52.3304 27.5044 52.2549 28.3051C52.4017 28.3449 52.5505 28.3868 52.6993 28.4309C52.8901 27.6909 52.6721 26.9552 52.6092 26.2173C52.5631 25.1357 53.5357 24.3518 53.5 23.2765C53.6761 21.9874 52.6281 20.9708 52.649 19.7047C52.5882 18.7845 53.2527 18.0509 53.4539 17.1935C53.5252 16.5647 53.4644 15.9275 53.3868 15.3049C53.4057 14.9633 53.0284 14.9193 52.8398 14.7264ZM53.7243 14.7369C53.8061 15.4852 53.9717 16.2293 53.9612 16.9881C53.9277 18.0362 52.9173 18.8201 53.0913 19.9059C53.0703 20.9917 54.0199 21.7861 53.9821 22.8719C54.0807 23.723 53.7579 24.5321 53.347 25.2594C52.8251 26.1943 53.2967 27.2256 53.4623 28.1877C53.6216 28.1898 53.9381 28.1982 54.0974 28.2003C54.0241 27.6343 53.8836 27.0789 53.7914 26.5171C53.5336 25.0016 54.7892 23.723 54.6068 22.2096C54.5795 21.0881 53.6887 20.2141 53.6342 19.0989C53.5482 18.0634 54.3196 17.1873 54.2798 16.156C54.2442 15.6403 54.1981 15.045 53.7243 14.7369ZM55.1769 22.4737C55.1769 22.5994 55.179 22.8531 55.1811 22.9788C58.2645 23.2304 61.3836 22.807 64.4544 23.157C65.5381 23.8571 65.7204 25.3013 65.8315 26.4836C66.0977 26.2111 66.366 25.9449 66.6427 25.6828C66.496 24.6704 66.4792 23.5071 65.6785 22.7608C64.8401 22.0796 63.6977 22.0754 62.6748 22.1425C60.1804 22.35 57.6713 22.2578 55.1769 22.4737ZM50.0729 23.7313C49.8737 25.2741 50.1903 26.8399 50.0289 28.3931C50.2594 28.2778 50.7394 28.2883 50.6891 27.9047C50.7709 26.6303 50.5592 25.3202 50.9071 24.073C51.056 23.4693 51.7141 23.2849 52.19 23.0103C52.1795 22.8657 52.1585 22.5785 52.148 22.4339C51.3054 22.5282 50.2762 22.7588 50.0729 23.7313ZM51.2299 26.8797C51.3243 26.8944 51.5129 26.9216 51.6072 26.9363C51.494 26.5318 51.2404 26.1167 51.3934 25.6912C51.6324 24.924 52.0558 24.2218 52.2025 23.4274C50.8443 24.0185 51.2572 25.7038 51.2299 26.8797ZM55.0134 23.4861C54.72 24.6432 53.9318 25.7122 54.2651 26.9615C55.114 27.0537 56.6212 27.4247 56.2816 28.5692C56.8538 30.0428 57.2752 31.575 57.9438 33.013C58.4951 34.3692 59.0485 35.74 59.3755 37.1717C59.4258 38.9848 59.5159 40.8022 59.5432 42.6174C60.9455 42.6384 62.3771 42.6006 63.7333 42.2191C64.7017 41.9634 65.4794 41.0747 65.4731 40.0538C65.5821 37.4169 65.6953 34.7716 65.5087 32.1368C64.9407 32.1137 64.4166 31.8874 64.1944 31.334C64.033 31.2229 63.8737 31.1139 63.7165 31.007C63.6578 30.7596 63.6012 30.5144 63.5468 30.2692C62.8844 29.8898 62.9976 29.1687 63.2386 28.565C63.1485 28.1625 62.7775 27.6972 63.073 27.3094C63.6641 26.6848 64.5298 26.4647 65.3536 26.3662C65.188 25.381 65.144 24.1862 64.2783 23.5259C63.6851 23.3666 63.0625 23.4295 62.4568 23.4253C59.9771 23.5175 57.4931 23.4798 55.0134 23.4861ZM30.4532 26.4395C30.9143 27.7266 31.9079 28.7306 32.6478 29.8625C32.0819 28.6342 31.409 27.41 30.4532 26.4395ZM63.3099 27.6511C63.4503 27.9173 63.6054 28.1835 63.7606 28.4455C64.0834 28.1709 64.4083 27.8942 64.7332 27.6197C64.599 27.5023 64.3307 27.2696 64.1944 27.1522C64.5759 27.1459 64.9574 27.1501 65.341 27.1585C65.3515 27.0055 65.3725 26.6953 65.3851 26.5402C64.6535 26.8357 63.9387 27.1732 63.3099 27.6511ZM17.4384 28.0221C17.6962 28.15 17.933 27.7098 17.7821 27.5086C17.5222 27.3786 17.2958 27.8188 17.4384 28.0221ZM44.0298 28.2212C45.8785 28.8815 47.8824 28.6824 49.8088 28.7453C49.6977 28.303 49.5971 27.8586 49.4943 27.4142C47.677 27.5673 45.671 27.2759 44.0298 28.2212ZM18.2454 27.7119C18.1594 27.9047 18.0735 28.0955 17.9896 28.2904C18.9958 28.7474 20.0711 29.1016 20.9557 29.7829C23.0371 31.3109 25.3428 32.6252 26.9673 34.6773C27.9315 35.9895 28.8538 37.3687 29.3506 38.9324C30.0528 40.7015 31.126 42.5357 32.9664 43.2945C35.1988 44.2105 37.6659 43.9715 40.0199 44.0532C40.0199 43.9002 40.0199 43.5963 40.0199 43.4433C38.4604 43.5418 36.8904 43.4747 35.3455 43.263C34.3939 43.0597 33.3605 42.8878 32.5996 42.2317C31.3545 41.1962 30.3903 39.8296 29.8013 38.3224C29.3255 36.9579 28.4598 35.7819 27.6255 34.6207C26.3532 32.8055 24.4981 31.5226 22.664 30.3341C21.2533 29.3594 19.7734 28.4895 18.2454 27.7119ZM51.0077 27.693C51.1377 27.9068 51.2551 28.1311 51.362 28.3617C51.5213 28.1521 51.6806 27.9404 51.8315 27.7245C51.6261 27.7161 51.2132 27.6993 51.0077 27.693ZM55.0218 27.6385C54.8772 27.9487 54.7451 28.2695 54.5649 28.565C54.9296 28.435 55.2985 28.3156 55.6674 28.1961C55.6024 28.0452 55.5375 27.8963 55.4725 27.7475C55.3614 27.7203 55.135 27.6658 55.0218 27.6385ZM33.9726 28.1185C34.0145 28.5566 34.0711 28.9947 34.1361 29.4307C34.5972 29.5229 35.1422 29.5334 35.4671 29.9296C36.1106 30.6066 36.0624 31.6987 35.574 32.447C35.2931 32.9354 34.6748 32.927 34.1948 33.057C34.1822 33.5705 34.1696 34.0862 34.1549 34.6018C34.8194 34.7989 35.4923 35.1028 36.207 34.9456C36.2427 35.0567 36.316 35.2789 36.3517 35.39C35.4 35.3229 33.9768 35.6457 33.5617 34.4886C33.3563 34.5578 33.1509 34.6333 32.9497 34.7087C32.9811 34.7842 33.0461 34.9351 33.0796 35.0106C34.178 35.4298 35.3644 35.5409 36.5319 35.4864C37.2006 35.4109 37.9363 35.3606 38.4268 34.8345C38.2927 34.7192 38.0244 34.4886 37.8902 34.3734C37.6869 34.4677 37.4836 34.5599 37.2803 34.6542C37.1796 34.3398 37.1168 34.0107 36.9679 33.7152L36.8841 33.6376L36.7311 34.3084C36.2825 33.7424 36.1672 32.5791 36.861 32.1641C36.8799 32.6315 36.8463 33.0989 36.8275 33.5684C36.9176 33.5684 37.1 33.5684 37.1922 33.5684C37.1482 31.8056 37.3285 30.0281 37.1126 28.2778C36.0708 28.2045 35.008 28.326 33.9726 28.1185ZM65.3662 29.219C64.7415 29.2924 64.1337 29.0618 63.5279 28.9486C63.509 29.2022 63.4922 29.4538 63.4776 29.7074C64.6242 29.9673 65.8294 29.8939 66.9152 29.4349C67.3575 29.1289 67.2883 28.5608 67.3009 28.0955C66.6679 28.4875 66.0872 28.9926 65.3662 29.219ZM63.9429 30.1916C64.0268 30.5333 64.0351 31.0259 64.534 30.8896C65.5569 30.8016 66.9488 30.833 67.4141 29.6969C66.2843 30.0512 65.1419 30.418 63.9429 30.1916ZM32.8281 30.0784C32.5053 30.55 31.8764 30.9818 32.1322 31.6295C32.1448 32.3883 32.9769 32.9732 33.6791 32.6336C34.6266 32.2227 34.5176 30.8645 33.9621 30.1748C33.6749 29.8122 33.197 30.0197 32.8281 30.0784ZM34.4086 29.7116C34.9053 30.6171 34.9808 31.6526 34.6433 32.6273C34.9661 32.3799 35.3623 32.1242 35.4021 31.6756C35.6516 30.8582 35.0793 30.1036 34.4086 29.7116ZM64.5885 31.378C64.8757 31.4765 65.1524 31.6798 65.4731 31.5897C66.4142 31.5101 67.6447 31.4094 67.8794 30.2712C66.8838 30.9043 65.7686 31.2942 64.5885 31.378ZM65.9405 31.8832C66.1397 34.5285 66.0223 37.1843 66.0013 39.8358C66.0076 40.5737 65.7519 41.2717 65.406 41.9152C63.6537 42.9947 61.5429 43.1079 59.539 43.0345C59.5306 43.3594 59.5201 43.6843 59.5159 44.0113C61.3773 44.1287 63.291 43.9547 65.0434 43.2819C65.9405 42.936 66.5756 42.0829 66.714 41.1396C67.0012 39.3915 66.8167 37.6119 66.8817 35.849C66.955 34.4865 66.8544 33.122 66.9404 31.7616C66.605 31.8014 66.2717 31.8433 65.9405 31.8832Z" fill="#010101"/>
<path opacity="0.91" d="M53.5903 19.6499C54.4435 19.6604 54.0892 20.4883 53.8523 20.9516C53.7392 20.5219 53.6532 20.0859 53.5903 19.6499Z" fill="#010101"/>
<path opacity="0.91" d="M11.1808 25.8358C12.1178 25.3809 13.0904 26.4667 12.8053 27.3848C12.5957 28.3993 10.9251 28.3595 10.6862 27.3869C10.6338 26.8503 10.5918 26.0936 11.1808 25.8358ZM11.0488 26.343C11.2039 26.3514 11.5141 26.3682 11.6692 26.3766C11.6441 26.6596 11.5204 26.93 11.5309 27.2192C11.3925 26.9258 11.2479 26.6428 11.0865 26.364C11.0949 26.6218 11.1117 27.1375 11.118 27.3953C11.468 28.1038 12.7823 27.6196 12.4658 26.8419C12.4364 26.1251 11.5456 25.7268 11.0488 26.343Z" fill="#010101"/>
<path opacity="0.91" d="M6.12321 29.1404C7.29913 28.585 7.9091 30.3708 7.32009 31.159C6.71012 31.9094 5.31411 31.4671 5.17367 30.5281C4.92633 29.8762 5.54468 29.3039 6.12321 29.1404ZM5.53839 30.3101C5.51324 31.0919 6.56969 31.4231 7.08114 30.8949C7.27608 30.3981 7.02454 29.8783 6.92183 29.392C6.36846 29.4485 5.49018 29.5638 5.53839 30.3101Z" fill="#010101"/>
<path opacity="0.91" d="M6.12355 29.9799C6.44635 29.655 6.59937 30.2734 6.34155 30.4389C6.03132 30.768 5.85944 30.135 6.12355 29.9799Z" fill="#010101"/>
<path opacity="0.91" d="M1.33192 30.8302C2.45334 30.4298 3.40288 31.7881 3.05912 32.7858C2.66505 33.6536 1.48912 33.7605 0.724037 33.3518C0.0344126 32.9661 -0.189867 31.9285 0.336259 31.3227C0.612947 31.0712 0.977672 30.9371 1.33192 30.8302ZM0.918981 31.4946C0.571025 31.7168 0.239837 32.157 0.466218 32.5804C0.904307 33.5761 2.73841 33.3728 2.76776 32.2136C2.75518 31.2703 1.58136 30.8867 0.918981 31.4946Z" fill="#010101"/>
<path opacity="0.91" d="M9.08104 31.0612C9.69521 30.8579 10.4813 31.1534 10.6699 31.8074C10.911 32.497 10.4058 33.499 9.61136 33.4738C8.44173 33.5011 7.92818 31.4448 9.08104 31.0612ZM9.04541 31.3945C8.96575 31.8724 8.73308 32.4845 9.17327 32.8618C9.69101 33.39 10.6951 32.7549 10.4184 32.0527C10.3136 31.3756 9.57992 31.3547 9.04541 31.3945Z" fill="#010101"/>
<path opacity="0.91" d="M35.8604 31.218C36.4075 32.155 35.9904 33.3351 35.9904 34.3622C35.9044 34.2406 35.7305 33.9975 35.6424 33.8738C35.5921 32.9871 35.655 32.0858 35.8604 31.218Z" fill="#010101"/>
<path opacity="0.91" d="M0.635953 32.1845C0.617088 31.7422 1.09919 31.6248 1.41361 31.4697C1.30461 31.8806 1.17675 32.2851 1.03631 32.6855C0.90845 32.5241 0.581454 32.4318 0.635953 32.1845Z" fill="#010101"/>
<path opacity="0.91" d="M9.38751 31.6182C9.7166 31.6224 9.57825 32.1296 9.31414 32.1338C8.98086 32.1275 9.11501 31.614 9.38751 31.6182Z" fill="#010101"/>
<path opacity="0.91" d="M4.47158 32.7551C4.83212 32.6042 5.24296 32.4302 5.63074 32.6063C6.21346 33.0129 6.47128 34.0505 5.78795 34.4949C5.20732 34.7883 4.4087 34.5305 4.10476 33.9541C3.82178 33.5537 4.03769 32.9479 4.47158 32.7551ZM5.63912 34.0924C5.97031 33.6019 5.53222 33.1282 5.23038 32.7677C5.14444 33.1282 4.96417 33.4321 4.68958 33.6732C4.68958 33.4845 4.68748 33.1051 4.68748 32.9165C4.0314 33.5495 4.90129 34.455 5.63912 34.0924Z" fill="#010101"/>
<path opacity="0.91" d="M5.41641 36.178C5.92158 35.3899 6.94448 35.6267 7.73263 35.5869C8.2315 35.6204 8.79536 35.4276 9.24603 35.7127C9.55835 35.8783 9.5898 36.2598 9.72814 36.5511C9.41372 36.7314 9.10349 36.9138 8.79117 37.094C8.81842 39.4417 8.79536 41.804 9.14332 44.1307C9.56674 46.6272 11.1724 48.6562 12.3986 50.7985C13.2475 52.1442 14.1132 53.5108 14.5974 55.0389C14.7945 55.7998 15.0104 56.7368 14.4759 57.4117C13.7003 57.8247 12.7864 57.8624 11.927 57.8917C9.69041 57.898 7.45384 58.0972 5.21728 57.9399C3.64309 57.8079 1.97458 58.1055 0.48843 57.4495C-0.075427 56.8814 0.106935 55.9759 0.245279 55.2737C0.821712 53.2153 2.14437 51.4923 3.18405 49.6582C4.29918 47.9247 5.43947 46.1199 5.78533 44.051C6.11862 41.7558 6.06621 39.4291 6.11233 37.1171C5.85031 36.8341 5.35143 36.6392 5.41641 36.178ZM5.85241 36.0879C5.88804 36.1969 5.95931 36.417 5.99495 36.526L6.29259 36.614C6.79357 35.7106 7.98626 36.2786 8.81004 36.1759C8.60252 36.3247 8.18539 36.6224 7.97578 36.7712C8.42435 36.6916 8.86244 36.5448 9.24603 36.2933C9.12864 36.2116 8.89388 36.0481 8.7744 35.9663C7.8018 36.0103 6.82291 35.9831 5.85241 36.0879ZM6.99689 36.5763C7.0451 36.8613 7.19183 36.9117 7.43917 36.7251C7.38886 36.4379 7.24214 36.3876 6.99689 36.5763ZM6.47705 37.1925C6.45609 39.9699 6.69295 42.8185 5.92577 45.5225C6.03267 45.4743 6.24648 45.3758 6.35338 45.3276C6.56719 44.3655 6.7202 43.3908 6.96754 42.4391C6.7726 44.1223 6.76841 45.9669 5.70148 47.3818C5.77275 47.0275 5.8545 46.6754 5.93835 46.3253C5.84612 46.1891 5.75389 46.057 5.66376 45.925C5.5338 46.4825 5.30322 47.0129 5.01605 47.5096C3.60956 50.004 1.76707 52.2783 0.794468 55.0012C0.601625 55.6678 0.306072 56.4454 0.69595 57.0994C1.83205 57.6654 3.1547 57.5354 4.38512 57.5815C6.39949 57.4893 8.42016 57.4788 10.4345 57.5815C11.6063 57.5564 12.8136 57.6276 13.9371 57.2357C14.327 57.1287 14.4507 56.6571 14.4067 56.3008C14.304 55.194 13.8093 54.1753 13.3293 53.1901C11.8033 50.0984 9.17476 47.474 8.62977 43.9609C8.36146 41.7223 8.38662 39.4605 8.42854 37.2093C7.77665 37.203 7.12685 37.1883 6.47705 37.1925Z" fill="#010101"/>
<path opacity="0.91" d="M36.4747 28.781C36.5837 28.7202 36.7996 28.5986 36.9086 28.5378C36.8709 29.5838 36.8353 30.6298 36.8437 31.6778C36.72 31.6841 36.4747 31.6988 36.3511 31.7051C36.3783 30.7304 36.3448 29.7473 36.4747 28.781Z" fill="#010101"/>
<path opacity="0.91" d="M55.0952 36.71C56.1014 37.2424 56.1621 38.4959 56.3759 39.481C56.1475 39.2945 55.833 39.175 55.7848 38.8501C55.548 38.1374 55.309 37.4289 55.0952 36.71Z" fill="#010101"/>
<path opacity="0.91" d="M70.6824 38.1475C72.2356 37.7241 73.8601 37.5669 75.4658 37.5732C75.579 37.6235 75.8012 37.7199 75.9143 37.7702C75.1409 38.0092 74.3318 38.0092 73.5352 38.0343C72.244 38.0595 71.0786 38.7847 69.7853 38.7659L69.7476 38.6674C69.8901 38.3005 70.368 38.2963 70.6824 38.1475Z" fill="#010101"/>
<path opacity="0.91" d="M6.9326 38.1372C7.60545 39.0658 7.37069 40.401 6.99548 41.4176C6.87391 40.3277 6.91164 39.2293 6.9326 38.1372Z" fill="#010101"/>
<path opacity="0.91" d="M56.3291 40.0049C57.1927 40.6316 57.2724 41.795 57.5679 42.7382C57.3688 42.602 57.1256 42.4909 57.0606 42.2352C56.7777 41.5057 56.5052 40.7679 56.3291 40.0049Z" fill="#010101"/>
<path opacity="0.91" d="M36.7147 42.0805C37.1255 41.9107 37.1486 42.6192 36.7587 42.6003C36.4129 42.5815 36.4296 42.1832 36.7147 42.0805Z" fill="#010101"/>
<path opacity="0.91" d="M51.1644 44.9074C52.6946 44.9515 54.2038 44.6517 55.734 44.6287C55.8011 44.7901 55.8723 44.9515 55.9436 45.115C54.9773 45.1799 54.0047 45.0772 53.0447 45.2282C52.1517 45.377 51.2378 45.3581 50.3428 45.247C50.435 44.8634 50.8752 44.9578 51.1644 44.9074Z" fill="#010101"/>
<path opacity="0.91" d="M43.6562 44.9293C44.239 44.7616 44.8364 44.8769 45.4275 44.923C46.7606 44.9922 48.1 44.9335 49.4332 44.9963C49.5212 45.0907 49.6994 45.2793 49.7895 45.3737C48.4144 45.5057 47.0352 45.403 45.6622 45.3464C44.9747 45.3254 44.2872 45.2081 43.6562 44.9293Z" fill="#010101"/>
<path opacity="0.91" d="M7.75404 46.2544C8.4772 46.0867 9.00123 46.8727 9.018 47.5079C9.03267 48.5119 7.2384 48.4637 7.21324 47.5079C7.20486 47.0425 7.3453 46.5227 7.75404 46.2544ZM7.82531 46.7302C7.65552 47.0551 7.55072 47.4093 7.42914 47.7552C7.84208 47.8034 8.44786 48.166 8.6386 47.598C8.69101 47.2018 8.30951 46.4535 7.82531 46.7302Z" fill="#010101"/>
<path opacity="0.91" d="M7.81459 47.3481C8.11224 47.2727 8.20657 47.3796 8.09337 47.6688C7.79153 47.7422 7.69931 47.6353 7.81459 47.3481Z" fill="#010101"/>
<path opacity="0.91" d="M3.8973 42.9591C4.47374 42.0431 4.95794 41.058 5.70835 40.2656C5.56372 40.819 5.35201 41.3514 5.12144 41.8754C6.71659 41.4478 8.42912 41.3388 10.0326 41.7979C10.368 42.2024 9.76644 42.4749 9.43525 42.5169C7.91976 42.7705 6.34557 42.7537 4.85104 42.389C4.31862 43.1331 3.93503 44.0198 3.15527 44.5501C3.32716 43.9862 3.58498 43.4559 3.8973 42.9591ZM5.34991 42.2192C6.78995 42.2318 8.28239 42.5588 9.6784 42.0725C8.24256 41.9048 6.7606 41.8524 5.34991 42.2192Z" fill="#010101"/>
<path opacity="0.91" d="M10.2651 49.3433C11.047 50.0958 11.5207 51.1061 12.0992 52.0137C11.1497 51.4373 10.6676 50.3347 10.2651 49.3433Z" fill="#010101"/>
<path opacity="0.91" d="M5.92992 50.5198C6.68243 50.3668 7.51249 51.6643 6.70129 52.1233C6.21918 52.4503 5.41427 52.2638 5.23401 51.6769C5.06422 51.1633 5.51489 50.7294 5.92992 50.5198ZM5.72241 50.9243C5.63018 51.0711 5.44362 51.3624 5.34929 51.5092C5.54842 51.4023 5.9425 51.1905 6.13953 51.0836C6.11019 51.5364 5.79157 51.6999 5.34929 51.6831C5.76013 51.9955 6.5902 52.1799 6.73064 51.5008C6.59858 51.1214 6.14373 50.589 5.72241 50.9243Z" fill="#010101"/>
<path opacity="0.91" d="M8.83113 51.0688C9.73875 50.5007 10.9252 51.8003 10.3739 52.6702C9.87709 53.3661 8.64038 53.2173 8.27775 52.4606C8.04718 51.9282 8.39723 51.3685 8.83113 51.0688ZM9.12459 51.4083C8.78082 51.5781 8.43077 51.8967 8.58169 52.3264C8.86467 52.9406 9.87709 52.9867 10.137 52.3222C10.2062 51.8255 9.6591 51.1547 9.12459 51.4083Z" fill="#010101"/>
<path opacity="0.91" d="M8.84923 52.2046C8.6983 52.0013 8.92468 51.5569 9.1888 51.6827C9.34181 51.8839 9.10705 52.3199 8.84923 52.2046Z" fill="#010101"/>
<path opacity="0.91" d="M3.33691 54.9154C3.37255 53.8317 3.78129 52.6788 4.63022 51.9683C4.30113 52.9996 3.95946 54.0308 3.56748 55.0391L3.33691 54.9154Z" fill="#010101"/>
<path opacity="0.91" d="M1.37365 54.819C1.75095 53.8589 2.32319 52.987 2.97509 52.1904C2.29175 53.5823 1.93541 55.1019 1.28142 56.5043C0.967 55.9844 1.1829 55.3451 1.37365 54.819Z" fill="#010101"/>
<path opacity="0.91" d="M6.09947 52.8171C6.46839 52.6683 6.88761 52.662 7.26701 52.7794C7.88327 53.251 8.13271 54.4437 7.39488 54.9153C6.90438 55.2193 6.1372 55.1983 5.77877 54.7015C5.40566 54.1104 5.32181 53.1169 6.09947 52.8171ZM6.1372 53.2573C5.76828 53.4732 5.87309 53.9889 5.96113 54.3326C6.1393 54.8944 6.85617 54.8483 7.25234 54.5527C7.57514 54.2572 7.45147 53.7562 7.30684 53.404C7.1077 52.9345 6.49354 53.0687 6.1372 53.2573Z" fill="#010101"/>
<path opacity="0.91" d="M12.7021 53.0159C13.2765 53.4477 13.528 54.1373 13.7523 54.7913C13.178 54.3574 12.9243 53.6699 12.7021 53.0159Z" fill="#010101"/>
<path opacity="0.91" d="M6.30994 53.4621C6.61388 53.4118 6.62016 53.9338 6.41684 54.0595C6.1129 54.1036 6.10452 53.5858 6.30994 53.4621Z" fill="#010101"/>
</svg>
