<svg width="63" height="51" viewBox="0 0 63 51" fill="none" xmlns="http://www.w3.org/2000/svg">
<path d="M59.6512 0.39719C59.3869 0.281549 59.134 0.141128 58.8792 0.00578962C58.6835 -0.0183552 58.4973 0.0375591 58.3124 0.0896612C57.9712 0.0807657 57.6364 0.169085 57.2952 0.151929C56.6509 0.134138 56.025 0.331745 55.3833 0.346359C55.4386 0.376222 55.5358 0.367326 55.5656 0.423876C55.0624 0.414345 54.5541 0.418793 54.0559 0.510925C53.6588 0.54333 53.2566 0.55985 52.8582 0.531257C52.829 0.545871 52.7693 0.574464 52.7394 0.588443C52.5837 0.596703 52.4281 0.610681 52.273 0.627837C52.3398 0.638639 52.4065 0.64944 52.4732 0.659607C52.2616 0.647534 52.0494 0.663418 51.8397 0.698365C51.6262 0.732676 51.4045 0.708532 51.1948 0.7708C50.7157 0.78732 50.2519 0.915033 49.774 0.942355C49.0859 1.01479 48.394 1.04847 47.7097 1.15966C47.045 1.16665 46.3861 1.25306 45.7272 1.32422C45.8175 1.34011 45.9071 1.35472 45.9973 1.36934C45.6961 1.33503 45.3968 1.38268 45.0982 1.41509C44.2703 1.44431 43.4525 1.58283 42.6259 1.62413C42.2631 1.6146 41.9047 1.69783 41.5407 1.67877C41.0076 1.69783 40.4764 1.76201 39.9503 1.84779C39.2056 1.88146 38.4749 2.07526 37.7264 2.0689C37.0916 2.12482 36.4632 2.25634 35.8247 2.27604C35.7148 2.27922 35.6112 2.32115 35.507 2.35483C34.2686 2.5734 33.0277 2.79071 31.7709 2.87521C31.2384 2.91588 30.6977 2.8517 30.1716 2.96544C29.9219 3.01754 29.6658 3.02262 29.4136 3.05948C29.1874 3.08171 28.9586 3.08235 28.7337 3.1173C28.0774 3.28949 27.3924 3.28059 26.7246 3.38543C25.9882 3.4172 25.2518 3.45405 24.5154 3.489C23.9333 3.59257 23.3431 3.57986 22.7572 3.64276C22.5622 3.64658 22.3665 3.6631 22.1733 3.69741C21.7222 3.72918 21.278 3.82512 20.8269 3.86134C20.3644 3.93822 19.8904 3.8893 19.4291 3.98333C18.9455 4.00684 18.4607 3.98905 17.9766 4.01002C17.669 4.02972 17.3647 3.96936 17.0571 3.95728C16.8894 3.9719 16.7204 3.99414 16.5584 4.04433C16.5279 4.1695 16.4465 4.29785 16.484 4.43001C16.653 4.92435 16.5997 5.45617 16.613 5.96956C16.6105 6.39337 16.6244 6.81972 16.5438 7.23844C16.5349 7.91704 16.5711 8.60008 16.5075 9.27741C16.5476 10.099 16.5374 10.9231 16.519 11.7453C16.4637 11.9657 16.552 12.1932 16.4916 12.4156C16.4078 12.8731 16.5628 13.3293 16.4783 13.7842C16.4554 15.0518 16.4808 16.3201 16.4713 17.5877C16.4891 18.1633 16.4808 18.7409 16.4237 19.3147C16.3849 19.9717 16.4262 20.6318 16.3436 21.2863C16.3538 21.6885 16.2788 22.085 16.2788 22.4872C16.2769 22.8703 16.1873 23.256 16.2591 23.6379C16.3004 23.8259 16.2508 24.014 16.233 24.2015C16.2146 25.9189 16.2292 27.637 16.1994 29.3538C16.1428 29.8164 16.1803 30.2853 16.1047 30.7466C16.0825 31.999 15.9674 33.2481 15.9236 34.4986C15.9624 34.775 15.9681 35.0552 15.9395 35.3329C15.8944 35.6931 15.9694 36.0521 15.9846 36.4118C16.0685 37.1901 16.0253 37.9755 16.0418 38.757C16.0659 39.3295 16.0138 39.9045 16.0685 40.4764C16.111 40.8144 16.0132 41.1505 16.0564 41.4892C15.9986 42.441 16.0481 43.3934 16.024 44.3459C16.0729 45.8092 16.0132 47.2738 16.0202 48.7377C15.9484 49.2295 16.0227 49.7276 16.0412 50.222C16.1606 50.2283 16.2807 50.2309 16.3989 50.2334C16.4402 50.2664 16.4808 50.3008 16.5215 50.3357C17.0546 50.3268 17.5508 50.5352 18.0496 50.6947C18.3591 50.7805 18.624 51.074 18.9665 50.9825C19.1298 50.7932 19.3903 50.7773 19.6178 50.7316C20.1318 50.6496 20.6477 50.5689 21.151 50.4317C21.3822 50.3916 21.6173 50.398 21.8493 50.4234C21.6777 50.4012 21.5055 50.3796 21.3333 50.3573C21.6313 50.3668 21.9306 50.37 22.2273 50.3452C22.5107 50.2969 22.7661 50.1457 23.0514 50.1038C23.2458 50.0752 23.4428 50.0904 23.6379 50.0974C23.4797 50.0752 23.3221 50.0549 23.1639 50.0339C23.3551 50.0428 23.5527 50.0714 23.7383 50.0085C24.1386 49.8763 24.563 49.8318 24.9551 49.6724C25.7823 49.4487 26.6585 49.5053 27.4845 49.2721C27.9312 49.1513 28.3766 49.0262 28.8303 48.9366C29.4854 48.8305 30.1487 48.7847 30.8025 48.6716C31.6381 48.5674 32.4501 48.3342 33.2755 48.1741C33.6771 48.0724 34.0799 47.967 34.4948 47.9365C34.9707 47.899 35.425 47.7446 35.8863 47.6366C36.2682 47.5991 36.6501 47.7014 37.0332 47.6626C37.795 47.5781 38.5353 47.3684 39.2723 47.1651C39.8778 46.97 40.4529 46.6555 41.0959 46.5983C41.4396 46.5844 41.7675 46.4503 42.1131 46.4687C42.8705 46.4891 43.6031 46.707 44.3287 46.9059C45.0328 47.0793 45.738 47.2846 46.3734 47.6417C46.6308 47.7853 46.8354 48.0108 47.1029 48.1366C47.2388 48.2129 47.3329 48.0763 47.4136 47.9898C46.8843 47.5749 46.3277 47.1727 45.6828 46.958C44.8002 46.6778 43.8878 46.5005 43.0008 46.2387C42.9264 46.2292 42.8527 46.2203 42.7784 46.212C43.3706 46.1555 43.971 46.1002 44.5346 45.8962C44.933 45.7488 45.3454 45.6459 45.7577 45.548C46.0005 45.5106 46.2495 45.501 46.4834 45.4184C47.0069 45.3847 47.5057 45.2138 48.0178 45.1147C48.2567 45.0651 48.4874 44.9851 48.7225 44.9222C49.2537 44.8269 49.7893 44.7519 50.3154 44.628C50.7265 44.4984 51.1103 44.2804 51.5398 44.2112C51.8435 44.1273 52.1568 44.0892 52.4617 44.0123C52.9059 44.0187 53.317 43.8369 53.7402 43.7296C54.0375 43.6508 54.3215 43.5269 54.6221 43.4589C54.8743 43.3972 55.1342 43.3769 55.3877 43.3204C55.7143 43.2994 56.0434 43.2549 56.3427 43.1132C56.4482 43.1564 56.5549 43.1977 56.6617 43.2397C56.7284 43.1882 56.7951 43.1374 56.8618 43.0872C56.8224 43.0363 56.783 42.9868 56.743 42.9379C57.0709 42.8991 57.3898 42.8165 57.7101 42.7402C58.0856 42.6843 58.4636 42.6138 58.8157 42.467C59.0901 42.3501 59.4072 42.4016 59.6753 42.2701C59.9867 42.0985 60.3469 42.0636 60.6793 41.9492C60.8413 41.8806 61.0694 41.9638 61.1844 41.8145C61.2276 41.4091 61.1882 41.0012 61.2028 40.5952C61.2409 40.1676 61.3521 39.7399 61.2848 39.3098C61.2708 38.8116 61.2289 38.2963 61.3858 37.8153C61.3744 37.7238 61.3604 37.6336 61.3464 37.5434C61.5351 37.1043 61.403 36.6253 61.4938 36.169C61.5491 35.5317 61.4983 34.89 61.5294 34.2514C61.4951 33.63 61.6971 33.0251 61.6647 32.405C61.652 31.7893 61.6933 31.1736 61.645 30.5585C61.6584 29.4987 61.5936 28.4293 61.7791 27.3803C61.8153 26.6642 61.7569 25.9443 61.8306 25.2295C61.8382 24.6342 61.8801 24.0344 61.8001 23.4415C61.7861 22.8481 61.7696 22.2514 61.8471 21.6612C61.849 21.151 61.9291 20.6458 61.9259 20.1362C61.957 19.5873 61.9532 19.0364 62.018 18.4899C62.0396 17.8323 62.0479 17.174 62.0492 16.5164C62.1356 15.7997 62.0517 15.0728 62.1476 14.3567C62.1584 13.7912 62.2055 13.22 62.1356 12.6571C62.154 12.671 62.1839 12.6812 62.1826 12.7098C62.1788 12.95 62.1692 13.1908 62.1997 13.4303C62.2233 12.7657 62.2264 12.1011 62.2537 11.4377C62.3135 11.1162 62.2144 10.7941 62.2722 10.4738C62.3217 10.221 62.2283 9.97062 62.2525 9.71773C62.2862 9.38034 62.2804 9.04104 62.2487 8.70429C62.2773 8.02632 62.283 7.34709 62.2734 6.66913C62.2175 6.2466 62.2061 5.82152 62.2188 5.39581C62.1495 4.70069 62.1546 3.99858 62.2086 3.30283C62.2328 2.97942 62.1921 2.64838 62.2754 2.33195C62.2646 2.30781 62.2442 2.25825 62.2334 2.2341C62.2588 2.08352 62.283 1.93293 62.3135 1.78425C62.2607 1.64319 62.1978 1.50595 62.1152 1.38077C62.1082 1.31469 62.1019 1.24925 62.0955 1.18317C62.0669 1.15585 62.0104 1.1012 61.9818 1.07388C61.9761 1.03576 61.9659 0.959511 61.9602 0.921387C61.6152 0.946803 61.3038 0.778424 60.9753 0.704084C60.5407 0.573193 60.0813 0.543965 59.6512 0.39719ZM58.7121 0.662783C58.9669 0.622118 59.2058 0.696459 59.4205 0.830526C59.6912 0.998269 60.028 0.957605 60.3044 1.10819C60.3647 1.0904 60.4245 1.07197 60.4842 1.05291C60.5007 1.08786 60.5172 1.12281 60.5337 1.15775C60.0763 1.10819 59.6143 1.23972 59.1543 1.25179C58.5914 1.36298 58.017 1.3795 57.4496 1.45956C57.0594 1.53708 56.6655 1.60126 56.2823 1.70927C55.9087 1.81792 55.5142 1.8122 55.138 1.90815C54.0293 1.99011 52.9281 2.17819 51.8149 2.19852C51.4172 2.23728 51.022 2.30336 50.6223 2.31734C50.3294 2.33322 50.0504 2.43616 49.7613 2.47619C48.9258 2.55752 48.0864 2.57721 47.2503 2.65092C46.1447 2.74623 45.0417 2.8911 43.9348 2.96417C44.0307 2.97815 44.1267 2.99212 44.222 3.00674C43.6203 2.99848 43.0319 3.15415 42.4321 3.18465C41.899 3.18655 41.3723 3.27869 40.8385 3.27106C40.0596 3.37145 39.2761 3.44452 38.5009 3.57605C38.0924 3.58494 37.6883 3.64785 37.2797 3.65992C36.8616 3.74443 36.4321 3.67072 36.0147 3.76412C35.6677 3.77238 35.3265 3.84545 34.979 3.85054C34.951 3.86642 34.8945 3.89692 34.8665 3.91281C34.4173 3.87341 33.9706 3.99096 33.5195 3.98016C33.1846 4.03798 32.8428 4.01828 32.5079 4.0761C31.4608 4.139 30.4436 4.42429 29.3983 4.49609C28.4529 4.69561 27.5042 4.88114 26.5435 4.99488C26.4044 5.06731 26.2443 5.05206 26.093 5.07557C25.2257 5.1982 24.3641 5.36467 23.4917 5.446C23.2039 5.52161 22.9078 5.56355 22.6098 5.54703C22.1193 5.51463 21.6383 5.65632 21.1478 5.62074C20.7691 5.59341 20.3955 5.66077 20.0187 5.68427C19.8687 5.5877 19.6953 5.66013 19.5364 5.68999C19.4513 5.60739 19.3649 5.52479 19.2772 5.4441C18.8941 5.41296 18.6107 5.1264 18.2771 4.96946C18.0433 4.86653 17.833 4.72102 17.6214 4.57869C17.6182 4.55264 17.6125 4.49927 17.6093 4.47258C17.941 4.51389 18.2746 4.49546 18.6062 4.47386C19.1806 4.51134 19.7499 4.41032 20.3192 4.35885C20.9184 4.33471 21.5036 4.18158 22.1009 4.14345C22.775 4.04243 23.4593 4.0564 24.1348 3.97126C24.8928 3.87405 25.6584 3.92933 26.419 3.88421C26.9584 3.8391 27.4934 3.75078 28.0329 3.70948C28.057 3.6955 28.1059 3.66882 28.1307 3.65547C29.8609 3.42673 31.6044 3.34032 33.3403 3.17385C33.6332 3.11476 33.9287 3.0671 34.2248 3.02834C34.8112 2.98069 35.3729 2.77419 35.9613 2.74432C36.678 2.656 37.3973 2.5823 38.1108 2.4711C38.3294 2.45204 38.5518 2.46666 38.7653 2.40947C39.3803 2.31289 40.0011 2.25952 40.6149 2.15532C41.0501 2.09432 41.4905 2.13371 41.927 2.10766C42.732 2.01871 43.5599 2.09305 44.3472 1.87638C44.6217 1.89671 44.8962 1.86685 45.1681 1.83317C45.8041 1.78552 46.437 1.70482 47.073 1.67051C48.915 1.46973 50.7665 1.35981 52.5984 1.07325C53.1067 1.04084 53.6131 0.981114 54.1227 0.97476C54.7409 0.959511 55.3413 0.769529 55.9608 0.790497C56.4958 0.615129 57.0639 0.706625 57.6116 0.621483C57.9776 0.629743 58.3537 0.571922 58.7121 0.662783ZM61.687 1.60316C61.7346 1.68576 61.8102 1.75693 61.8344 1.85033C61.7734 2.21314 61.8712 2.58039 61.7982 2.94384C61.7473 3.70059 61.7797 4.45861 61.7772 5.21599C61.7893 5.69952 61.748 6.18687 61.8319 6.66659C61.8528 7.43033 61.8636 8.1947 61.8522 8.95844C61.8528 9.10585 61.8649 9.25263 61.8801 9.3994C61.9195 9.71837 61.8312 10.0354 61.8541 10.355C61.884 11.1944 61.8331 12.0337 61.8433 12.8731C61.8083 13.2823 61.7772 13.6915 61.7689 14.1026C61.6832 14.6897 61.7143 15.2838 61.6946 15.8747C61.7118 16.0691 61.6743 16.261 61.659 16.4541C61.6362 17.174 61.6781 17.8978 61.5993 18.6151C61.5186 19.6508 61.551 20.6941 61.41 21.7266C61.403 22.3823 61.3991 23.0387 61.4087 23.6951C61.4112 23.9289 61.4703 24.1621 61.4265 24.3959C61.4487 24.7142 61.4023 25.0326 61.4176 25.3515C61.4474 25.7518 61.3858 26.1521 61.4049 26.5537C61.3667 27.0213 61.4405 27.4941 61.361 27.9585C61.3229 28.7845 61.1342 29.6093 61.2428 30.4378C61.2028 31.0281 61.3115 31.6184 61.2733 32.2106C61.2441 32.6344 61.3108 33.0626 61.2346 33.4826C61.206 34.3099 61.0071 35.1334 61.1107 35.9632C60.9518 36.3355 61.0541 36.7453 61.009 37.1361C60.9506 37.267 60.9258 37.4106 60.9366 37.5548C60.976 38.0237 60.8209 38.4819 60.8381 38.9508C60.861 39.3733 60.847 39.7978 60.8051 40.2184C60.7256 40.6466 60.7593 41.0838 60.772 41.5159C60.5382 41.5489 60.305 41.5896 60.0693 41.6118C59.8018 41.7554 59.519 41.8996 59.2102 41.9155C58.9446 41.9225 58.7127 42.0591 58.4713 42.15C57.7793 42.3978 56.9953 42.3323 56.3503 42.718C55.8592 42.535 55.3439 42.4187 54.8229 42.3666C54.2567 42.3666 53.6798 42.3336 53.1257 42.4715C53.3939 42.3762 53.6855 42.3717 53.953 42.2739C54.3584 42.1296 54.8006 42.1557 55.2066 42.0165C55.8535 41.7389 56.5619 41.6607 57.2488 41.5394C57.5004 41.4796 57.7342 41.3634 57.9852 41.2998C58.5291 41.2102 59.0628 41.0476 59.6207 41.0571C59.6436 40.3518 59.5699 39.6459 59.6131 38.9419C59.6938 38.4622 59.6772 37.9748 59.7204 37.4919C59.7224 37.1698 59.6626 36.8476 59.7033 36.5255C59.7408 36.2561 59.7935 35.9854 59.7738 35.7122C59.7401 35.202 59.8494 34.6924 59.7834 34.1834C59.6925 33.4203 59.7942 32.6566 59.831 31.8941C59.9352 30.9455 59.8723 29.9886 59.932 29.0374C59.8926 28.444 59.8456 27.8473 59.8971 27.252C60.0127 26.2182 59.9759 25.1768 60.0509 24.1405C60.0845 21.9153 60.0585 19.6896 60.0744 17.465C60.1335 17.0883 60.1131 16.7064 60.1315 16.3264C60.1296 15.7317 60.19 15.1389 60.1443 14.5454C60.2338 14.1096 60.1862 13.6565 60.204 13.213C60.2942 12.3908 60.2218 11.5616 60.2599 10.7369C60.2294 9.73997 60.3037 8.74241 60.2701 7.74612C60.3253 6.51854 60.3044 5.28843 60.333 4.06085C60.3673 3.71774 60.387 3.37399 60.3889 3.02961C60.4105 2.99975 60.4543 2.94066 60.4766 2.91079C60.4041 2.82692 60.3444 2.71382 60.2243 2.69286C59.8475 2.55498 59.4523 2.71382 59.0679 2.70938C58.714 2.7888 58.341 2.70429 57.9947 2.83201C57.6059 2.96353 57.1979 3.02072 56.7888 3.03914C56.4761 3.09569 56.1476 3.03279 55.8477 3.15478C55.558 3.25581 55.253 3.30601 54.9474 3.32316C54.2999 3.33587 53.6804 3.5608 53.0355 3.59765C52.6174 3.66119 52.1942 3.63768 51.773 3.64721C50.7907 3.61989 49.8185 3.78573 48.8464 3.90455C48.049 4.04433 47.2369 4.07737 46.4401 4.22669C45.5112 4.38744 44.5689 4.4154 43.6324 4.49864C42.7809 4.70641 41.9092 4.83857 41.0311 4.84683C40.5831 4.84365 40.1434 4.98344 39.6936 4.91926C39.848 4.9396 40.0017 4.95866 40.1555 4.97836C39.5951 4.94913 39.0429 5.06477 38.4876 5.11624C37.3795 5.24776 36.2764 5.43139 35.1658 5.53369C34.7445 5.56736 34.3353 5.68682 33.9109 5.69762C33.3034 5.81389 32.6846 5.83931 32.0746 5.93716C31.5174 5.95241 30.9671 6.05344 30.4105 6.08076C30.1437 6.13477 29.8692 6.13223 29.601 6.18179C29.0654 6.24469 28.5431 6.40671 27.9998 6.4029C26.9572 6.50711 25.9405 6.78541 24.8941 6.85022C24.1754 6.91947 23.4606 7.14694 22.7344 7.05672C22.397 7.09293 22.0634 7.18443 21.7209 7.15203C21.4776 7.10056 21.2387 7.26322 21.13 7.47417C20.9858 7.43859 20.8428 7.39729 20.696 7.37187C20.623 7.45638 20.5493 7.54025 20.4743 7.62349C20.5232 7.72642 20.6128 7.81982 20.6109 7.93991C20.6026 8.44822 20.6325 8.95717 20.609 9.46548C20.5944 10.7363 20.6261 12.007 20.6058 13.2778C20.5937 13.9158 20.6261 14.555 20.5867 15.1916C20.5232 15.5398 20.5848 15.8963 20.52 16.2445C20.4438 17.3723 20.5257 18.5071 20.4292 19.633C20.4171 20.4361 20.4146 21.2399 20.4018 22.0437C20.3771 22.275 20.3428 22.5081 20.3841 22.7407C20.2995 23.5883 20.283 24.4404 20.2849 25.2918C20.2995 25.1755 20.3135 25.0599 20.3319 24.9455C20.3447 25.6095 20.3472 26.276 20.2951 26.9381C20.2938 27.1478 20.3466 27.3574 20.3034 27.5665C20.2614 27.8454 20.3726 28.118 20.3561 28.3976C20.3396 28.7197 20.3389 29.0419 20.3453 29.364C20.2811 28.8875 20.3917 28.4065 20.3091 27.9318C20.3135 28.4878 20.2703 29.0495 20.3345 29.6016C20.3173 29.6874 20.2989 29.7738 20.2957 29.8622C20.2818 30.65 20.2932 31.4398 20.2309 32.2264C20.2487 33.3612 20.2633 34.503 20.1102 35.629C20.0861 36.9029 20.1 38.1769 20.0949 39.4515C20.0778 39.8524 20.1089 40.2552 20.0568 40.6543C19.9857 41.2471 20.081 41.845 20.02 42.4391C20.0448 42.758 19.9545 43.0713 19.9469 43.3903C19.9266 43.4741 19.91 43.5599 19.9056 43.6482C19.8795 44.4755 19.9577 45.3066 19.8522 46.1301C19.8611 46.4014 19.8141 46.6822 19.8897 46.9472C19.9005 47.2032 19.9755 47.4561 19.9526 47.7135C19.8675 48.2681 19.8961 48.833 19.924 49.3909C20.1032 49.4373 20.2881 49.4188 20.4692 49.3998C20.4902 49.3705 20.5327 49.3121 20.5537 49.2829C20.6687 49.2638 20.7824 49.2447 20.8949 49.2238C20.9229 49.2339 20.9794 49.2549 21.0074 49.2651C21.1796 49.2022 21.3562 49.1552 21.5354 49.1227C21.8334 48.9436 22.1847 48.915 22.5196 48.8622C22.8525 48.8139 23.1626 48.664 23.4987 48.6367C24.2345 48.5649 24.9557 48.392 25.6648 48.1906C26.1299 48.0807 26.6083 48.0496 27.0798 47.979C27.2202 47.9441 27.3645 47.9276 27.5087 47.9397C27.4166 47.9276 27.3244 47.9149 27.2323 47.9009C27.5805 47.8577 27.9293 47.8113 28.2642 47.7052C29.1054 47.5171 29.96 47.3938 30.7924 47.1683C31.3782 47.0037 31.9958 47.0044 32.5785 46.829C32.8663 46.7642 33.2012 46.6498 33.4725 46.8258C33.9655 47.0933 34.4935 47.2776 35.0222 47.4593C34.6092 47.4873 34.2095 47.5997 33.801 47.6594C33.3231 47.7281 32.8612 47.8723 32.3878 47.9657C31.8046 48.1055 31.2098 48.1843 30.6189 48.284C29.7942 48.455 28.9428 48.4816 28.1276 48.704C27.7209 48.7765 27.3327 48.9283 26.9216 48.9785C26.0575 49.1316 25.1558 49.1189 24.3273 49.4392C23.6932 49.7003 22.972 49.5866 22.3398 49.8547C22.1625 49.9278 21.9681 49.8973 21.7813 49.9043C21.5081 49.8941 21.2501 49.9951 20.987 50.0536C20.4933 50.1635 20.0022 50.2938 19.497 50.344C19.335 50.3573 19.1749 50.3904 19.0161 50.431C18.8972 49.8134 18.9824 49.1799 18.9207 48.5572C18.8629 48.1093 18.9042 47.6575 18.889 47.2077C18.8991 46.7629 18.8458 46.3194 18.8756 45.8753C18.8655 44.9235 18.9601 43.9691 18.8356 43.0211C18.7873 42.6576 18.8985 42.2987 18.8794 41.9346C18.9207 41.235 18.8407 40.531 18.936 39.8352C18.9805 39.2037 18.922 38.567 19.0046 37.9386C19.0358 37.1533 18.9868 36.3641 19.0713 35.5813C19.0809 34.6695 19.1438 33.7603 19.194 32.8504C19.2073 32.0905 19.2442 31.3318 19.2823 30.5732C19.3452 30.0134 19.302 29.4485 19.3446 28.8875C19.4348 28.2826 19.3503 27.6669 19.4449 27.062C19.4284 26.6604 19.3725 26.2576 19.4259 25.8547C19.3954 25.4754 19.3922 25.0935 19.4443 24.7161C19.457 23.8679 19.5085 23.0203 19.457 22.1733C19.4538 21.7711 19.464 21.3676 19.4265 20.9667C19.396 20.7119 19.4646 20.4596 19.4576 20.2055C19.4557 19.2314 19.5053 18.2529 19.4075 17.2821C19.3833 16.6422 19.4538 16.0056 19.4615 15.3664C19.4475 15.3422 19.4202 15.2939 19.4062 15.2698C19.4392 15.1815 19.4621 15.0893 19.4557 14.9947C19.4526 13.4049 19.4672 11.8158 19.4691 10.226C19.3655 8.94891 19.3947 7.66415 19.4075 6.3832C19.5739 6.34635 19.7347 6.2898 19.877 6.19513C20.2182 6.19449 20.5518 6.10236 20.8936 6.12142C21.3829 6.14811 21.869 6.07313 22.3531 6.01722C22.6969 6.08521 23.0349 5.97211 23.3704 5.91111C24.652 5.75671 25.9202 5.49175 27.2024 5.33036C27.6707 5.2808 28.118 5.07621 28.5946 5.11052C28.4986 5.09844 28.402 5.08701 28.3048 5.0743C28.7242 5.06159 29.1264 4.93007 29.5438 4.89893C30.3095 4.83349 31.0618 4.66892 31.8268 4.59649C32.3726 4.54375 32.9076 4.41921 33.4559 4.39316C33.8423 4.33661 34.2349 4.38744 34.6213 4.33725C36.1761 4.08182 37.7588 4.10469 39.3142 3.8588C39.8073 3.85753 40.2889 3.73553 40.7807 3.71647C41.7986 3.63133 42.8267 3.6326 43.8306 3.42483C43.9958 3.38861 44.1629 3.33587 44.3326 3.37654C45.102 3.32952 45.86 3.16813 46.6308 3.1389C47.4943 3.03787 48.3641 2.96417 49.2333 3.02262C49.0573 3.00864 48.8813 2.99911 48.706 2.97624C49.2149 2.95464 49.7245 2.91207 50.2322 2.88856C50.1311 2.86886 50.0276 2.86568 49.9246 2.85869C50.7259 2.7259 51.5385 2.69921 52.3429 2.59183C52.9656 2.56832 53.5845 2.49779 54.1995 2.40058C54.8114 2.34784 55.4227 2.28112 56.0282 2.17565C56.6928 1.99329 57.386 1.9539 58.0614 1.82618C58.5539 1.82364 59.0285 1.66861 59.5209 1.66988C60.0108 1.58537 60.5102 1.6559 61.0001 1.57775C61.2289 1.55614 61.4601 1.56758 61.687 1.60316ZM59.8685 3.11984C59.9047 3.21896 59.9505 3.31808 59.9517 3.4261C59.9702 3.8912 59.9181 4.35631 59.932 4.82141C59.9308 5.37357 59.9339 5.92572 59.9098 6.47661C59.8653 6.87944 59.9003 7.28419 59.9231 7.68639C59.8571 8.29827 59.913 8.91396 59.8742 9.52712C59.8926 10.3334 59.866 11.1391 59.8571 11.9448C59.8386 12.1341 59.8208 12.3247 59.8393 12.5154C59.8126 12.9817 59.8361 13.4487 59.8075 13.9151C59.8088 14.3815 59.7401 14.8441 59.7579 15.3111C59.7338 15.8613 59.7637 16.4141 59.6995 16.9625C59.6601 18.1913 59.6817 19.4208 59.6563 20.6496C59.6607 21.1992 59.7109 21.7508 59.6474 22.2985C59.629 22.4649 59.648 22.632 59.6518 22.7998C59.5375 22.6314 59.568 22.423 59.5483 22.2324C59.1149 22.0538 58.7191 21.7711 58.2387 21.7311C58.2273 21.6987 58.2038 21.6338 58.1917 21.6014C58.2165 21.5798 58.266 21.5354 58.2902 21.5138C58.327 21.1846 58.4001 20.8491 58.3239 20.52C58.2876 20.3478 58.3264 20.1724 58.3264 19.999C58.4046 19.1044 58.4732 18.2091 58.4922 17.3113C58.4662 16.6638 58.5126 16.0164 58.6003 15.3759C58.6091 14.8885 58.5787 14.4006 58.5958 13.9132C58.6142 13.2543 58.559 12.5954 58.6003 11.9372C58.6079 11.4333 58.5806 10.9288 58.6257 10.4262C58.5456 9.93885 58.6314 9.44452 58.5431 8.95844C58.6485 8.32686 58.5774 7.68639 58.5939 7.04973C58.5983 6.88071 58.5875 6.7117 58.5602 6.54523C58.517 6.25041 58.5596 5.95304 58.5456 5.65759C58.5138 5.1766 58.6301 4.70323 58.6009 4.22161C58.6161 4.2 58.6466 4.1568 58.6619 4.13456C58.66 3.99541 58.6689 3.85498 58.7222 3.72473C58.6416 3.51632 58.4656 3.35176 58.24 3.31554C58.1796 3.38289 58.1116 3.4585 58.1104 3.55508C58.0862 3.95728 58.1523 4.35821 58.1485 4.76042C58.1606 5.10035 58.1243 5.44092 58.1498 5.78085C58.1726 6.12079 58.118 6.46453 58.1815 6.80193C58.2476 7.11708 58.1561 7.43414 58.1707 7.75056C58.1949 8.49206 58.097 9.23547 58.205 9.97316C58.1752 10.3531 58.1428 10.7375 58.1981 11.1175C58.1669 11.3494 58.1606 11.5845 58.1637 11.8183C58.1745 12.1735 58.1282 12.5293 58.1745 12.8832C58.2076 13.1425 58.1415 13.4005 58.1676 13.6597C58.1377 14.3624 58.2222 15.0696 58.1135 15.7686C58.0697 17.0578 58.0945 18.3476 57.9382 19.6298C57.8638 20.2646 57.9725 20.912 57.8257 21.5398C57.7037 21.5589 57.583 21.5875 57.4756 21.651C57.2697 21.7698 57.0277 21.7844 56.8059 21.8588C56.4266 21.9795 56.0568 22.1657 55.6495 22.16C55.3064 22.1619 54.9722 22.2375 54.6335 22.2794C53.9924 22.3086 53.3538 22.383 52.7261 22.5164C52.4878 22.5622 52.2768 22.7058 52.0322 22.7229C51.576 22.7496 51.1287 22.8513 50.6795 22.9326C50.2385 23.0952 49.7651 23.0107 49.3083 23.0527C49.0669 23.0813 48.8254 23.1175 48.5909 23.1836C48.2021 23.3017 47.7884 23.3024 47.4015 23.4339C47.0025 23.5502 46.5939 23.4994 46.1879 23.4854C46.2292 23.4974 46.2705 23.5089 46.3118 23.521C46.0424 23.5063 45.8105 23.6773 45.543 23.6665C44.8758 23.6862 44.2328 23.8717 43.5777 23.9803C43.2587 23.9873 42.9423 24.0439 42.6227 24.0452C42.042 24.0077 41.4873 24.2453 40.9078 24.244C40.6435 24.2472 40.4001 24.3552 40.1485 24.4169C39.5614 24.427 38.9915 24.6107 38.4025 24.584C38.2214 24.6996 38.0009 24.6786 37.7988 24.7212C37.3763 24.8044 36.9468 24.8445 36.5255 24.9341C35.7383 25.0167 34.9631 25.1742 34.1847 25.3109C33.8715 25.3134 33.5538 25.3229 33.2539 25.4246C32.6757 25.5377 32.0848 25.5866 31.5136 25.7385C31.1075 25.7906 30.7003 25.842 30.2955 25.9088C29.6461 26.0765 28.9752 26.1375 28.3175 26.2519C27.9712 26.2766 27.6402 26.3847 27.3009 26.4514C26.8917 26.4908 26.4895 26.588 26.0784 26.6001C25.7861 26.6064 25.5059 26.7074 25.213 26.7157C24.8267 26.7373 24.4531 26.8517 24.0693 26.8936C23.6226 26.9114 23.1753 26.9508 22.7356 27.0359C22.343 27.13 21.9363 27.0791 21.5411 27.1579C21.4178 27.1147 21.2888 27.0931 21.158 27.0798C21.0652 27.264 20.8809 27.1903 20.7246 27.1586C20.7513 26.1718 20.7361 25.1857 20.7399 24.1996C20.818 23.3996 20.7996 22.5933 20.8091 21.7902C20.8288 21.7152 20.8561 21.6421 20.8892 21.5722C20.9349 21.7469 20.9464 21.9274 20.9483 22.1072C21.0213 22.1428 21.0944 22.1796 21.1662 22.2165C21.2221 22.1339 21.2774 22.0507 21.3321 21.9687C21.3187 21.7946 21.3016 21.6199 21.2412 21.4553C21.3251 21.1757 21.6313 21.1103 21.841 20.9572C22.0253 20.8117 22.2127 20.6693 22.4008 20.5295C22.3735 20.8155 22.4605 21.0988 22.4167 21.3848C22.3881 21.6224 22.4224 21.8626 22.404 22.1015C22.397 22.1803 22.3055 22.2108 22.2565 22.2642C22.064 22.4058 21.888 22.578 21.7927 22.8023C21.8582 22.8506 21.923 22.8989 21.9865 22.9485C22.1257 22.81 22.2673 22.674 22.4262 22.5596C22.3906 22.8525 22.4205 23.1518 22.3512 23.4409C22.3588 23.4784 22.3728 23.5546 22.3804 23.5921C22.2286 23.8399 21.8931 23.9257 21.7838 24.2104C21.7876 24.3107 21.8645 24.373 21.9446 24.4181C22.0742 24.2745 22.2292 24.1557 22.4141 24.0954C22.451 24.0286 22.4872 23.9619 22.524 23.8958C22.6721 24.1011 22.8125 24.3133 22.9072 24.549C22.9428 24.5566 23.0139 24.5719 23.0502 24.5795C23.1137 24.5198 23.1772 24.4601 23.2401 24.4016C23.1969 24.0534 22.824 23.8977 22.7426 23.5686C22.6981 23.4434 22.7305 23.31 22.7483 23.1836C22.7039 22.9529 22.7089 22.7172 22.7217 22.4846C22.864 22.6117 22.9961 22.7502 23.1162 22.8989C23.1639 22.8945 23.2605 22.8868 23.3088 22.883C23.3399 22.8087 23.3704 22.7343 23.4002 22.6606C23.2312 22.3862 22.9409 22.226 22.7369 21.982C22.6702 21.8689 22.7223 21.726 22.7197 21.6021C22.7693 21.2621 22.763 20.9184 22.7553 20.5759C23.2134 20.7621 23.65 21.0093 24.042 21.3085C24.1049 21.6434 24.2568 21.9446 24.434 22.2324C24.516 22.2095 24.6177 22.2082 24.6551 22.118C24.6971 21.9852 24.6278 21.8531 24.6005 21.7253C24.5401 21.6466 24.481 21.5671 24.4277 21.4839C24.8642 21.7228 25.3204 21.9242 25.7531 22.1701C25.9437 22.4719 26.1045 22.7985 26.3402 23.0686C26.4037 23.0247 26.4673 22.9815 26.5302 22.9383C26.4844 22.6371 26.2881 22.397 26.1267 22.1498C26.3135 22.1028 26.506 22.092 26.6948 22.0583C26.825 22.0005 26.8981 21.8664 26.9851 21.7628C26.6261 21.7539 26.2646 21.8175 25.917 21.9052C25.5485 21.7819 25.2098 21.5862 24.8648 21.4096C25.0948 21.4102 25.3058 21.2895 25.3553 21.0563C25.0542 21.0817 24.7543 21.1484 24.4506 21.1293C24.1373 21.0391 23.8558 20.8644 23.5832 20.6897C23.3126 20.5149 23.0108 20.3948 22.7382 20.2233C23.0425 19.9634 23.3647 19.7245 23.683 19.4824C23.953 19.2886 24.2745 19.4691 24.5236 19.6076C24.5929 19.5288 24.6596 19.4494 24.7244 19.368C24.549 19.2689 24.3724 19.1717 24.1913 19.0821C24.3648 18.9461 24.5528 18.8311 24.7225 18.692C24.9436 18.5084 25.2448 18.481 25.4824 18.326C25.7226 18.3533 25.9285 18.4944 26.1636 18.5389C26.2995 18.5573 26.3923 18.4556 26.4724 18.3641C26.1731 18.2587 25.9018 18.0915 25.6082 17.974C25.6127 17.7001 25.8351 17.4955 25.8503 17.2249C25.7804 17.2312 25.7112 17.2414 25.6413 17.256C25.4354 17.5006 25.3395 17.812 25.1901 18.0909C25.091 18.2739 24.8616 18.2923 24.6831 18.3521C24.5217 18.5363 24.3057 18.6539 24.0954 18.7746C24.1735 18.5605 24.1881 18.3343 24.185 18.1093C24.1182 18.1201 24.0522 18.1341 23.9867 18.1513C23.8501 18.4283 23.8577 18.7524 23.7243 19.0313C23.6442 19.2175 23.4485 19.3026 23.3062 19.4335C23.155 19.572 22.979 19.6794 22.7922 19.7645C22.7833 19.3287 22.7541 18.8871 22.8379 18.4563C23.0934 18.2853 23.4632 18.1659 23.5591 17.8476C23.2833 17.7827 23.0749 18.0553 22.8367 18.1513C22.7445 17.7681 22.768 17.3608 22.8201 16.9726C22.9466 16.9288 23.0756 16.8907 23.2065 16.8652C23.3062 16.7305 23.4288 16.552 23.2687 16.4071C22.9949 16.5247 22.7464 16.6892 22.491 16.8424C22.3233 16.6848 22.1657 16.5145 21.9814 16.376C21.8963 16.3074 21.78 16.3525 21.6802 16.348C21.6828 16.4376 21.6853 16.5278 21.6872 16.6181C21.9477 16.8678 22.2826 17.0501 22.4878 17.3513C22.484 17.636 22.491 17.9206 22.5183 18.2046C22.4001 18.1036 22.2845 17.9988 22.1771 17.8857C22.0977 17.8857 22.0176 17.8869 21.9369 17.8889C21.9458 18 21.8861 18.1392 21.9763 18.2282C22.1129 18.4016 22.3239 18.4842 22.4948 18.6157C22.524 19.1025 22.5317 19.5987 22.4567 20.0822C22.2978 19.9825 22.1346 19.8853 21.9535 19.8319C21.5595 19.7188 21.2348 19.4583 20.8733 19.2746C20.8771 18.7365 20.8689 18.1977 20.8816 17.6595C20.9496 17.1956 20.9152 16.7261 20.9464 16.2597C21.0226 15.6478 20.9623 15.0296 21.0118 14.4152C20.9832 13.7417 20.9794 13.0643 21.0296 12.3908C21.0175 11.521 21.0658 10.6505 21.0334 9.78064C21.0779 9.10522 21.0283 8.42853 21.062 7.75311C21.137 7.78106 21.2113 7.80966 21.2838 7.84015C21.5722 7.77852 21.8537 7.69211 22.1422 7.63238C22.7394 7.48434 23.3609 7.51547 23.9677 7.43732C24.7365 7.28864 25.5263 7.30261 26.2887 7.11517C26.609 7.02114 26.9584 7.05481 27.2641 6.91248C27.9223 6.88389 28.5774 6.79684 29.2261 6.68184C30.251 6.50139 31.2924 6.45437 32.3249 6.34445C33.5563 6.19449 34.7826 6.0223 36.0134 5.8787C36.4601 5.83359 36.9099 5.79737 37.3509 5.70969C37.9024 5.66521 38.4431 5.53432 38.9965 5.50192C39.7425 5.45426 40.4808 5.33227 41.2261 5.28271C41.709 5.21599 42.2015 5.26301 42.6767 5.13593C43.0014 5.09908 43.3045 4.94913 43.6368 4.96692C44.0104 4.83857 44.4094 4.87796 44.7951 4.83222C45.17 4.7763 45.5544 4.84429 45.9255 4.75406C46.6676 4.64859 47.4072 4.51388 48.1557 4.45543C48.8241 4.36965 49.4888 4.24829 50.1623 4.20127C51.0315 4.03353 51.9198 4.1479 52.7966 4.07737C53.0635 4.02781 53.3354 4.03925 53.6054 4.02336C53.8895 3.89057 54.2103 3.91662 54.5083 3.83783C54.8832 3.73807 55.2842 3.83974 55.6508 3.69487C56.358 3.45278 57.1236 3.59956 57.8321 3.37399C58.4452 3.18528 59.0933 3.19608 59.7274 3.19736C59.7745 3.1713 59.8215 3.14525 59.8685 3.11984ZM17.9162 5.26047C18.2491 5.46634 18.5992 5.65187 18.8814 5.92826C18.8858 6.11634 18.9011 6.30378 18.9157 6.49122C18.9957 6.7422 18.854 6.99445 18.9061 7.24988C18.976 7.71943 18.9112 8.19407 18.9646 8.66426C19.0377 9.26851 18.976 9.87976 19.0542 10.4834C19.1107 10.9275 19.0046 11.3717 19.0504 11.8158C19.0516 12.0064 19.0224 12.1958 19.0243 12.3864C19.0396 13.9748 19.0103 15.5633 19.0021 17.1518C19.0053 17.5769 19.0777 17.9988 19.0618 18.4245C19.0599 19.0345 19.1012 19.6495 19.0294 20.2563C19.0053 20.5111 19.0141 20.7678 19.0161 21.0239C19.0313 21.5138 18.9938 22.0056 19.0548 22.4929C19.0078 22.7502 19.0688 23.0044 19.1012 23.2592C19.0764 23.2865 19.0269 23.3418 19.0021 23.3697C19.0269 23.4352 19.051 23.5006 19.0751 23.5661C19.0313 24.0757 19.0288 24.5871 18.9913 25.0974C18.99 25.457 18.9347 25.8173 18.99 26.1763C18.9011 26.8942 19.0319 27.6243 18.9144 28.3398C18.915 28.4027 18.9226 28.4656 18.9373 28.5278C18.8725 28.8411 18.9068 29.1639 18.8604 29.4796C18.8115 29.7745 18.861 30.0725 18.8502 30.3686C18.8045 30.9194 18.8604 31.4748 18.7752 32.0225C18.7765 32.8034 18.6729 33.5805 18.6876 34.3614C18.6856 34.728 18.5764 35.0851 18.5865 35.453C18.5961 36.0045 18.5668 36.556 18.5846 37.1075C18.5681 37.1355 18.5351 37.1927 18.5185 37.2212C18.6431 37.8719 18.4957 38.5416 18.5071 39.1999C18.3845 40.3397 18.5154 41.4904 18.4048 42.6303C18.4544 42.9245 18.4239 43.2231 18.434 43.5199C18.4404 43.8624 18.4671 44.2055 18.4588 44.5486C18.3896 45.6675 18.4722 46.7864 18.455 47.9072C18.4639 48.2891 18.427 48.6748 18.5008 49.0522C18.5281 49.4925 18.4772 49.9335 18.5109 50.3738C18.3705 50.3421 18.2313 50.3052 18.0903 50.2715C17.8374 50.1578 17.5731 50.072 17.3189 49.9596C17.0838 49.8484 16.7916 49.8687 16.6041 49.6622C16.5704 49.6571 16.5037 49.6469 16.47 49.6412C16.4904 49.2968 16.4281 48.9563 16.4294 48.6125C16.5101 47.9149 16.4497 47.2077 16.4802 46.5062C16.4611 46.0328 16.5139 45.5595 16.4758 45.0867C16.4408 44.6502 16.484 44.2131 16.4669 43.7759C16.4872 42.8438 16.4542 41.9092 16.5329 40.9796C16.5234 40.639 16.5304 40.2959 16.4974 39.9572C16.4872 39.5131 16.4764 39.0683 16.4948 38.6248C16.4427 38.2499 16.505 37.8732 16.4916 37.497C16.4573 37.1126 16.4802 36.725 16.4262 36.3419C16.4154 35.6417 16.3067 34.9415 16.3874 34.2419C16.4497 33.6796 16.3906 33.1115 16.4643 32.5505C16.4936 32.0517 16.4605 31.5491 16.5241 31.0516C16.5692 30.4658 16.5876 29.878 16.6613 29.2948C16.6562 27.8321 16.6575 26.3694 16.6778 24.9067C16.6594 23.8596 16.6721 22.8106 16.7725 21.7673C16.8132 21.2907 16.7846 20.811 16.8462 20.3357C16.8424 19.8039 16.8703 19.2727 16.8792 18.7416C16.9542 18.1513 16.9002 17.5565 16.9135 16.9637C16.9263 16.538 16.8424 16.1161 16.8678 15.6904C16.9383 14.5696 16.8964 13.4462 16.932 12.3247C16.951 11.1588 16.9568 9.99159 16.9161 8.82692C16.9313 8.91905 16.9466 9.01118 16.9625 9.10331C17.0324 8.61152 16.9777 8.11464 17.0025 7.62031C17.0451 7.28228 17.0165 6.93981 17.066 6.60241C17.1499 6.01722 17.0616 5.42567 17.1118 4.83793C17.4028 4.93261 17.6487 5.11751 17.9162 5.26047ZM21.8467 20.0682C21.8702 20.093 21.9179 20.1426 21.942 20.1674C21.9814 20.1705 22.0602 20.1775 22.0996 20.1813C22.1155 20.2163 22.1479 20.2855 22.1638 20.3199C21.813 20.6325 21.4013 20.8593 21.0233 21.1351C20.9807 21.1103 20.8962 21.0601 20.8542 21.0353C20.8409 20.5505 20.8701 20.0657 20.8625 19.5809C21.1885 19.7474 21.4795 19.9933 21.8467 20.0682ZM58.4236 22.2101C58.5138 22.233 58.585 22.2921 58.6447 22.3626C58.3461 22.4147 58.0481 22.4751 57.7431 22.4796C57.2755 22.5297 56.8129 22.62 56.3472 22.6861C55.8477 22.8436 55.3197 22.8106 54.8121 22.9224C54.0737 23.0393 53.3233 23.0736 52.5952 23.2509C52.3131 23.2821 52.0538 23.4129 51.7692 23.4288C51.0315 23.5705 50.2754 23.5858 49.5428 23.7573C49.6082 23.7662 49.6737 23.7751 49.7391 23.7853C49.6756 23.7834 49.612 23.7815 49.5485 23.7802C49.5243 23.7967 49.476 23.8291 49.4519 23.845C49.2384 23.7783 49.0205 23.8793 48.8044 23.8863C48.1392 23.9257 47.4739 23.9835 46.8188 24.1093C45.8009 24.2707 44.7837 24.4435 43.7671 24.617C43.4259 24.6392 43.0967 24.7485 42.7536 24.7562C42.1621 24.8515 41.5705 24.9569 40.9891 25.1044C40.754 25.1545 40.512 25.145 40.2724 25.1603C40.0132 25.2054 39.7489 25.1882 39.4883 25.2187C39.1408 25.3001 38.7894 25.3604 38.4374 25.4208C38.161 25.4557 37.8795 25.4456 37.6057 25.5059C37.2848 25.558 36.9697 25.6781 36.6399 25.6413C36.732 25.6533 36.8235 25.6667 36.915 25.6807C36.3101 25.6972 35.7364 25.9285 35.134 25.9678C34.5965 26.1076 34.0399 26.1324 33.4966 26.243C32.7735 26.405 32.0473 26.5556 31.3128 26.6503C30.9589 26.7551 30.5859 26.6769 30.2301 26.7684C29.9575 26.8263 29.6792 26.8517 29.406 26.9101C28.7401 27.0779 28.0386 27.0118 27.3784 27.2158C27.1039 27.3193 26.8091 27.3085 26.5207 27.3066C26.7011 27.3244 26.8828 27.332 27.0626 27.3486C26.3567 27.2977 25.6584 27.4477 24.9709 27.59C24.5262 27.6758 24.0636 27.6294 23.629 27.7698C23.2859 27.8105 22.9358 27.8111 22.6022 27.916C22.1581 27.9331 21.7184 28.0208 21.2723 27.989C21.0754 27.9553 20.9095 28.0786 20.738 28.1523C20.7373 28.0106 20.7361 27.8689 20.7335 27.7279C21.076 27.7317 21.4337 27.7673 21.7578 27.6326C21.9477 27.557 22.1536 27.5315 22.3531 27.5798C22.7166 27.5392 23.0641 27.4178 23.4257 27.3682C23.7154 27.339 24.0083 27.3441 24.2968 27.3015C25.4157 27.1389 26.5346 26.9908 27.651 26.8148C27.9681 26.7729 28.2604 26.6261 28.5825 26.6166C29.1397 26.5905 29.6773 26.4323 30.2224 26.3275C30.5376 26.2932 30.8502 26.2423 31.1641 26.1972C31.1851 26.1839 31.2283 26.1559 31.2499 26.1419C32.0663 26.1489 32.8536 25.8795 33.6593 25.7804C33.9623 25.7633 34.2483 25.6457 34.5507 25.6292C35.0628 25.593 35.5553 25.429 36.068 25.3985C36.3743 25.3788 36.6723 25.3083 36.9735 25.2568C37.5205 25.1958 38.0619 25.1005 38.6064 25.0249C39.0944 24.9226 39.5976 24.9303 40.0812 24.8006C40.6753 24.6316 41.3056 24.6767 41.9003 24.5122C42.2409 24.4264 42.5954 24.4651 42.9385 24.4022C43.2835 24.3412 43.6374 24.3546 43.9806 24.279C44.3815 24.1475 44.8085 24.1462 45.2234 24.0947C45.1941 24.0871 45.1351 24.0725 45.1052 24.0649C45.7031 24.0934 46.2718 23.8247 46.8684 23.8831C47.3716 23.899 47.8399 23.6836 48.3342 23.6283C48.9341 23.4542 49.5606 23.4866 50.1743 23.4174C50.6738 23.3951 51.1446 23.1918 51.6459 23.1778C52.1453 23.1842 52.5971 22.9421 53.0851 22.8779C53.5133 22.8087 53.9371 22.695 54.3743 22.7058C54.8051 22.7223 55.2149 22.5507 55.6457 22.5691C56.1216 22.5056 56.5931 22.397 57.0448 22.2356C57.224 22.2121 57.3994 22.1676 57.5697 22.1085C57.8568 22.024 58.1504 22.1193 58.4236 22.2101ZM59.0253 22.7007C59.0558 22.7305 59.0863 22.7617 59.1168 22.7922C59.1156 23.1219 59.1575 23.4631 59.0488 23.7815C58.6663 24.0471 58.1803 23.9587 57.7444 24.0197C57.1948 24.1036 56.6216 24.0058 56.0847 24.183C55.8789 24.2498 55.6647 24.2853 55.4487 24.3044C54.7015 24.3908 53.9867 24.6844 53.2293 24.6869C52.7998 24.7231 52.388 24.8775 51.9547 24.887C51.6453 24.9328 51.332 24.9347 51.02 24.9538C50.7462 25.105 50.4272 25.1202 50.1235 25.1628C49.8281 25.2162 49.5288 25.2448 49.2282 25.2467C48.8794 25.2492 48.5496 25.4004 48.1995 25.3884C48.2389 25.3928 48.3184 25.403 48.3584 25.4081C48.467 25.4189 48.4658 25.4824 48.3501 25.4672L48.2834 25.4653C47.9981 25.4551 47.7351 25.5955 47.4511 25.6127C47.1118 25.6279 46.7801 25.7042 46.4414 25.7232C46.0265 25.7613 45.6237 25.877 45.2075 25.9056C45.1617 25.9367 45.1154 25.9685 45.069 26.0009C44.2894 26.0308 43.5186 26.1693 42.7517 26.3033C42.2529 26.3357 41.7808 26.5213 41.2801 26.5435C40.3582 26.696 39.4312 26.8269 38.4965 26.8669C38.093 26.9552 37.6762 26.9807 37.2778 27.0931C36.9379 27.1052 36.6011 27.1637 36.2745 27.2583C35.6125 27.3854 34.9466 27.5023 34.2934 27.6643C33.7311 27.658 33.2075 27.914 32.6458 27.9337C31.6762 28.1167 30.7085 28.3188 29.7326 28.47C28.8773 28.5215 28.0361 28.6994 27.1872 28.8131C26.757 28.8709 26.3211 28.876 25.8948 28.9618C25.4812 29.1105 25.0389 29.1499 24.6202 29.2827C24.2962 29.3926 23.9435 29.4015 23.6328 29.5514C23.4187 29.5603 23.2026 29.5661 22.9911 29.608C22.4224 29.7383 21.8346 29.7605 21.266 29.8863C21.2031 29.859 21.1395 29.8317 21.0754 29.805C20.9387 29.9416 20.825 30.0992 20.724 30.2637C20.7538 29.9181 20.7316 29.5711 20.745 29.2255C20.7659 29.0292 20.7583 28.8315 20.7335 28.6365C21.2787 28.6187 21.8029 28.3957 22.3512 28.4306C22.599 28.451 22.81 28.2889 23.0514 28.268C23.5045 28.2349 23.9518 28.1561 24.4016 28.0989C24.8521 27.9998 25.3191 27.9776 25.7525 27.8117C26.1515 27.7654 26.5581 27.7724 26.9553 27.6993C27.5824 27.6186 28.1974 27.4477 28.8316 27.4248C29.5197 27.3301 30.1958 27.1668 30.8852 27.0817C31.4742 27.0137 32.081 26.9927 32.6465 26.8034C33.2793 26.6725 33.9147 26.5435 34.5622 26.5079C34.688 26.4711 34.8176 26.4507 34.9472 26.4412C34.9993 26.4107 35.0508 26.3802 35.1016 26.3504C35.716 26.3637 36.3006 26.1515 36.9004 26.06C37.3579 25.9316 37.8331 25.8929 38.3052 25.8725C38.7208 25.7906 39.1332 25.6921 39.55 25.619C39.8467 25.544 40.1574 25.6 40.4548 25.5282C41.5051 25.429 42.523 25.112 43.5764 25.0326C44.2887 24.8972 45.0073 24.7968 45.7196 24.6666C46.3988 24.5325 47.0794 24.3609 47.7751 24.3609C48.0451 24.3031 48.3228 24.3019 48.5941 24.2517C48.8883 24.204 49.1888 24.2358 49.4811 24.1767C49.9075 24.0909 50.3389 24.035 50.7621 23.9365C50.9381 23.9263 51.1154 23.9301 51.2888 23.8997C51.7438 23.7929 52.2165 23.8031 52.6619 23.6544C53.2484 23.587 53.8259 23.446 54.4162 23.4047C54.4372 23.3913 54.4785 23.364 54.4994 23.3507C54.6767 23.3519 54.8546 23.3475 55.0262 23.3005C55.5243 23.2363 56.0193 23.148 56.5143 23.0647C56.5937 23.0431 56.6693 23.0101 56.7443 22.979C56.7697 22.9904 56.8193 23.0133 56.8447 23.0247C57.5608 22.8417 58.3245 22.9644 59.0253 22.7007ZM59.6378 24.0757C59.6112 24.5414 59.6048 25.009 59.6067 25.4761C59.5635 26.0905 59.547 26.7074 59.4911 27.3219C59.4701 28.4421 59.5552 29.5654 59.4676 30.6844C59.479 31.1736 59.4313 31.6609 59.4186 32.1496C59.2884 33.2456 59.4199 34.3493 59.371 35.4485C59.195 36.3056 59.3684 37.1901 59.2585 38.0555C59.2376 38.3961 59.214 38.7373 59.1518 39.074C59.0711 39.4775 59.1638 39.8854 59.1785 40.2908C58.9014 40.2044 58.6327 40.0754 58.416 39.8797C58.254 39.7272 58.0545 39.6268 57.86 39.5226C57.9579 39.4743 58.0564 39.4286 58.1548 39.3841C58.1523 38.9845 58.1752 38.581 58.1027 38.1858C58.0729 37.8687 58.125 37.551 58.0932 37.234C58.0481 36.6411 58.1313 36.0483 58.097 35.4561C58.0729 35.134 58.1396 34.808 58.0691 34.4903C57.9153 33.7565 58.1415 33.0086 58.0456 32.2716C58.0303 31.938 58.1618 31.6222 58.179 31.2931C58.132 30.591 58.1606 29.8863 58.1822 29.1836C58.144 28.6892 58.1129 28.1885 58.1904 27.6967C58.2177 27.508 58.2177 27.3168 58.2038 27.1274C58.1383 26.6382 58.2667 26.1508 58.2851 25.6635C58.2076 25.2543 58.2616 24.8286 58.3652 24.4283C58.5609 24.3616 58.761 24.3095 58.958 24.2459C59.0736 24.2949 59.1899 24.3737 59.3221 24.3501C59.4726 24.3304 59.5476 24.1799 59.6378 24.0757ZM57.6535 24.4823C57.7387 24.8286 57.7946 25.18 57.8194 25.5358C57.8346 25.661 57.8588 25.7868 57.8543 25.9138C57.712 26.757 57.8346 27.618 57.731 28.4656C57.8028 29.0984 57.7647 29.7363 57.7679 30.3724C57.7685 30.5395 57.7209 30.7002 57.6948 30.8642C57.6675 31.0738 57.7444 31.2816 57.7234 31.4919C57.583 32.2798 57.7107 33.0874 57.609 33.8797C57.5874 34.1714 57.6808 34.4617 57.6287 34.7547C57.5697 35.1143 57.6624 35.4765 57.63 35.838C57.623 35.9613 57.5874 36.0852 57.6078 36.2103C57.677 36.5522 57.6078 36.9036 57.6637 37.2479C57.6211 37.9558 57.6739 38.6642 57.6414 39.3727C57.3238 39.5245 56.9762 39.6389 56.6191 39.6078C56.4609 39.6491 56.3027 39.6923 56.1483 39.7476C55.6533 39.9236 55.1266 39.9693 54.6202 40.1021C54.1614 40.1733 53.7268 40.3436 53.2706 40.4274C52.8944 40.5462 52.4922 40.5412 52.1212 40.679C51.7507 40.7343 51.3816 40.8042 51.008 40.8354C50.703 40.8639 50.4533 41.0546 50.175 41.1638C49.8522 41.2928 49.5078 41.3589 49.1666 41.4218C48.6348 41.5216 48.11 41.6575 47.5781 41.7567C46.9351 41.7999 46.308 41.9695 45.7056 42.1913C45.2316 42.2637 44.7538 42.3025 44.283 42.3921C44.067 42.4346 43.8897 42.2732 43.7073 42.1875C42.6018 41.6302 41.3913 41.228 40.1447 41.2032C39.5659 41.1931 39.0226 41.4161 38.4577 41.5051C38.1705 41.5603 37.8744 41.5788 37.5949 41.6728C37.0376 41.8755 36.4842 42.1055 35.8977 42.2141C35.5553 42.2802 35.2306 42.4543 34.8735 42.4251C34.7458 42.4893 34.6276 42.5706 34.5272 42.6735C34.5761 42.7517 34.6244 42.8311 34.6721 42.9105C35.2547 42.6926 35.8596 42.5496 36.462 42.4003C37.0529 42.2593 37.6019 41.9714 38.2049 41.8806C38.6858 41.7853 39.1675 41.6931 39.644 41.5781C40.5386 41.4587 41.4479 41.6391 42.2898 41.939C42.7396 42.1195 43.2047 42.2656 43.6292 42.5045C43.0866 42.6532 42.5547 42.8502 41.9918 42.9061C41.0755 43.0897 40.1561 43.2638 39.2444 43.469C38.8129 43.5002 38.398 43.6234 37.9869 43.7512C37.6101 43.8318 37.2232 43.8674 36.8515 43.9767C36.5611 44.0612 36.244 44.0263 35.9695 44.168C35.7446 44.1775 35.5165 44.1889 35.3005 44.2595C34.8703 44.3885 34.4275 44.4831 33.9776 44.5124C33.55 44.6648 33.0912 44.6852 32.6534 44.7989C32.3485 44.8072 32.0568 44.9241 31.7506 44.9069C31.5212 45.0099 31.2632 45.1554 31.0059 45.0607C30.476 44.8783 29.9035 44.7697 29.3431 44.8542C28.3055 44.9648 27.3263 45.3511 26.3033 45.5385C25.9818 45.6052 25.6546 45.5512 25.3312 45.529C25.2683 45.6325 25.206 45.7374 25.145 45.8435C25.2289 45.907 25.3102 45.975 25.4024 46.0271C25.734 45.8753 26.1045 45.9401 26.4552 45.8931C26.8968 45.7844 27.3314 45.6503 27.7667 45.5188C28.2553 45.3511 28.7725 45.3034 29.2789 45.2195C29.6824 45.1471 30.0941 45.1776 30.4912 45.2678C30.0363 45.2284 29.6023 45.4102 29.1518 45.3981C29.242 45.4083 29.3316 45.4203 29.4206 45.433C28.8417 45.5366 28.2515 45.5906 27.6815 45.7412C27.3028 45.9134 26.8822 45.9312 26.4908 46.0633C25.844 46.1949 25.2302 46.456 24.5745 46.5469C24.0865 46.6314 23.6061 46.754 23.1137 46.8131C22.6568 46.9446 22.1854 47.0012 21.7107 47.0082C21.8232 47.0234 21.935 47.0355 22.0469 47.0482C21.4725 46.9866 20.9222 47.3672 20.3516 47.2001C20.3275 46.8404 20.2627 46.4827 20.297 46.1212C20.3656 45.4693 20.3802 44.8084 20.3078 44.1559C20.318 43.307 20.5086 42.467 20.4711 41.6162C20.4635 41.0673 20.466 40.517 20.5245 39.9712C20.5518 39.5245 20.5365 39.0772 20.5372 38.6305C20.5677 37.3591 20.4851 36.0833 20.6147 34.8157C20.6496 34.3512 20.6738 33.8874 20.6878 33.4222C20.6554 32.4228 20.67 31.4201 20.7367 30.4238C20.7742 30.4715 20.8485 30.5662 20.886 30.6132C20.9851 30.549 21.083 30.4836 21.1802 30.4188C21.3295 30.4111 21.4947 30.4346 21.6199 30.3374C21.8264 30.1741 22.0996 30.2339 22.3417 30.2065C22.89 30.0579 23.4562 29.9765 24.014 29.8666C24.7041 29.6582 25.417 29.5426 26.1077 29.338C26.466 29.3265 26.8244 29.31 27.1726 29.2185C27.7527 29.1772 28.3201 29.0292 28.9002 28.9872C29.4994 28.9192 30.0877 28.7756 30.6888 28.7229C31.3191 28.6276 31.9335 28.4541 32.5619 28.3506C33.3346 28.2159 34.1053 28.0818 34.8735 27.9268C35.6855 27.7908 36.4791 27.5551 37.2975 27.4553C37.842 27.3682 38.3828 27.2393 38.9356 27.2266C39.6631 27.2208 40.3696 27.0175 41.0927 26.9641C42.0248 26.7958 42.9658 26.675 43.8935 26.4825C44.9209 26.4253 45.9204 26.147 46.9478 26.0841C47.5 26.0072 48.0515 25.9094 48.5903 25.7658C49.1584 25.6298 49.7448 25.6057 50.3243 25.5574C50.8072 25.4894 51.2767 25.3185 51.7692 25.3242C52.0716 25.3217 52.362 25.2257 52.6606 25.1958C53.0673 25.1685 53.4676 25.0866 53.8729 25.0465C54.4099 24.9817 54.9169 24.7485 55.4621 24.739C55.8122 24.7371 56.133 24.5662 56.4806 24.5503C56.8726 24.5363 57.2609 24.4728 57.6535 24.4823ZM58.0888 40.1987C58.2679 40.3569 58.4973 40.4363 58.7134 40.5297C58.7203 40.5551 58.735 40.6047 58.7419 40.6295C58.5621 40.6638 58.3791 40.686 58.2019 40.735C57.4483 40.9853 56.6807 41.2223 55.8865 41.2928C55.9799 41.3049 56.0739 41.317 56.1673 41.3297C55.701 41.2611 55.2988 41.54 54.8699 41.6658C54.6488 41.7395 54.4111 41.7014 54.1849 41.7471C53.9397 41.7834 53.7217 41.9155 53.479 41.9619C53.1842 42.021 52.8862 42.0642 52.5977 42.15C52.287 42.2548 51.9528 42.2052 51.6383 42.2898C50.8587 42.4893 50.0644 42.6246 49.2931 42.8559C48.7739 42.9277 48.2828 43.1342 47.7618 43.1907C47.3335 43.2613 46.918 43.3833 46.4973 43.483C45.8429 43.4557 45.2685 43.0872 44.7373 42.7371C44.7462 42.7269 44.7634 42.7059 44.7722 42.6951C45.1351 42.638 45.4972 42.5744 45.86 42.5198C46.2902 42.4302 46.6994 42.2542 47.1365 42.197C47.4447 42.1373 47.7649 42.1608 48.0648 42.0591C48.5255 41.9511 48.9887 41.8494 49.4538 41.763C49.7162 41.6874 49.978 41.6093 50.2449 41.5508C50.7278 41.3379 51.2399 41.1791 51.7685 41.1359C52.3785 41.0889 52.9497 40.8531 53.5476 40.74C53.9562 40.6714 54.3406 40.498 54.7549 40.4592C55.0357 40.437 55.3013 40.3283 55.5821 40.308C55.8782 40.2794 56.1565 40.1733 56.4367 40.0824C56.8555 40.0119 57.2882 39.9998 57.6955 39.8721C57.8346 39.9706 57.9617 40.085 58.0888 40.1987ZM52.8652 42.5191C52.2667 42.6888 51.7355 43.0281 51.1401 43.2041C50.5232 43.4208 49.8782 43.5459 49.2327 43.6438C48.5967 43.7473 47.9479 43.7823 47.3062 43.7105C48.007 43.5078 48.7371 43.4582 49.443 43.281C49.9742 43.0923 50.5346 43.0192 51.0791 42.8864C51.2138 42.8584 51.3473 42.8298 51.4775 42.7885C51.9306 42.6494 52.4122 42.6589 52.8652 42.5191ZM55.7855 42.908C55.2918 42.9461 54.8051 43.0452 54.3171 43.1272C53.6912 43.267 53.1022 43.5472 52.4643 43.6406C52.0379 43.6965 51.5989 43.7213 51.1948 43.8814C50.7208 44.0676 50.2506 44.2868 49.7429 44.3637C48.664 44.5022 47.6232 44.8345 46.5564 45.0391C46.1161 45.1185 45.6739 45.2335 45.2227 45.2081C45.3339 45.2189 45.4451 45.2303 45.5557 45.2431C44.9197 45.2691 44.3478 45.5951 43.7232 45.6878C43.3636 45.7863 42.9836 45.7634 42.6278 45.8823C42.1716 45.9128 41.7427 46.0888 41.2878 46.1218C40.9065 46.1891 40.538 46.3118 40.1549 46.3728C39.7203 46.4662 39.2768 46.5259 38.8549 46.672C38.2493 46.8036 37.6419 46.9313 37.0313 47.0361C36.5605 47.0514 36.1081 47.3093 35.6341 47.1962C34.9961 47.0889 34.3607 46.9198 33.7863 46.6155C34.3639 46.5265 34.925 46.3601 35.4975 46.2419C35.8927 46.1212 36.3069 46.104 36.7117 46.0341C37.5091 45.9388 38.2747 45.6827 39.0633 45.5417C39.604 45.501 40.1199 45.3199 40.6492 45.2157C40.9536 45.1782 41.2388 45.0582 41.5407 45.008C42.218 44.8631 42.8934 44.7112 43.5618 44.5276C43.7416 44.5104 43.9164 44.4622 44.0867 44.4031C44.5098 44.3275 44.9324 44.248 45.3454 44.1298C45.867 44.0117 46.4097 43.8223 46.9453 43.9704C47.4028 44.0498 47.871 44.1114 48.3362 44.0631C49.5478 43.9735 50.7659 43.7454 51.8753 43.2327C52.3086 43.0262 52.7737 42.9035 53.2325 42.7695C54.0807 42.6424 54.962 42.6405 55.7855 42.908ZM45.7075 43.6171C44.6839 43.7594 43.7105 44.1438 42.6831 44.2741C42.0852 44.4819 41.4625 44.5969 40.8424 44.7163C40.5234 44.8046 40.2012 44.8904 39.8683 44.9044C39.7342 44.9724 39.5906 45.0162 39.4413 45.0359L39.3873 45.062C39.0359 45.1331 38.6719 45.13 38.3294 45.2469C37.5917 45.4597 36.833 45.5722 36.0801 45.7088C35.364 45.7717 34.6899 46.043 33.9814 46.1479C33.7666 46.1745 33.5589 46.2387 33.3454 46.2749C33.1268 46.3213 32.9324 46.186 32.7488 46.0888C32.3631 45.8797 31.9945 45.6408 31.6254 45.4038C32.4577 45.1363 33.3556 45.1636 34.1936 44.9127C34.573 44.8504 34.9542 44.7976 35.3234 44.6884C35.7859 44.5683 36.2631 44.5213 36.7269 44.4094C37.2187 44.255 37.741 44.236 38.2296 44.0695C38.7684 43.8884 39.3447 43.8935 39.8899 43.7423C40.1809 43.659 40.4815 43.5961 40.7858 43.6088C40.693 43.5936 40.6003 43.5783 40.5075 43.5644C40.8436 43.586 41.1709 43.4976 41.4981 43.4373C42.3673 43.253 43.2251 43.0255 44.0829 42.7949C44.6636 42.9881 45.1204 43.4379 45.7075 43.6171ZM32.6744 46.3988C32.1991 46.5049 31.7213 46.6034 31.2429 46.6968C30.8064 46.8207 30.3603 46.9141 29.906 46.944C29.9746 46.9497 30.0426 46.9554 30.1106 46.9618C29.7071 47.0285 29.3119 47.1371 28.9021 47.1664C28.5088 47.1772 28.1396 47.3214 27.7584 47.4015C27.2768 47.5279 26.7812 47.5705 26.2875 47.6245C25.8128 47.6963 25.3407 47.8005 24.8941 47.9797C24.699 47.9981 24.5084 48.047 24.3178 48.0902C23.9619 48.1493 23.6004 48.1722 23.2458 48.2427C22.7725 48.3641 22.2909 48.448 21.8137 48.5553C21.4922 48.6354 21.1573 48.6494 20.8403 48.7529C20.6789 48.7587 20.5175 48.7599 20.3555 48.7587C20.344 48.4708 20.3466 48.1798 20.4139 47.8983C20.5372 47.864 20.6566 47.8196 20.7691 47.7605C20.9089 47.7598 21.0372 47.7115 21.163 47.6588C21.3823 47.5699 21.6199 47.5584 21.8493 47.5171C22.6715 47.3487 23.4917 47.1696 24.3209 47.0374C24.9805 46.8982 25.6336 46.7273 26.2906 46.5774C26.9311 46.3791 27.5837 46.2228 28.2318 46.0525C28.4878 45.9846 28.7528 45.9769 29.012 45.9382C29.3272 45.8473 29.6442 45.7507 29.9727 45.724C30.3883 45.7056 30.7911 45.5919 31.2009 45.5322C31.6972 45.813 32.1782 46.1193 32.6744 46.3988Z" fill="black"/>
<path d="M37.5358 11.4998C37.4824 11.4331 37.4386 11.3499 37.3566 11.3149C37.2734 11.367 37.1965 11.4293 37.1177 11.4897C37.2721 11.7864 37.4684 12.059 37.6781 12.3189C38.1724 13.0019 38.7551 13.6138 39.3028 14.2524C39.5227 14.5669 39.74 14.8833 39.9598 15.1972C40.1517 15.2988 40.2038 15.0123 40.1841 14.8769C39.6796 14.0916 39.0188 13.4251 38.4355 12.7001C38.1432 12.2941 37.8103 11.9186 37.5358 11.4998Z" fill="black"/>
<path d="M38.8248 14.4075C38.5224 14.0396 38.2549 13.631 37.8578 13.3546C37.8082 13.4734 37.7529 13.5903 37.6983 13.7079C37.8813 13.8833 38.0141 14.1018 38.1844 14.288C38.4811 14.6076 38.7715 14.9393 38.9926 15.3167C39.0587 15.4285 39.1724 15.4971 39.2715 15.5753C39.3293 15.452 39.3789 15.3256 39.4253 15.1985C39.1686 14.9812 39.0333 14.6654 38.8248 14.4075Z" fill="black"/>
<path d="M48.467 16.3062C48.4015 16.3081 48.27 16.3119 48.2039 16.3144C48.4142 16.7122 48.8113 16.9682 49.0687 17.3361C49.0674 17.4365 49.0661 17.5375 49.0649 17.6392C49.2434 17.765 49.3965 17.596 49.4976 17.4581C49.5624 17.3514 49.4626 17.2808 49.3953 17.2141C49.3914 17.1817 49.3851 17.1156 49.3813 17.0826C49.3133 17.0419 49.2447 17.0013 49.176 16.9612C49.1049 16.831 49.0058 16.7204 48.8564 16.6842C48.6684 16.6308 48.5546 16.4694 48.467 16.3062Z" fill="black"/>
<path d="M49.4785 19.0028C48.7745 18.3001 48.0514 17.6145 47.3785 16.88C47.3716 16.9067 47.3576 16.9613 47.35 16.9887C47.2585 16.9829 47.1657 16.9798 47.0729 16.9772C47.1002 17.2549 47.3716 17.3883 47.5444 17.5713C47.9027 17.8915 48.1849 18.2849 48.54 18.6083C48.7669 18.8065 48.8552 19.1166 49.096 19.304C49.2358 19.2195 49.3661 19.1204 49.4785 19.0028Z" fill="black"/>
<path d="M36.8346 18.8758C36.623 18.5944 36.4293 18.2938 36.1605 18.0613C36.0734 18.1623 35.9877 18.264 35.9012 18.3656C36.1414 18.6636 36.3498 19.001 36.6599 19.2323C36.7946 19.1961 36.9617 19.0067 36.8346 18.8758Z" fill="black"/>
<path d="M47.8177 18.8389C47.6977 18.7391 47.5718 18.6464 47.4416 18.5593C47.4391 18.5974 47.4346 18.6731 47.4327 18.7105C47.3838 18.7105 47.2853 18.7099 47.2364 18.7099C47.3749 18.9761 47.5782 19.2055 47.7968 19.4076C47.9181 19.4343 48.1367 19.4228 48.1297 19.2538C48.1272 19.1 48.0198 18.9698 47.9683 18.8287C47.9302 18.8313 47.8552 18.8364 47.8177 18.8389Z" fill="black"/>
<path d="M35.5705 19.1578C35.5451 19.1496 35.4943 19.1324 35.4689 19.1235C35.4702 19.1636 35.4721 19.243 35.4727 19.2824C35.4238 19.2824 35.3259 19.2824 35.2776 19.2824C35.2795 19.311 35.2833 19.3688 35.2853 19.398C35.528 19.689 35.7561 19.9921 35.9886 20.2907C36.3654 20.698 36.6984 21.1441 37.0866 21.5406C37.2658 21.7242 37.3674 21.9739 37.5701 22.134C37.7461 22.2389 37.8211 22.0139 37.9189 21.9129C37.8916 21.7178 37.7207 21.6168 37.5854 21.4986C36.8426 20.7819 36.2542 19.9273 35.5705 19.1578Z" fill="black"/>
<path d="M36.5297 21.1492C36.2825 20.8925 36.0951 20.5774 35.7984 20.3708L35.8435 20.5557C35.7539 20.5532 35.6637 20.5526 35.5734 20.5526C35.6446 20.8035 35.8454 20.9789 35.9966 21.1816C36.2336 21.4879 36.531 21.7509 36.7051 22.1023C36.7921 22.2192 36.8334 22.4435 37.0215 22.4187C37.1238 22.3717 37.2566 22.2967 37.2661 22.1735C37.0933 21.7852 36.7959 21.4745 36.5297 21.1492Z" fill="black"/>
<path d="M9.93702 28.4899C9.84997 28.4683 9.75911 28.4817 9.66952 28.481C9.66634 28.5763 9.66317 28.6729 9.65999 28.7695C9.93066 29.0389 10.2731 29.2333 10.5089 29.5358C10.5101 29.856 10.5406 30.1737 10.5603 30.4927C10.4288 30.3872 10.3151 30.2627 10.1842 30.1578C10.1016 30.1439 10.0171 30.1458 9.93257 30.1426C9.92749 30.2379 9.91732 30.3332 9.9224 30.4298C9.9834 30.527 10.0666 30.6077 10.1397 30.6947C10.2808 30.7653 10.4282 30.8333 10.5413 30.9457C10.573 31.2005 10.5578 31.4591 10.5438 31.7158C10.5622 31.9827 10.5406 32.2489 10.4949 32.512C10.1708 32.2629 9.74894 32.2216 9.41155 31.9992C9.15231 31.8315 8.86512 31.712 8.61223 31.5335C8.50485 31.2107 8.43051 30.8784 8.39048 30.541C8.33075 30.5435 8.21193 30.5486 8.15221 30.5511C8.11027 30.8129 8.12234 31.0811 8.20685 31.3333C7.93745 31.2513 7.66359 31.1567 7.44692 30.9699C7.27981 30.8263 7.06823 30.7602 6.87507 30.6617C6.73656 30.3948 6.68573 30.0898 6.5631 29.8147C6.46461 29.783 6.35469 29.8325 6.32292 29.9348C6.33308 30.1826 6.46207 30.412 6.45635 30.6623C6.1323 30.7456 5.79237 30.7182 5.4626 30.7672C5.49945 30.8803 5.52995 30.9959 5.5541 31.1135C6.00459 31.095 6.45444 30.9769 6.90494 31.0417C7.06315 31.055 7.17815 31.1732 7.30078 31.2583C7.51936 31.4292 7.81164 31.4648 8.02449 31.6446C7.87136 31.6987 7.71633 31.7508 7.56384 31.8092C7.60514 31.9204 7.65406 32.0297 7.72078 32.1282C7.98256 32.0513 8.23099 31.9395 8.48833 31.8537C8.91976 31.982 9.2508 32.3163 9.67969 32.449C9.8684 32.5164 10.0419 32.62 10.216 32.7172C9.84171 33.0914 9.3658 33.3278 8.94899 33.6461C8.75011 33.5254 8.54933 33.4079 8.3549 33.2795C8.285 33.2998 8.21384 33.3202 8.14204 33.3405C8.1001 33.4307 8.0569 33.521 8.02132 33.6156C8.06389 33.7173 8.19986 33.6811 8.2831 33.7217C8.39175 33.7529 8.46863 33.8437 8.55504 33.9104C8.19668 34.1258 7.82816 34.3266 7.49331 34.5789C7.24932 34.4124 6.9564 34.3368 6.6673 34.2961C6.55039 34.3133 6.37565 34.3959 6.41822 34.542C6.68064 34.7098 6.9958 34.7676 7.26838 34.9163C7.21246 35.1761 7.18069 35.4475 7.22009 35.7118C7.26838 35.7887 7.37449 35.7321 7.44629 35.7461C7.59306 35.4665 7.45455 35.1291 7.59116 34.8546C8.03911 34.6894 8.3854 34.3349 8.83462 34.1735C8.85686 34.347 8.86384 34.5217 8.86639 34.6964C8.9528 34.7295 9.03667 34.7638 9.12181 34.7975C9.17836 34.7015 9.23364 34.6068 9.28955 34.5128C9.24698 34.2904 9.21267 34.0648 9.21776 33.838C9.43252 33.6506 9.71018 33.5629 9.92494 33.378C10.0921 33.2414 10.2693 33.1181 10.4377 32.9847C10.4619 33.5578 10.4231 34.1309 10.4612 34.7041C10.2045 34.9214 9.89064 35.1139 9.77881 35.4513C9.85505 35.4964 9.92939 35.5434 10.0044 35.5892C10.1429 35.4456 10.2858 35.3064 10.4383 35.1787C10.4339 35.5008 10.472 35.8344 10.3602 36.1445C10.3812 36.1782 10.4218 36.2449 10.4422 36.2785C10.3043 36.4247 10.1518 36.5588 9.97896 36.6642C9.89508 36.7659 9.81248 36.8695 9.72861 36.9724C9.79406 37.0467 9.86077 37.1192 9.93448 37.1853C10.0762 37.034 10.2331 36.8834 10.446 36.8466C10.4441 36.8135 10.4409 36.7475 10.439 36.7144C10.479 36.6998 10.5578 36.6693 10.5972 36.6547C10.7402 36.8688 10.8933 37.081 10.9708 37.3301C11.1188 37.3619 11.23 37.2685 11.333 37.1783C11.3025 37.0715 11.2707 36.9648 11.2389 36.8587C10.9467 36.6128 10.6728 36.2455 10.8075 35.8433C10.756 35.5974 10.7649 35.3452 10.7757 35.0961C10.9378 35.234 11.0706 35.4004 11.2256 35.5453C11.4531 35.5974 11.5579 35.2842 11.4099 35.1437C11.2129 34.9118 10.9467 34.7492 10.749 34.5153C10.8037 34.0248 10.8367 33.5337 10.8113 33.0406C11.3076 33.2376 11.7746 33.5095 12.2028 33.8278C12.2594 34.1843 12.4303 34.5014 12.6139 34.807C12.694 34.7968 12.7728 34.7873 12.8516 34.7771C12.9106 34.4842 12.8014 34.1964 12.5828 33.9924C13.0581 34.2745 13.5721 34.4817 14.0499 34.7587C14.2437 35.0847 14.428 35.4208 14.6605 35.7213C14.7374 35.6743 14.8136 35.6279 14.8893 35.5822C14.834 35.26 14.6129 35.009 14.4597 34.7314C14.6542 34.6824 14.8537 34.6691 15.05 34.6405C15.2038 34.5789 15.3054 34.4321 15.3423 34.2752C14.9725 34.3552 14.5874 34.3584 14.2253 34.4759C13.825 34.3368 13.4533 34.1265 13.079 33.9301C13.33 33.9403 13.5397 33.8075 13.6426 33.5807C13.2226 33.5343 12.7753 33.7681 12.382 33.5451C12.1704 33.4485 11.9665 33.3348 11.7727 33.2058C11.462 32.9968 11.1119 32.8589 10.7923 32.6651C11.1144 32.3855 11.462 32.1377 11.7968 31.8747C12.0865 31.665 12.4379 31.8372 12.7061 31.9941C12.7893 31.9172 12.8713 31.8403 12.9519 31.7628C12.7658 31.6408 12.572 31.5296 12.3642 31.4464C12.53 31.285 12.7385 31.1808 12.9132 31.0315C13.1432 30.818 13.4736 30.7932 13.7354 30.6344C14.001 30.6325 14.2227 30.7888 14.4712 30.8523C14.6141 30.8758 14.7152 30.7615 14.8181 30.6865C14.5042 30.5327 14.1967 30.3605 13.8695 30.2334C13.9127 29.9488 14.1268 29.7251 14.1509 29.4373C14.0785 29.4405 14.0061 29.4481 13.933 29.4589C13.6934 29.7308 13.5943 30.0905 13.4183 30.4012C13.2912 30.5677 13.0638 30.588 12.8789 30.656C12.7188 30.8555 12.4894 30.968 12.2645 31.0785C12.3483 30.8568 12.3629 30.6204 12.3572 30.3859C12.2727 30.4056 12.1514 30.3815 12.1126 30.4851C11.995 30.7723 11.997 31.0976 11.8584 31.3778C11.7612 31.5913 11.5325 31.6853 11.3692 31.8403C11.2231 31.9763 11.047 32.0742 10.871 32.1682C10.8361 31.6955 10.8278 31.2227 10.8901 30.7519C11.1506 30.6407 11.3952 30.4889 11.5916 30.2836C11.6596 30.2334 11.6589 30.1451 11.6748 30.0721C11.3711 30.0829 11.1557 30.3256 10.8799 30.4209C10.8761 30.0009 10.8024 29.5765 10.8844 29.1603C11.0172 29.1133 11.1525 29.0745 11.2917 29.0561C11.3965 28.9277 11.4791 28.7816 11.4683 28.6107C11.1017 28.57 10.8348 28.8705 10.5337 29.0256C10.3348 28.8477 10.1581 28.6418 9.93702 28.4899Z" fill="black"/>
<path d="M34.1097 36.426C33.59 36.3136 33.0581 36.1878 32.5238 36.264C32.0599 36.2933 31.6279 36.4756 31.185 36.6014C30.6373 36.7692 30.1207 37.0761 29.5343 37.0919C29.2382 37.0888 28.9402 37.0964 28.6479 37.151C28.5888 37.2057 28.5297 37.261 28.47 37.3162C28.5291 37.3626 28.5634 37.4586 28.646 37.4662C29.0247 37.4999 29.4034 37.4376 29.7776 37.3874C30.4219 37.2883 31.0001 36.9617 31.6349 36.8276C31.9748 36.7615 32.2944 36.59 32.647 36.6021C33.0804 36.6052 33.5207 36.6198 33.9362 36.7514C34.7012 36.9807 35.4707 37.2381 36.1576 37.6536C36.8317 38.0584 37.6082 38.2407 38.3783 38.3557C38.9444 38.418 39.5131 38.4923 40.0836 38.4396C40.6726 38.3773 41.2706 38.3189 41.824 38.0946C42.4232 37.8411 43.0153 37.5672 43.577 37.2381C44.7087 36.616 46.1612 36.7024 47.2559 37.3652C47.6232 37.5685 47.9218 37.8671 48.2478 38.127C48.3234 38.0622 48.399 37.9986 48.4746 37.9364C47.8684 37.1803 46.9357 36.8073 46.0373 36.5271C45.6821 36.536 45.3282 36.4947 44.973 36.5055C44.384 36.5595 43.7899 36.7202 43.3044 37.0703C42.7262 37.3436 42.1595 37.6479 41.5489 37.8474C40.8264 38.0571 40.0665 38.1257 39.3167 38.0946C38.7309 38.0094 38.1254 38.0317 37.5586 37.8417C36.6074 37.6079 35.8024 37.017 34.8804 36.7056C34.6186 36.6249 34.3747 36.4953 34.1097 36.426Z" fill="black"/>
<path d="M23.936 36.4201C23.7034 36.3915 23.4683 36.382 23.2358 36.3438C22.622 36.3343 22.0286 36.5256 21.4237 36.6012C21.336 36.6596 21.233 36.7225 21.2324 36.8439C21.4383 36.9939 21.7121 36.9672 21.9523 37.0021C22.3469 36.8236 22.7834 36.8477 23.2034 36.8134C23.4105 36.835 23.6189 36.8483 23.8204 36.8985C24.2283 37.0561 24.572 37.3579 25.0047 37.4551C25.3021 37.5289 25.6071 37.5873 25.9133 37.5911C26.1821 37.5403 26.4661 37.6731 26.7095 37.499C26.5481 37.4164 26.374 37.3624 26.1948 37.337C25.9267 37.3243 25.6795 37.2105 25.4241 37.1419C24.8846 36.9989 24.4373 36.6488 23.936 36.4201Z" fill="black"/>
<path d="M5.1924 40.0297C5.09582 39.9471 4.95794 39.9966 4.84166 39.9922C4.83722 40.1027 4.8334 40.2146 4.82959 40.3264C5.13966 40.632 5.52407 40.8588 5.80047 41.1975C5.81317 41.5603 5.83096 41.9244 5.864 42.2872C5.70579 42.1843 5.56537 42.0559 5.44656 41.9091C5.35379 41.9047 5.26102 41.9015 5.16698 41.899C5.14474 41.9949 5.1098 42.0909 5.1098 42.1925C5.17334 42.3234 5.29025 42.4187 5.3773 42.5344C5.5444 42.61 5.71405 42.6951 5.8424 42.8292C5.87354 43.0846 5.84494 43.3439 5.86591 43.6006C5.85448 43.6247 5.8316 43.673 5.82017 43.6971C5.8926 44.0009 5.82017 44.3109 5.79157 44.6159C5.5622 44.4761 5.32202 44.3503 5.06151 44.2785C4.74191 44.1934 4.48203 43.9805 4.19293 43.8306C4.00612 43.7251 3.79327 43.6514 3.64014 43.4957C3.46668 43.138 3.42855 42.7352 3.36756 42.3476C3.27034 42.3647 3.17249 42.3844 3.07464 42.4041C3.0397 42.6983 3.06066 42.9976 3.15788 43.2784C2.85988 43.1717 2.54727 43.0751 2.30137 42.8667C2.10377 42.6989 1.86613 42.5916 1.61833 42.521C1.49951 42.1792 1.37434 41.8399 1.26823 41.4942C1.14877 41.5076 1.04775 41.5673 0.968962 41.6588C1.03631 41.9276 1.09349 42.1995 1.18817 42.4607C0.815829 42.6074 0.395204 42.5827 -9.53674e-06 42.6024C0.0514574 42.7282 0.0933867 42.8591 0.0806789 42.9969C0.336106 42.9988 0.590264 42.9569 0.845056 42.9734C1.05601 42.9004 1.28157 42.8851 1.50142 42.9201C1.86995 42.873 2.07708 43.232 2.39096 43.3432C2.58285 43.429 2.8027 43.4741 2.94502 43.6412C2.78999 43.6863 2.6305 43.7213 2.48182 43.7874C2.44052 43.9411 2.49135 44.0892 2.62923 44.173C2.91897 44.0809 3.20109 43.9684 3.48447 43.8623C3.99596 44.0288 4.39244 44.4278 4.91155 44.574C5.10598 44.6464 5.2839 44.7538 5.46181 44.8586C5.03355 45.292 4.48966 45.5696 4.00041 45.9229C3.78183 45.7844 3.55119 45.6643 3.34468 45.5074C3.25636 45.5302 3.16741 45.5557 3.07718 45.5817C3.02762 45.6897 2.97679 45.7977 2.92406 45.9058C3.01301 45.9693 3.11912 45.9858 3.22523 45.9864C3.33769 46.0563 3.44762 46.1307 3.55627 46.2057C3.16741 46.4967 2.71628 46.6936 2.33822 47.0018C2.08153 46.8093 1.76002 46.7432 1.45186 46.6828C1.32414 46.6523 1.21867 46.7502 1.11065 46.8029C1.10176 46.8391 1.0846 46.9122 1.0757 46.9491C1.39213 47.1384 1.75875 47.2134 2.08153 47.3888C2.05548 47.4993 2.02815 47.6111 1.99829 47.7223C2.00973 47.749 2.0326 47.8024 2.04404 47.8291C1.98622 48.0191 1.98368 48.2205 2.06882 48.4035C2.15142 48.3444 2.27532 48.3291 2.32043 48.23C2.4545 47.9435 2.29438 47.5946 2.44497 47.3138C2.59873 47.2337 2.76394 47.1803 2.91833 47.1041C3.1852 46.8499 3.54547 46.7273 3.83711 46.5049C3.92162 46.6936 3.90827 46.8995 3.91526 47.1009C3.99723 47.1683 4.09572 47.2115 4.18658 47.2642C4.25901 47.1549 4.32954 47.0456 4.40134 46.9383C4.37338 46.726 4.34987 46.5113 4.27807 46.3086C4.39689 45.9261 4.84547 45.8886 5.10217 45.6427C5.29851 45.4692 5.52153 45.3307 5.72803 45.1712C5.70961 45.529 5.76679 45.8854 5.73566 46.2431C5.72422 46.5431 5.73057 46.8449 5.75027 47.1454C5.45164 47.3811 5.12632 47.6137 4.95921 47.9695C5.04117 48.0362 5.12251 48.1029 5.2032 48.1697C5.26865 48.1061 5.33346 48.0438 5.39699 47.9809C5.49357 47.8691 5.60794 47.7751 5.73057 47.695C5.72295 48.0572 5.76044 48.4302 5.6359 48.779C5.66449 48.8425 5.68165 48.9099 5.68737 48.9798C5.56537 49.1532 5.38746 49.2765 5.20384 49.3782C5.11933 49.4817 5.02656 49.5815 4.95921 49.6997C4.93252 49.8274 5.05007 49.9144 5.12124 50.0021C5.24577 49.8839 5.37476 49.7715 5.50438 49.6603C5.58571 49.6463 5.66322 49.6342 5.74265 49.6215C5.74201 49.577 5.74074 49.4875 5.74011 49.4423C5.77887 49.4245 5.85765 49.3896 5.89705 49.3718C6.06352 49.6145 6.22236 49.863 6.34055 50.1336C6.38947 50.1483 6.48669 50.1781 6.53561 50.1927C6.59407 50.1254 6.6557 50.065 6.70463 49.9926C6.74021 49.856 6.66778 49.7232 6.62965 49.5955C6.37613 49.3756 6.10164 49.0954 6.11816 48.7339C6.13786 48.3641 6.10164 47.9949 6.1099 47.6251C6.29925 47.7312 6.42442 47.9104 6.57056 48.0642C6.64872 48.1557 6.76817 48.0712 6.86348 48.0629C6.88889 47.9695 6.91431 47.8761 6.93845 47.784C6.8711 47.6957 6.80375 47.6073 6.7364 47.519C6.51719 47.3449 6.2929 47.1695 6.11308 46.9535C6.08004 46.6104 6.14358 46.2667 6.16518 45.9248C6.15883 45.6954 6.14803 45.4661 6.14485 45.2367C6.59661 45.3847 6.995 45.6478 7.40292 45.8842C7.52047 45.9769 7.64564 46.0589 7.77336 46.1364C7.78733 46.557 8.01544 46.9306 8.24926 47.2655C8.35029 47.2598 8.47292 47.2566 8.50532 47.1403C8.56441 46.9796 8.47101 46.8144 8.45132 46.6542C8.36109 46.557 8.27595 46.4547 8.1889 46.3537C8.73152 46.6142 9.27097 46.8843 9.80406 47.1626C10.1008 47.5076 10.2749 47.946 10.5621 48.2999C10.651 48.2573 10.7394 48.2135 10.8264 48.1703C10.7984 47.7884 10.524 47.4968 10.3378 47.1823C10.5271 47.1238 10.7241 47.1066 10.9192 47.0908C11.1041 47.0831 11.2115 46.9173 11.3315 46.8023C11.329 46.7648 11.3239 46.6892 11.3214 46.6511C10.9141 46.7553 10.4833 46.7388 10.0843 46.8779C9.63187 46.7248 9.19917 46.5075 8.79506 46.2539C8.90753 46.2298 9.02253 46.2184 9.12864 46.179C9.2716 46.1192 9.31799 45.9579 9.38217 45.8327C8.99331 45.8511 8.60572 45.949 8.21622 45.9083C7.85405 45.7901 7.52111 45.5976 7.20468 45.3879C6.86538 45.1623 6.48097 45.0168 6.13532 44.8014C6.44158 44.5003 6.81518 44.2817 7.13542 43.9977C7.28792 43.8573 7.48743 43.7969 7.6825 43.7473C7.90361 43.8242 8.12155 43.9106 8.32741 44.0212C8.41383 43.9348 8.57204 43.8731 8.55743 43.7302C8.363 43.591 8.1476 43.4843 7.92521 43.3972C8.12727 43.2066 8.38524 43.0922 8.5892 42.9048C8.85288 42.6659 9.23348 42.6545 9.52195 42.4581C9.81995 42.4677 10.0697 42.6398 10.3486 42.718C10.4973 42.7358 10.6949 42.6564 10.7152 42.4905C10.5494 42.3704 10.3359 42.3527 10.1643 42.2427C10.0061 42.1461 9.84536 42.0534 9.66618 42C9.72146 41.6874 9.92542 41.4339 10.0137 41.134C9.91208 41.1155 9.77484 41.0393 9.70304 41.1588C9.46794 41.4688 9.3218 41.8361 9.16549 42.19C9.1153 42.2357 9.0651 42.2815 9.01427 42.3291C8.85606 42.387 8.69531 42.4397 8.53074 42.4823C8.35474 42.7301 8.06627 42.8349 7.82482 43.0007C7.90552 42.7434 7.9214 42.4746 7.93157 42.2078C7.84198 42.2103 7.75175 42.2148 7.66025 42.2199C7.50014 42.6443 7.52555 43.1488 7.22692 43.5122C6.88444 43.7499 6.59852 44.072 6.20267 44.2271C6.18424 43.6876 6.17598 43.1475 6.23889 42.6106C6.57183 42.4569 6.88635 42.2554 7.13097 41.9803C7.21802 41.8151 7.0147 41.817 6.9124 41.857C6.69128 41.9447 6.51909 42.1309 6.28336 42.1887C6.15502 42.1341 6.20712 41.9797 6.19314 41.8717C6.20775 41.5158 6.15883 41.1568 6.22491 40.8042C6.3666 40.7197 6.52354 40.667 6.68938 40.6701C6.79104 40.5157 6.97594 40.3404 6.8622 40.1428C6.7383 40.0849 6.61885 40.1593 6.50766 40.2114C6.27574 40.3296 6.06352 40.4833 5.83668 40.6123C5.61557 40.4255 5.41288 40.2177 5.1924 40.0297Z" fill="black"/>
</svg>
