<svg xmlns="http://www.w3.org/2000/svg" width="51" height="72" viewBox="0 0 51 72" fill="none">
    <path opacity="0.96"
        d="M6.14121 68.541C5.03085 69.1328 3.95467 69.8273 2.76384 70.2419C1.93107 70.1171 1.11037 69.8816 0.341965 69.5314C0.348 68.2813 0.321852 67.0313 0.281622 65.7812C0.410358 62.162 0.311783 58.5427 0.32184 54.9234C0.33592 51.9684 0.51696 49.0154 0.309772 46.0624C0.307762 40.6959 -0.0442543 35.3334 0.122702 29.9668C-0.0583363 27.6862 0.172995 25.4035 0.203167 23.1208C0.221272 17.6274 0.201153 12.1341 0.148853 6.64077C0.162933 4.60768 0.215235 2.56655 0 0.541527C0.58938 0.342239 1.1687 0.0966644 1.78423 3.8147e-05C2.442 0.31205 3.00121 0.799187 3.66903 1.09509C4.70698 1.54599 5.48344 2.40955 6.48921 2.91077C7.69814 3.46434 8.68177 4.39028 9.86657 4.98813C12.3126 6.5381 14.8149 8.0136 17.1222 9.77493C19.3751 11.3511 21.5033 13.1205 23.9292 14.4329C25.1824 15.1918 26.3672 16.0614 27.6505 16.7719C28.252 17.094 28.8253 17.4624 29.3885 17.8449C29.7546 20.3973 29.4931 22.9819 29.7345 25.5424C29.6339 30.4177 30.004 35.2871 29.9175 40.1624C29.831 40.245 29.654 40.406 29.5675 40.4885C29.4991 40.3376 29.3623 40.0396 29.2939 39.8907L29.5172 39.8544C29.3845 39.8303 29.1169 39.778 28.9842 39.7538C29.3302 42.9101 28.9661 46.0986 29.1813 49.2569C29.3462 47.5983 29.1974 45.9275 29.3302 44.2668C29.4348 43.0309 29.2819 41.7929 29.3422 40.557C29.5172 40.7824 29.9095 40.8911 29.9296 41.2152C30.0442 42.1552 29.8672 43.1013 29.9437 44.0434C30.0684 45.9718 29.873 48.5462 29.9112 50.4726C29.6406 50.823 29.1933 48.8518 29.9094 50.1864C29.386 50.0591 29.7679 50.3137 29.9115 50.4325C29.91 50.4088 29.5133 49.6772 29.9115 50.4325C29.8934 52.685 29.9739 54.9355 30 57.188C29.8491 57.188 29.5434 57.188 29.3905 57.188C29.2416 54.6617 29.3483 52.1314 29.2135 49.6052C29.0847 49.9554 28.954 50.3057 28.8212 50.6539C28.7508 49.9111 28.7428 49.0979 28.1635 48.5423C28.1594 49.0053 28.1755 49.4683 28.1977 49.9293C28.437 50.7123 28.3063 51.5356 28.0126 52.2824C27.8698 51.91 27.8034 51.5155 27.8014 51.1149C27.7913 50.1104 27.5862 49.1221 27.5942 48.1156C27.5298 48.021 27.4031 47.8277 27.3407 47.7331C27.4614 47.3829 27.562 47.0205 27.5258 46.6461C27.4655 45.535 27.4232 44.4198 27.2744 43.3147C27.5218 43.3288 27.7692 43.3369 28.0146 43.3409C28.0186 44.7238 28.0669 46.1026 28.1373 47.4835C28.1534 47.8418 28.4531 48.1015 28.606 48.3994C28.598 44.8788 28.6281 41.346 28.2801 37.8355C27.029 38.0347 25.7456 37.9824 24.5226 38.3528C22.1007 38.7514 19.6446 38.9265 17.2127 39.2767C17.3595 41.4105 17.623 43.5341 17.6411 45.6779C17.5888 48.0451 18.1682 50.3943 17.8765 52.7615C18.1541 54.1363 17.8061 55.5555 18.0716 56.9384C18.1259 58.5205 18.3673 60.1349 18.0153 61.699C18.5242 61.4071 19.0593 61.1676 19.5963 60.9381C19.3952 60.769 19.1961 60.5979 18.9949 60.4228C19.3791 60.4389 19.7472 60.5395 20.0972 60.6905C21.6682 59.992 23.2292 59.2593 24.8545 58.6916C24.4884 58.5427 24.1042 58.4702 23.72 58.3716C24.1726 58.0958 24.6513 57.8703 25.1381 57.667C25.114 57.9509 25.0878 58.2347 25.0577 58.5165C25.3373 58.3152 26.1825 58.0242 26.4642 57.825C26.5852 57.825 26.9671 57.825 26.4642 57.825L26.699 57.8136L26.4579 57.825C26.4579 57.825 27.7652 57.1155 28.5074 56.6847C27.8416 56.7371 27.212 56.9685 26.6126 57.2544C26.3149 57.4557 25.995 57.2081 25.6933 57.1537C26.3652 56.723 27.1215 56.4512 27.8939 56.262C27.8436 55.0683 27.5158 53.7901 28.079 52.6649C28.5618 53.8807 28.0347 55.2173 28.5517 56.4291C28.6462 55.7225 28.5758 54.9999 28.7669 54.3054C29.2457 55.0724 29.2557 56.0929 28.9198 56.9142C28.3123 57.5583 27.3589 57.7154 26.6448 58.2226C25.7014 58.6494 24.7781 59.1224 23.8407 59.5632C21.8895 60.2718 20.0711 61.2944 18.144 62.0674C17.0598 62.482 16.0782 63.1241 14.9759 63.5046C12.1054 64.809 9.1565 65.9362 6.25185 67.1621C5.10326 67.6513 4.08542 68.4786 2.85235 68.7262C2.99316 68.4041 3.15408 68.0921 3.35524 67.8022C3.13799 65.6665 3.29087 63.5187 3.23656 61.3749C3.45984 58.2186 3.01328 55.0663 3.14604 51.908C3.25466 49.4683 3.00725 47.0286 2.65925 44.6171C2.52448 43.4939 2.37764 42.3626 2.44201 41.2293C2.67937 37.8777 2.39775 34.5221 2.50436 31.1706C2.8604 22.2492 2.43396 13.3278 2.27907 4.40841C2.25091 3.60323 2.35551 2.80206 2.40177 1.99889C2.3012 2.00695 2.10004 2.02506 1.99946 2.03312C2.31729 4.50099 2.02763 6.98699 2.09401 9.46292C2.04976 11.8704 2.21068 14.2719 2.15234 16.6793C2.32332 18.8996 1.91499 21.1038 1.917 23.3201C2.05981 26.879 1.82044 30.4419 2.03567 33.9988C2.25493 42.2458 2.55666 50.4949 2.7558 58.742C2.9127 62.3532 2.60092 65.9725 2.82017 69.5837C3.39346 69.3059 3.9929 69.0885 4.5682 68.8168C7.01824 67.3292 9.76398 66.4395 12.383 65.3102C14.3463 64.495 16.1486 63.3114 18.1903 62.6894C20.1636 61.6768 22.1772 60.7509 24.1827 59.8068C25.8583 58.9996 27.377 57.8522 29.1511 57.2624C29.2758 57.2946 29.5233 57.357 29.646 57.3872C26.0353 59.5431 22.32 61.5762 18.3492 62.9933C16.0943 64.1407 13.8333 65.2921 11.508 66.2966C9.67146 66.9266 7.90533 67.7338 6.14121 68.541ZM2.37159 69.5857C1.98136 65.9121 2.39171 62.2163 2.1624 58.5366C2.07188 53.5103 1.8647 48.484 1.74199 43.4556C1.59113 37.4168 1.2552 31.3799 1.36383 25.337C1.22101 23.1208 1.47244 20.9126 1.57302 18.7004C1.50865 16.7518 1.62934 14.8033 1.51669 12.8568C1.31956 8.7443 1.77216 4.62178 1.48653 0.517372C1.22503 0.601921 0.961517 0.686455 0.693983 0.766975C0.673868 1.64261 0.671856 2.51824 0.746283 3.39186C0.826744 8.56112 0.826736 13.7304 0.800587 18.8996C0.812654 21.2467 0.844843 23.5938 0.702023 25.9369C0.567251 27.7526 0.790531 29.5703 0.702023 31.386C0.593401 34.8784 0.852896 38.3649 0.860943 41.8553C0.967554 43.6629 0.866974 45.4746 0.995712 47.2802C1.12646 49.6998 0.931339 52.1194 0.953465 54.5369C0.945419 56.8196 0.941402 59.1003 1.00979 61.3809C1.00778 63.9233 0.877024 66.4636 0.95145 69.008C1.42014 69.2133 1.89285 69.4066 2.37159 69.5857ZM7.72831 66.0751C10.7014 64.8734 13.6543 63.6214 16.579 62.3089C16.5026 62.2364 16.3477 62.0895 16.2713 62.017C15.0121 62.4377 13.8414 63.0658 12.6183 63.5751C11.7292 63.9797 10.9045 64.5332 9.94703 64.7728C9.9772 64.6017 10.0355 64.2615 10.0657 64.0924C10.7195 63.875 11.3812 63.6596 11.9767 63.3073C13.1635 62.635 14.4508 62.166 15.6517 61.5279C15.7744 60.9804 15.529 60.3443 15.8991 59.8692C16.3437 60.4087 16.215 61.1776 16.6112 61.7453C16.5408 56.5821 16.0923 51.4309 16.04 46.2677C16.0138 44.1561 15.8147 42.0486 15.8006 39.935C16.0762 39.9511 16.3517 39.9652 16.6233 39.9792C16.5851 39.7981 16.5449 39.6149 16.5026 39.4317C14.123 39.7256 11.7655 40.1665 9.39587 40.5268C7.37831 40.9596 5.3024 41.0461 3.29892 41.5574C3.3472 42.1935 3.39346 42.8296 3.38541 43.4657C3.35926 45.0177 3.77968 46.5435 3.67709 48.0975C3.86014 50.7707 3.59863 53.4479 3.78369 56.1211C3.93053 58.438 3.81186 60.7589 3.65094 63.0718C3.53024 64.654 3.71531 66.2382 3.91445 67.8063C5.19781 67.2547 6.41276 66.5522 7.72831 66.0751ZM17.8725 61.7211L17.9288 61.9627C17.7457 60.8395 17.5707 59.7041 17.6271 58.5608C17.6894 57.7818 17.5486 57.0108 17.4159 56.2459C17.434 55.4166 17.3233 54.5892 17.3575 53.7619C17.7357 52.3931 17.3535 50.978 17.3434 49.5871C16.9552 46.5777 17.2529 43.5039 16.6273 40.5227C16.2854 42.0928 16.6756 43.6851 16.6273 45.2693C16.5891 47.7533 16.7983 50.2312 16.8687 52.7112C16.8446 53.7196 16.8647 54.7281 16.927 55.7346C17.1262 57.6107 17.0457 59.5029 17.1986 61.383C17.0638 61.6124 16.9311 61.8399 16.7963 62.0694C17.1584 61.9587 17.5164 61.8419 17.8725 61.7211ZM5.22194 40.6697C10.116 39.9571 14.9759 39.0211 19.884 38.4031C21.4107 38.1293 22.9818 38.1434 24.4844 37.7268C25.7195 37.3564 27.031 37.5335 28.2942 37.3342C28.3003 37.1692 28.3123 36.839 28.3184 36.672C27.4876 36.7706 26.6468 36.7988 25.822 36.9498C21.5918 37.8173 17.269 38.1112 13.0448 39.005C10.4439 39.3291 7.85101 39.7176 5.24004 39.945C4.75124 39.8706 4.4475 39.4035 4.22623 38.9969C5.03688 38.9003 5.84351 38.7755 6.65617 38.7111C6.54553 38.9526 6.43288 39.1942 6.32023 39.4358C8.42228 39.0513 10.5424 38.7775 12.6606 38.5118C13.6261 38.3065 14.5937 38.1193 15.5713 37.9884C15.5994 36.5291 15.7825 35.0737 15.7161 33.6143C15.6457 30.6532 15.6115 27.6942 15.6236 24.7332C15.6055 23.7327 15.5753 22.7142 15.865 21.7419C15.9776 21.8365 16.2009 22.0217 16.3135 22.1163C16.1727 26.2087 16.2673 30.303 16.3859 34.3953C16.3658 35.5528 16.2331 36.7062 16.2632 37.8657C16.7661 37.8395 17.2549 37.7348 17.7296 37.5677C17.6552 37.292 17.6552 36.7766 18.0797 36.8692C20.1636 36.8813 22.159 36.1285 24.2289 36.0943C24.8988 35.8326 25.5907 35.6152 26.3129 35.585C26.9867 35.4984 27.6043 35.8487 28.2439 35.9916C28.0609 32.2354 28.3988 28.4833 28.2882 24.7271C28.2218 23.1248 28.3284 21.5145 28.1554 19.9142C27.8517 19.7129 27.55 19.4995 27.2683 19.262C27.039 18.8634 26.6508 18.6178 26.2626 18.3944C25.7597 17.9032 25.1663 17.5208 24.6574 17.0356C25.9528 17.3819 26.9545 18.342 28.2299 18.7225C26.2565 16.7518 23.6657 15.6004 21.4711 13.9156C19.9021 12.9936 18.4498 11.8966 16.921 10.9122C17.0578 11.2021 17.0719 11.5705 17.3635 11.7557C18.142 12.3958 18.9929 12.9413 19.7834 13.5673C20.3044 13.9921 20.9541 14.3222 21.2539 14.9563C20.6061 14.9281 20.1093 14.4933 19.6225 14.1189C18.83 13.4707 17.965 12.9191 17.09 12.3857C16.925 18.8553 17.5788 25.337 17.0196 31.8006C17.1081 33.6626 17.3253 35.5266 17.2509 37.3966C17.0799 37.5214 16.9069 37.6422 16.7299 37.757C16.6132 35.7058 16.5167 33.6485 16.6072 31.5933C16.9029 25.3411 16.4543 19.0889 16.4926 12.8346C16.4463 11.9852 17.0558 10.8297 16.046 10.3305C16.1707 11.7778 16.0822 13.2271 16.1305 14.6745C16.1607 16.2828 16.3196 17.8891 16.2492 19.4975C16.2632 19.8779 15.9957 20.1658 15.8066 20.4637C15.6879 19.6827 15.6558 18.8936 15.6135 18.1045C15.5854 15.7554 15.3158 13.3962 15.6115 11.0552C15.6859 10.5942 15.352 10.2218 15.1026 9.87759C14.9336 12.3535 15.4445 14.8194 15.1871 17.2893C15.1026 19.6786 15.6457 22.1687 14.8733 24.4856C14.8069 24.1051 14.7506 23.7166 14.7526 23.3261C14.7566 21.3071 14.654 19.2901 14.6419 17.2732C14.7526 15.1173 14.6198 12.9594 14.5152 10.8056C13.4632 9.57565 11.9123 8.99189 10.6913 7.96529C9.46829 7.3614 8.34786 6.57232 7.15502 5.90804C5.67655 5.20754 4.38916 4.17692 2.9127 3.46433C2.792 6.38915 3.04546 9.31195 3.01529 12.2388C3.17822 17.8791 3.29288 23.5234 3.14202 29.1657C2.93483 32.642 3.22047 36.1244 3.19633 39.6028C3.34317 39.7256 3.488 39.8504 3.63283 39.9732C3.52018 40.0658 3.29892 40.253 3.18627 40.3456C3.21041 40.4624 3.25466 40.6979 3.2788 40.8146C3.92852 40.8106 4.58228 40.8025 5.22194 40.6697ZM5.84149 39.468C5.72683 39.2486 5.24608 39.3271 5.31045 39.6089C5.42913 39.8323 5.90586 39.7478 5.84149 39.468ZM29.4167 39.472C29.1431 35.7682 29.2054 32.0341 29.0445 28.3182C29.0425 26.7823 29.0807 25.2445 28.9781 23.7106C28.8735 21.913 29.0204 20.1034 28.8072 18.3139C28.6623 18.9721 28.7207 19.6505 28.7528 20.3167C28.8152 22.1264 28.8052 23.938 28.8474 25.7477C28.9319 28.1612 28.6824 30.5727 28.781 32.9863C28.7689 35.1301 28.8132 37.2738 28.9681 39.4096L28.777 39.4237C28.9922 39.4398 29.2054 39.4559 29.4167 39.472ZM23.6436 36.8109C23.0421 37.1068 23.6375 36.1406 23.6436 36.8109V36.8109ZM26.868 17.0115C26.7534 16.9189 26.7534 16.9189 26.868 17.0115V17.0115ZM14.654 9.39851C13.3666 8.53696 12.035 7.74386 10.7235 6.92057C8.89097 5.64637 6.75272 4.82709 5.06705 3.34153C4.31876 2.93693 3.49203 2.67928 2.68339 2.41962C2.92276 2.74974 3.19633 3.06576 3.57047 3.24088C5.70873 4.33392 7.72027 5.65441 9.80019 6.85011C11.341 7.61301 12.6143 8.79461 14.1049 9.64408C14.2417 9.58369 14.5172 9.46091 14.654 9.39851ZM12.4011 7.28088C10.7516 5.98253 8.79241 5.16526 7.12485 3.89308C6.37253 3.33952 5.46935 3.03154 4.73514 2.44778C3.86214 1.69897 2.74172 1.34871 1.78423 0.722679C2.57074 1.82175 3.91244 2.26058 4.99464 2.99329C7.51308 4.33392 9.93295 5.85571 12.4011 7.28088Z"
        fill="black"></path>
    <path opacity="0.96"
        d="M7.11844 66.1396C6.4828 66.4013 5.86324 66.8321 5.13909 66.6811C5.2618 66.512 5.38248 66.3429 5.50116 66.1739C6.24141 65.89 6.97562 65.5841 7.75207 65.413C8.1061 65.2982 8.46617 65.1976 8.82422 65.111C8.43599 65.7069 7.72794 65.8719 7.11844 66.1396Z"
        fill="black"></path>
    <path opacity="0.96"
        d="M22.4893 59.4102C21.8355 59.7987 21.1114 60.1711 20.3208 59.99C20.8479 59.3679 21.7309 59.2492 22.4893 59.4102Z"
        fill="black"></path>
    <path opacity="0.96"
        d="M16.032 58.5869C15.8309 58.2367 15.6498 57.8643 15.6176 57.4536C15.3521 54.714 15.3441 51.9563 15.1751 49.2106C15.159 48.6953 15.1087 48.1679 15.2234 47.6606C15.3461 47.6807 15.5875 47.721 15.7102 47.7391C15.8409 48.7838 15.7363 49.8507 15.5835 50.8894C16.0541 52.1837 15.8993 53.5888 15.9817 54.9374C15.9797 56.1553 16.2392 57.3751 16.032 58.5869Z"
        fill="black"></path>
    <path opacity="0.96"
        d="M10.293 55.6098C10.1079 56.5015 9.77601 57.3832 9.19267 58.0938C8.96134 57.4114 9.6352 56.8336 9.81624 56.2197C9.68146 56.272 9.41192 56.3767 9.27916 56.429L9.251 56.735C9.20071 56.6183 9.10416 56.3868 9.05589 56.27C9.22485 55.5594 9.61911 54.8871 10.1582 54.3899C10.1683 54.863 9.98923 55.3018 9.76595 55.7104C9.85647 55.8211 9.94498 55.9318 10.0335 56.0385L10.293 55.6098Z"
        fill="black"></path>
    <path opacity="0.96"
        d="M23.1846 50.3117C22.8527 50.7848 22.5147 51.2578 22.0822 51.6443C22.221 51.0203 22.4906 50.4345 22.8446 49.9051C22.9291 50.0078 23.1001 50.2111 23.1846 50.3117Z"
        fill="black"></path>
    <path opacity="0.96"
        d="M22.4002 49.9778C22.2735 49.9697 22.02 49.9536 21.8933 49.9456C22.1327 49.4685 22.3439 48.9069 22.9111 48.7378C22.7683 49.1625 22.5893 49.5732 22.4002 49.9778Z"
        fill="black"></path>
    <path opacity="0.96"
        d="M15.6299 46.123C15.5213 46.2397 15.306 46.4712 15.1974 46.5859C14.962 44.8004 14.8977 42.9948 14.775 41.1993C14.9962 41.1489 15.2175 41.0966 15.4368 41.0443C15.4006 42.7392 15.4589 44.4361 15.6299 46.123Z"
        fill="black"></path>
    <path opacity="0.96"
        d="M27.9297 40.2471C27.974 40.9818 28.0565 41.8152 27.5596 42.4231C27.3605 41.7186 27.2579 40.9838 27.2599 40.2491C27.4329 39.8163 27.7085 39.9512 27.9297 40.2471Z"
        fill="black"></path>
    <path opacity="0.96"
        d="M8.77436 38.7975C8.25539 38.9062 7.5071 39.2544 7.18726 38.6103C8.014 38.1876 8.96144 38.1815 9.86261 38.0829C11.5563 37.9802 13.1937 37.4468 14.8975 37.4166C13.9058 38.1936 12.6083 38.2479 11.4235 38.4855C10.5505 38.6687 9.6353 38.5237 8.77436 38.7975Z"
        fill="black"></path>
    <path opacity="0.96"
        d="M15.3927 37.4651C15.272 37.6523 15.1332 37.8274 14.9763 37.9905C14.928 36.4546 14.7369 34.9227 14.8234 33.3849C14.7148 31.382 14.7128 29.3771 14.7269 27.3722C14.7229 26.5932 14.6585 25.8061 14.8335 25.0371C15.1553 25.5303 15.1513 26.1121 15.1895 26.6737C15.3927 28.8456 15.2077 31.0257 15.2298 33.2017C15.095 34.6289 15.6401 36.0379 15.3927 37.4651Z"
        fill="black"></path>
    <path opacity="0.96"
        d="M27.6761 34.979C27.6077 35.0152 27.4669 35.0917 27.3965 35.1279C27.2798 34.3952 27.1109 33.6605 27.1813 32.9117C27.3362 32.9882 27.6459 33.1391 27.7988 33.2156C27.7666 33.8034 27.7224 34.3912 27.6761 34.979Z"
        fill="black"></path>
    <path opacity="0.96"
        d="M27.4595 31.2671C26.9466 29.2562 27.544 27.1788 27.4253 25.1397C27.4334 24.4009 27.1155 23.4528 27.8598 22.9556C28.1897 24.1332 27.9724 25.341 27.9644 26.5367C27.9302 27.8914 27.7713 29.2421 27.8296 30.5968C27.7371 30.7639 27.552 31.1 27.4595 31.2671Z"
        fill="black"></path>
    <path opacity="0.96"
        d="M9.5911 29.7656C9.52472 28.7491 10.2147 27.8775 10.792 27.1065C10.5908 28.0687 10.1443 28.9604 9.5911 29.7656Z"
        fill="black"></path>
    <path opacity="0.96"
        d="M10.6755 25.7538C10.7318 26.257 10.4924 26.6153 10.0459 26.8025C10.2128 26.4281 10.422 26.0758 10.6755 25.7538Z"
        fill="black"></path>
    <path opacity="0.96"
        d="M20.3564 25.4539C20.1191 25.7901 19.8696 26.1242 19.5196 26.3477C19.6283 25.9531 19.7469 25.5566 19.8878 25.1701C20.0044 25.2405 20.2398 25.3835 20.3564 25.4539Z"
        fill="black"></path>
    <path opacity="0.96"
        d="M21.8071 25.8885C21.7186 26.0798 21.5697 26.1261 21.3645 26.0295C21.5677 25.3591 21.9177 24.7311 22.3683 24.1937C22.4528 24.8197 22.1269 25.3813 21.8071 25.8885Z"
        fill="black"></path>
    <path opacity="0.96"
        d="M22.4329 22.1186C22.5013 23.1894 21.7872 24.1375 21.23 24.9971C21.3105 23.9342 21.8456 22.9801 22.4329 22.1186Z"
        fill="black"></path>
    <path opacity="0.96"
        d="M27.6025 22.7825C27.4174 22.1464 27.2303 21.464 27.3671 20.7997C27.5381 20.6548 27.7131 20.5179 27.8941 20.3871C28.0108 21.2003 27.878 22.0155 27.6025 22.7825Z"
        fill="black"></path>
    <path opacity="0.96"
        d="M24.5527 16.9795C23.374 16.7218 22.0383 16.1683 21.5133 14.9967C22.6237 15.4758 23.7039 16.1079 24.5527 16.9795Z"
        fill="black"></path>
    <path
        d="M50.0278 68.3536C50.223 68.1583 50.223 67.8417 50.0278 67.6464L46.8458 64.4645C46.6505 64.2692 46.334 64.2692 46.1387 64.4645C45.9434 64.6597 45.9434 64.9763 46.1387 65.1716L48.9671 68L46.1387 70.8284C45.9434 71.0237 45.9434 71.3403 46.1387 71.5355C46.334 71.7308 46.6505 71.7308 46.8458 71.5355L50.0278 68.3536ZM6 68.5H26.5V67.5H6V68.5ZM26.5 68.5H49.6742V67.5H26.5V68.5Z"
        fill="black" fill-opacity="0.8"></path>
</svg>