<svg xmlns="http://www.w3.org/2000/svg" width="80" height="80" viewBox="0 0 80 80" fill="none"><path opacity="0.8" d="M12.5336 3.37576C13.2379 3.10793 13.9666 2.91141 14.7092 2.78271C14.0136 3.48706 12.9875 3.66619 12.0605 3.87141C12.144 3.62619 12.3023 3.46098 12.5336 3.37576Z" fill="black"></path><path opacity="0.8" d="M8.8857 3.96533C9.85092 3.96533 10.1205 5.01577 10.3761 5.7549C10.6231 6.90968 10.677 8.21229 10.0683 9.26968C9.58135 10.1966 8.68918 10.8105 7.82657 11.3566C6.67007 12.0853 5.24051 12.2523 3.91007 12.0506C3.07182 11.8453 2.33617 11.3097 1.83008 10.6175C2.7466 10.4697 3.20921 11.5114 4.0666 11.6262C5.26833 11.7601 6.55007 11.621 7.59179 10.9671C8.55179 10.3532 9.57788 9.63838 9.93614 8.49577C10.3535 6.92707 9.95527 5.19142 8.8857 3.96533Z" fill="black"></path><path opacity="0.8" d="M35.7031 5.02772C36.9344 4.65032 38.2596 4.50423 39.5362 4.70771C38.2701 4.89032 36.9849 5.15989 35.7031 5.02772Z" fill="black"></path><path opacity="0.8" d="M32.1993 5.25387C33.1298 5.17561 34.0637 5.06082 34.9993 5.13039C33.6741 5.39474 32.3176 5.45039 30.9767 5.60169C29.7698 5.75995 28.5454 5.59474 27.3402 5.7843C26.9385 5.85387 26.528 5.82952 26.1367 5.713C28.0793 5.00343 30.1819 5.38778 32.1993 5.25387Z" fill="black"></path><path opacity="0.8" d="M18.758 5.91643C20.0763 5.95296 21.4206 5.56339 22.7145 5.92339C22.0189 6.09904 21.2955 6.0573 20.5859 6.11295C18.9563 6.22252 17.3215 6.26774 15.6919 6.37209C14.8815 6.47469 14.0641 6.48687 13.2502 6.44861C13.2137 6.33556 13.1442 6.10948 13.1094 5.99643C14.991 6.14252 16.8728 5.89556 18.758 5.91643Z" fill="black"></path><path opacity="0.8" d="M31.1973 7.20512C31.6355 7.07642 32.1434 6.97903 32.4564 7.41555C32.032 7.3686 31.6094 7.30947 31.1973 7.20512Z" fill="black"></path><path opacity="0.8" d="M33.3457 7.17551C33.9701 7.07812 34.6361 7.01725 35.224 7.29551C34.6153 7.52334 33.8866 7.61725 33.3457 7.17551Z" fill="black"></path><path opacity="0.8" d="M35.4961 7.47461C35.67 7.36505 35.8196 7.18766 36.037 7.16505C36.7917 7.11113 37.5483 7.18939 38.3048 7.21374C38.2944 7.31809 38.2752 7.52679 38.2648 7.63113C37.3483 7.47635 36.4248 7.41374 35.4961 7.47461Z" fill="black"></path><path opacity="0.8" d="M19.5391 8.71322C19.7878 8.52018 20.033 8.24192 20.386 8.30105C21.2938 8.34279 22.2034 8.39496 23.113 8.42627C23.4399 8.41583 23.6712 8.67149 23.9217 8.8367C23.3756 8.86453 22.8312 8.82801 22.2869 8.77757C21.3721 8.68018 20.4521 8.8367 19.5391 8.71322Z" fill="black"></path><path opacity="0.8" d="M24.3027 8.69233C25.2001 8.49928 26.1114 8.68711 27.0123 8.74972C28.348 8.88015 29.6958 8.79146 31.0279 8.97233C31.0714 9.07146 31.1566 9.26972 31.1984 9.36885C28.9045 9.10798 26.5758 9.12189 24.3027 8.69233Z" fill="black"></path><path opacity="0.8" d="M14.1738 9.51146C15.1895 9.40711 16.233 9.63667 17.1147 10.1532C16.1008 10.268 15.1077 9.8558 14.1738 9.51146Z" fill="black"></path><path opacity="0.8" d="M18.4277 10.2104C19.0086 10.2452 19.6399 10.3009 20.0695 10.7478C19.4851 10.7305 18.8608 10.6452 18.4277 10.2104Z" fill="black"></path><path opacity="0.8" d="M20.4629 10.7217C21.6855 10.746 22.8316 11.2382 24.0455 11.3373C25.2733 11.6104 26.5759 11.7043 27.7133 12.2747C27.3359 12.2921 26.9498 12.306 26.5812 12.2034C25.3812 11.9112 24.1725 11.6504 22.9481 11.4817C22.1064 11.2834 21.2159 11.1756 20.4629 10.7217Z" fill="black"></path><path opacity="0.8" d="M11.9913 12.4571C11.5879 12.3597 12.0835 12.0919 12.2052 12.0015C13.4992 12.9615 14.9983 13.6623 16.0835 14.8884C14.6922 14.1267 13.3983 13.1962 11.9913 12.4571Z" fill="black"></path><path opacity="0.8" d="M10.332 13.1323C10.3946 13.0123 10.5233 12.7723 10.5859 12.6523C10.8712 13.0036 11.1355 13.3706 11.3494 13.7706C10.9981 13.5776 10.6607 13.3602 10.332 13.1323Z" fill="black"></path><path opacity="0.8" d="M18.4551 13.1099C19.022 13.2125 19.5733 13.4107 20.0151 13.7899C19.4377 13.7516 18.7855 13.6525 18.4551 13.1099Z" fill="black"></path><path opacity="0.8" d="M1.52153 14.1948C1.57196 14.0017 1.64153 13.8156 1.72674 13.6348C1.86761 14.4574 1.83283 15.2974 1.73196 16.1217C1.54587 17.4226 1.68153 18.7374 1.62413 20.0452C1.53022 20.0452 1.34587 20.0487 1.25195 20.0504C1.37195 18.0991 1.365 16.1426 1.52153 14.1948Z" fill="black"></path><path opacity="0.8" d="M9.15234 13.9167C9.2272 13.8733 9.37843 13.7898 9.45321 13.748C10.095 14.4315 10.5332 15.2715 11.0984 16.0159C11.8167 17.0785 12.7802 18.0141 13.1489 19.2785C12.5663 18.8211 12.2532 18.1394 11.8097 17.5654C10.8636 16.3933 10.0307 15.1376 9.15234 13.9167Z" fill="black"></path><path opacity="0.8" d="M20.8906 13.9829C21.3828 14.0925 21.8663 14.2438 22.3063 14.496C21.7776 14.5412 21.235 14.4177 20.8906 13.9829Z" fill="black"></path><path opacity="0.8" d="M6.96094 14.125C7.60442 14.558 7.72442 15.3702 7.97659 16.045C8.37659 17.3285 9.04616 18.5093 9.40963 19.805C9.56442 20.3824 9.9105 20.8763 10.147 21.4189C10.0027 21.4641 9.85659 21.5006 9.70876 21.5285C9.19398 20.518 9.03572 19.3754 8.55224 18.3511C8.01311 16.9476 7.3192 15.5946 6.96094 14.125Z" fill="black"></path><path opacity="0.8" d="M22.4961 14.6136C23.5465 14.3875 24.4213 15.1562 25.3309 15.5406C26.0422 15.8919 26.8178 16.1041 27.5013 16.5145C26.8874 16.7076 26.3274 16.3163 25.7761 16.1145C24.6996 15.5806 23.5552 15.1893 22.4961 14.6136Z" fill="black"></path><path opacity="0.8" d="M12.3594 15.0679C12.3837 14.9549 12.4307 14.7288 12.4533 14.6157C13.2481 15.3531 13.8394 16.2731 14.6359 17.0088C16.4811 18.8766 18.4359 20.6279 20.2689 22.5079C20.9298 23.2209 21.8533 23.7183 22.2394 24.6557C21.1576 23.9218 20.2411 22.9827 19.3281 22.0557C18.3507 21.1827 17.5037 20.174 16.4881 19.3409C15.7629 18.734 15.1524 18.007 14.4689 17.3583C13.695 16.6627 13.0063 15.8766 12.3594 15.0679Z" fill="black"></path><path opacity="0.8" d="M2.52962 18.5512C2.45658 17.4573 2.54701 16.3564 2.70179 15.2729C3.28266 15.9582 2.84962 16.8729 2.90353 17.6712C2.98527 19.1756 2.83745 20.6834 2.95571 22.186C2.99571 22.8347 3.18179 23.5234 2.83571 24.1269C2.35571 22.3147 2.56614 20.4069 2.52962 18.5512Z" fill="black"></path><path opacity="0.8" d="M5.13637 17.6261C5.06854 16.8991 4.9068 16.1583 5.09811 15.4365C5.47202 16.3113 5.45637 17.273 5.5955 18.1983C5.65289 18.8417 5.85289 19.527 5.52767 20.1357C5.19202 19.3391 5.25811 18.4626 5.13637 17.6261Z" fill="black"></path><path opacity="0.8" d="M17.9258 16.1057C18.4997 15.9023 18.9119 16.3597 19.3414 16.6483C19.8858 17.0379 20.4684 17.3683 21.0284 17.7336C21.9884 18.3318 22.818 19.1249 23.818 19.6605C24.4823 20.0118 25.1623 20.3492 25.7345 20.8466C24.0214 20.4014 22.6597 19.191 21.1936 18.264C20.138 17.4918 18.8719 17.0257 17.9258 16.1057Z" fill="black"></path><path opacity="0.8" d="M12.3281 20.9736C12.9386 21.5736 13.3646 22.3736 13.4777 23.2241C12.8829 22.6119 12.436 21.831 12.3281 20.9736Z" fill="black"></path><path opacity="0.8" d="M14.8125 21.5391C15.0977 21.6069 15.3899 21.7165 15.5412 21.986C16.2908 23.0852 17.1221 24.1286 18.016 25.1112C18.383 25.5269 18.6804 25.9999 18.9047 26.5043C18.2021 26.1112 17.8021 25.3843 17.3029 24.7843C16.4838 23.6938 15.4855 22.7321 14.8125 21.5391Z" fill="black"></path><path opacity="0.8" d="M5.4749 21.9722C5.77403 21.8018 5.99316 22.3252 5.71664 22.4783C5.4123 22.6539 5.21751 22.1305 5.4749 21.9722Z" fill="black"></path><path opacity="0.8" d="M7.91406 21.7061C8.22537 22.3582 8.30363 23.0834 8.41841 23.7878C8.34711 23.8121 8.20276 23.8591 8.12971 23.8834C8.04798 23.1582 7.92971 22.4365 7.91406 21.7061Z" fill="black"></path><path opacity="0.8" d="M1.13104 22.9253C1.40756 23.7636 1.18843 24.6383 1.11539 25.4888C1.07713 25.9722 0.960604 26.4453 0.764082 26.8888C0.680602 25.567 0.798865 24.2088 1.13104 22.9253Z" fill="black"></path><path opacity="0.8" d="M5.71102 25.3459C5.65189 24.7772 5.59624 24.205 5.63276 23.6328C6.34059 25.5024 6.17537 27.5372 6.12493 29.4937C6.11102 30.7319 6.24667 31.965 6.25885 33.2032C6.29363 33.4519 5.97363 33.5093 5.84841 33.6659C5.66059 30.8972 5.96667 28.1146 5.71102 25.3459Z" fill="black"></path><path opacity="0.8" d="M10.7051 23.9233C11.2459 24.6312 11.7051 25.4503 11.7781 26.3546C10.9659 25.8381 10.9746 24.7529 10.7051 23.9233Z" fill="black"></path><path opacity="0.8" d="M13.9258 24.2607C14.6127 24.6903 14.8475 25.4903 15.2319 26.1547C15.6214 26.8886 16.1536 27.5668 16.3136 28.4034C16.091 28.219 15.8475 28.0503 15.6945 27.7981C14.971 26.6938 14.3536 25.5112 13.9258 24.2607Z" fill="black"></path><path opacity="0.8" d="M23.209 25.3721C24.0646 25.8051 24.6507 26.5999 25.4438 27.1234C25.6872 27.6799 25.7255 28.2834 25.4246 28.8277C25.4003 28.3929 25.3899 27.9599 25.3725 27.5269C24.5864 26.8816 23.6942 26.2973 23.209 25.3721Z" fill="black"></path><path opacity="0.8" d="M8.54678 25.9326C9.112 26.8509 9.1033 27.9691 9.29287 29.0004C9.17113 28.99 8.92939 28.9691 8.80939 28.957C8.74678 27.9465 8.51026 26.95 8.54678 25.9326Z" fill="black"></path><path opacity="0.8" d="M2.90027 26.4976C3.32983 27.621 3.10375 28.8489 3.26027 30.0176C3.2881 30.7793 3.51592 31.6106 3.09157 32.3063C2.73679 31.6576 2.84114 30.908 2.82027 30.2019C2.82896 28.9671 2.73331 27.7254 2.90027 26.4976Z" fill="black"></path><path opacity="0.8" d="M19.9512 27.9771C20.6955 28.0953 21.0016 28.8362 21.212 29.4657C20.692 29.064 20.2747 28.5475 19.9512 27.9771Z" fill="black"></path><path opacity="0.8" d="M26.3352 28.1636C26.9143 28.214 26.043 28.6644 26.3352 28.1636V28.1636Z" fill="black"></path><path opacity="0.8" d="M0.560547 32.4817C0.598808 31.0417 0.750111 29.5999 0.624894 28.1582C0.727503 29.3634 1.01968 30.5652 0.889242 31.7808C0.877068 32.0486 0.677069 32.2539 0.560547 32.4817Z" fill="black"></path><path opacity="0.8" d="M16.6914 29.2939C17.2253 29.8192 17.5384 30.5061 17.9105 31.1444C17.7871 31.1844 17.5384 31.2609 17.4149 31.2992C17.1123 30.6539 16.8497 29.9896 16.6914 29.2939Z" fill="black"></path><path opacity="0.8" d="M21.6855 30.0298C22.2316 30.2994 22.6247 30.7689 22.9986 31.2315C23.4664 31.8159 24.0386 32.3672 24.2038 33.1272C23.7082 32.7689 23.3377 32.2785 22.9795 31.7933C22.5534 31.202 22.0177 30.6872 21.6855 30.0298Z" fill="black"></path><path opacity="0.8" d="M9.32987 30.6904C9.61508 31.2435 9.829 31.8261 10.0099 32.4191C9.78726 32.3791 9.56639 32.3391 9.34552 32.2974C9.33856 31.7617 9.32291 31.2261 9.32987 30.6904Z" fill="black"></path><path opacity="0.8" d="M3.11459 32.2661C3.57025 33.0626 3.3859 34.0122 3.45546 34.8852C3.5859 37.56 3.57894 40.24 3.74938 42.9113C3.62416 42.96 3.37025 43.0557 3.24329 43.1044C3.18416 40.7183 3.23633 38.3252 3.04677 35.9444C3.03633 34.7183 2.99459 33.487 3.11459 32.2661Z" fill="black"></path><path opacity="0.8" d="M7.86223 35.758C7.70919 34.9493 7.69702 34.1006 7.88832 33.2988C8.08484 34.0954 8.41006 35.0223 7.86223 35.758Z" fill="black"></path><path opacity="0.8" d="M0.025491 37.7635C-0.0771173 36.4175 0.148969 35.0679 0.36636 33.7427C0.599404 34.5131 0.482882 35.3183 0.460273 36.1062C0.423752 36.6801 0.441144 37.3079 0.025491 37.7635Z" fill="black"></path><path opacity="0.8" d="M5.89258 40.0053C5.99171 38.7393 5.84388 37.4593 6.03519 36.2036C6.51693 37.5532 6.31171 39.0193 6.27171 40.421C6.1778 40.3167 5.98823 40.1097 5.89258 40.0053Z" fill="black"></path><path opacity="0.8" d="M8.00351 37.8066C8.22612 38.3284 8.35481 38.8832 8.46786 39.4379C8.31481 39.4432 8.00873 39.4571 7.85742 39.464C7.89394 38.911 7.92699 38.3562 8.00351 37.8066Z" fill="black"></path><path opacity="0.8" d="M1.2602 44.1182C1.48976 42.3165 1.44802 40.4938 1.67759 38.6938C2.02367 39.226 1.89324 39.8643 1.86194 40.4573C1.79411 41.5043 1.56107 42.5356 1.56281 43.5895C1.49498 44.5895 1.64802 45.6347 1.24107 46.5825C0.908892 45.7825 1.23933 44.9391 1.2602 44.1182Z" fill="black"></path><path opacity="0.98" d="M44.2282 15.0292C45.4664 13.6501 47.4056 12.8518 49.2577 13.144C50.3725 13.2136 51.416 13.7805 52.1551 14.6049C52.6056 15.4744 52.0873 16.3962 51.8143 17.2309C51.623 18.0275 51.2508 18.8953 51.583 19.704C52.3691 20.7579 53.1621 21.9092 53.3169 23.2501C53.3725 24.0988 52.5343 24.5335 52.0838 25.1283C52.1238 25.5649 52.0351 25.9909 51.6995 26.2953C52.9134 29.2049 53.7691 32.2449 54.6021 35.2814C55.1517 37.7405 55.4438 40.2449 55.8108 42.7353C55.9951 43.9562 55.9673 45.1962 56.1395 46.4188C56.5395 44.9162 56.6073 43.3405 57.0508 41.8466C57.263 40.6936 57.6212 39.5492 57.5708 38.3666C57.6699 37.3596 57.8595 36.3631 58.1204 35.3875C58.2351 34.3283 58.7047 33.3631 59.0664 32.377C59.4021 31.0344 60.0125 29.7875 60.4699 28.4883C61.1569 26.6205 62.0925 24.6988 63.7882 23.5509C64.4143 23.257 65.0351 22.9475 65.6021 22.544C65.7708 22.7353 65.9412 22.9231 66.1169 23.1092C65.7604 23.6362 65.1534 23.8379 64.6369 24.1544C63.4282 25.2344 62.0804 26.3475 61.5708 27.9492C62.5291 27.5666 63.4177 26.9353 64.4995 26.9979C65.1812 26.0205 65.343 24.8014 65.9708 23.7996C66.0404 24.9614 65.1499 25.8327 64.9395 26.9127C64.9673 26.9927 65.0264 27.1527 65.0543 27.2309C65.6873 26.4762 66.1708 25.5649 67.016 25.0136C68.2873 24.2049 69.828 23.5457 71.3571 23.9231C72.2614 24.417 72.9571 25.2205 73.5672 26.0379C73.5498 25.6831 73.5359 25.3283 73.4893 24.977C74.3428 24.4136 74.9571 23.5457 75.5776 22.7492C75.7397 21.8188 75.8315 20.7336 75.2075 19.9405C74.7602 19.1927 74.018 18.5214 73.0962 18.5301C71.6319 18.5022 70.091 18.6849 68.8282 19.4849C67.8473 20.2953 67.1864 21.5509 65.9517 22.0135C66.0351 21.4153 66.616 21.1822 66.9899 20.7944C67.5256 20.2362 67.9691 19.5614 68.6456 19.1562C70.1446 18.3909 71.8719 18.1962 73.5345 18.3249C74.7776 18.4901 75.4788 19.6814 75.938 20.7231C76.0493 21.5509 76.1258 22.4814 75.6889 23.2344C75.1553 23.9788 74.5202 24.6431 73.9428 25.3527C73.7814 26.1614 74.4075 26.9249 74.3484 27.7492C74.3832 28.1736 74.1466 28.5301 73.9046 28.8518C73.7466 30.0518 73.4906 31.3857 74.0979 32.5005C74.9466 33.2501 76.1063 33.4605 77.0454 34.0605C77.7028 34.4396 78.1585 35.0657 78.6093 35.6588C79.0211 36.2031 79.0837 36.9579 78.9049 37.6014C78.4541 38.497 77.9498 39.377 77.2993 40.1475C76.8249 40.6483 76.708 41.5562 77.2472 42.0518C77.9623 42.7753 78.8367 43.4083 79.2597 44.3649C79.4788 45.1266 79.6193 45.9562 79.3654 46.7301C79.1219 47.7527 78.5084 48.6222 77.9846 49.5144C77.2179 50.6918 75.508 50.8779 74.9515 52.2205C74.6893 52.8049 74.6545 53.4518 74.5689 54.0779C74.6837 54.2692 74.7971 54.4622 74.9119 54.6553C75.2527 54.7527 75.595 54.8501 75.9359 54.9527C75.8141 55.2779 75.4315 55.2257 75.1623 55.1562C74.6301 55.0014 74.1376 54.7388 73.6319 54.5144C72.9585 54.264 72.9202 53.4135 72.9432 52.8049C72.9153 52.3353 73.0823 51.7996 72.7901 51.384C72.258 50.8083 71.4698 50.5962 70.7359 50.4101C70.1675 50.1892 70.1098 49.4953 70.1446 48.9718C70.1397 47.7562 71.3376 46.9892 71.4802 45.8083C71.6214 45.3527 71.444 44.8622 71.058 44.5909C70.3985 43.9909 69.3377 44.1266 68.7638 43.4118C68.1395 42.7335 67.4456 42.0536 67.1847 41.1405C66.9743 40.3718 67.4143 39.6309 67.4438 38.8727C67.1969 38.3788 66.6508 38.1475 66.2369 37.8205C66.3586 39.3422 64.2769 39.384 63.9534 40.6935C63.5864 41.4849 64.0177 42.4414 63.496 43.1892C63.1638 43.9127 62.023 43.9283 61.9569 44.8136C61.7238 45.7457 62.223 46.6396 62.1238 47.5614C61.9551 47.5196 61.7847 47.4779 61.6177 47.4362C61.5951 46.8796 61.5238 46.2779 61.0891 45.8779C60.4369 45.2483 60.3134 44.2918 60.2977 43.4327C60.2891 42.8744 60.7169 42.424 60.7569 41.8849C60.496 41.4449 60.1899 41.0327 59.9499 40.5805C59.0925 42.9301 58.3534 45.3318 57.8925 47.7944C58.4247 48.7979 58.383 49.9562 58.4543 51.057C58.583 51.8796 58.6091 52.7109 58.5621 53.5422C59.0282 52.417 58.9464 51.0935 59.7012 50.0831C59.7812 50.1109 59.9395 50.1683 60.0195 50.1962C59.9395 51.1788 59.6508 52.1301 59.5795 53.1144C59.4647 54.8014 59.0578 56.4657 59.1482 58.1666C60.5551 58.1701 61.9673 58.297 63.3412 58.6222C64.1291 58.7596 65.1464 58.8222 65.5151 59.6675C65.6473 60.6466 65.3273 61.5978 65.209 62.5596C64.9377 64.4917 64.583 66.4118 64.0438 68.2901C63.4195 70.384 62.889 72.558 61.6491 74.3924C61.0595 74.7041 60.3447 75.2654 59.6647 74.878C60.1012 74.631 60.5917 74.5093 61.0404 74.2915C61.4125 74.0084 61.6108 73.5701 61.8351 73.1736C62.6943 71.7976 63.0769 70.2011 63.5569 68.6691C63.8664 67.7161 64.0543 66.7301 64.3169 65.7631C64.7064 63.9944 64.8438 62.177 65.2664 60.4153C63.2577 60.784 61.2178 60.897 59.1864 61.0779C57.8351 61.0605 56.4804 61.0883 55.1291 61.043C54.0612 60.9283 52.9882 60.864 51.9151 60.8901C51.056 60.6309 50.1708 60.4275 49.3795 59.9909C49.5569 62.6588 49.7621 65.337 50.3447 67.9544C50.9273 70.1907 51.3691 72.528 52.6734 74.4863C53.2264 74.6136 53.7743 74.7632 54.3204 74.9141C56.0004 75.3002 57.7082 74.7562 59.3986 74.9788C59.2421 75.1006 59.0699 75.2293 58.8577 75.2258C57.1221 75.3872 55.3378 75.6515 53.6212 75.1875C53.1447 75.0498 52.616 75.038 52.1917 74.7632C51.9951 74.5058 51.943 74.1684 51.8247 73.8727C51.3343 73.9214 50.8386 73.9785 50.3882 74.1962C50.3969 74.5197 50.4612 74.8863 50.1378 75.102C50.0473 74.7854 49.7969 74.4133 50.0369 74.1023C50.3377 73.5527 51.0734 73.6327 51.5986 73.511C51.2264 72.4098 50.7273 71.3475 50.5064 70.2011C50.3238 69.2657 50.0021 68.3665 49.8282 67.4309C49.4282 65.1839 49.1812 62.9127 49.0595 60.6344C49.0699 60.1492 49.0108 59.6656 48.8682 59.2013C49.3499 58.6917 49.9273 58.2152 50.6317 58.0709C51.8073 57.8326 53.0125 57.9092 54.2038 57.904C54.103 56.0118 53.7204 54.1422 53.5899 52.257C53.8177 52.2083 54.0508 52.2014 54.2873 52.2327C54.1934 51.7214 53.6943 50.944 54.3934 50.6831C54.4925 51.4222 54.7117 52.1388 54.8125 52.8779C54.696 52.9005 54.4647 52.944 54.3482 52.9666C54.2317 52.8518 54.1134 52.7388 53.9969 52.6257C54.2769 54.3544 54.3934 56.104 54.6004 57.8414C54.7012 58.5057 54.4369 59.1649 54.5725 59.8292C54.6856 60.2657 53.9725 60.0988 54.0073 59.7631C53.9899 59.4466 54.0682 59.1353 54.1082 58.824C52.896 58.7788 51.6838 58.8466 50.4769 58.944C50.1082 58.9735 49.7621 59.1091 49.4177 59.2343C49.9151 60.083 51.0125 60.1578 51.8786 60.3474C53.0734 60.6604 54.3169 60.5248 55.5308 60.697C57.1847 60.6987 58.8508 60.8309 60.4943 60.5805C62.0769 60.3927 63.7099 60.4257 65.2421 59.944C64.983 59.5614 64.6351 59.2257 64.1621 59.1526C63.1951 58.97 62.2264 58.7926 61.2664 58.577C62.3377 59.0743 63.5864 59.0205 64.6282 59.5944C63.4786 59.8535 62.3969 59.0988 61.256 59.0309C60.623 59.0153 59.9882 59.0326 59.3551 59.0222C59.3621 58.8813 59.3778 58.6013 59.3864 58.4622C58.9812 58.8413 59.2108 59.4744 59.1064 59.9666C58.8995 59.8501 58.7725 59.6605 58.8038 59.4153C58.6891 56.9057 59.2212 54.4292 59.2873 51.9283C59.1656 53.2727 58.7291 54.5683 58.6473 55.9162C58.6821 56.8727 58.703 57.8292 58.6734 58.7857C58.5969 58.7162 58.4456 58.577 58.3708 58.5075C58.2943 57.464 58.4282 56.4049 58.2108 55.3718C58.1047 56.6118 58.2386 57.8588 58.1395 59.1022C57.2734 58.2779 57.8438 57.0135 57.5343 55.9857C57.6247 55.8692 57.7151 55.7562 57.8108 55.6449L57.9586 56.0031C57.8873 55.2292 57.8038 54.4535 57.8195 53.6762C57.8404 52.464 57.5308 51.2866 57.383 50.0918C57.0647 51.0066 57.0369 51.9805 56.8925 52.9283C57.0038 52.9214 57.2264 52.9057 57.3377 52.897C57.5447 53.8153 57.4577 54.7753 57.7691 55.6762C57.6699 55.6431 57.4734 55.5753 57.3743 55.5422C57.3482 55.0205 57.2543 54.5075 57.1656 53.9944C56.9812 55.2205 57.0664 56.4675 56.8786 57.6935C56.7082 58.6501 57.0299 59.5927 56.9743 60.5509C56.8543 60.4849 56.6143 60.3543 56.4943 60.2883C56.5499 59.6517 56.3604 59.0204 56.463 58.3857C56.6369 57.2291 56.4578 56.0588 56.5551 54.897C56.5395 54.5492 56.663 54.0831 56.2786 53.8883C56.063 55.5509 56.2647 57.2291 56.1621 58.897C56.0977 59.417 56.0838 59.9422 56.1586 60.4622C56.0438 60.4343 55.8143 60.3752 55.7012 60.3474C55.6682 59.6813 55.8577 59.0344 55.8838 58.3735C55.8734 56.5196 55.8612 54.6605 56.0021 52.8101C56.0734 51.9196 55.5134 51.1614 55.2751 50.3388L55.4369 50.0257C55.5169 50.217 55.6004 50.4066 55.6856 50.5962C55.3673 49.2083 55.4769 47.777 55.3517 46.3701C55.0647 43.4588 54.8317 40.5283 54.1499 37.6762C53.5412 35.737 53.2647 33.7092 52.5725 31.7944C51.8943 29.5249 51.2543 27.224 50.2247 25.0814C49.6943 24.137 49.3273 23.1109 48.7604 22.1857C48.1221 20.9909 47.5151 19.7718 46.7204 18.6692C46.1969 17.9214 45.4925 17.304 45.096 16.4692C45.623 16.7666 46.0212 17.2292 46.3378 17.737C46.3969 17.6553 46.4612 17.5735 46.5291 17.497C46.0491 17.0118 45.5795 16.504 45.2491 15.8988C45.9117 16.2014 46.416 16.7457 46.8282 17.3336C47.8838 18.9022 49.0873 20.3927 49.8334 22.1475C50.4734 23.3179 50.7934 24.6379 51.536 25.7527C51.5917 24.8883 52.3064 24.377 52.7708 23.7336C53.0282 22.9962 52.5951 22.2431 52.3204 21.5718C51.983 20.7475 51.0682 20.1996 51.0404 19.2553C50.9917 17.9788 51.656 16.8257 51.8664 15.5944C52.0177 14.7562 51.1743 14.2831 50.5778 13.904C48.9604 13.0831 47.0021 13.3892 45.4873 14.297C45.4577 14.3857 45.3969 14.5631 45.3673 14.6501C45.663 14.5753 45.9586 14.504 46.256 14.4344C45.8264 14.7683 45.3586 15.5475 44.7447 15.2083C45.0995 15.1249 45.0386 14.8657 45.0143 14.6466C44.5638 14.8727 44.1343 15.5701 43.5951 15.1701L43.6891 15.3649L43.5204 15.4344C43.4212 15.4605 43.2247 15.5127 43.1256 15.5388C43.1343 15.4466 43.1517 15.2588 43.1604 15.1666C42.4004 15.3596 41.6073 15.2901 40.8299 15.3249C41.2212 14.6692 41.9986 14.9109 42.623 14.777C41.656 14.6744 40.6108 14.7683 39.7864 15.3266C39.2056 15.697 38.6282 16.2431 38.5986 16.9788C38.5377 18.1596 38.9551 19.3022 39.463 20.3475C39.8891 21.2292 40.7812 21.7875 41.1395 22.7075C41.3986 23.2935 41.3517 23.9492 41.5047 24.5631C41.4525 24.5927 41.3482 24.6501 41.296 24.6779C41.3099 24.7996 41.3221 24.9214 41.336 25.0431C40.9621 25.8588 40.6543 26.8379 40.9778 27.7144C41.343 28.3353 41.7812 28.9214 41.9691 29.6292C42.4612 29.5892 42.9517 29.5422 43.4386 29.4518C43.4473 29.2222 43.456 28.9944 43.4664 28.7649C42.5551 28.0535 41.5517 27.2831 41.3082 26.0779C41.9604 25.9979 42.6334 26.0431 43.1882 26.4309C43.4108 26.4449 43.6317 26.4553 43.856 26.464C43.8056 25.9614 43.6821 25.4692 43.4682 25.0118C43.3708 25.0153 43.1743 25.0205 43.0769 25.0222C43.0299 25.097 42.9325 25.2466 42.8856 25.3214C42.9012 25.0553 42.9169 24.7909 42.9343 24.5266C42.5464 24.0918 42.183 23.6396 41.8056 23.1996C42.1134 22.9179 42.4264 22.4501 42.9117 22.6205C43.8404 22.8918 44.2577 23.8796 45.0247 24.4031C45.0108 23.6953 45.0143 22.977 44.8091 22.2918C44.7204 22.2796 44.5412 22.2553 44.4508 22.2431C43.6438 21.8205 42.8804 21.3283 42.1534 20.7822C41.1291 20.2796 40.2595 19.3822 39.9186 18.2814C40.016 18.304 40.2125 18.3475 40.3117 18.3683C40.1064 17.9857 40.1273 17.544 40.1186 17.1249C40.4264 17.0396 40.7377 16.9562 41.0473 16.8744C41.0386 16.6622 41.0247 16.4501 41.016 16.2379C40.9082 16.0762 40.8021 15.9127 40.6978 15.7492C40.896 15.9283 41.0943 16.1092 41.2908 16.2901C41.4421 16.1875 41.5917 16.0866 41.743 15.9857C42.1047 16.1753 42.4856 16.3231 42.8734 16.4501C42.9464 16.7509 43.023 17.0553 43.2125 17.3092C43.2751 16.7857 43.2056 16.2292 43.4386 15.7405C43.4977 15.7509 43.616 15.7736 43.6751 15.784C44.1256 16.1457 43.8873 16.7736 43.9273 17.2692C44.2334 17.7127 44.5395 18.1579 44.9134 18.5492C45.7499 19.4031 46.4873 20.3457 47.2404 21.2709C47.5395 21.6292 47.7882 22.064 47.743 22.5492C46.9064 22.9509 46.0404 22.1509 45.5586 21.5214C45.3725 21.8275 45.463 22.1753 45.5099 22.5075C45.576 22.464 45.7099 22.3788 45.776 22.3353C46.0125 22.6327 46.2751 22.9109 46.4664 23.2414C46.6699 23.7283 46.7064 24.2657 46.7725 24.7857C46.6178 24.8953 46.463 25.0066 46.3082 25.1179C45.0577 25.4605 43.8577 24.4588 43.3673 23.3788C43.1064 23.3057 42.8473 23.224 42.5847 23.1562C43.143 24.0692 44.2491 24.6988 44.3691 25.8379C44.4821 26.3753 44.0943 26.8222 43.6682 27.0796C43.343 27.1544 43.0195 26.9979 42.7064 26.9336C42.543 26.8605 42.3917 26.5718 42.1882 26.7196C42.7534 27.4675 43.6021 27.9718 44.0404 28.8222C44.0056 28.8796 43.9377 28.9944 43.903 29.0536C43.9325 29.2605 43.9569 29.4692 43.976 29.6796C43.503 30.2501 42.6299 30.2953 42.0073 29.9579C42.1656 30.5544 42.0578 31.1614 41.9951 31.7596C42.0508 32.344 42.2317 32.9301 42.5221 33.4396C42.8786 34.057 43.7621 34.3701 43.6525 35.1944C45.983 36.7144 48.3917 38.2292 50.2091 40.3718C51.0369 41.3249 51.5777 42.4762 52.3186 43.4918C52.8873 44.6501 53.4456 45.817 54.1012 46.9318C54.6873 47.897 55.0021 48.9909 55.4369 50.0257L55.2282 50.304C55.2056 50.1909 55.1604 49.9683 55.1378 49.8553L55.0178 49.8901C55.2056 50.5353 55.3499 51.1927 55.4804 51.8518L55.1847 51.8101C55.4091 52.1822 55.5151 52.6066 55.5221 53.0414C55.0317 52.5196 54.8195 51.7996 54.6247 51.1266C54.7499 51.1875 55.0004 51.3092 55.1256 51.3701C54.6456 49.7718 53.8525 48.2988 53.2299 46.7579C52.3743 45.1544 51.416 43.6083 50.4038 42.0988C49.7986 41.2222 49.0299 40.4779 48.3464 39.6675C47.9482 39.1822 47.3864 38.8814 46.9517 38.4362C46.5551 38.0396 46.1064 37.7022 45.6404 37.3909C45.6056 37.7492 45.4925 38.0901 45.3099 38.3996C45.3586 39.0083 45.4804 39.6101 45.6264 40.2031C45.3656 40.1857 45.1586 40.0483 45.0769 39.7979C44.7308 39.0831 44.5256 38.3075 44.1638 37.5979C43.9569 37.2014 43.8543 36.7649 43.7969 36.3249C43.4751 36.1144 43.1534 35.9057 42.8212 35.7127C43.1708 36.4431 43.7169 37.1562 43.616 38.0136C43.5238 38.8918 43.4404 39.8153 42.9308 40.5683C42.1951 42.1057 40.5151 42.7596 39.103 43.5144C38.2978 44.057 37.6247 44.8901 37.5273 45.8883C37.2212 47.0866 37.1917 48.4431 36.3517 49.4292C35.5186 50.3857 34.3969 51.0396 33.2491 51.5475C32.4508 51.9022 31.6578 52.417 31.2386 53.2066C31.0821 54.1109 31.496 55.0066 31.4004 55.9162C31.3308 57.1579 30.8299 58.4918 29.7638 59.2083C28.9795 59.7614 28.536 60.8779 29.0056 61.7701C29.5047 61.9822 30.0334 62.1127 30.5499 62.2761C30.3638 62.6988 29.8073 62.5317 29.4543 62.4726C28.6543 62.2135 27.7412 61.9996 27.2351 61.2622C26.4664 60.2517 25.8925 58.9475 26.183 57.657C26.3378 56.9005 26.7291 56.1109 26.4056 55.3422C25.8038 53.7875 24.696 52.2988 24.9047 50.5475C25.2247 48.8118 26.3882 47.3805 26.8282 45.6831C27.1778 44.4344 26.2351 43.264 26.5047 42.0101C26.7064 40.2396 28.0978 38.9944 28.9047 37.5022C28.8282 37.2605 28.7151 37.0327 28.6143 36.8014C28.8143 36.7492 29.0143 36.697 29.2143 36.6449C29.496 35.2535 29.3256 33.824 29.5708 32.4309C29.7082 31.3788 30.623 30.6849 31.4351 30.1231C32.1256 29.7509 32.8717 29.1892 33.6978 29.4396C35.2247 29.7022 36.5308 30.7388 37.3377 32.0344C37.656 32.5283 37.7482 33.1196 37.9621 33.6588C38.2734 33.8362 38.6595 33.7075 39.0004 33.7614C40.4508 33.9527 41.8577 34.3718 43.2108 34.9231C42.9169 34.4518 42.5204 34.0588 42.2004 33.6101C41.9882 33.2205 41.8491 32.7979 41.6821 32.3892C41.4369 31.7979 41.6943 31.1631 41.6664 30.5527C41.6143 29.7666 41.3534 28.9822 40.8525 28.3683C40.1256 27.4309 40.5325 26.1805 40.7291 25.1335C41.1256 23.9857 40.8525 22.5979 39.9691 21.7475C39.4473 21.1892 38.9777 20.5544 38.7725 19.8083C38.3795 18.6692 37.9117 17.3736 38.4247 16.1979C39.0873 15.097 40.3517 14.4222 41.6212 14.3579C42.5517 14.2049 43.3934 14.7075 44.2282 15.0292ZM41.0838 16.3579C41.2873 16.8709 41.6891 17.4257 42.2891 17.4622C42.6073 17.8031 42.9047 18.1649 43.2038 18.5231C43.6438 19.2588 44.4491 19.6709 44.8978 20.4014C44.9847 20.3996 45.1569 20.3979 45.2438 20.3979C45.1412 20.1127 45.0438 19.8275 44.9395 19.544C44.9586 19.4831 44.9969 19.3649 45.0178 19.3057C44.8838 19.3144 44.6178 19.3301 44.4856 19.3388C44.4838 19.2014 44.4804 18.9266 44.4786 18.7892C43.6438 18.4727 43.1725 17.6901 42.7951 16.9301C42.7691 17.0257 42.7169 17.2153 42.6908 17.3109C42.5934 17.2849 42.3969 17.2327 42.2995 17.2049C42.0334 16.7509 41.7291 16.1631 41.0838 16.3579ZM40.6404 17.5892C40.656 18.0014 40.6838 18.417 40.8178 18.8101C42.0491 20.0588 43.5534 20.9944 45.0647 21.8675C45.0804 21.737 45.1099 21.4727 45.1238 21.3422C44.623 20.7805 43.9656 20.377 43.5064 19.7736C42.8334 18.9388 42.1378 18.1179 41.3012 17.4414C41.0804 17.4901 40.8595 17.5405 40.6404 17.5892ZM47.4021 18.9596C47.2021 18.5666 46.9638 18.1927 46.7743 17.7944C46.5047 18.2501 47.1586 18.6292 47.4021 18.9596ZM47.5882 19.144C47.5064 19.3996 47.6769 19.6866 47.8282 19.8901C47.8908 19.8866 48.0125 19.8831 48.0734 19.8796C48.0125 19.6205 47.8578 19.2101 47.5882 19.144ZM45.5238 19.8831C45.5151 20.224 45.503 20.5631 45.4977 20.904C45.9186 21.1875 46.3221 21.5005 46.6664 21.8779C46.8786 21.9075 47.0908 21.9492 47.3064 21.9614C46.4821 21.5162 45.9621 20.6814 45.5238 19.8831ZM48.1621 20.4779C48.5691 21.1422 48.8873 21.857 49.3117 22.5127C49.7447 23.1562 49.8664 23.9736 50.4299 24.537C49.9917 22.9944 49.0925 21.6431 48.3951 20.2136C48.3169 20.3005 48.2386 20.3892 48.1621 20.4779ZM45.4873 23.0744C45.3221 23.3718 45.4543 23.6866 45.5221 23.9909C45.4682 24.0675 45.3586 24.2188 45.3047 24.2936C45.2143 24.6483 45.6699 24.6031 45.8717 24.7353C45.8717 24.6309 45.8699 24.4205 45.8699 24.3162C45.9499 24.3927 46.1099 24.5475 46.1899 24.6257C46.1638 24.257 46.1169 23.8918 46.0804 23.5266C45.8856 23.377 45.7412 23.1283 45.4873 23.0744ZM62.1656 25.9805C62.9377 25.0849 63.7464 24.1788 64.7795 23.577C63.5621 23.8344 62.7621 24.9631 62.1656 25.9805ZM69.8037 24.2449C70.068 24.2953 70.3324 24.3388 70.6002 24.377C69.9553 24.6692 69.2386 24.737 68.5743 24.9718C68.1795 25.0501 67.9621 25.4936 67.5447 25.497C67.5691 25.3057 67.6056 25.1179 67.6595 24.9336C66.5638 25.5109 65.896 26.5701 65.2404 27.5718C64.4421 27.4379 63.5864 27.337 62.8282 27.6883C63.2038 27.6518 63.5812 27.6205 63.9604 27.6327C63.7464 27.8136 63.4682 27.8675 63.216 27.9631C62.2038 28.3544 61.1047 28.9857 60.8769 30.144L60.6908 30.1283C60.6804 29.9022 60.6699 29.6779 60.6595 29.4518C60.5447 29.7579 60.4317 30.064 60.3082 30.3666C60.4421 30.4762 60.5812 30.577 60.7221 30.6796C60.7012 31.1805 60.7047 31.6814 60.6612 32.1822C60.4108 31.704 60.4038 31.1544 60.4977 30.6327C60.4177 30.664 60.256 30.7231 60.1743 30.7527C60.223 31.3562 59.9864 31.9614 60.1569 32.5544C60.3064 33.2727 60.6647 33.9249 61.1064 34.504C61.2438 34.3005 61.3343 34.0692 61.3638 33.824C61.5551 34.0101 61.7482 34.1927 61.9447 34.3753C61.7377 34.4744 61.5325 34.577 61.3325 34.6883C62.3134 35.5527 63.3325 36.4205 64.6004 36.8327C65.8056 37.2135 67.1604 37.617 67.9099 38.7162C67.9569 39.4344 67.3969 40.0866 67.5377 40.8205C67.7291 41.7962 68.4543 42.5318 69.1099 43.2309C69.6353 43.8344 70.5327 43.7022 71.1533 44.144C71.515 44.4101 71.8663 44.7353 72.0319 45.1649C72.1814 46.8553 70.0959 47.944 70.6266 49.6709C70.8353 50.3388 71.6527 50.1614 72.1536 50.4379C72.7936 50.7579 73.6562 51.2396 73.4767 52.0935C73.4684 52.8344 73.1066 54.0535 74.1049 54.2988C74.2336 53.4657 74.2475 52.5631 74.7324 51.8379C75.4162 50.6831 76.9306 50.4501 77.6611 49.3283C78.4333 48.0292 79.4266 46.5579 78.9849 44.9718C78.7206 43.6883 77.5289 42.9596 76.7136 42.0449C76.3463 41.4101 76.4993 40.5596 76.9675 40.017C77.6402 39.2535 78.1585 38.3544 78.5376 37.4135C78.6719 36.6327 78.3706 35.6362 77.6458 35.2588C77.7202 35.6344 77.995 35.937 78.1084 36.3022C78.2767 36.7735 78.2559 37.3927 77.8454 37.7336C77.7919 37.1631 77.8649 36.537 77.524 36.0379C77.2611 35.4796 76.7101 35.1475 76.3706 34.6431C76.788 34.5336 77.0872 34.8814 77.4232 35.057C77.3814 34.9753 77.298 34.8136 77.2576 34.7336C76.2733 33.7022 74.6489 33.6344 73.6924 32.5753C73.0475 31.3683 73.4197 29.9301 73.515 28.6344C73.5846 27.5022 73.5553 26.1614 72.562 25.4066C72.724 25.9336 72.9953 26.4153 73.1832 26.9318C73.3724 27.7231 73.3446 28.5562 73.2333 29.3562C73.2145 29.5249 73.1275 29.6518 72.9724 29.737C72.9098 28.9127 72.964 28.0762 72.7985 27.2622C72.5327 26.3822 72.1014 25.5527 71.3724 24.9735C71.4406 24.8692 71.5776 24.6622 71.6458 24.5579C71.1484 24.1683 70.3637 23.9596 69.8037 24.2449ZM68.383 24.537C68.463 24.5596 68.623 24.6066 68.7047 24.6309C68.9986 24.5509 69.2786 24.4275 69.5727 24.3475C69.1725 24.217 68.7691 24.4449 68.383 24.537ZM50.4682 24.5962C50.6195 25.1701 50.8943 25.7005 51.1708 26.2222C51.0699 25.6327 50.7969 25.0901 50.4682 24.5962ZM52.4038 29.857C52.6734 31.1249 53.1482 32.3301 53.5134 33.5683C54.0264 35.817 54.6717 38.0327 55.1273 40.2936C54.8125 37.5005 54.2595 34.7214 53.3238 32.0675C52.7604 30.1927 52.1882 28.3144 51.3969 26.5214C51.4978 27.6796 52.1395 28.7266 52.4038 29.857ZM61.1673 27.857C60.9969 27.9596 60.889 28.2292 60.9864 28.4101C61.2751 28.5196 61.4891 27.9109 61.1673 27.857ZM30.9882 30.8205C31.1064 30.8379 31.3447 30.8692 31.4647 30.8849C31.2838 31.1735 31.0891 31.4536 30.823 31.6727C30.8108 31.5109 30.7882 31.1875 30.776 31.0257C30.5221 31.2849 30.2317 31.5388 30.1291 31.9022C29.6821 33.1892 29.7882 34.5857 29.983 35.9092C30.1117 35.7631 30.2404 35.617 30.3725 35.4744C29.9412 34.8483 29.8908 34.0779 29.9082 33.3422C30.1169 33.2431 30.3273 33.1422 30.536 33.0414C30.9621 33.4744 31.2143 34.0449 31.6578 34.4605C31.5986 34.497 31.4804 34.5683 31.4212 34.6049C32.1012 34.8222 32.3882 35.5735 32.9812 35.9301C33.2334 36.6118 34.0821 36.4709 34.656 36.5979C34.6143 36.7405 34.5308 37.0275 34.4873 37.1701C34.1395 37.264 33.7882 37.0553 33.4525 36.9753C32.4351 36.544 31.8421 35.5701 31.1151 34.7944C30.816 34.5092 30.6856 33.7318 30.1464 34.0431L30.4178 34.0449C30.5917 35.1457 31.4804 35.9022 32.0891 36.7736C32.3656 37.177 32.3534 37.6779 32.3969 38.1457C32.3412 38.1492 32.2282 38.1562 32.1725 38.1596C32.1656 38.3666 32.1569 38.5735 32.143 38.7805C31.7447 38.784 31.3343 38.8605 30.943 38.7701C30.4386 38.3196 30.0943 37.5649 29.3412 37.4988C28.9256 38.2553 28.3673 38.9179 27.9117 39.6483C28.0508 39.6466 28.3325 39.6466 28.4734 39.6449C28.6821 40.3405 28.8317 41.064 29.2108 41.6935C29.2004 41.7509 29.1778 41.864 29.1673 41.9214C30.2978 42.2066 31.4369 41.6814 32.5621 41.8709C32.9778 40.6953 33.2525 39.4431 33.9986 38.4188C34.4473 37.8031 34.4908 36.9979 34.9325 36.3822C34.9325 35.8118 34.4804 35.4188 34.2717 34.9231C33.9812 34.257 33.5847 33.6362 33.0734 33.1179C32.8195 33.1544 32.6821 33.4744 32.4056 33.5162C32.5447 33.2796 32.9743 33.1109 32.8282 32.7909C32.6125 32.4953 32.3534 32.2362 32.1064 31.9683C32.1378 31.5892 32.1638 31.2083 32.1917 30.8292C32.2595 30.8727 32.3934 30.9596 32.4612 31.0031C32.463 30.4135 33.2264 30.7196 33.6073 30.6588C33.9082 31.2535 34.3917 31.7353 34.6351 32.3614C34.9134 32.5892 35.2978 32.7666 35.3064 33.177C35.9569 33.4796 36.1377 34.6935 37.0525 34.3701C37.0334 33.9996 37.0091 33.6292 36.9708 33.2588C37.063 33.2292 37.2456 33.1683 37.336 33.137C36.8125 31.2866 35.016 29.8901 33.1134 29.7353C32.3517 29.9805 31.6943 30.4588 30.9882 30.8205ZM32.6978 31.2066C32.703 31.4327 32.7099 31.6588 32.743 31.8831C32.9221 31.8205 33.1012 31.7579 33.2804 31.6918C33.8195 33.1057 34.7378 34.3283 35.3499 35.7075C35.4786 35.6779 35.7325 35.6205 35.8595 35.5909C35.7725 35.7022 35.5986 35.9249 35.5099 36.0362C35.7847 36.1492 36.0699 36.2327 36.3691 36.2396C36.3934 36.3144 36.4438 36.4605 36.4682 36.5335C36.1882 36.5075 35.9082 36.4849 35.6264 36.464C35.4143 36.9649 34.8369 37.1753 34.6664 37.6988C34.4143 38.2918 34.0751 38.8379 33.7534 39.3927C33.4804 39.9631 33.3395 40.5875 33.103 41.1735C32.7969 41.8657 33.0125 42.6327 33.1725 43.3335C32.7099 43.5405 32.7099 42.9022 32.5517 42.6414C32.143 43.2414 32.0543 44.0292 31.4838 44.5196C31.6508 43.5944 32.1482 42.7788 32.5534 41.9457C31.6578 42.1544 30.7395 42.2101 29.8247 42.2953C30.296 42.8188 30.6247 43.5127 30.3743 44.2205C29.7899 44.1718 29.2856 43.8553 28.7778 43.5927C29.1673 44.4709 30.0664 45.024 30.3273 45.9614C30.1499 46.0709 29.9743 46.1822 29.8004 46.2953C29.2856 46.2744 28.7743 46.1753 28.2995 45.9683C28.6212 46.6083 28.8751 47.2796 29.1186 47.9527C29.0143 47.9753 28.8091 48.0222 28.7047 48.0449C28.816 48.0553 29.0369 48.0779 29.1482 48.0883C29.096 48.8188 28.2978 48.5544 27.8108 48.5405C27.7169 49.2344 26.976 49.6344 26.376 49.2118C25.9378 49.0257 26.2925 48.6014 26.4038 48.3092C26.5064 48.4501 26.6073 48.5927 26.7099 48.7353C26.8143 48.7301 27.023 48.7214 27.1273 48.7179C27.0873 48.4222 27.0334 48.1266 27.0421 47.8275C27.5134 47.4779 28.0108 48.0362 28.5047 48.1022C28.503 47.0831 27.2821 46.1492 27.976 45.1596C28.5464 45.464 29.1551 45.7318 29.816 45.7353C29.6978 45.6831 29.5812 45.6292 29.4664 45.5736C29.263 45.2275 28.9708 44.9509 28.6612 44.7022C28.6456 44.3996 28.5447 44.1335 28.1917 44.0901C28.2751 44.024 28.4438 43.8918 28.5273 43.8257C28.4404 43.8379 28.2664 43.864 28.1795 43.8779C28.0751 43.5388 27.983 43.1962 27.9273 42.8449C28.0438 42.7944 28.2804 42.6936 28.3969 42.6431C28.6647 42.897 28.9691 43.1144 29.3395 43.184C29.5569 43.3649 29.7708 43.5509 29.983 43.7405C29.8647 43.5683 29.7447 43.3979 29.6264 43.2257L29.9691 43.1822C29.8299 43.1075 29.6925 43.0309 29.5534 42.9579C29.4664 42.8083 29.3778 42.6588 29.2908 42.5092C28.8525 42.4327 28.1795 42.584 28.2508 41.9196C28.3725 41.9405 28.6178 41.984 28.7395 42.0049C28.5308 41.5475 28.3256 41.0866 28.0995 40.6362C28.0995 40.537 28.1012 40.337 28.103 40.2379C27.9708 40.1231 27.8404 40.0066 27.7099 39.8918C27.3656 40.4727 27.0925 41.097 26.9256 41.7527C26.7882 42.5544 26.9656 43.3649 27.1169 44.1527C27.3951 44.0518 27.8664 43.8414 27.7986 44.3857C27.6125 44.3266 27.4264 44.264 27.2421 44.2014C27.3117 44.5996 27.3238 45.0031 27.2838 45.4049C27.3238 45.4518 27.4004 45.5457 27.4386 45.5927C26.9238 46.6918 26.4282 47.7996 25.8473 48.8657C25.4038 49.6831 25.1151 50.6344 25.2908 51.5683C25.4751 53.0396 26.5499 54.1857 26.9256 55.5944C27.2004 56.6709 26.343 57.6292 26.5656 58.7057C26.7743 59.9475 27.4178 61.2326 28.5899 61.8152C28.3951 61.1874 28.3934 60.4987 28.7186 59.9126C29.0351 59.1039 29.9673 58.8135 30.3534 58.057C30.8525 57.2692 30.9899 56.3214 30.9986 55.4049C30.9534 54.5979 30.6682 53.7422 30.9812 52.9579C31.7204 51.6344 33.2786 51.264 34.4943 50.537C35.2543 49.9892 36.1186 49.4518 36.4838 48.5422C36.9899 47.3666 36.9934 46.0396 37.4421 44.8466C38.136 43.3909 39.7308 42.8709 41.0177 42.097C41.9812 41.5701 42.5899 40.5718 42.9534 39.5649C43.0925 38.6553 43.336 37.6414 42.8438 36.7927C42.4908 36.2136 42.2421 35.4918 41.6056 35.1614C41.8978 35.7109 42.2943 36.2031 42.5221 36.7857C42.6125 36.9683 42.6073 37.1509 42.5047 37.3335C41.9899 36.5475 41.6491 35.5179 40.7099 35.1335C39.536 34.6362 38.0804 34.2014 36.9204 34.9596C36.6908 34.9544 36.463 34.9492 36.2351 34.944C35.263 34.0222 34.4856 32.9283 33.6664 31.8744C33.5047 31.6588 33.3899 31.4136 33.2734 31.1736C33.0821 31.1822 32.8891 31.1944 32.6978 31.2066ZM58.2664 36.7979C58.1238 37.8501 57.8212 38.8866 57.8595 39.9562C58.0717 38.3492 58.7204 36.8327 59.016 35.2396C59.2195 34.0483 59.9447 32.9196 59.6612 31.6779C58.9951 33.3162 58.4577 35.0327 58.2664 36.7979ZM59.8995 33.3422C59.8108 33.6692 59.7221 33.9944 59.6386 34.3231C60.3308 34.9283 60.1064 35.9196 60.0804 36.7266C59.943 36.7127 59.6699 36.6849 59.5325 36.6709C59.4977 35.9892 59.9517 35.2727 59.5238 34.6414C59.4804 34.7962 59.3951 35.1057 59.3517 35.2605C58.9534 37.5144 57.983 39.6466 57.856 41.9509C57.5743 43.2118 57.1673 44.4518 57.0091 45.7405C56.583 47.5805 56.4891 49.4935 55.903 51.2918C55.9864 51.4518 56.0751 51.6118 56.1604 51.7718C56.1691 50.5283 56.6143 49.3492 56.6995 48.1144C57.4264 45.1857 57.9325 42.1735 59.143 39.3909C59.3604 38.8466 59.496 38.2675 59.7743 37.7509C60.2943 36.8675 60.6334 35.8901 61.2334 35.0536C60.6612 34.5927 60.2317 33.9927 59.8995 33.3422ZM60.0299 38.0188C59.6282 38.9527 59.3395 39.9335 58.9291 40.8657C58.7099 41.857 58.2751 42.7805 58.0751 43.777C57.6908 45.0483 57.583 46.3875 57.1795 47.6553C56.9673 48.2449 56.9934 48.8796 56.8612 49.4866C56.5899 50.5875 56.4786 51.7249 56.4612 52.857C56.7047 52.1492 56.6508 51.3857 56.8473 50.6675C57.0734 49.9283 57.096 49.1422 57.3673 48.4153C57.8647 46.4709 58.1604 44.4796 58.8769 42.5962C59.2943 40.824 60.1534 39.2118 60.7725 37.5092C61.0438 36.7596 61.5395 36.097 61.6751 35.2988C60.8369 35.9944 60.5725 37.1127 60.0299 38.0188ZM30.1569 35.9631C30.1812 36.2327 30.2038 36.5022 30.2264 36.7718C30.096 36.7301 29.9673 36.6831 29.8404 36.6344C29.9117 36.5301 30.056 36.3196 30.1273 36.2153C30.0264 36.2014 29.8247 36.1735 29.7238 36.1596C29.663 36.3788 29.6021 36.5979 29.5412 36.8188C29.9951 36.9075 30.3186 37.2466 30.6769 37.5109C30.783 37.7475 30.863 37.9996 31.0143 38.2153C31.263 38.2518 31.5151 38.2657 31.7673 38.2814C31.776 37.9405 31.8178 37.5962 31.7743 37.2588C31.343 36.7422 30.7743 36.3283 30.5273 35.6779C30.4038 35.7718 30.2804 35.8675 30.1569 35.9631ZM62.0038 35.8501C61.3064 37.224 60.6438 38.6344 60.1951 40.1109C60.3291 40.8622 60.8908 41.4188 61.3047 42.0292C61.1273 42.4901 60.8717 42.9249 60.7673 43.4101C60.743 44.2762 60.8717 45.2327 61.5395 45.8535C61.5673 45.3301 61.5238 44.7927 61.6664 44.2831C62.0317 43.6257 62.9812 43.5179 63.2143 42.7509C63.4543 41.9422 63.1899 41.0188 63.6804 40.2762C64.1691 39.1388 65.8525 39.0449 66.0056 37.6988C65.4351 37.4849 64.856 37.2901 64.2769 37.1057C63.4421 36.8431 62.7395 36.304 62.0038 35.8501ZM44.2821 36.6535C44.3151 37.2327 44.6299 37.7266 44.8734 38.2327C45.1064 37.9388 45.2891 37.6083 45.4456 37.2675C45.0682 37.0431 44.6838 36.8327 44.2821 36.6535ZM47.9291 38.704C48.4595 39.2588 49.0021 39.8049 49.4821 40.4049C49.6212 40.5805 49.8021 40.8153 50.0577 40.7231C49.3882 40.0101 48.7151 39.2918 47.9291 38.704ZM50.1169 41.0362C50.1673 41.2779 50.3621 41.6431 50.6369 41.6327C50.6873 41.4066 50.496 41.1927 50.3604 41.0327C50.2995 41.0344 50.1777 41.0362 50.1169 41.0362ZM57.3256 42.5579C57.5691 42.1162 57.623 41.6101 57.5725 41.1144C57.4299 41.5822 57.3551 42.0692 57.3256 42.5579ZM53.9656 47.4657C53.863 47.6692 54.0386 48.0727 54.2856 48.0553C54.3934 47.8535 54.2177 47.4327 53.9656 47.4657ZM57.6491 48.5422C57.7169 50.1057 57.8856 51.6744 58.2195 53.2049C58.336 52.1962 58.0769 51.2014 58.0543 50.1944C58.0004 49.6327 58.0004 49.0135 57.6491 48.5422ZM50.4578 58.4517C50.9951 58.5804 51.5447 58.5162 52.0838 58.4396C52.8177 58.3353 53.5534 58.4692 54.2873 58.4988C54.1551 58.3562 53.9934 58.2813 53.8056 58.2726C52.6856 58.1856 51.5691 58.3213 50.4578 58.4517Z" fill="black"></path><path opacity="0.98" d="M46.9219 14.5316C46.8628 14.0081 47.4767 13.9594 47.8506 13.9124C48.5724 13.8898 49.3498 13.6324 50.0333 13.9681C50.4454 14.1611 50.9185 14.3385 51.1133 14.7907C50.428 14.7855 49.9324 14.1907 49.2576 14.1611C48.4715 14.2203 47.7011 14.4046 46.9219 14.5316Z" fill="black"></path><path opacity="0.98" d="M44.0335 15.6531C44.2422 15.5174 44.5779 15.6966 44.5761 15.947C44.4648 16.2983 43.7709 15.9418 44.0335 15.6531Z" fill="black"></path><path opacity="0.98" d="M60.4619 17.3876C61.2358 16.6903 62.3523 17.0903 63.0949 17.6242C64.0079 18.2485 64.3679 19.3407 64.9732 20.219C65.2932 20.7946 65.8323 21.2746 65.9192 21.9546C65.0149 21.3129 64.6549 20.1894 63.9766 19.3476L63.9662 19.7424C63.7158 19.3911 63.4305 19.0607 63.081 18.8033C62.9679 18.5911 62.8566 18.3772 62.7523 18.1616C63.2132 18.2885 63.5262 18.6468 63.7992 19.0155L63.8706 18.9668C63.394 18.3355 62.874 17.5981 62.0358 17.4572C61.634 17.4033 61.1436 17.2433 60.8149 17.565C59.954 18.3007 59.2323 19.2433 58.8532 20.3163C58.5888 21.5024 58.4514 22.7563 58.7088 23.9581C58.8462 24.6329 59.2601 25.2068 59.4479 25.8642C59.6184 26.7198 59.3488 27.5772 59.0879 28.3859C58.874 29.0433 58.441 29.652 58.4706 30.3703C58.4775 31.1181 58.9123 31.7807 58.9158 32.5285C58.8045 32.4903 58.5784 32.4137 58.4671 32.3772C58.234 31.445 57.921 30.4659 58.1158 29.499C58.5453 28.4955 59.0358 27.4798 59.1106 26.3703C59.1801 25.5772 58.6149 24.9459 58.3905 24.2276C58.0358 23.2433 58.1419 22.1772 58.2758 21.1616C58.3453 19.6398 59.3505 18.3442 60.4619 17.3876Z" fill="black"></path><path opacity="0.98" d="M61.543 17.5736C62.0821 17.3162 61.5691 18.1528 61.543 17.5736V17.5736Z" fill="black"></path><path opacity="0.98" d="M39.3906 18.6001C39.975 18.6923 39.0602 19.0714 39.3906 18.6001V18.6001Z" fill="black"></path><path opacity="0.98" d="M71.0024 18.9179C71.6981 18.9022 72.4389 18.6049 73.0928 18.9788C72.0723 19.1353 71.0511 19.2935 70.041 19.5092C70.1419 19.064 70.5975 18.9092 71.0024 18.9179Z" fill="black"></path><path opacity="0.98" d="M73.9417 19.0415C74.1817 19.2398 74.4057 19.4624 74.5539 19.7406C74.2269 19.6224 73.7017 19.4989 73.9417 19.0415Z" fill="black"></path><path opacity="0.98" d="M39.9512 20.2624C40.0329 20.0989 40.1147 19.9355 40.1964 19.772C40.5373 20.3476 40.9999 20.8433 41.5651 21.2033C41.499 21.4241 41.4329 21.6468 41.3651 21.8676C41.292 21.8346 41.1425 21.7668 41.0677 21.7337C40.7599 21.1963 40.3842 20.7041 39.9512 20.2624Z" fill="black"></path><path opacity="0.98" d="M74.7347 19.6904C75.4074 20.0817 75.5848 21.0887 75.1222 21.7061C75.1674 20.9913 74.6804 20.3878 74.7347 19.6904Z" fill="black"></path><path opacity="0.98" d="M68.1145 20.8357C68.3476 20.5296 68.5615 20.1714 68.9597 20.0601C68.7545 20.8131 68.0745 21.9122 67.1562 21.5157C67.4554 21.2618 67.7736 21.0322 68.1145 20.8357Z" fill="black"></path><path opacity="0.98" d="M64.2637 20.6206C64.768 20.7406 64.9245 21.3076 65.1506 21.7076C64.6585 21.5371 64.3541 21.1232 64.2637 20.6206Z" fill="black"></path><path opacity="0.98" d="M65.875 22.7786C65.8959 22.2499 66.5133 22.0412 66.962 22.0847C66.8037 22.5351 66.3307 22.7682 65.875 22.7786Z" fill="black"></path><path opacity="0.98" d="M74.7402 22.2729C74.8446 22.2747 75.0533 22.2764 75.1576 22.2764C75.0581 22.9616 74.6755 23.7982 73.8672 23.779C74.2672 23.346 74.5538 22.8312 74.7402 22.2729Z" fill="black"></path><path opacity="0.98" d="M48.9811 28.3351C49.3272 27.6743 50.0628 27.3647 50.7689 27.269C50.362 27.7682 49.5898 27.8708 49.3324 28.5056C49.1689 29.1056 49.5985 29.7647 49.2246 30.3247C48.9481 30.9995 48.3167 31.4012 47.8559 31.9299C47.355 32.8082 47.7481 33.8986 47.3185 34.7977C46.7567 35.0777 46.2889 35.5056 45.9376 36.0221C45.8263 36.0569 45.6037 36.1282 45.4941 36.1647C45.5446 35.3838 46.2854 35.0969 46.8107 34.6795C47.4002 33.7664 46.9428 32.5508 47.5272 31.6256C47.9011 31.1177 48.5794 30.8795 48.8089 30.2569C49.1567 29.6569 48.675 28.9473 48.9811 28.3351Z" fill="black"></path><path opacity="0.98" d="M44.8988 27.7524C45.2275 28.342 45.1266 29.0342 45.1771 29.6829C45.1684 30.1994 45.2257 30.8307 44.7997 31.2064C44.8136 30.055 44.7475 28.8968 44.8988 27.7524Z" fill="black"></path><path opacity="0.98" d="M66.5586 27.9473C67.0995 28.4777 67.3829 29.2134 67.5586 29.9368C66.9603 29.4447 66.816 28.6377 66.5586 27.9473Z" fill="black"></path><path opacity="0.98" d="M32.5293 30.1129C32.9884 30.0364 33.4893 29.779 33.9449 30.0034C34.4876 30.2695 35.0945 30.4503 35.5345 30.8834C36.1554 31.466 36.6736 32.1738 37.0215 32.9512C36.9571 33.0103 36.8267 33.1303 36.7623 33.1895C36.3189 32.2834 35.6632 31.499 34.9154 30.8295C34.7328 30.6399 34.4684 30.5877 34.2302 30.5025C34.218 30.6451 34.1936 30.9321 34.1815 31.0747C34.1171 30.8225 34.0615 30.5669 34.011 30.3129C33.5293 30.1721 32.8076 30.6695 32.5293 30.1129Z" fill="black"></path><path opacity="0.98" d="M72.6175 31.6728C72.5083 31.3388 72.6975 31.0223 72.9535 30.8188C72.9549 31.5893 73.1323 32.3475 73.6401 32.9475C72.9709 32.8745 72.7879 32.2102 72.6175 31.6728Z" fill="black"></path><path opacity="0.98" d="M68.5469 31.6289C69.0564 32.2237 69.6376 32.8446 69.8567 33.6098C69.0982 33.2498 68.8269 32.3559 68.5469 31.6289Z" fill="black"></path><path opacity="0.98" d="M44.9676 32.9111C45.2493 33.4259 45.3067 34.0172 45.4163 34.5824C45.3172 34.5424 45.1189 34.4642 45.0198 34.4242C44.9537 33.9233 44.9641 33.4155 44.9676 32.9111Z" fill="black"></path><path opacity="0.98" d="M36.459 36.6467C36.5685 36.5597 36.6781 36.4763 36.7894 36.3945C38.1477 36.6989 39.5494 36.7354 40.9042 37.0728C40.6625 37.2867 40.3494 37.2119 40.0625 37.1737C38.8712 36.9389 37.659 36.8363 36.459 36.6467Z" fill="black"></path><path opacity="0.98" d="M71.7363 36.396C72.4097 37.3125 73.0302 38.283 73.5659 39.2864C73.4685 39.2725 73.2737 39.2447 73.1763 39.2308C72.6824 38.2934 71.9297 37.4708 71.7363 36.396Z" fill="black"></path><path opacity="0.98" d="M30.6562 36.5942C30.9623 36.716 30.9362 37.0377 30.9693 37.3073C31.0597 37.2847 31.2406 37.2412 31.331 37.2186C31.3293 37.2725 31.3276 37.3786 31.3258 37.4308C31.2197 37.4325 31.0076 37.4342 30.9015 37.4342C30.8128 37.1577 30.7276 36.8777 30.6562 36.5942Z" fill="black"></path><path opacity="0.98" d="M62.0925 40.3041C62.1708 39.2902 62.1516 38.1319 62.8664 37.3232C62.4595 38.998 62.3551 40.7198 62.1534 42.4311C62.0682 42.3667 61.8977 42.2415 61.8125 42.1789C61.8595 41.5476 62.0716 40.9389 62.0925 40.3041Z" fill="black"></path><path opacity="0.98" d="M42.7371 37.9438C43.0693 38.4586 42.918 39.1334 42.7441 39.6795C42.3423 40.4517 41.6449 41.0204 40.991 41.5752C40.7667 41.7925 40.4484 41.8152 40.1562 41.8499C40.4728 41.276 41.1632 41.0951 41.5945 40.6308C41.9389 40.2604 42.311 39.8725 42.4449 39.3699C42.5632 38.8986 42.5997 38.4117 42.7371 37.9438Z" fill="black"></path><path opacity="0.98" d="M73.3848 39.6154C73.4648 39.5111 73.5448 39.4085 73.6282 39.3076C73.9434 39.9685 73.9795 40.7146 74.2717 41.3807C74.71 42.4781 74.8456 43.6589 75.0912 44.8068C75.2422 45.6102 75.0056 46.412 74.9069 47.2068C74.8234 47.5059 74.8338 47.9041 74.5013 48.0502C74.4387 46.9059 74.8526 45.7894 74.7399 44.6485C74.5396 43.5372 74.2669 42.4398 73.9155 41.3685C73.7208 40.7894 73.6651 40.165 73.3848 39.6154Z" fill="black"></path><path opacity="0.98" d="M76.0974 39.9858C76.2003 40.0032 76.4035 40.0363 76.5043 40.0537C76.3235 40.4885 76.2365 40.9511 76.2003 41.4189C75.7864 41.0258 75.8595 40.4502 76.0974 39.9858Z" fill="black"></path><path opacity="0.98" d="M34.6029 40.9424C35.3229 40.819 35.8602 41.4729 36.2463 41.9981C36.6829 42.4016 37.1576 42.7772 37.6968 43.0329C37.6637 42.4816 37.6985 41.9303 37.9037 41.412C38.6098 41.6311 39.2707 41.9859 39.7263 42.5842C39.5489 42.7146 39.3698 42.8451 39.1924 42.9755C38.9089 42.6607 38.5924 42.3737 38.2028 42.1981C38.2846 42.6155 38.3715 43.0311 38.4255 43.4537C38.2063 43.5251 37.9872 43.5964 37.7681 43.6694C37.2133 43.4781 36.7594 43.1042 36.3037 42.7477C36.2533 42.8311 36.1507 42.9964 36.1002 43.0798C36.1176 42.9824 36.1524 42.7877 36.1715 42.6903C35.7368 42.2694 35.3594 41.7755 34.8342 41.4607C34.855 41.5824 34.8985 41.8242 34.9194 41.9459C35.6185 42.8172 36.5142 43.6694 36.6237 44.8468C36.8568 44.6659 37.0133 44.9181 37.182 45.0468C36.8707 45.8398 37.0446 46.8277 36.2846 47.3981C36.4115 46.5842 36.5315 45.7529 36.9124 45.012C36.5176 45.0398 36.1229 45.0642 35.7298 45.099C35.3663 44.9355 35.0063 44.7616 34.6637 44.5564C34.5663 44.6955 34.462 44.8294 34.3489 44.9564C34.4255 44.939 34.575 44.9024 34.6515 44.8833C34.6689 45.0016 34.7037 45.2364 34.7211 45.3529C35.222 45.7494 35.3646 46.3981 35.6342 46.9442C35.4255 47.2711 34.9976 47.5355 34.7159 47.1337L34.7681 47.4207C34.6307 47.3633 34.3524 47.245 34.215 47.1859C34.2689 47.4694 34.3246 47.7529 34.3837 48.0346C34.6481 48.3181 34.7472 48.6798 34.7489 49.0607C34.6533 49.059 34.4637 49.0555 34.3698 49.052C34.4255 49.1424 34.535 49.3233 34.5907 49.4155C34.2115 49.4172 33.8342 49.4085 33.4568 49.379C33.5089 49.5946 33.5576 49.812 33.6081 50.0294C34.4881 49.6398 35.5263 49.1633 35.8898 48.205C35.4689 48.0259 35.0446 47.852 34.6429 47.6346C35.2776 47.7616 35.8968 48.2798 36.5472 47.9146C36.5107 48.5163 35.9889 48.852 35.5855 49.219C35.1124 49.6311 34.5559 49.925 34.0411 50.2798C33.9281 50.5077 33.7994 50.7268 33.6446 50.9303C33.3229 50.5616 32.9089 50.1911 32.8637 49.6711C32.7994 49.3216 33.0063 49.0103 33.1107 48.6937C33.4255 48.7529 33.7402 48.8277 34.0498 48.9129C34.0568 48.8033 34.0689 48.5842 34.0742 48.4746C33.8759 48.2433 33.6533 48.0259 33.5089 47.7546C33.4933 46.932 33.6272 46.1146 33.6915 45.2955C33.7715 45.6555 33.822 46.0242 33.942 46.3755C34.1507 46.7007 34.5942 46.699 34.9281 46.812C35.0376 46.1077 34.2237 45.9581 34.0655 45.3616C33.9768 44.9198 34.0481 44.4642 34.0463 44.019C34.782 43.8137 35.3976 44.3459 36.0637 44.5616C35.6168 43.6572 34.9994 42.8329 34.2324 42.1755C34.2829 41.7477 34.0098 41.0764 34.6029 40.9424Z" fill="black"></path><path opacity="0.98" d="M27.4756 41.4917C27.5956 41.8708 27.7469 42.2413 27.9 42.61C27.7713 42.6117 27.5174 42.6169 27.3887 42.6186C27.4304 42.243 27.4582 41.8673 27.4756 41.4917Z" fill="black"></path><path opacity="0.98" d="M76.9838 42.9422C77.4325 42.8848 77.5821 43.424 77.7421 43.7457C77.4687 43.5161 76.9331 43.3648 76.9838 42.9422Z" fill="black"></path><path opacity="0.98" d="M37.1211 44.344C37.2289 44.104 37.3507 44.0832 37.4828 44.2849C37.3698 44.5266 37.248 44.5475 37.1211 44.344Z" fill="black"></path><path opacity="0.98" d="M78.091 44.2517C78.564 44.0343 78.7915 44.603 78.7971 44.9769C78.8159 46.2013 78.6628 47.5595 77.7988 48.5021C77.835 47.7056 78.2872 47.0013 78.3219 46.203C78.4632 45.5369 78.2559 44.8882 78.091 44.2517Z" fill="black"></path><path opacity="0.98" d="M29.6606 48.2726C30.0102 47.2934 30.4484 46.3369 31.0206 45.4639C30.6311 46.7126 29.9406 47.8639 29.7406 49.1682C29.4519 50.6343 28.5493 51.9804 28.6937 53.5213C28.9493 54.7926 29.6537 55.9734 29.605 57.3021C29.5476 57.2534 29.4311 57.156 29.3737 57.1091C29.2258 56.0291 28.8311 55.01 28.4902 53.9821C28.5841 55.5317 28.2137 57.05 27.8624 58.5456C27.8815 59.1439 28.1128 59.7073 28.2084 60.2934C28.0502 60.1282 27.7928 60.0082 27.7893 59.7474C27.6154 58.5317 27.7928 57.2969 28.0711 56.1126C28.2728 55.3039 28.1737 54.4639 28.1563 53.6413C27.9215 54.0291 27.7911 54.5769 27.2676 54.6569C27.4989 54.0117 27.9476 53.4847 28.3771 52.963C28.7528 51.3873 29.365 49.8726 29.6606 48.2726Z" fill="black"></path><path opacity="0.98" d="M74.1848 49.3355C74.5743 49.2885 74.5187 49.9303 74.1743 49.9964C73.8488 49.8694 74.0282 49.525 74.1848 49.3355Z" fill="black"></path><path opacity="0.98" d="M54.873 53.7593C54.9948 53.8741 55.073 54.0115 55.1113 54.1715C55.4434 55.4497 55.6399 56.7836 55.4869 58.1036C55.4434 58.0462 55.3582 57.9297 55.3147 57.8723C55.2 56.4984 55.0087 55.1315 54.873 53.7593Z" fill="black"></path><path opacity="0.98" d="M30.1113 57.2676C30.3478 56.5389 30.2035 55.6937 30.5705 55.0259C30.7618 55.605 30.7879 56.2259 30.64 56.8207C30.6539 57.1268 30.3861 57.2659 30.1113 57.2676Z" fill="black"></path><path opacity="0.98" d="M50.0195 61.1753C50.1082 61.1979 50.2856 61.2396 50.3743 61.2622C50.4491 61.8257 50.4891 62.3944 50.4561 62.9648C49.823 62.6326 50.143 61.7544 50.0195 61.1753Z" fill="black"></path><path opacity="0.98" d="M50.7214 66.9575C50.6205 66.2393 50.3962 65.5175 50.5214 64.7871C50.9718 65.7349 51.0744 66.7923 51.3162 67.8045C51.464 68.6828 51.7927 69.5228 51.864 70.4151C52.0014 70.8846 52.3144 71.2895 52.4205 71.7765C52.2884 71.7786 52.0275 71.782 51.897 71.7834C51.4536 70.1869 50.9666 68.5993 50.7214 66.9575Z" fill="black"></path><path opacity="0.98" d="M62.4786 73.5059C62.8873 73.565 63.423 73.4794 63.7152 73.8433C64.1204 74.3942 63.8386 75.2046 63.2821 75.5385C62.736 76.1229 61.9256 76.2815 61.1621 76.3615C61.256 75.702 62.023 75.8432 62.4752 75.6032C62.9412 75.3632 63.656 75.0377 63.4943 74.3907C63.2804 73.9824 62.7986 73.8189 62.4786 73.5059Z" fill="black"></path><path opacity="0.98" d="M50.4987 74.9873C51.7127 76.236 53.5735 76.1129 55.1718 76.2555C55.5857 76.339 56.1718 76.1803 56.37 76.6708C54.6466 76.709 52.8622 76.6395 51.2292 76.0343C50.8257 75.8256 50.1613 75.5508 50.4987 74.9873Z" fill="black"></path><path opacity="0.98" d="M57.0645 76.7576C57.1253 76.5023 57.3358 76.3228 57.6053 76.3493C58.6105 76.3354 59.6105 76.2428 60.6123 76.1489C60.5445 76.2414 60.4123 76.4272 60.3445 76.5197C59.2714 76.7298 58.1584 76.7597 57.0645 76.7576Z" fill="black"></path></svg>