<svg width="97" height="78" viewBox="0 0 97 78" fill="none" xmlns="http://www.w3.org/2000/svg">
<path opacity="0.9" d="M89.2804 51.0016C90.9411 50.9666 92.6037 50.9279 94.2644 51.0163C94.7689 51.0476 95.3175 51.252 95.6011 51.6939C95.8809 52.4303 95.914 53.2551 95.741 54.0211C95.671 54.3801 95.3083 54.5513 95.0598 54.7741C95.7355 56.0905 96.853 57.2596 96.993 58.7914C97.0684 59.3511 96.5235 60.0876 95.9251 59.8667C95.7888 59.4045 96.6965 59.3217 96.5861 58.8006C96.4553 57.5892 95.6729 56.5821 95.1205 55.5326C94.9235 55.2675 94.8351 54.7704 94.419 54.8201C92.5687 54.7906 90.6944 54.8901 88.868 54.5218C88.7833 54.8238 88.7115 55.1313 88.6048 55.4295C88.0782 55.5731 87.6437 55.1773 87.4209 54.7428C86.8999 53.7707 86.3383 52.7949 85.5485 52.0142C85.1176 51.6018 84.4861 51.6221 83.9375 51.5374C82.564 51.3293 81.1997 51.6773 79.8299 51.7436C78.878 51.8817 77.6629 51.7804 77.0756 52.7065C76.1955 54.0119 76.2268 55.6505 75.9783 57.1455C75.8991 57.8745 75.2105 58.4066 75.2584 59.1615C75.3504 59.5334 75.6984 59.7433 75.9691 59.979C75.6837 60.9584 75.8844 61.9858 75.8383 62.9874L76.0482 62.9616C76.0666 62.2104 75.9341 61.4022 76.3041 60.7136C76.4827 61.8054 76.3704 62.9137 76.2802 64.0092C76.1753 63.7165 76.0758 63.4274 75.9727 63.1365C75.9488 65.6257 75.866 68.1131 75.9009 70.6023C75.923 71.2614 75.9875 71.9242 75.9193 72.5834C75.6929 73.237 75.124 73.7433 75.0393 74.4539C74.8257 75.2088 75.1976 75.9287 75.4922 76.6026C76.2692 77.0444 77.1547 77.2378 78.0403 77.293C79.6918 77.3593 81.3304 77.6097 82.9819 77.641C85.1342 77.5636 87.2883 77.6336 89.4388 77.525C90.3649 77.4495 91.2965 77.6391 92.2189 77.4918C93.0106 77.3648 93.8115 77.3353 94.6124 77.3519C95.428 77.4311 96.1755 76.7167 96.2731 75.9287C96.367 75.264 96.3504 74.581 96.1994 73.9274C96.1313 73.5205 95.6784 73.4469 95.3727 73.2885C95.312 70.6023 95.4022 67.9161 95.4906 65.2317C95.5421 63.6299 95.3488 62.0281 95.498 60.4282C95.1813 60.4337 94.8315 60.4816 94.6455 60.1649C95.0082 60.1391 95.4151 59.8206 95.7723 60.0121C96.0264 60.662 95.7557 61.4353 95.8183 62.1331C96.0264 65.506 95.5882 68.879 95.7539 72.252C95.7005 72.9442 96.4958 73.2388 96.6321 73.8666C96.8052 74.7154 96.8015 75.6139 96.5824 76.4534C96.4332 77.0757 95.8772 77.5029 95.3267 77.7606C94.7781 77.8306 94.2257 77.7661 93.6771 77.7698C92.7473 77.7349 91.8341 78.0313 90.9043 77.9171C90.1071 77.8269 89.3081 77.9355 88.5127 77.9539C86.7305 77.9981 84.9501 77.9613 83.1697 78C81.3949 77.9632 79.6311 77.733 77.8581 77.6888C76.792 77.5655 75.3339 77.455 74.9012 76.2785C74.3857 75.3046 74.4446 74.0655 75.1221 73.1854C75.7426 72.4563 75.564 71.4437 75.5438 70.5636C75.4812 68.3856 75.5916 66.2075 75.599 64.0295C75.4812 62.7315 75.4517 61.4316 75.4038 60.1318C75.1497 59.7267 74.7281 59.3217 74.8515 58.8025C74.8717 58.101 75.553 57.6536 75.6174 56.9687C75.8807 55.3411 75.8236 53.5221 76.9191 52.1726C77.5635 51.3404 78.7179 51.4619 79.6513 51.344C81.0782 51.2667 82.5069 50.9482 83.9375 51.1323C84.5506 51.2004 85.2097 51.2612 85.7123 51.6589C86.8188 52.5702 87.1852 54.0652 88.2181 55.0337C88.3157 54.8072 88.4151 54.5789 88.5145 54.3543C88.2568 53.4043 87.9346 52.3732 88.2991 51.4085C88.4446 51.0218 88.938 51.0421 89.2804 51.0016ZM89.5253 51.3919C89.5198 51.4287 89.5069 51.5024 89.5014 51.5392C90.5232 51.565 91.545 51.6294 92.5687 51.5963C93.2867 51.5705 94.025 51.692 94.7265 51.4803C93.0051 51.2373 91.2578 51.4011 89.5253 51.3919ZM88.5955 51.6423C88.5201 52.3106 88.5127 52.9992 88.706 53.6491C88.7649 53.8461 88.8588 54.0708 89.0926 54.1076C90.0353 54.4372 91.0516 54.3396 92.0329 54.4114C93.1266 54.4169 94.2644 54.5108 95.3065 54.1039C95.0561 53.883 94.8038 53.6639 94.6326 53.3767C94.8646 53.4485 95.0984 53.524 95.3322 53.6031C95.2678 53.3785 95.2052 53.1557 95.1444 52.9329C95.0266 53.0913 94.9069 53.2515 94.7891 53.4116C94.8554 53.0563 94.559 52.4911 94.8867 52.2573C95.2347 51.9406 95.3451 52.5758 95.5477 52.7654C95.4482 52.4837 95.3507 52.2057 95.2549 51.9258C93.631 52.0915 91.9943 51.9443 90.3667 51.924C89.761 51.9443 89.1755 51.7878 88.5955 51.6423Z" fill="#020202"/>
<path opacity="0.9" d="M79.0869 52.3489C79.5877 52.0948 80.1492 52.0156 80.7071 52.012C80.3499 52.5293 79.6264 52.5846 79.0869 52.3489Z" fill="#020202"/>
<path opacity="0.9" d="M88.8871 52.0128C89.2609 51.8011 89.3548 52.6057 89.0105 52.6719C88.7251 52.6185 88.7159 52.1877 88.8871 52.0128Z" fill="#020202"/>
<path opacity="0.9" d="M94.2566 52.2377C94.5991 52.0886 94.7408 52.8839 94.4168 52.9631C94.1498 52.8563 94.102 52.4513 94.2566 52.2377Z" fill="#020202"/>
<path opacity="0.9" d="M89.8246 53.2615C89.4196 52.9945 89.3993 52.4919 89.7381 52.1642C89.7823 52.5287 89.8117 52.8933 89.8246 53.2615Z" fill="#020202"/>
<path opacity="0.9" d="M90.3127 53.4045C89.9832 53.0215 90.0347 52.5097 90.3643 52.147C90.3753 52.5649 90.3606 52.9865 90.3127 53.4045Z" fill="#020202"/>
<path opacity="0.9" d="M91.5245 52.2449C91.808 52.5652 91.9903 53.1047 91.5319 53.3698C91.5061 52.9942 91.5042 52.6186 91.5245 52.2449Z" fill="#020202"/>
<path opacity="0.9" d="M93.869 52.6211C94.1212 52.6598 94.1654 52.7886 94.0015 53.0077C93.7456 52.9654 93.7014 52.8365 93.869 52.6211Z" fill="#020202"/>
<path opacity="0.9" d="M76.7098 55.6095C76.4557 54.4919 76.9602 53.0816 78.1293 52.7336C77.9176 53.0816 77.6322 53.378 77.4149 53.7205C77.1774 54.3502 77.205 55.0958 76.7098 55.6095Z" fill="#020202"/>
<path opacity="0.9" d="M88.9041 53.0863C89.1766 52.8911 89.4381 53.3864 89.2098 53.5723C88.9281 53.7656 88.6758 53.274 88.9041 53.0863Z" fill="#020202"/>
<path opacity="0.9" d="M79.3918 53.3775C80.7653 53.3131 82.1461 53.3297 83.5177 53.4199C84.14 53.4346 84.65 53.9225 84.9115 54.4528C85.0643 54.9996 84.9483 55.6974 84.488 56.0693C83.9909 56.548 83.2416 56.2552 82.6322 56.3418C81.3305 56.3197 79.8465 56.71 78.7032 55.9017C78.1324 55.1303 78.2945 53.5617 79.3918 53.3775ZM78.9812 53.8507C78.8302 54.4196 78.5541 55.0769 78.9352 55.6164C79.4857 56.1153 80.2755 55.9735 80.9549 56.0122C81.9896 55.992 83.0464 56.038 84.059 55.7894C84.5672 55.6642 84.6574 55.0235 84.593 54.5853C84.3573 54.0293 83.7424 53.7642 83.1679 53.766C81.7742 53.6979 80.3657 53.6629 78.9812 53.8507Z" fill="#020202"/>
<path opacity="0.9" d="M89.445 53.5431C89.6678 53.3645 90.0121 53.742 89.7543 53.9224C89.5224 54.1047 89.191 53.7254 89.445 53.5431Z" fill="#020202"/>
<path opacity="0.9" d="M94.2996 53.4163C94.4156 53.547 94.5298 53.6814 94.6421 53.8195C94.4009 53.9539 94.1524 54.0754 93.9093 54.2024C93.8522 54.0017 93.7988 53.8011 93.751 53.6022C93.867 53.6667 94.1026 53.7992 94.2205 53.8637C94.2407 53.7532 94.2812 53.5286 94.2996 53.4163Z" fill="#020202"/>
<path opacity="0.9" d="M90.198 53.6447C90.4926 53.5453 90.5994 53.6465 90.5184 53.9503C90.222 54.0479 90.1152 53.9448 90.198 53.6447Z" fill="#020202"/>
<path opacity="0.9" d="M91.467 53.7287C91.7635 53.6293 91.8703 53.7306 91.7874 54.0307C91.4873 54.1283 91.3805 54.027 91.467 53.7287Z" fill="#020202"/>
<path opacity="0.9" d="M94.3179 58.543C94.7892 58.4344 95.2697 58.357 95.7429 58.2502C95.7374 58.311 95.7245 58.4288 95.7171 58.4878C95.4944 58.5706 95.2808 58.6719 95.0783 58.7915C94.8039 58.7658 94.5314 58.7271 94.3179 58.543Z" fill="#020202"/>
<path opacity="0.9" d="M92.8018 58.6155C93.251 58.6026 93.7021 58.6136 94.1531 58.6541C93.7702 58.9542 93.0853 59.1402 92.8018 58.6155Z" fill="#020202"/>
<path opacity="0.9" d="M76.8208 60.0145C77.3805 59.9666 78.0286 59.7935 78.4723 60.2501C77.9181 60.3164 77.2479 60.4895 76.8208 60.0145Z" fill="#020202"/>
<path opacity="0.9" d="M79.1504 60.1316C80.6067 59.8922 82.0852 60.1518 83.547 59.9788C84.3516 59.8793 85.1249 60.1665 85.9184 60.2218C87.5294 60.1518 89.1441 60.2844 90.7569 60.1997C92.0659 60.0745 93.3824 60.1003 94.6969 60.0726C94.279 60.6231 93.5425 60.4906 92.9405 60.4906C91.8395 60.4262 90.7477 60.6397 89.6467 60.5826C87.9786 60.6305 86.3087 60.6011 84.6462 60.4759C83.0573 60.3654 81.4684 60.555 79.8813 60.4869C79.5739 60.5182 79.3474 60.3359 79.1504 60.1316Z" fill="#020202"/>
<path opacity="0.9" d="M76.925 60.6719C79.011 60.6258 81.0878 61.0069 83.1738 60.8523C85.385 60.8412 87.5906 61.0051 89.8037 60.937C91.2895 60.8707 92.7826 61.064 94.2666 60.8965C94.3384 60.9609 94.4802 61.0898 94.5501 61.1542C94.2114 62.9954 94.5262 64.8678 94.5244 66.7218C94.6532 68.7415 94.4434 70.7686 94.6459 72.7847C94.5722 73.3536 94.7324 74.23 94.0586 74.473C93.532 74.7068 92.9318 74.6534 92.3739 74.6092C92.3629 74.5245 92.3389 74.3515 92.3279 74.2668C92.9115 74.1729 93.5025 74.1342 94.0862 74.0385C94.3071 72.9559 94.1359 71.8512 94.1838 70.7576C94.3016 67.6295 94.0107 64.5069 94.0309 61.3807C91.886 61.3107 89.7411 61.296 87.5962 61.3328C85.639 61.2224 83.6764 61.2095 81.7174 61.2573C80.1598 61.1984 78.6059 60.9885 77.0446 61.0769C77.0759 63.9307 77.295 66.7881 77.1146 69.6419C77.0041 70.7999 77.3853 71.9396 77.2895 73.0903C77.1919 73.1069 77.0004 73.1363 76.9047 73.1511C76.82 71.8641 76.6543 70.5735 76.7648 69.281C76.8752 66.8286 76.82 64.3707 76.6911 61.9201C76.6433 61.4856 76.7501 61.064 76.925 60.6719Z" fill="#020202"/>
<path opacity="0.9" d="M84.5234 66.2058C85.3705 66.0448 86.4444 66.1138 86.8067 67.029C86.6451 67.6937 85.9544 67.9315 85.3862 68.159C85.2975 68.522 85.5269 69.473 84.8857 69.3171C84.7684 68.2792 84.7763 67.2259 84.5234 66.2058ZM85.1542 66.5331C85.2558 66.8628 85.1776 67.3026 85.4722 67.5531C85.7589 67.4176 86.0195 67.2412 86.2671 67.0495C85.9778 66.735 85.5347 66.6686 85.1542 66.5331Z" fill="#020202"/>
<path opacity="0.9" d="M88.1763 66.1377C88.4757 66.4943 88.6517 66.9135 88.8277 67.3303C89.2927 67.0098 89.6999 66.5497 90.2988 66.4437C90.4775 67.0412 89.5869 67.3423 89.2454 67.7616C89.8365 68.2482 90.4407 68.7301 90.9162 69.3228C90.0177 69.4384 89.5291 68.6506 88.9355 68.1928C88.8172 68.559 88.6911 68.9228 88.5519 69.2866C88.171 68.2771 88.2577 67.1857 88.1763 66.1377Z" fill="#020202"/>
<path opacity="0.9" d="M80.4576 66.2126C81.2457 66.8571 81.8639 67.634 82.5377 68.3634C82.5143 67.6215 82.4733 66.8796 82.4791 66.1377C83.4987 66.8746 82.9684 68.1785 83.153 69.1777C82.0983 69.1078 81.6559 68.2335 81.0435 67.6365C80.9498 68.1611 81.4596 69.415 80.44 69.3301C80.399 68.291 80.4048 67.2518 80.4576 66.2126Z" fill="#020202"/>
<path opacity="0.9" d="M76.1731 68.7218C76.1584 67.7791 75.8546 66.7831 76.3167 65.8938C76.5616 67.2636 76.545 68.6629 76.5155 70.0492C76.4879 70.6863 76.4658 71.3362 76.2651 71.9493C75.9908 70.8851 76.2412 69.7989 76.1731 68.7218Z" fill="#020202"/>
<path opacity="0.9" d="M76.8271 73.7986C78.1472 73.9588 79.471 74.0232 80.7985 73.9588C82.4537 74.1447 84.118 73.9974 85.7714 74.1944C87.7801 74.3841 89.7961 74.0508 91.8029 74.2957C91.6501 74.4393 91.4789 74.5424 91.2874 74.6032C88.7706 74.605 86.2464 74.6676 83.7406 74.3841C82.5052 74.4945 81.2772 74.2699 80.0436 74.3436C79.344 74.3841 78.6793 74.1042 77.9834 74.1134C77.582 74.0784 77.0739 74.2165 76.8271 73.7986Z" fill="#020202"/>
<path opacity="0.9" d="M76.5274 76.7681C76.0414 76.05 75.5701 75.0761 76.1574 74.2678C76.428 74.6066 76.1703 75.0521 76.2844 75.4369C76.4041 75.8641 76.5532 76.282 76.6932 76.7073C76.6508 76.7221 76.5698 76.7515 76.5274 76.7681Z" fill="#020202"/>
<path opacity="0.92" d="M41.7399 1.61771C42.0864 1.30475 42.3623 0.763682 42.9086 0.845019C42.8538 1.5187 42.1448 1.79984 41.8512 2.34444C41.8123 2.74051 41.83 3.13835 41.8194 3.53442C42.0723 3.35053 42.3233 3.15957 42.6063 3.01811C42.9139 3.57332 42.2579 3.91104 41.9237 4.22755C41.9609 4.90122 42.0175 5.57313 42.1094 6.24151C42.9316 5.78708 43.8334 5.41223 44.5035 4.74032C44.6467 4.32126 44.6715 3.87391 44.7369 3.43894C44.8218 3.44248 44.9915 3.44955 45.0782 3.45485C45.0906 3.80319 45.0976 4.15329 45.1029 4.50515C45.6493 4.16213 46.2204 3.83678 46.6996 3.40358C46.8888 2.98982 46.9825 2.5354 47.2194 2.14286C47.4599 2.54247 47.3167 3.00043 47.2743 3.42833C47.7163 3.43894 48.1601 3.44601 48.6039 3.44955C48.5756 3.61222 48.5473 3.77666 48.5208 3.93934C47.9285 3.9358 47.3238 3.85269 46.742 3.98884C46.2363 4.23993 45.7908 4.59533 45.2957 4.86233C45.4778 4.92244 45.842 5.04268 46.0242 5.1028C45.7554 5.70221 45.1471 5.29199 44.6892 5.20712C43.9748 5.66508 43.2552 6.11243 42.5178 6.52795C43.0872 6.92933 43.6937 7.27589 44.3055 7.60831C44.5831 7.40851 44.8607 7.21047 45.1401 7.01066C45.2833 7.17511 45.4283 7.33955 45.5715 7.50576C45.3133 7.62599 45.057 7.74976 44.8023 7.87354C45.2833 8.14584 45.7748 8.40045 46.2611 8.66214C46.7774 8.42521 47.3414 8.13346 47.9002 8.44643C47.5112 8.68867 47.1098 8.90615 46.7049 9.11657C46.7385 9.56215 46.7633 10.0095 46.7491 10.4568C46.3636 10.1209 46.3106 9.61166 46.231 9.13955C45.6705 8.87609 45.1206 8.59142 44.5707 8.30851C44.4858 8.62855 44.3992 8.94859 44.3019 9.26509C44.2047 9.1537 44.0084 8.92914 43.9094 8.81598C43.9377 8.5313 43.966 8.24485 43.9978 7.95841C43.4143 7.62246 42.8326 7.29004 42.265 6.92933C42.3074 7.6755 42.3676 8.4199 42.4206 9.16431C42.8078 9.48612 43.4727 9.7761 43.2746 10.4003C42.9988 10.2075 42.73 10.0077 42.463 9.80616C42.5232 10.3154 42.5957 10.8211 42.6752 11.3268C42.9935 11.638 43.6902 11.8572 43.5045 12.4072C43.1137 12.248 42.7566 12.0199 42.3958 11.806C42.2385 12.1331 42.0793 12.4602 41.9255 12.7873C41.8053 12.729 41.5613 12.6087 41.441 12.5504C41.6338 12.1313 41.9078 11.7529 42.0705 11.3215C42.1218 10.7928 42.0528 10.2623 42.0263 9.73543C41.8 9.99359 41.5719 10.2517 41.3438 10.5081C41.2854 10.395 41.1705 10.1704 41.1121 10.0572C41.289 9.62757 41.6727 9.33405 41.9732 8.99279C41.8884 8.33149 41.8035 7.67196 41.7292 7.01066C41.1457 7.35192 40.5799 7.72855 40.0565 8.15998C39.9345 8.71342 39.7241 9.24388 39.4483 9.73897C39.1123 9.34997 39.2467 8.90262 39.4377 8.4871C38.8825 8.89201 38.2884 9.23327 37.7013 9.58513C37.4626 10.0484 37.2204 10.5081 36.9781 10.9696C36.8809 10.9183 36.6882 10.8158 36.5909 10.7645C36.7465 10.3879 36.9145 10.0148 37.0895 9.64525C36.6068 9.61343 36.1241 9.53386 35.7935 9.14486C36.3593 9.13425 36.9286 9.21205 37.4962 9.17845C37.9506 9.01755 38.3502 8.73287 38.7693 8.49593C38.5076 8.34741 38.2512 8.19535 38.0001 8.03621C38.6385 7.95664 39.3581 8.11578 39.9222 7.72324C40.5357 7.3254 41.1228 6.88689 41.7469 6.50673C41.2271 6.1637 40.7373 5.75879 40.1626 5.50948C39.6835 5.46881 39.2255 5.78708 38.7392 5.63325C38.9956 5.41576 39.2644 5.20889 39.5367 5.00732C38.9355 4.62893 38.3007 4.30358 37.6147 4.10908C37.1709 4.28767 36.7147 4.54936 36.2178 4.41144C36.5573 4.04543 37.0117 3.82087 37.4343 3.56448C37.2593 3.19847 37.0825 2.83245 36.9357 2.45583C37.5776 2.6574 37.7367 3.36998 38.1717 3.79788C38.6402 4.06134 39.1282 4.2859 39.5915 4.5582C39.5367 4.2081 39.489 3.85977 39.4501 3.50967C39.9646 3.85623 39.9964 4.51399 40.3112 4.99847C40.6772 5.37686 41.1581 5.61911 41.6055 5.88787C41.5807 5.27077 41.54 4.65368 41.4428 4.04366C40.976 3.81556 40.5357 3.53088 40.1892 3.14188C40.6118 3.22853 41.0202 3.36998 41.4269 3.51674C41.3968 2.99513 41.3668 2.47528 41.3102 1.9572C40.8805 1.82105 40.4791 1.60887 40.366 1.1297C40.8434 1.22695 41.2978 1.41084 41.7399 1.61771Z" fill="#030303"/>
<path opacity="0.92" d="M22.7001 10.1725C22.9335 9.82419 23.0873 9.35916 23.5223 9.2124C23.7026 9.80651 23.1615 10.2733 22.9352 10.7737C23.0307 11.1185 23.1226 11.4615 23.2111 11.8081C23.448 11.58 23.6973 11.3625 23.9696 11.1751C23.9572 11.6578 23.7344 12.0786 23.4427 12.4482C23.6266 13.0299 23.8264 13.6046 24.0456 14.1739C24.661 13.5993 25.3453 13.0741 25.8138 12.3668C25.8545 11.9619 25.7785 11.557 25.7838 11.1521C26.2435 10.8886 26.1533 11.7391 26.3319 11.9867C26.7333 11.5552 27.1134 11.1079 27.5113 10.6729C27.5237 10.2486 27.5466 9.82596 27.5961 9.40513C27.8932 9.71987 27.9515 10.1513 28.024 10.5615C28.406 10.4713 28.7897 10.3847 29.1734 10.2945C29.1751 10.4077 29.1804 10.6323 29.184 10.7454C28.6606 10.8763 28.0965 10.9169 27.6244 11.1928C27.262 11.4951 26.9684 11.87 26.613 12.1776C26.857 12.3014 27.3928 12.3156 27.1011 12.6957C26.7651 12.724 26.4274 12.7063 26.0932 12.6993C25.5574 13.2527 25.0217 13.8079 24.4647 14.3401C25.0553 14.5558 25.6618 14.7291 26.27 14.8936C26.4804 14.6549 26.6908 14.4179 26.9048 14.1828C27.0215 14.2676 27.2567 14.4391 27.3734 14.5258C27.1753 14.6832 26.9791 14.8423 26.7846 15.0032C27.2584 15.1482 27.7394 15.272 28.2203 15.3993C28.6288 15.0863 29.062 14.7008 29.6207 14.8476C29.3307 15.1429 29.0301 15.4258 28.7189 15.6981C28.8463 16.0836 28.963 16.4708 29.0549 16.8651C28.6624 16.6282 28.4749 16.2162 28.2928 15.8219C27.7217 15.7034 27.1523 15.5708 26.583 15.4505C26.629 15.615 26.7227 15.9439 26.7686 16.1101C26.6767 16.1667 26.491 16.2798 26.3991 16.3382C26.2559 15.9845 26.1568 15.6132 25.9818 15.2755C25.4549 15.0333 24.8731 14.9325 24.325 14.7468C24.5319 15.3922 24.7529 16.0323 24.9633 16.6759C25.3134 16.835 25.66 17.0012 26.003 17.1781C25.9659 17.2718 25.8899 17.461 25.851 17.5547C25.6105 17.4451 25.37 17.3354 25.1313 17.2258C25.2993 17.6572 25.4743 18.0869 25.6565 18.513C26.0755 18.6952 26.5494 18.8667 26.705 19.3494C26.3036 19.2415 25.9093 19.1195 25.5203 18.9869C25.4425 19.3211 25.3665 19.6553 25.2922 19.9895C25.1737 19.9523 24.9403 19.8798 24.8219 19.8427C24.9138 19.4325 25.0906 19.0382 25.1136 18.6156C25.0429 18.1612 24.8767 17.728 24.7511 17.2877C24.5761 17.5741 24.3957 17.8588 24.2136 18.1417C23.7839 17.6148 24.3038 17.0843 24.5195 16.5999C24.3003 16.0429 24.0881 15.4841 23.8847 14.9236C23.4427 15.3533 23.0307 15.8148 22.6558 16.3028C22.6594 16.8209 22.5975 17.3372 22.479 17.8411C22.1926 17.583 22.1201 17.2134 22.06 16.8545C21.6427 17.3938 20.9743 17.7792 20.8063 18.4777C20.6843 18.8702 20.5623 19.2627 20.389 19.6358C20.1433 19.2044 20.2635 18.727 20.3519 18.2761C19.9311 18.3115 19.505 18.3097 19.1036 18.1665C19.5951 17.9826 20.1203 17.9136 20.6189 17.7492C20.9814 17.5282 21.2625 17.2028 21.5826 16.927C21.3898 16.8527 21.0079 16.706 20.8169 16.6317C21.3403 16.446 21.9698 16.4319 22.3782 16.0075C22.8645 15.5142 23.2995 14.9749 23.7857 14.4798C23.2429 14.2889 22.7142 14.0289 22.1395 13.9529C21.7293 14.0908 21.3509 14.303 20.9407 14.4444C21.114 14.1686 21.2979 13.8998 21.4871 13.6346C20.8965 13.4596 20.29 13.2244 19.6623 13.3217C19.2433 13.5055 18.8772 13.8309 18.3945 13.8291C18.6934 13.4826 19.0134 13.1537 19.3405 12.8319C19.1089 12.5366 18.879 12.2395 18.6757 11.9266C19.2238 12.0822 19.611 12.503 19.9947 12.8973C20.4774 12.9663 20.9531 13.0794 21.4234 13.212C21.3262 12.8955 21.2395 12.5755 21.1653 12.2554C21.5578 12.6073 21.8248 13.067 22.1837 13.449C22.578 13.7336 23.082 13.8114 23.5346 13.9741C23.372 13.4401 23.1951 12.9114 22.99 12.3916C22.5338 12.2625 22.0847 12.1016 21.6692 11.8771C22.0635 11.8541 22.4613 11.8735 22.8574 11.8947C22.7124 11.4562 22.5674 11.0195 22.4154 10.5845C22.0193 10.5102 21.5667 10.4607 21.4305 10.0028C21.8566 10.0346 22.2792 10.0983 22.7001 10.1725Z" fill="#030303"/>
<path opacity="0.92" d="M52.9068 17.8703C54.1286 17.0481 55.8172 16.8625 57.1345 17.5733C57.9886 17.9446 58.7453 18.521 59.3766 19.2018C59.8646 19.9621 60.0962 21.0584 61.0581 21.3766C62.4214 21.7197 63.9544 21.6083 65.1585 22.4464C66.0479 23.1183 66.391 24.2482 67.153 25.035C68.0407 26.0553 69.6232 26.0977 70.41 27.2435C70.8591 28.0162 71.1562 28.9321 71.9218 29.4696C72.8413 30.1168 73.7802 30.7533 74.5582 31.5773C74.3159 31.6038 74.0737 31.6126 73.8332 31.602C73.4814 31.3899 73.2356 31.0238 72.8448 30.8771C72.424 30.7286 71.9961 30.6119 71.5735 30.4757C70.3128 30.6543 69.0397 30.8258 67.7684 30.7091C66.8507 31.1476 66.6191 32.3111 65.8216 32.9034C64.7978 33.158 63.8695 32.4242 62.844 32.4738C63.4929 33.0749 64.1825 33.7115 64.4442 34.5867C64.7183 35.469 64.4707 36.3973 64.6069 37.2956C64.6723 37.8366 65.1709 38.1372 65.5192 38.4962C66.1045 39.0425 66.5377 39.7587 66.7128 40.5437C66.7181 41.1378 66.4298 41.6948 66.444 42.2925C66.6385 43.0086 67.2556 43.608 67.1601 44.3966C67.1866 45.3125 66.8365 46.3752 67.4695 47.1585C67.7878 47.7084 68.343 48.0691 68.679 48.6049C68.9654 49.2874 68.7285 50.0424 68.6136 50.7408C68.4226 51.6285 68.7709 52.5267 68.6295 53.4179C68.3978 54.0968 67.9081 54.6503 67.6322 55.3116C67.5703 55.5821 67.2821 55.5008 67.0841 55.4849C67.0965 54.9845 67.153 54.4805 67.1 53.9837C66.9073 53.4214 66.5802 52.9175 66.3715 52.3605C66.1293 51.7929 66.0161 51.1422 65.5687 50.686C65.0683 50.1644 64.3947 49.8391 63.9208 49.2892C63.6485 48.7021 63.7351 48.0231 63.6892 47.3937C63.3338 47.0648 62.9784 46.6599 62.4621 46.6245C61.6628 46.5343 60.7876 46.3964 60.2306 45.7546C59.5516 44.8263 59.6931 43.5284 58.9363 42.6408C58.0911 41.5056 56.406 42.1068 55.3699 41.2598C54.5247 40.786 54.6502 39.7198 54.3532 38.9294C54.2577 38.4679 53.8899 38.1602 53.5628 37.8579C53.5274 37.9286 53.4567 38.0683 53.4213 38.139C52.6062 38.5864 52.1889 39.451 51.6938 40.1936C50.9636 41.4154 50.2209 42.6585 49.8478 44.043C51.1298 42.3685 51.6178 40.1636 53.1879 38.6924C53.3877 38.4697 53.6848 38.4025 53.9589 38.3088C53.271 39.0761 52.5602 39.8382 52.0828 40.7612C51.4817 41.9353 50.9211 43.1306 50.3376 44.3153C50.8274 44.8793 50.8911 45.6361 51.1934 46.2903C51.8989 47.0772 53.1738 47.0559 53.828 47.9153C54.6821 49.0805 54.1127 50.5799 54.2895 51.9043C54.7475 52.4153 55.384 52.8715 55.5078 53.5911C55.6528 54.9296 55.2691 56.2522 54.751 57.4723C54.949 58.0523 55.3098 58.6428 55.1772 59.2776C54.9526 60.3138 53.8705 60.9114 53.7714 62.0006C53.6211 61.9812 53.3223 61.9458 53.172 61.9263C53.4514 60.9574 53.8033 59.9531 53.5822 58.9328C53.3418 58.4377 52.6805 58.3051 52.4506 57.8029C52.1995 56.8393 52.6628 55.7837 52.2154 54.8572C51.3773 54.1057 50.2704 53.7397 49.3422 53.1173C48.4368 52.3499 48.4386 51.0644 48.0832 50.0159C47.5616 51.0237 47.0559 52.0564 46.8154 53.1756C46.5962 54.187 46.2355 55.1595 45.9366 56.1497C46.4406 55.7395 46.8879 55.2568 47.4343 54.8961C47.4856 54.9703 47.5899 55.1171 47.6412 55.1896C47.0948 56.5246 46.3999 57.8118 46.0922 59.2334C47.3247 59.2529 48.5571 59.3713 49.7718 59.58C50.1661 59.6365 50.5003 59.8646 50.8133 60.098C50.8363 61.41 50.6807 62.7132 50.5534 64.0163C50.4331 64.8067 50.2086 65.5812 50.1926 66.3857C50.0813 68.3218 49.5084 70.1802 49.0875 72.0616C48.7569 73.0783 48.4404 74.0985 48.1115 75.1152C47.993 75.5802 47.6093 75.8685 47.2504 76.1443C47.1142 76.0028 46.9799 75.8614 46.8455 75.7199C47.9188 75.1258 48.0284 73.8439 48.4351 72.8148C48.8188 71.8052 48.9196 70.7195 49.1954 69.6798C49.526 68.4209 49.763 67.1372 49.8744 65.8393C50.1838 64.1224 50.3783 62.3825 50.426 60.6373C50.1856 60.7134 49.9486 60.7947 49.7135 60.8778C47.2362 61.3322 44.706 61.1802 42.2022 61.1872C42.5576 60.6055 43.2914 60.7187 43.8732 60.7098C45.9968 60.7859 48.1469 60.7328 50.205 60.1493C48.9355 59.8116 47.6199 59.6843 46.3079 59.7197C46.0056 60.0149 45.7722 60.51 45.3107 60.5578C45.2806 60.4128 45.2188 60.1246 45.1887 59.9813C45.1091 59.9707 44.9518 59.9513 44.8722 59.9424C45.072 58.8727 45.5211 57.8595 45.5795 56.7633C45.6166 55.7501 46.1736 54.8625 46.3451 53.8776C46.4954 53.1279 46.6174 52.3676 46.8844 51.6497C47.1408 50.8593 47.5687 50.1379 47.8109 49.344C47.1001 50.0353 46.7588 50.9866 46.3716 51.876C45.8588 52.8662 45.4274 53.9094 45.2099 55.0075C45.0472 55.5467 44.9889 56.2487 44.3435 56.4273C44.347 55.9746 44.3665 55.5149 44.2215 55.0782C44.0553 56.3424 43.9315 57.6208 43.8785 58.8957C43.8166 59.488 44.3311 60.4481 43.4842 60.6586C43.4488 59.191 43.5372 57.7251 43.7123 56.2682C44.0323 53.6424 43.8696 50.9477 44.5857 48.3803C44.5168 48.3697 44.3771 48.3485 44.3081 48.3396C43.7282 49.9947 43.8325 51.7681 43.4665 53.4656C43.3798 54.7493 42.8688 56.0082 43.15 57.3043C43.2879 57.8295 43.081 58.3387 42.906 58.8267C42.8211 58.8409 42.6496 58.8709 42.5647 58.8851C42.3861 58.4572 42.1527 58.0558 41.9741 57.6314C41.838 57.0638 42.0608 56.4821 41.9706 55.911C41.7178 54.5955 41.6594 53.2499 41.4773 51.9255C41.1201 50.6701 40.9274 49.3811 40.7382 48.0939C40.6568 49.885 41.3818 51.5807 41.3553 53.3701C41.2527 53.4886 41.1519 53.607 41.0529 53.7273C41.0918 51.9945 40.5667 50.3271 40.2572 48.6402C40.2625 48.3485 39.9602 48.2583 39.7745 48.1133C39.7197 48.6774 39.7321 49.2503 39.8912 49.8002C40.1564 50.7833 40.0627 51.8123 40.2272 52.8114C40.4464 54.1976 40.8743 55.5715 40.7205 56.9914C40.7806 57.0603 40.8991 57.2 40.9574 57.2707C40.9415 57.4122 40.9079 57.6986 40.8902 57.8418C40.7753 57.8454 40.5437 57.8542 40.4287 57.8578C40.2979 56.7898 40.5684 55.7041 40.2855 54.6503C39.9849 53.3206 39.8647 51.9626 39.6702 50.6188C39.3749 49.7666 39.2777 48.8754 39.1415 47.9913C39.069 49.6782 39.7285 51.3226 39.5376 53.0076C39.5164 53.0607 39.4704 53.1668 39.4474 53.2198C39.4067 53.241 39.3236 53.2852 39.2812 53.3065C39.3961 51.5188 38.7437 49.8196 38.535 48.0656C37.9745 48.3556 37.315 48.6738 37.1222 49.328C36.7721 50.1998 36.3955 51.1298 35.6264 51.7204C34.9138 52.2774 34.012 52.4949 33.1332 52.6169C32.0829 52.8909 31.6338 53.9642 31.0167 54.7422C30.6366 55.2744 30.0177 55.6122 29.7525 56.2275C29.4678 56.7562 29.3387 57.3503 29.3228 57.9515C29.1053 58.0204 28.8843 58.0841 28.665 58.1495C29.001 56.7579 28.3609 55.3876 28.5961 53.9943C28.7888 53.2746 29.1195 52.5426 28.9338 51.7823C28.8383 51.052 28.2849 50.5286 27.9454 49.9116C27.5511 49.3616 28.1876 48.8241 28.3821 48.322C28.8896 48.0214 29.4536 47.7915 29.8815 47.376C30.0354 46.918 29.9169 46.4406 29.7525 46.0056C29.0311 46.8243 27.9472 47.0418 27.0295 47.5387C25.82 48.7074 25.477 50.442 24.6212 51.8442C24.2764 52.2845 24.3701 52.852 24.3224 53.3701C24.1456 53.096 23.8255 52.8679 23.8185 52.5161C23.7972 51.2872 23.8308 50.053 23.6823 48.8294C23.5479 47.9453 23.8485 47.0754 23.8061 46.1913C23.7849 45.3373 23.5391 44.5045 23.1907 43.73C22.9167 43.1359 22.4039 42.6956 22.1139 42.1103C21.7957 41.4756 21.4968 40.8231 21.3235 40.1317C21.1008 39.2954 21.564 38.4467 22.1511 37.8791C22.5843 37.4689 23.4595 37.628 23.6505 36.9915C23.5603 36.2435 22.9131 35.7838 22.4817 35.2339C22.0998 34.6133 22.5436 33.9148 22.678 33.2889C23.2986 32.7461 24.0554 32.4119 24.745 31.9769C24.89 31.2343 24.7556 30.4757 24.6301 29.7419C24.4497 28.8596 24.8546 27.979 25.378 27.2912C26.3328 26.9694 27.3919 27.2399 28.3468 26.9376C29.5845 26.0128 29.9151 24.3967 30.4863 23.0476C31.4446 22.3686 32.8362 21.8045 33.9307 22.5277C34.6786 23.0564 35.5698 23.5144 35.98 24.379C36.2187 24.8494 36.4857 25.3197 36.5812 25.8431C36.5706 26.2833 36.3955 26.6971 36.2753 27.1162C36.9083 26.6052 37.6173 26.156 38.4519 26.0924C38.4908 25.348 38.4201 24.5558 38.7313 23.8609C39.2706 22.9928 40.1105 22.2961 41.0954 21.9955C42.303 21.58 43.0899 20.4696 43.6062 19.3556C43.9651 18.5087 44.637 17.7236 45.5565 17.4849C46.1559 17.3311 46.7871 17.1578 47.4078 17.2886C48.3926 17.5238 49.1972 18.1709 50.0848 18.6183C51.082 18.8959 52.0846 18.4079 52.9068 17.8703ZM52.9156 18.4256C52.0758 18.9914 50.9972 19.3079 50.0017 19.025C49.0822 18.6112 48.2936 17.8562 47.2628 17.7112C46.1665 17.7077 44.9394 18.056 44.3205 19.0356C43.7618 20.0258 43.3073 21.145 42.3649 21.8452C41.6576 22.4393 40.6498 22.5047 39.9779 23.1501C39.3926 23.6417 38.9046 24.326 38.9329 25.1234C38.9293 25.9633 38.9948 27.1126 39.9814 27.3743C40.4447 26.8032 40.8407 26.0553 41.617 25.8767C42.4816 25.5796 43.5178 25.7069 44.1755 26.3806C43.546 26.3134 42.929 26.0499 42.2906 26.1649C41.3093 26.2303 40.7187 27.125 40.2095 27.8553C39.8824 28.2248 40.2236 28.6421 40.4005 28.9869C40.8231 29.7154 41.228 30.5977 42.1209 30.8311C43.1022 31.0716 44.1419 31.2484 45.1516 31.0698C45.8111 30.9708 46.6298 30.649 47.1602 31.2431C47.726 31.8513 48.3873 32.4101 49.2166 32.6028C50.4773 32.9936 51.5807 31.9981 52.7318 31.6692C53.8351 31.4235 54.4575 32.9176 55.5626 32.5763C56.1514 32.4614 56.6872 31.9292 57.3149 32.1643C58.374 32.5215 59.1114 33.6761 60.3243 33.6054C61.1837 33.3578 61.6734 32.4738 62.4709 32.1113C63.5265 31.8089 64.499 32.502 65.5351 32.5745C66.2725 31.7682 66.6739 30.6207 67.7153 30.1362C68.2475 30.2582 68.7939 30.3643 69.3456 30.3095C70.3676 30.2918 71.4144 29.8144 72.3904 30.336C71.8423 29.9806 71.2782 29.6128 70.9087 29.0612C70.5073 28.5395 70.3181 27.8977 69.9521 27.3584C69.236 26.4443 67.9381 26.4018 67.123 25.6203C66.1929 24.8511 65.8287 23.6205 64.934 22.8248C63.7511 21.9796 62.2127 22.167 60.8813 21.7621C59.8805 21.4315 59.5198 20.3476 59.0565 19.513C58.3758 18.6147 57.3379 18.0701 56.2999 17.6882C55.1294 17.3452 53.9023 17.7943 52.9156 18.4256ZM30.9354 23.3146C30.3324 24.6991 29.9045 26.294 28.6863 27.293C27.7633 27.6148 26.736 27.4061 25.7811 27.6148C25.4912 28.1187 25.1375 28.6244 25.0951 29.2256C25.0969 30.214 25.3868 31.2166 25.1428 32.1979C24.7308 32.6417 24.0854 32.7461 23.624 33.1262C23.2562 33.3561 23.1129 33.7751 22.9538 34.1518C23.3888 33.7327 23.8839 33.3861 24.4037 33.082C24.5469 33.2217 24.6919 33.3649 24.8352 33.5081C24.1915 33.7115 23.6381 34.104 23.2367 34.6468C23.1377 34.5072 22.9379 34.226 22.8371 34.0863C22.8955 34.4912 22.7381 35.004 23.0917 35.3135C23.5621 35.8192 24.1279 36.4009 24.0766 37.1471C24.0342 37.6086 23.5744 37.7871 23.1943 37.9056C22.243 38.1196 21.6913 39.2282 21.8434 40.1441C22.0821 41.1767 22.5613 42.151 23.2226 42.9803C24.1544 44.3895 24.3984 46.1665 24.1208 47.8145C24.1243 49.0593 24.2499 50.3041 24.2605 51.5524C25.2047 50.1679 25.4452 48.3644 26.7006 47.185C27.4963 46.651 28.635 46.6634 29.2273 45.8324C29.6393 45.339 29.4307 44.6618 29.5739 44.0854C30.2299 43.5921 31.0874 43.4117 31.6904 42.8388C32.2403 42.2748 31.7735 41.4084 32.1201 40.7648C32.4843 40.4553 33.0042 40.519 33.4497 40.496C34.3321 40.5685 35.1101 39.8524 35.3346 39.0355C35.6016 38.3706 35.4442 37.5626 35.9163 36.9808C36.5211 36.1162 37.5219 35.7025 38.413 35.2091C39.0319 34.8944 39.2618 34.1836 39.4509 33.5665C39.7285 32.9034 38.6765 32.251 39.2441 31.6533C39.7816 31.0893 40.2449 30.3785 40.2113 29.5704C39.9779 28.9674 39.504 28.4264 39.6331 27.7368C39.1963 27.4061 38.8551 26.9765 38.581 26.5097C37.1488 26.561 36.2735 27.8429 35.8032 29.0506C35.7201 28.9993 35.5521 28.9003 35.469 28.8507C35.6653 27.7315 36.0631 26.637 36.1338 25.5018C35.8651 24.7716 35.4743 24.0395 34.8165 23.5904C34.2843 23.212 33.7769 22.7099 33.1014 22.6303C32.3322 22.5985 31.5613 22.8778 30.9354 23.3146ZM39.5411 32.1855C39.7109 32.5427 39.9407 32.8857 40.0044 33.2836C39.8735 34.3586 39.2918 35.4496 38.2627 35.9023C38.8869 35.6123 39.557 35.4514 40.2431 35.4089C40.6268 35.6742 41.0653 35.9677 41.1396 36.4734C41.228 37.14 41.0052 37.8031 40.8001 38.4308C41.3942 37.8579 42.0254 37.3097 42.7804 36.9579C42.8476 36.2647 42.9537 35.5734 42.9997 34.8767C43.0757 33.7062 42.8246 32.5533 42.662 31.4005C41.9052 31.2272 41.1961 30.8682 40.6568 30.3024C40.5295 31.0574 40.0309 31.6339 39.5411 32.1855ZM44.0022 31.5791C44.0889 32.3765 44.1207 33.181 44.225 33.9785C44.363 34.8378 44.1207 35.729 44.439 36.5636C45.2523 36.5087 46.2797 36.4981 46.7659 37.2814C47.0152 37.9038 46.7199 38.6659 47.1302 39.2494C47.6323 39.893 48.4386 40.3722 48.5854 41.2369C48.5217 41.6612 48.2848 42.029 48.1027 42.4092C48.5624 42.7929 48.9956 43.2031 49.4323 43.6133C50.3606 41.7125 51.4092 39.8736 52.6133 38.1319C51.7752 38.2946 50.8575 38.4679 50.0618 38.0541C49.2272 37.7005 48.4227 36.9066 48.5995 35.9217C48.8188 34.9015 49.351 33.9555 50.0211 33.1616C49.3015 33.0873 48.5924 32.891 47.9736 32.5127C47.4166 32.2156 47.0471 31.6745 46.5237 31.3368C45.6767 31.335 44.8474 31.5561 44.0022 31.5791ZM43.2225 31.3209C43.1836 32.327 43.3816 33.3242 43.3657 34.3303C43.3551 35.1968 43.3003 36.0614 43.3303 36.9278C43.4859 36.8164 43.6362 36.6962 43.7794 36.5706C43.9209 35.5486 44.0376 34.5089 43.8237 33.4887C43.6574 32.7637 43.7971 31.8832 43.2225 31.3209ZM52.4347 32.2174C52.0687 33.2783 50.6718 32.9565 50.0989 33.8105C49.5915 34.5461 49.0734 35.3612 49.0221 36.2789C49.0451 37.2072 49.9628 37.7624 50.7761 37.9392C51.6956 38.1178 52.5249 37.5361 53.4178 37.483C54.263 37.681 54.7864 38.5439 54.9278 39.3573C55.0887 39.8754 55.0675 40.5314 55.5449 40.8868C56.6005 41.8027 58.3917 41.0919 59.2475 42.3225C60.0343 43.1995 59.9866 44.4638 60.5489 45.4504C61.0228 46.1807 61.9988 46.1595 62.7626 46.2921C62.8776 46.1825 62.9907 46.0711 63.1057 45.9579C62.363 45.8058 61.5355 45.9526 60.8901 45.4716C61.9617 45.4257 63.1375 45.4876 63.9915 46.2161C63.7228 46.2921 63.4752 46.3805 63.2171 46.4795C63.5601 46.743 64.041 46.9764 64.133 47.4449C64.2338 48.0037 64.2603 48.573 64.3434 49.1353C65.1939 49.8249 66.2778 50.4349 66.5872 51.563C66.8595 52.4896 67.3299 53.3365 67.7365 54.2082C67.9116 53.8475 68.1768 53.4992 68.1697 53.0801C68.1697 52.3746 67.9788 51.6744 68.099 50.9707C68.191 50.2192 68.458 49.4483 68.2458 48.695C67.7277 48.0231 66.9621 47.5157 66.6686 46.6829C66.5165 45.7634 66.7552 44.8263 66.6403 43.905C66.4652 43.3958 66.1116 42.9714 65.9507 42.4569C65.7809 41.6488 66.4776 40.8479 66.0851 40.0592C65.8039 39.1398 64.9375 38.6341 64.3558 37.9339C63.7846 36.7916 64.5008 35.4302 63.9243 34.2808C63.6255 33.5806 62.9837 33.1368 62.3931 32.7054C61.601 33.2394 60.8901 34.2702 59.8062 33.9909C58.7047 33.8547 58.0522 32.7602 56.9825 32.5657C56.4272 32.6417 55.9552 33.0272 55.3876 33.0484C54.2825 33.1686 53.5699 31.8089 52.4347 32.2174ZM37.1399 36.7899C36.6714 36.9437 36.4203 37.3946 36.1162 37.7465C35.9818 38.5192 35.8739 39.3467 35.393 39.9956C34.9934 40.4235 34.5354 40.793 34.1216 41.2086C33.6955 41.6789 33.0095 41.5622 32.4419 41.5958C32.4242 42.0962 32.4489 42.6532 32.1059 43.0616C31.5719 43.7052 30.702 43.8944 30.0513 44.3842C29.9452 44.7821 29.947 45.2011 29.8992 45.6113C30.2458 46.0092 30.5393 46.506 30.3996 47.0577C30.359 47.8834 29.5138 48.2229 28.8896 48.5571C28.6969 48.8772 28.4829 49.1884 28.3397 49.5367C28.5749 50.0954 29.001 50.5516 29.222 51.1192C29.5474 51.8689 29.5102 52.7177 29.2415 53.478C28.9214 54.3391 29.047 55.2709 29.1195 56.1638C29.6022 55.4141 30.3837 54.9173 30.8187 54.134C31.2908 53.3577 31.8478 52.5214 32.7566 52.2279C33.7114 52.1076 34.8059 51.9962 35.4743 51.2112C36.1515 50.541 36.3973 49.6039 36.7598 48.7552C37.246 48.1787 37.9303 47.5988 38.7419 47.6996C39.5093 47.7703 40.2838 47.9206 41.0564 47.7933C42.0908 47.5546 42.8812 46.7978 43.4789 45.9561C44.0571 45.0632 45.3248 45.6591 46.0516 45.0013C46.7199 44.4461 46.8614 43.5479 47.2221 42.8052C47.4697 42.25 47.8975 41.7938 48.1239 41.228C47.917 40.2591 46.7341 39.9337 46.4918 38.9842C46.3168 38.4714 46.4635 37.9215 46.3539 37.4017C45.507 36.6555 44.2533 36.972 43.2844 37.2761C41.6311 37.773 40.6675 39.3078 39.5181 40.4589C39.649 39.0461 40.8849 37.9516 40.7187 36.4893C40.6604 35.9111 39.9354 35.8616 39.4951 35.9712C38.6977 36.2046 37.9162 36.4946 37.1399 36.7899ZM32.3605 41.2174C32.8433 41.2528 33.333 41.1997 33.7786 40.9964C33.2888 40.9027 32.7902 40.9522 32.3605 41.2174ZM47.7915 42.7716C47.4909 43.5072 47.261 44.2817 46.8154 44.9483C47.07 45.187 47.3335 45.4151 47.597 45.6485C48.1398 45.1658 48.8789 45.2471 49.5455 45.3532C49.038 45.7705 48.3449 45.6432 47.7437 45.7475C48.4651 46.3557 49.2343 46.9216 49.8585 47.6359C50.3217 48.2123 50.7355 48.8259 51.1563 49.4341C51.9927 49.2874 52.8661 49.0186 53.7043 49.3121C53.6388 49.4359 53.5062 49.6852 53.4408 49.809C53.3453 49.733 53.1508 49.5774 53.0553 49.4996C52.4984 49.5986 51.9467 49.7171 51.4092 49.8886C51.6991 50.3554 52.4188 50.6772 52.2278 51.3173C51.8388 50.9813 51.4976 50.5976 51.1758 50.1998C50.9583 50.8222 51.0396 51.678 50.3642 52.0245C50.4791 51.289 50.5852 50.5251 50.9812 49.8797C50.3889 48.8082 49.7011 47.7561 48.7498 46.9711C48.0372 46.3681 47.3193 45.7669 46.5396 45.2524C45.9508 45.8271 45.1021 45.7935 44.3453 45.8377C44.5009 46.5273 44.5097 47.2363 44.5592 47.94C45.0702 48.2565 45.5812 48.6296 46.2001 48.695C46.8154 48.833 47.5899 48.7163 48.0284 49.2715C48.9549 50.2228 48.6243 51.7876 49.5473 52.7336C50.4367 53.409 51.5223 53.7892 52.4046 54.4752C53.119 55.4106 52.7441 56.6784 52.898 57.764C53.3153 58.0682 53.8669 58.3086 54.0314 58.8444C54.1375 59.29 54.1003 59.755 54.1321 60.2112C54.3479 59.8593 54.6803 59.5287 54.6856 59.0884C54.7298 58.2521 53.9978 57.6244 53.9765 56.7986C53.9253 56.0135 53.6512 55.2691 53.5769 54.4894C53.584 53.5151 52.707 52.8397 52.6433 51.8795C53.2251 52.4613 53.6636 53.1951 53.9288 53.9713C54.0526 54.9314 54.3107 55.8632 54.4681 56.8163C54.8889 55.8686 55.1082 54.8289 55.094 53.7927C55.064 53.0094 54.2312 52.6876 53.8156 52.1324C53.6972 51.151 53.8316 50.1556 53.8086 49.1689C53.7909 48.6774 53.5557 48.1876 53.1773 47.8728C52.4984 47.376 51.6054 47.2664 50.9636 46.7094C50.4119 46.14 50.6524 45.164 50.0229 44.6494C49.275 44.0288 48.5836 43.3375 47.7915 42.7716ZM43.3993 47.2451C43.4011 48.2636 43.3869 49.2838 43.3993 50.3059C43.6309 48.9019 44.2356 47.5475 44.0535 46.0994C43.7741 46.4371 43.3604 46.7571 43.3993 47.2451ZM41.2156 48.2707C41.2545 49.1053 41.3641 49.9363 41.5427 50.7532C42.0095 52.3976 41.9759 54.1269 42.3455 55.7925C42.3596 56.5263 42.2517 57.3096 42.7345 57.9356C42.4215 55.7165 43.1659 53.5346 43.0792 51.3155C43.0262 50.0229 43.0138 48.7304 42.9572 47.4379C42.372 47.7049 41.8044 48.0108 41.2156 48.2707ZM44.3983 52.875C44.6936 53.6194 44.6299 54.4151 44.6565 55.1984C44.9977 54.0367 45.4079 52.8945 45.9773 51.823C46.3097 50.9141 46.7588 50.0583 47.2026 49.199C46.4459 49.1442 45.6909 49.0345 44.9942 48.7269C44.591 50.0636 44.2834 51.4746 44.3983 52.875ZM45.9649 57.0338C45.8535 57.4281 45.7722 57.8295 45.6661 58.2255C45.9543 57.3414 46.6598 56.6872 46.9639 55.812C46.5749 56.1621 46.1117 56.5051 45.9649 57.0338Z" fill="#030303"/>
<path opacity="0.92" d="M55.2573 18.1647C55.3281 18.0321 55.4677 17.7686 55.5385 17.636C55.8956 17.8269 56.2493 18.0268 56.5764 18.269C56.1326 18.2902 55.6923 18.2319 55.2573 18.1647Z" fill="#030303"/>
<path opacity="0.92" d="M46.0767 18.2405C46.5682 18.1344 47.0704 18.0937 47.5725 18.1645C47.3038 18.313 47.0368 18.4845 46.7327 18.5446C46.5028 18.4686 46.2906 18.3466 46.0767 18.2405Z" fill="#030303"/>
<path opacity="0.92" d="M53.1665 19.0608C53.6669 18.5002 54.2893 18.0264 55.0673 17.9751C54.9807 18.1537 54.894 18.334 54.8091 18.5126C54.2946 18.7849 53.7571 19.0254 53.1665 19.0608Z" fill="#030303"/>
<path opacity="0.92" d="M44.6167 19.3772C44.8147 18.9741 45.1118 18.6381 45.4831 18.3853C45.5892 18.5126 45.6971 18.6416 45.8049 18.7689C45.4124 18.9794 45.0216 19.1951 44.6167 19.3772Z" fill="#030303"/>
<path opacity="0.92" d="M56.3914 19.2356C56.5753 19.0022 56.837 18.8555 57.0792 18.691C56.982 18.9881 56.8547 19.2728 56.6637 19.5203C55.8503 20.6378 55.2032 21.9056 54.9981 23.2848C54.8885 23.7162 54.9415 24.2856 54.4429 24.4801C54.625 22.6058 55.2067 20.7262 56.3914 19.2356Z" fill="#030303"/>
<path opacity="0.92" d="M49.0112 19.0759C49.3702 19.1979 49.7256 19.3341 50.0774 19.4773C50.0209 19.548 49.9095 19.6859 49.8547 19.7549C49.7486 19.7443 49.5364 19.7195 49.4303 19.7072C49.2871 19.4985 49.1474 19.2881 49.0112 19.0759Z" fill="#030303"/>
<path opacity="0.92" d="M45.9917 19.1281C46.5646 19.784 46.8316 20.6522 46.9996 21.4921C46.363 20.8874 45.9988 20.0033 45.9917 19.1281Z" fill="#030303"/>
<path opacity="0.92" d="M50.6572 19.545C51.2071 19.453 51.7641 19.4071 52.3228 19.4212C52.2928 19.5362 52.2291 19.766 52.1991 19.8809C51.6704 19.8721 51.0268 20.0419 50.6572 19.545Z" fill="#030303"/>
<path opacity="0.92" d="M3.19824 21.9496C4.73302 21.1592 6.4234 20.429 8.19159 20.5934C9.13403 20.6783 10.1313 20.6164 10.9977 21.0602C11.5211 21.3113 12.1417 21.4545 12.4847 21.9673C10.8403 21.9001 9.17116 22.252 7.76545 23.1255C7.15189 23.5587 6.58077 24.098 6.27134 24.7946C5.96191 25.486 5.51456 26.1473 5.4792 26.9288C5.43853 27.5724 5.47566 28.2231 5.56937 28.8614C5.75326 29.6094 6.2625 30.2265 6.77527 30.7817C7.44541 31.496 8.38431 31.8373 9.28255 32.1662C10.3452 32.5499 11.4945 32.5852 12.612 32.5534C13.3706 32.5481 14.1061 31.8815 14.8506 32.3023C14.2122 32.9813 13.5138 33.6373 12.658 34.0316C11.6219 34.5479 10.5857 35.119 9.43639 35.3418C6.50474 35.6053 3.38213 34.5002 1.48311 32.2033C-1.04893 29.1656 -0.0835042 24.0502 3.19824 21.9496ZM3.86838 22.0699C2.86052 22.542 2.05069 23.3553 1.49018 24.3084C0.689195 25.4771 0.542434 26.943 0.48762 28.3204C0.533593 29.9807 1.28684 31.6004 2.53341 32.7002C4.59687 34.585 7.6629 35.4921 10.3717 34.6381C11.4698 34.1678 12.5555 33.6302 13.5333 32.9406C11.3814 33.2271 9.11281 32.9 7.25799 31.7294C6.20592 30.9337 5.15739 29.8799 5.00179 28.506C4.94697 27.5371 4.80552 26.4885 5.29353 25.5992C5.67369 24.8813 5.94776 24.0767 6.56132 23.5127C7.79551 22.3086 9.52656 21.8152 11.1869 21.5571C10.2604 21.0196 9.17646 21.138 8.15622 21.016C6.64442 20.8392 5.22281 21.497 3.86838 22.0699Z" fill="#030303"/>
<path opacity="0.92" d="M48.6617 24.4688C48.2462 23.7527 47.3744 23.1356 47.5177 22.2214C48.011 22.8527 48.4778 23.5069 49.0012 24.1169C48.9163 24.2053 48.7466 24.3804 48.6617 24.4688Z" fill="#030303"/>
<path opacity="0.92" d="M31.9197 23.2798C32.2662 23.1153 32.6535 23.1366 32.9328 23.4177C32.5863 23.5821 32.2114 23.6882 31.8861 23.8916C31.4882 24.2187 31.2372 24.6784 30.9136 25.071C30.7757 24.3 31.2778 23.6299 31.9197 23.2798Z" fill="#030303"/>
<path opacity="0.92" d="M62.4805 23.8184C63.3345 23.6804 64.208 23.4294 65.0779 23.585C64.7437 23.9156 64.2646 23.9209 63.8331 23.9846C63.3769 24.0199 62.8553 24.1738 62.4805 23.8184Z" fill="#030303"/>
<path opacity="0.92" d="M40.5802 23.8975C41.2875 24.0725 42.0107 24.1857 42.7002 24.4315C41.9346 24.7179 41.1319 24.4827 40.3945 24.2334C40.4405 24.1503 40.5342 23.9823 40.5802 23.8975Z" fill="#030303"/>
<path opacity="0.92" d="M59.4873 24.8675C60.2441 24.3406 61.1458 24.0859 62.0423 23.918C62.0954 24.0081 62.2032 24.1867 62.258 24.2751C61.3191 24.4184 60.4404 24.8339 59.4873 24.8675Z" fill="#030303"/>
<path opacity="0.92" d="M33.6494 25.8257C33.2357 25.3324 32.8272 24.6958 33.0394 24.0239C33.3647 24.5632 33.7573 25.1644 33.6494 25.8257Z" fill="#030303"/>
<path opacity="0.92" d="M42.9878 24.7456C43.6261 24.6095 44.2573 24.7757 44.756 25.1859C44.6888 25.2655 44.5579 25.4229 44.4907 25.5024C43.9921 25.2443 43.4634 25.0462 42.9878 24.7456Z" fill="#030303"/>
<path opacity="0.92" d="M46.0537 25.3571C47.9032 24.9804 49.781 24.6533 51.6765 24.6922C52.9921 24.6268 54.3836 24.595 55.6178 25.1184C54.6542 25.2899 53.6976 25.0034 52.7339 25.0158C50.9675 25.0653 49.1728 25.0229 47.4524 25.4861C46.3649 25.5763 45.3818 26.1015 44.3032 26.2341C44.6869 25.6417 45.449 25.5905 46.0537 25.3571Z" fill="#030303"/>
<path opacity="0.92" d="M57.5811 25.493C58.5447 25.2313 59.4359 25.76 60.3253 26.0429C61.2907 26.416 62.3339 26.538 63.2834 26.9553C64.0066 27.2736 64.8076 27.3744 65.5149 27.7316C66.4538 28.1877 67.444 28.5237 68.3953 28.9481C68.733 29.0736 68.9611 29.3583 69.1803 29.6324C67.2795 29.1868 65.6705 27.9543 63.7644 27.5141C62.417 26.9659 60.976 26.7166 59.6233 26.1826C58.9602 25.898 58.2353 25.7972 57.5811 25.493Z" fill="#030303"/>
<path opacity="0.92" d="M29.8813 26.971C30.0988 26.4158 30.3481 25.8747 30.5904 25.3319C30.6753 25.4221 30.845 25.6007 30.9299 25.6908C30.67 26.1842 30.3535 26.6563 29.8813 26.971Z" fill="#030303"/>
<path opacity="0.92" d="M49.8413 27.0238C49.9686 26.4261 50.2285 25.8603 50.6352 25.4023C50.8456 26.0583 50.393 26.709 49.8413 27.0238Z" fill="#030303"/>
<path opacity="0.92" d="M44.3073 28.0399C45.0712 27.3096 45.835 26.5811 46.5087 25.7625C46.5847 25.8385 46.735 25.9888 46.8093 26.063C46.0472 26.7951 45.3859 27.635 44.5266 28.2627C43.9855 28.8444 43.6372 29.6259 42.8945 30.0043C43.1067 29.1927 43.8069 28.6711 44.3073 28.0399Z" fill="#030303"/>
<path opacity="0.92" d="M53.8646 27.081C53.8381 26.8388 53.9795 26.6248 54.0556 26.4073C54.2854 27.5726 54.4304 28.7626 54.8884 29.8712C54.7893 29.8359 54.5895 29.7651 54.4888 29.7298C54.1245 28.8934 53.9176 27.9899 53.8646 27.081Z" fill="#030303"/>
<path opacity="0.92" d="M58.5278 28.7229C58.2025 27.9643 57.7993 27.0731 58.206 26.2668C58.4146 26.8521 58.4818 27.4745 58.671 28.0651C59.0494 29.0906 59.5534 30.0631 60.0467 31.0374C60.0414 31.1311 60.0272 31.3168 60.0201 31.4087C59.8115 31.3097 59.5551 31.2301 59.4791 30.9844C59.1414 30.2382 58.8956 29.4549 58.5278 28.7229Z" fill="#030303"/>
<path opacity="0.92" d="M1.90527 26.735C2.71864 26.6925 3.53731 26.6059 4.35067 26.7014C4.00234 27.4157 3.54438 28.0717 3.24202 28.809C3.81844 28.8161 4.44084 28.6517 4.95538 29.0071C4.19153 29.3307 3.31628 29.3572 2.52591 29.1149C2.82296 28.4236 3.16245 27.7517 3.53554 27.0992C2.97149 27.0886 2.3597 27.1399 1.90527 26.735Z" fill="#030303"/>
<path opacity="0.92" d="M34.1883 28.1763C33.428 28.1144 33.916 27.156 34.0681 26.7104C34.1512 27.1914 34.2643 27.6865 34.1883 28.1763Z" fill="#030303"/>
<path opacity="0.92" d="M66.5981 27.4562C67.1445 27.2529 67.7333 27.2405 68.308 27.1663C68.2938 27.2777 68.2691 27.5004 68.2567 27.6118C67.698 27.6207 67.1374 27.6083 66.5981 27.4562Z" fill="#030303"/>
<path opacity="0.92" d="M5.97656 27.329C6.58482 27.1893 7.21783 27.1398 7.83492 27.2529C7.74651 27.7834 7.44769 28.2414 7.21252 28.717C7.62628 28.7311 8.04357 28.7418 8.45909 28.7559C8.40604 28.9044 8.35477 29.053 8.30349 29.2032C7.64926 29.2103 6.99681 29.2492 6.34435 29.2068C6.59366 28.6816 6.92077 28.1989 7.21783 27.6985C6.78639 27.6366 6.34258 27.5854 5.97656 27.329Z" fill="#030303"/>
<path opacity="0.92" d="M9.74316 27.7677C10.2966 27.3381 11.0074 27.43 11.6404 27.5962C11.4212 27.918 11.1913 28.2328 10.9632 28.5493C11.3893 28.5846 11.8261 28.6076 12.2009 28.8428C11.5485 29.1717 10.7988 29.1257 10.1251 28.8958C10.2895 28.5723 10.4699 28.2558 10.6591 27.9463C10.3514 27.8951 10.0438 27.8367 9.74316 27.7677Z" fill="#030303"/>
<path opacity="0.92" d="M28.1521 27.7086C28.4085 27.6397 28.6684 27.5813 28.9336 27.5371C28.9778 27.8359 28.6595 27.9579 28.5022 28.1471C28.2246 28.1118 27.9452 28.1153 27.6694 28.0835C27.5474 27.7776 27.9664 27.7917 28.1521 27.7086Z" fill="#030303"/>
<path opacity="0.92" d="M25.9672 28.102C26.342 27.8933 26.8778 27.6299 27.242 28.01C26.8053 28.3761 26.1387 28.5193 25.6719 28.9065C25.7603 28.636 25.831 28.3548 25.9672 28.102Z" fill="#030303"/>
<path opacity="0.92" d="M49.7345 27.8191C49.9343 28.4044 49.5418 28.9613 49.5577 29.5484C49.5365 30.4802 49.6337 31.412 49.5471 32.3439C48.9813 32.0097 49.2483 31.3148 49.2094 30.7879C49.2836 29.7906 48.9901 28.6378 49.7345 27.8191Z" fill="#030303"/>
<path opacity="0.92" d="M63.2402 27.9144C64.4072 28.7119 64.4426 30.3156 65.4452 31.2457C65.3179 31.2899 65.0615 31.3765 64.9342 31.419C64.6972 31.053 64.4815 30.6728 64.3542 30.2555C64.1084 29.4138 63.4188 28.7826 63.2402 27.9144Z" fill="#030303"/>
<path opacity="0.92" d="M27.146 29.0085C27.7755 28.6018 28.4209 29.1128 28.8258 29.5902C28.2334 29.5 27.6906 29.2419 27.146 29.0085Z" fill="#030303"/>
<path opacity="0.92" d="M37.5503 29.4578C38.0931 29.3093 38.6572 29.2757 39.2159 29.3323C38.7597 29.7726 38.0878 29.6665 37.5503 29.4578Z" fill="#030303"/>
<path opacity="0.92" d="M25.4106 29.4506C26.1179 29.7688 25.8881 30.6476 25.9252 31.2629C25.766 31.0932 25.6087 30.9235 25.4513 30.7537C25.4495 30.317 25.423 29.8838 25.4106 29.4506Z" fill="#030303"/>
<path opacity="0.92" d="M34.8449 29.9977C35.7537 30.1957 36.5494 29.446 37.4777 29.5539C36.5512 30.0808 35.4743 30.5741 34.3887 30.2735C34.5354 30.1781 34.6946 30.0914 34.8449 29.9977Z" fill="#030303"/>
<path opacity="0.92" d="M29.5059 29.9851C30.2874 30.0399 30.8797 30.5863 31.5092 30.9859C31.877 31.2529 32.4888 31.5782 32.1245 32.1175C31.3147 31.3272 30.3334 30.749 29.5059 29.9851Z" fill="#030303"/>
<path opacity="0.92" d="M32.9848 31.387C33.2624 31.0723 33.5912 30.6585 34.0722 30.7558C33.7628 31.3428 33.1828 31.7265 32.8009 32.2623C31.9168 33.1853 31.5897 34.4513 30.8948 35.498C30.3378 36.3379 30.0867 37.3759 29.3564 38.0955C29.7419 36.5094 30.7904 35.1939 31.3686 33.6786C31.6745 32.768 32.3995 32.1155 32.9848 31.387Z" fill="#030303"/>
<path opacity="0.92" d="M55.0688 30.6654C55.3482 30.9465 55.5975 31.256 55.8415 31.5707C55.6488 31.5796 55.4596 31.5796 55.2704 31.5743C55.1555 31.2843 55.1166 30.9713 55.0688 30.6654Z" fill="#030303"/>
<path opacity="0.92" d="M60.1842 31.7054C60.3592 31.4419 60.8048 31.7408 60.5979 31.9971C60.4194 32.2624 59.9791 31.9618 60.1842 31.7054Z" fill="#030303"/>
<path opacity="0.92" d="M25.4325 32.0052C25.6234 31.9981 25.8144 31.991 26.0089 31.9857C25.8798 32.304 25.894 33.0891 25.3883 32.693C25.3865 32.4614 25.4113 32.2333 25.4325 32.0052Z" fill="#030303"/>
<path opacity="0.92" d="M33.2729 32.2479C33.5665 32.209 33.8653 32.1754 34.1588 32.2461C35.3859 32.5201 36.6343 32.6881 37.8632 32.9657C37.826 33.0524 37.7553 33.2221 37.7199 33.3088C36.2576 32.8632 34.6875 32.8437 33.2729 32.2479Z" fill="#030303"/>
<path opacity="0.92" d="M24.2344 34.5343C24.5862 33.9879 25.3112 34.0392 25.8717 33.8889C26.754 33.8288 27.6894 33.6697 28.5452 33.9596C28.5275 34.0392 28.4957 34.1948 28.478 34.2726C27.9104 34.2726 27.3517 34.1435 26.7859 34.1665C25.9177 34.1736 25.1061 34.5644 24.2344 34.5343Z" fill="#030303"/>
<path opacity="0.92" d="M56.4141 33.6554C57.1602 33.8357 57.673 34.4299 58.3255 34.7853C59.8691 35.9222 61.1758 37.3527 62.2703 38.9246C62.9864 39.9926 63.9218 40.9385 64.3408 42.178C64.4787 42.4203 64.4381 42.6395 64.2241 42.834C63.7874 42.2647 63.6424 41.5397 63.2516 40.9456C61.7469 38.7354 60.1555 36.5128 57.9895 34.9073C57.4095 34.5642 56.8614 34.1611 56.4141 33.6554Z" fill="#030303"/>
<path opacity="0.92" d="M28.8887 34.1569C29.3024 33.9819 29.7268 34.1269 30.1264 34.2612C30.0645 34.3726 29.939 34.5937 29.8771 34.7051C29.5394 34.5371 29.2069 34.355 28.8887 34.1569Z" fill="#030303"/>
<path opacity="0.92" d="M54.8691 34.3041C55.3695 34.115 56.0627 33.977 56.3986 34.5234C55.8788 34.5429 55.3519 34.511 54.8691 34.3041Z" fill="#030303"/>
<path opacity="0.92" d="M58.1249 34.1978C58.2151 33.9891 58.636 34.0634 58.5811 34.3127C58.4892 34.5214 58.0648 34.4471 58.1249 34.1978Z" fill="#030303"/>
<path opacity="0.92" d="M61.2559 34.1851C61.8376 34.171 62.4299 34.1975 62.9975 34.3495C63.0276 34.4963 63.0382 34.6448 63.0576 34.7951C62.4335 34.6713 61.7969 34.5299 61.2559 34.1851Z" fill="#030303"/>
<path opacity="0.92" d="M50.8262 35.9816C51.3902 35.1488 52.4034 34.8482 53.3016 34.5211C53.6146 34.3584 53.9435 34.507 54.2547 34.5918C53.7242 34.8022 53.1761 34.9596 52.6474 35.17C52.0285 35.4193 51.5016 35.8791 50.8262 35.9816Z" fill="#030303"/>
<path opacity="0.92" d="M31.3843 34.9116C32.2312 35.0831 32.5672 35.9354 32.9226 36.6197C33.1029 36.9397 33.1525 37.3075 33.1525 37.6718C32.5354 36.7664 32.157 35.7144 31.3843 34.9116Z" fill="#030303"/>
<path opacity="0.92" d="M49.1582 36.1044C49.724 36.4032 50.2562 36.7639 50.7849 37.1246C49.9999 37.4517 49.4446 36.7285 49.1582 36.1044Z" fill="#030303"/>
<path opacity="0.92" d="M50.9238 36.9601C51.2244 36.9584 51.5232 36.9619 51.8238 36.9743C51.6187 37.114 51.4136 37.2501 51.2067 37.3845C51.136 37.2784 50.9946 37.0662 50.9238 36.9601Z" fill="#030303"/>
<path opacity="0.92" d="M37.1025 37.0361C37.8204 37.4764 38.5772 38.3198 38.2855 39.2251C37.8876 38.4967 37.4703 37.7788 37.1025 37.0361Z" fill="#030303"/>
<path opacity="0.92" d="M27.7281 37.7396C27.889 37.8422 28.0482 37.9447 28.2108 38.0508C27.3144 38.3832 26.4639 39.0781 25.4648 38.9738C26.1474 38.4327 27.0049 38.2117 27.7281 37.7396Z" fill="#030303"/>
<path opacity="0.92" d="M33.3232 37.6083C33.7229 37.8912 34.034 38.2713 34.3311 38.6568C34.1401 38.655 33.9509 38.6462 33.7635 38.6268C33.5637 38.312 33.4452 37.9566 33.3232 37.6083Z" fill="#030303"/>
<path opacity="0.92" d="M58.3359 38.4385C58.9513 37.9009 59.9078 37.5703 60.6876 37.9168C59.9467 38.244 59.1263 38.3164 58.3359 38.4385Z" fill="#030303"/>
<path opacity="0.92" d="M42.4146 39.1075C43.0741 38.8228 43.8114 38.3277 44.5275 38.7414C43.8485 38.9536 43.136 39.3904 42.4146 39.1075Z" fill="#030303"/>
<path opacity="0.92" d="M45.6011 38.4543C46.036 38.9282 46.4569 39.418 46.8689 39.9131C46.8317 40.3675 46.3278 40.0015 46.197 39.8212C45.8327 39.4551 45.6577 38.9583 45.6011 38.4543Z" fill="#030303"/>
<path opacity="0.92" d="M29.5303 38.8516C30.646 39.2282 30.745 40.5844 31.0332 41.5533C30.9201 41.541 30.6937 41.5144 30.5806 41.5021C30.5222 40.5207 30.0643 39.6508 29.5303 38.8516Z" fill="#030303"/>
<path opacity="0.92" d="M56.1338 39.8172C56.5369 39.4635 56.9967 39.1824 57.4794 38.949C57.5483 38.9985 57.6862 39.0975 57.7552 39.147C57.2583 39.4812 56.7756 39.8348 56.3071 40.2044C56.2629 40.1089 56.1762 39.9144 56.1338 39.8172Z" fill="#030303"/>
<path opacity="0.92" d="M62.7549 39.0043C63.1403 38.8558 63.5647 38.8364 63.9095 39.0945C64.5991 39.5383 65.439 39.7965 65.9606 40.4631C64.8643 40.0405 63.883 39.3633 62.7549 39.0043Z" fill="#030303"/>
<path opacity="0.92" d="M21.946 39.8179C21.8664 39.4042 22.2784 39.2097 22.6179 39.1708C22.6144 39.6217 22.434 40.0425 22.2714 40.4562C22.1299 40.2564 22.022 40.0443 21.946 39.8179Z" fill="#030303"/>
<path opacity="0.92" d="M27.7163 40.9577C28.0116 40.3512 28.3352 39.7571 28.7277 39.209C29.0265 39.8438 28.4713 40.4025 28.2698 40.9719C28.1318 40.9683 27.8542 40.9612 27.7163 40.9577Z" fill="#030303"/>
<path opacity="0.92" d="M40.4507 39.8734C40.8644 39.6329 41.2976 39.3871 41.7945 39.396C41.4886 39.686 41.1456 39.9282 40.7919 40.1528C40.7071 40.0838 40.5356 39.9441 40.4507 39.8734Z" fill="#030303"/>
<path opacity="0.92" d="M23.1167 40.6415C23.6949 40.0774 24.3049 39.4055 25.1784 39.3807C24.6586 39.9094 24.0503 40.3409 23.5075 40.8448C23.4084 40.7953 23.2139 40.6927 23.1167 40.6415Z" fill="#030303"/>
<path opacity="0.92" d="M38.1582 39.3823C38.4376 39.5768 38.7187 39.7855 38.9362 40.0525C38.4588 40.4397 38.2979 39.6988 38.1582 39.3823Z" fill="#030303"/>
<path opacity="0.92" d="M35.335 40.3555C35.9432 40.3696 36.5674 40.3997 37.1367 40.6348C36.5196 40.893 35.8566 40.7445 35.335 40.3555Z" fill="#030303"/>
<path opacity="0.92" d="M55.3374 40.3179C55.8396 40.3921 56.4602 40.3798 56.6795 40.9544C56.1472 40.9473 55.6274 40.7953 55.3374 40.3179Z" fill="#030303"/>
<path opacity="0.92" d="M47.0155 40.4189C47.1605 40.6364 47.3002 40.8575 47.4364 41.082C47.2702 41.2977 47.1057 41.5152 46.9413 41.7327C46.8812 41.6991 46.7592 41.6319 46.6973 41.6001C46.8069 41.2058 46.9077 40.8115 47.0155 40.4189Z" fill="#030303"/>
<path opacity="0.92" d="M56.9521 40.7818C57.3854 40.5484 57.8681 40.6386 58.273 40.8914C57.8256 41.0594 57.3535 41.0806 56.9521 40.7818Z" fill="#030303"/>
<path opacity="0.92" d="M36.9908 42.6362C37.7546 42.0103 38.3346 41.1828 39.1179 40.5869C39.2646 40.6081 39.5599 40.6488 39.7067 40.67C38.1259 41.9307 36.7238 43.4019 35.41 44.9349C34.6515 45.7482 34.1051 46.7207 33.4579 47.6172C33.8841 48.0168 34.0326 48.5897 34.0821 49.1555C33.5216 48.885 33.5304 48.2131 33.3412 47.7074C32.6622 48.5773 32.2839 49.686 31.4121 50.3968C31.5784 49.3801 32.39 48.6587 32.7648 47.7251C31.4104 48.0699 30.3742 49.1113 29.041 49.4879C29.6563 48.763 30.5811 48.4518 31.3662 47.9585C31.8931 47.6119 32.5049 47.4386 33.1202 47.3201C34.2695 45.651 35.5143 44.0331 36.9908 42.6362Z" fill="#030303"/>
<path opacity="0.92" d="M58.5684 40.7759C59.2774 41.0835 59.944 41.6494 60.0749 42.4521C59.4171 42.0543 58.9503 41.4283 58.5684 40.7759Z" fill="#030303"/>
<path opacity="0.92" d="M27.6483 40.9971C27.7933 41.0006 28.0833 41.0059 28.2301 41.0094C27.5829 41.8069 27.2699 42.7776 26.9304 43.7289C26.2285 45.1859 25.8854 46.8091 25.0703 48.2095C25.2613 46.8904 25.8359 45.6757 26.2479 44.4185C26.7165 43.278 27.0401 42.0774 27.6483 40.9971Z" fill="#030303"/>
<path opacity="0.92" d="M39.6001 41.2107C40.5072 41.3203 41.4072 41.5873 42.2647 41.8791C41.3471 42.1142 40.3604 41.7182 39.6001 41.2107Z" fill="#030303"/>
<path opacity="0.92" d="M62.8901 41.2743C62.9626 41.3768 63.1094 41.582 63.1819 41.6845C62.9096 41.9214 62.6337 42.1566 62.3438 42.3723C62.4516 41.971 62.662 41.6138 62.8901 41.2743Z" fill="#030303"/>
<path opacity="0.92" d="M42.5132 41.9778C43.0649 41.9866 43.567 42.2695 44.0674 42.4764C44.612 42.7505 45.245 42.9963 45.5138 43.5921C44.5024 43.1501 43.5405 42.5966 42.5521 42.1086C42.5432 42.0768 42.5238 42.0114 42.5132 41.9778Z" fill="#030303"/>
<path opacity="0.92" d="M46.3767 42.157C46.8134 42.2631 46.7533 42.6821 46.7639 43.0252C46.6543 42.9792 46.435 42.8872 46.3271 42.843C46.3395 42.6715 46.3643 42.3285 46.3767 42.157Z" fill="#030303"/>
<path opacity="0.92" d="M33.6919 43.4017C34.5813 43.0552 35.568 42.6219 36.5316 42.8996C35.4194 43.2656 34.256 43.4583 33.2057 43.9976C32.3092 44.1903 31.5701 44.986 30.6064 44.7915C31.5896 44.231 32.6646 43.8667 33.6919 43.4017Z" fill="#030303"/>
<path opacity="0.92" d="M60.9912 45.0496C61.1733 44.2273 61.4315 43.3503 62.1281 42.811C61.9602 43.5006 61.7409 44.1814 61.4492 44.8268C61.3342 44.8816 61.1061 44.993 60.9912 45.0496Z" fill="#030303"/>
<path opacity="0.92" d="M37.9863 43.0919C38.6865 43.5287 39.4539 44.0255 39.705 44.8636C39.019 44.5719 38.6264 43.8876 38.0376 43.4562C38.0252 43.3642 37.9987 43.1821 37.9863 43.0919Z" fill="#030303"/>
<path opacity="0.92" d="M45.6392 44.1128C45.8372 43.8352 46.0423 43.5611 46.2563 43.2959C46.4278 43.7097 46.3146 44.1004 46.0299 44.4293C45.9327 44.3497 45.7364 44.1924 45.6392 44.1128Z" fill="#030303"/>
<path opacity="0.92" d="M64.3677 43.5876C64.6188 43.7326 64.9017 43.8617 65.0661 44.1163C65.6991 45.0075 66.0757 46.0437 66.6186 46.9861C66.9828 47.6721 67.2763 48.4077 67.393 49.1786C67.5256 50.0168 67.5522 50.8779 67.8386 51.6859C67.7378 51.6665 67.5398 51.6276 67.439 51.6063C67.0836 50.5737 67.1455 49.4456 66.7901 48.4095C66.4807 47.4334 65.8972 46.5847 65.4887 45.6547C65.1687 44.935 64.7213 44.2861 64.3677 43.5876Z" fill="#030303"/>
<path opacity="0.92" d="M44.3501 44.4711C44.465 44.411 44.6949 44.2925 44.8098 44.2324C45.0609 44.3279 45.312 44.4252 45.5631 44.5277C45.2519 44.6356 44.9354 44.7293 44.6189 44.8195C44.5517 44.731 44.4173 44.5578 44.3501 44.4711Z" fill="#030303"/>
<path opacity="0.92" d="M6.92472 45.7295C7.29073 45.5174 7.82649 44.6085 8.16245 45.2893C7.82295 45.7225 7.37914 46.0531 6.97069 46.4174C6.95301 46.8205 6.93002 47.2237 6.90173 47.6268C7.16342 47.4659 7.42158 47.2961 7.71156 47.1865C7.96441 47.7736 7.27482 48.037 6.92118 48.35C6.91411 49.0254 6.92649 49.6991 6.95301 50.3746C7.80174 49.9732 8.73534 49.6761 9.45322 49.0519C9.64772 48.5975 9.71491 48.1007 9.86697 47.6321C10.2082 47.9645 10.1039 48.4402 10.0809 48.8645C10.6733 48.5728 11.2285 48.2174 11.8067 47.9009C11.9393 47.5048 12.0772 47.1105 12.2204 46.718C12.2982 46.7834 12.4538 46.9125 12.5316 46.9779C12.4556 47.3015 12.3796 47.625 12.3035 47.9486C12.7862 48.0017 13.2707 48.0529 13.7552 48.1113C13.5289 48.7178 12.8976 48.4543 12.4185 48.4543C11.5874 48.2987 10.9509 48.9459 10.2418 49.2518C10.3974 49.3013 10.7086 49.4003 10.8642 49.4498C10.8041 49.6054 10.7422 49.761 10.6821 49.9166C10.3232 49.7875 9.96599 49.6602 9.60882 49.5258C8.86264 49.9325 8.11117 50.3233 7.34201 50.684C7.8707 51.119 8.43828 51.5062 9.01294 51.8775C9.30823 51.7237 9.59644 51.5522 9.90941 51.4372C10.0243 51.538 10.256 51.736 10.3709 51.8368C10.0898 51.9641 9.80862 52.0932 9.52925 52.2258C9.99075 52.5194 10.4575 52.8023 10.9226 53.0922C11.4495 52.896 12.0065 52.7174 12.5688 52.896C12.1939 53.2072 11.7501 53.407 11.308 53.5997C11.3204 54.0223 11.3222 54.4431 11.2974 54.8675C10.8519 54.5651 10.8925 54.017 10.8359 53.5467C10.2754 53.2496 9.73789 52.9119 9.19506 52.5848C9.17031 52.8306 9.14732 53.0763 9.12611 53.3239C9.01294 53.3592 8.78485 53.4282 8.67168 53.4636C8.63809 53.048 8.65931 52.6308 8.62394 52.217C8.16068 51.7679 7.57364 51.4708 7.06441 51.0783C7.03965 51.8156 7.05203 52.5547 7.04849 53.292C7.3703 53.651 8.00508 53.9551 7.85125 54.528C7.5595 54.3759 7.2925 54.1814 7.02374 53.9958C7.0644 54.4962 7.1033 54.9983 7.14574 55.5005C7.43395 55.7534 7.7204 56.0097 7.99978 56.275C7.94673 56.3687 7.84417 56.5561 7.7929 56.6498C7.47816 56.404 7.16342 56.1583 6.85753 55.9054C6.65065 56.2343 6.44731 56.5667 6.24574 56.8974C6.13611 56.8143 5.92039 56.6463 5.81253 56.5632C6.04063 56.2042 6.31646 55.8736 6.50919 55.4934C6.63827 54.9736 6.58346 54.4272 6.61529 53.8968C6.32354 54.0559 6.05655 54.5864 5.68523 54.3618C5.60035 53.7606 6.32177 53.5201 6.58169 53.0604C6.62059 52.4062 6.53925 51.7537 6.53749 51.0995C5.92216 51.3983 5.32628 51.7378 4.7587 52.1197C4.6031 52.6502 4.37324 53.1541 4.07618 53.6227C3.68188 53.2638 3.92589 52.8111 4.10447 52.4203C3.55987 52.7634 2.95516 52.995 2.41409 53.3416C1.97028 53.7889 1.73511 54.4095 1.23294 54.8109C1.1463 54.2769 1.42037 53.8154 1.67853 53.3769C1.21703 53.2903 0.732549 53.1983 0.444336 52.781C1.01015 52.8146 1.57066 52.9384 2.13825 52.9473C2.63157 52.804 3.07362 52.537 3.53158 52.3107C3.41134 52.2824 3.17264 52.2258 3.05417 52.1993C2.99229 52.1003 2.86851 51.9058 2.80662 51.8068C3.38128 51.8174 4.00722 52.0207 4.54652 51.7343C5.23788 51.3842 5.88326 50.951 6.57816 50.6062C6.05654 50.2083 5.57737 49.7292 4.97795 49.448C4.64554 49.3985 4.34141 49.6001 4.03021 49.685C3.9471 49.6213 3.78266 49.4958 3.69956 49.4339C3.96125 49.2677 4.22294 49.105 4.48463 48.9423C3.91174 48.548 3.34946 48.0671 2.63688 47.9698C2.14356 48.0229 1.65554 48.2439 1.16045 48.0565C1.60072 47.7965 2.05692 47.5649 2.51134 47.3315C2.35574 46.9602 2.20898 46.5853 2.08874 46.2016C2.51664 46.3873 2.73059 46.7975 2.92509 47.1936C3.208 47.8903 4.04435 48.0335 4.57304 48.4897C4.54652 48.1378 4.52883 47.7859 4.5253 47.4341C5.11764 47.8743 4.909 48.7673 5.46951 49.2217C5.78425 49.5028 6.13611 49.738 6.48621 49.9732C6.50743 49.3596 6.50566 48.7461 6.46853 48.1325C6.02295 47.862 5.60389 47.549 5.2644 47.1529C5.68523 47.2572 6.09014 47.4217 6.48975 47.595C6.48798 47.0999 6.55163 46.5977 6.45792 46.1097C6.1202 45.8286 5.71175 45.6093 5.56322 45.1637C6.05654 45.2433 6.50035 45.4767 6.92472 45.7295Z" fill="#030303"/>
<path opacity="0.92" d="M42.2144 46.6458C42.614 45.9774 43.0472 45.2366 43.8499 45.0032C43.5034 45.5814 43.1497 46.1772 42.6723 46.6582C42.5574 46.6547 42.3293 46.6494 42.2144 46.6458Z" fill="#030303"/>
<path opacity="0.92" d="M39.7583 45.3881C40.3966 45.7576 40.9447 46.3181 41.1817 47.0307C40.4815 46.7336 40.0571 46.0529 39.7583 45.3881Z" fill="#030303"/>
<path opacity="0.92" d="M46.2134 46.6605C46.3849 46.2255 46.6943 45.8082 47.2248 45.9691C46.9507 46.2821 46.6201 46.5473 46.2134 46.6605Z" fill="#030303"/>
<path opacity="0.92" d="M45.3384 47.6547C45.5187 47.4938 45.7185 47.3612 45.9183 47.2268C45.8476 47.5451 45.7716 47.8633 45.6885 48.1799C45.5665 48.0066 45.4392 47.8386 45.3384 47.6547Z" fill="#030303"/>
<path opacity="0.92" d="M65.8922 47.1643C65.9683 47.2174 66.1203 47.3234 66.1964 47.3765C65.8286 47.9264 65.7437 48.7787 65.0205 48.9873C65.1708 48.3189 65.5457 47.7425 65.8922 47.1643Z" fill="#030303"/>
<path opacity="0.92" d="M33.8188 49.5967C34.0452 49.7947 34.2644 50.0034 34.4784 50.2191C34.2856 50.3358 34.1 50.456 33.909 50.5727C33.8737 50.2474 33.8418 49.9203 33.8188 49.5967Z" fill="#030303"/>
<path opacity="0.92" d="M29.9773 52.955C30.4459 52.1752 30.6245 51.2469 31.2345 50.552C31.2504 50.6917 31.2787 50.9711 31.2929 51.109C30.8773 52.1257 30.2373 53.0381 29.8942 54.0866C29.8094 54.3907 29.6378 54.6542 29.3638 54.8222C29.4522 54.1679 29.6343 53.5225 29.9773 52.955Z" fill="#030303"/>
<path opacity="0.92" d="M50.6129 52.3286C50.8586 52.1147 51.1751 52.5479 50.9188 52.7335C50.6659 52.944 50.3529 52.5143 50.6129 52.3286Z" fill="#030303"/>
<path opacity="0.92" d="M39.5187 53.6047L39.5788 53.5958C39.7874 55.0033 39.5912 56.4408 39.8758 57.8395C39.7521 58.8031 39.7256 59.7738 39.7698 60.7463C38.9953 61.0558 38.1572 60.9391 37.3474 60.9373C36.5287 60.9161 35.7118 60.8666 34.8984 60.7994C35.1248 62.7037 35.2662 64.6275 35.7701 66.4876C36.0813 67.5468 36.1043 68.6625 36.3961 69.7269C36.6595 70.8374 37.0521 71.9124 37.3668 73.0104C37.5967 73.8079 37.9362 74.6266 38.5674 75.1906C39.8723 76.0889 41.522 76.1012 43.0374 76.2869C44.2733 76.5061 45.4545 75.4753 46.6798 76.0146C46.1087 76.5344 45.3112 76.4036 44.6252 76.6211C43.5059 77.0083 42.3301 76.6228 41.1949 76.5362C40.1269 76.4814 39.1527 76.0111 38.1625 75.6574C37.5949 74.8405 37.1246 73.9529 36.9035 72.9751C36.5287 71.5252 35.9081 70.1336 35.7471 68.6342C35.5915 66.7104 34.8489 64.8927 34.6756 62.9707C34.5695 62.0141 34.3096 61.0664 34.4122 60.0957C35.9187 59.376 37.6073 59.353 39.2128 59.0029C39.5169 57.3232 39.4868 55.6098 39.3896 53.9141C39.4214 53.8381 39.4869 53.6825 39.5187 53.6047ZM35.2892 60.2902C36.5906 60.5801 37.9326 60.3786 39.2517 60.5094C39.2375 60.2053 39.2252 59.9047 39.2128 59.6041C37.8973 59.7703 36.5428 59.8198 35.2892 60.2902Z" fill="#030303"/>
<path opacity="0.92" d="M41.1887 55.2082C41.1798 54.6689 41.0278 54.0659 41.415 53.6168C41.5122 55.6768 41.5282 57.7438 41.6838 59.7984C41.6095 59.8532 41.4627 59.9611 41.3885 60.0141C41.3001 59.8797 41.2116 59.7453 41.125 59.6127C41.4822 58.1664 41.2382 56.6722 41.1887 55.2082Z" fill="#030303"/>
<path opacity="0.92" d="M40.1367 61.0317C40.7414 60.4712 41.5972 60.7895 42.255 61.0618C41.5919 61.4455 40.8281 61.1484 40.1367 61.0317Z" fill="#030303"/>
<path opacity="0.92" d="M49.1963 61.4031C49.3413 61.3606 49.4898 61.32 49.6383 61.2793C49.7267 61.3765 49.9036 61.5728 49.992 61.6701C49.8134 61.8663 49.6348 62.0591 49.4509 62.25C49.3625 61.9671 49.2794 61.6842 49.1963 61.4031Z" fill="#030303"/>
<path opacity="0.92" d="M49.473 62.2729C49.931 62.5753 49.6834 63.0916 49.6233 63.5195C49.4695 64.2834 49.4377 65.0649 49.3316 65.8358C49.1459 66.9056 49.2962 68.0372 48.817 69.0468C48.3131 68.3307 48.7375 67.4802 48.8153 66.7058C49.0964 65.2346 48.9744 63.6981 49.473 62.2729Z" fill="#030303"/>
<path opacity="0.92" d="M47.2285 73.6197C47.7165 72.2547 47.8668 70.8013 48.3495 69.438C48.5617 69.6643 48.6254 69.9242 48.5387 70.216C48.3177 71.4254 47.9747 72.6048 47.667 73.793C47.5203 73.7347 47.3735 73.6763 47.2285 73.6197Z" fill="#030303"/>
<path opacity="0.92" d="M36.0009 74.8859C36.1813 74.8576 36.3652 74.8381 36.5508 74.8275C36.549 75.1405 36.1494 75.5967 36.5243 75.8318C37.1821 76.2633 38.0237 76.2969 38.6691 76.7601C37.8487 77.0713 37.0105 76.6434 36.3333 76.1996C35.9213 75.9167 35.7852 75.3314 36.0009 74.8859Z" fill="#030303"/>
<path opacity="0.92" d="M48.4639 75.1349C49.0704 74.5691 49.8749 75.0624 50.4089 75.4762C50.5715 76.1109 49.7635 76.8943 49.1128 76.4575C49.3922 76.2117 49.6821 75.9766 49.9686 75.7379C49.4664 75.5363 48.9607 75.3453 48.4639 75.1349Z" fill="#030303"/>
<path opacity="0.92" d="M47.8599 76.4533C48.2772 76.4003 48.8324 76.2058 49.0764 76.692C48.744 76.9007 48.3567 76.959 47.9766 77.0033C47.9359 76.8194 47.897 76.6355 47.8599 76.4533Z" fill="#030303"/>
<path opacity="0.92" d="M39.3354 76.7244C39.606 76.8128 39.8765 76.91 40.147 77.009C40.1081 77.1222 40.0321 77.3468 39.995 77.4599C39.6785 77.3061 39.4221 77.078 39.3354 76.7244Z" fill="#030303"/>
<path opacity="0.92" d="M46.2313 76.9813C46.5372 76.9017 46.8148 77.0485 47.0676 77.2059C46.3727 77.5949 45.5593 77.5401 44.7937 77.5878C43.8407 77.6126 42.8664 77.7204 41.9346 77.4516C42.1361 77.2748 42.3536 77.0874 42.6454 77.1422C43.8424 77.1599 45.0413 77.1316 46.2313 76.9813Z" fill="#030303"/>
</svg>
