<svg width="32" height="48" viewBox="0 0 32 48" fill="none" xmlns="http://www.w3.org/2000/svg">
<path opacity="0.89" d="M22.1714 4.2269C20.908 2.87124 21.9975 0.646103 23.6797 0.259277C24.6698 0.560931 25.8693 1.13229 25.7274 2.38149C25.9403 4.16302 23.4809 5.63225 22.1714 4.2269ZM23.1047 3.65199C24.2191 4.06721 24.8685 2.79316 24.7514 1.83142C24.464 1.72495 23.8855 1.50492 23.5945 1.39491C23.0409 1.96982 22.0294 3.02739 23.1047 3.65199Z" fill="black"/>
<path opacity="0.89" d="M28.7375 0.70641C29.8909 0.521869 29.1989 1.81011 28.9256 2.34244C27.4244 4.91537 26.6331 7.93544 24.6528 10.2032C24.5108 10.047 24.2269 9.74182 24.085 9.58567C25.6713 6.64721 26.8531 3.47807 28.7375 0.70641Z" fill="black"/>
<path opacity="0.89" d="M28.4291 9.7132C27.2331 8.52788 28.0032 6.47309 29.3198 5.71008C30.1112 5.88043 31.1795 5.64975 31.7011 6.4305C32.8758 8.3043 30.3348 11.0724 28.4291 9.7132ZM29.2737 7.30352C28.674 7.75422 28.9366 8.52433 29.0182 9.13828C30.2887 9.2341 31.0624 8.1517 31.0446 6.96283C30.4413 6.98767 29.6889 6.71441 29.2737 7.30352Z" fill="black"/>
<path opacity="0.89" d="M12.3988 7.38884C13.137 6.86361 14.0278 7.28947 14.5423 7.91407C17.5376 11.3955 18.7371 15.9203 20.5115 20.0547C22.112 23.0038 23.2335 26.1694 24.4827 29.2747C25.7674 31.9434 25.9803 35.0132 25.6609 37.9197C25.2102 41.8518 22.4421 45.4681 18.6945 46.806C15.316 48.3143 11.3874 48.3285 7.89531 47.2142C5.93634 46.224 4.26128 44.7477 2.75656 43.172C1.0815 40.9362 0.357532 38.122 0.006195 35.3929C-0.135759 29.9561 2.18164 24.8208 4.92491 20.2499C6.5219 17.276 8.26439 14.3836 10.0885 11.5446C10.9722 10.2244 11.1283 8.43576 12.3988 7.38884ZM13.0837 8.27251C11.8026 10.7993 10.4576 13.2977 8.86769 15.647C7.53687 17.5883 6.67095 19.7921 5.4324 21.7901C8.64767 21.5311 11.5826 23.561 14.7978 22.9896C16.6291 22.8228 18.3999 21.854 19.2126 20.1505C17.3885 16.1084 16.2848 11.502 13.0837 8.27251ZM12.3172 24.2211C9.82235 23.9017 7.40558 22.546 4.84685 23.0571C3.98092 23.9727 3.63314 25.2325 3.07597 26.3362C4.31807 26.0417 5.66662 25.6016 6.91937 26.1304C8.15082 26.6414 9.51004 26.8614 10.6244 27.6316C8.02307 27.589 5.45369 26.2723 2.85947 27.2305C2.63234 27.77 2.39458 28.3094 2.16036 28.8488C3.32793 28.3449 4.77231 28.3591 5.70211 29.3208C4.65875 29.4379 3.56216 29.2072 2.56138 29.5373C1.8729 29.7573 1.78063 30.5416 1.49672 31.0952C3.20017 31.0633 4.92491 31.0633 6.58933 31.4856C10.1701 32.4722 13.939 32.8164 17.6298 32.419C18.6555 32.1138 19.6775 31.766 20.7599 31.7021C21.349 31.1804 21.8565 30.5842 22.3605 29.9809C22.6408 30.2825 22.8041 30.6339 22.8502 31.0314C21.9417 31.6808 20.9551 32.2202 19.9401 32.6709C17.0904 33.4907 14.0916 33.2991 11.1674 33.1678C10.4576 33.1394 9.7904 32.9016 9.14096 32.6461C6.63546 32.6638 4.18321 31.7198 1.67061 32.1102C1.15958 32.4686 1.39735 33.3026 1.227 33.8562C3.05822 33.6185 4.84329 34.1756 6.61417 34.5767C7.1607 34.6476 7.59366 34.9954 8.01243 35.3397C5.81923 35.2651 3.64022 34.4454 1.43993 34.8499C1.3654 35.0771 1.21636 35.5349 1.13828 35.762C3.2676 35.9465 5.35787 36.4327 7.40911 37.0147C9.3184 37.5506 11.3058 37.1957 13.2399 37.4974C12.6472 38.6011 11.4051 38.4662 10.4576 37.9516C9.59167 38.1291 8.66187 38.5443 7.81369 38.1113C5.82633 37.1744 3.61893 36.9615 1.48606 36.5498C1.59963 37.2099 1.72385 37.8771 1.85161 38.5407C3.26051 38.5975 4.70843 38.6366 6.057 39.105C8.2431 39.9887 10.6634 39.7757 12.9347 40.3081C12.6792 40.4926 12.4237 40.6736 12.1681 40.8475C11.139 40.7694 10.1098 40.8156 9.08772 40.6914C7.71076 40.4855 6.49352 39.7119 5.10946 39.5415C4.09449 39.396 3.0724 39.2967 2.06098 39.1831C3.04401 42.2741 5.56016 44.5809 8.36376 46.0537C12.7998 47.4874 18.0592 46.7777 21.6259 43.6547C23.9717 41.4615 24.7879 38.1042 24.7276 34.9883C23.5493 35.911 22.2611 36.8444 20.728 36.9934C19.6243 37.0893 18.5419 37.3412 17.5198 37.7706C16.519 38.0616 15.2202 38.4556 14.4004 37.5719C15.8483 37.0573 17.4098 37.0964 18.8755 36.6776C20.7599 35.8827 22.7296 35.3148 24.6069 34.5021C24.4862 33.1784 24.3798 31.8263 23.819 30.6055C22.4811 27.6032 21.4058 24.4837 19.8692 21.5736C18.1515 23.9052 15.0321 24.4482 12.3172 24.2211Z" fill="black"/>
<path opacity="0.89" d="M8.50262 18.7487C8.39615 17.5456 8.72975 15.8777 10.1919 15.7393C9.96121 16.8926 9.59567 18.1312 8.50262 18.7487Z" fill="black"/>
<path opacity="0.89" d="M12.7988 25.6159C15.2085 25.0942 17.7388 24.8316 19.8575 23.476C19.9533 25.0587 18.1612 25.0445 17.1072 25.5485C15.755 25.9105 13.9416 26.9077 12.7988 25.6159Z" fill="black"/>
<path opacity="0.89" d="M3.96973 24.7003C4.69369 23.4157 6.40781 23.5895 7.57538 24.0757C9.06235 24.7749 10.6877 25.0872 12.1995 25.726C10.5955 26.5315 9.0659 25.3427 7.55409 24.9097C6.40781 24.4235 5.16569 24.601 3.96973 24.7003Z" fill="black"/>
<path opacity="0.89" d="M19.251 26.9079C19.2014 25.6267 20.9545 24.9489 21.6075 26.1413C20.8835 26.5068 20.1099 27.426 19.251 26.9079Z" fill="black"/>
<path opacity="0.89" d="M14.769 27.9653C16.3199 28.1144 17.6684 27.1562 19.198 27.1207C18.2434 28.4445 16.4831 28.1109 15.1026 28.558C13.573 28.9413 11.5467 28.8526 10.6523 27.3408C12.008 27.6389 13.3601 28.0541 14.769 27.9653Z" fill="black"/>
<path opacity="0.89" d="M17.6512 29.7894C19.2269 29.3706 20.7316 28.7531 22.0696 27.8055C21.9454 28.3166 21.7395 28.8489 21.264 29.1293C19.6067 30.0378 17.8464 31.1876 15.8662 30.6446C15.6958 30.7759 15.3551 31.0315 15.1848 31.1592C12.949 31.1024 10.7771 30.5559 8.5626 30.3075C7.64699 30.0804 6.38714 30.1194 6.07129 29.0192C8.15447 28.8276 10.0318 29.8248 12.0156 30.2472C13.893 30.4601 15.9158 30.7369 17.6512 29.7894Z" fill="black"/>
<path opacity="0.89" d="M21.1603 33.9735C21.7565 33.5654 22.3101 32.8911 23.1122 33.0118C23.538 34.0871 22.0262 34.332 21.2916 34.5059C18.7613 35.4002 16.0819 36.0496 13.3847 35.968C11.8871 35.9751 10.2759 36.2874 8.92383 35.4605C10.4853 34.9779 12.1178 35.3718 13.7183 35.2405C14.9037 35.1482 16.0961 35.0417 17.2814 34.8856C18.6051 34.7046 19.8082 34.0161 21.1603 33.9735Z" fill="black"/>
<path opacity="0.89" d="M18.1907 39.46C20.0042 38.7431 21.8106 37.9765 23.475 36.9509C23.0669 37.9765 22.2081 38.8141 21.2924 39.3925C18.6414 39.9781 16.0401 40.8866 13.2969 40.8973C13.304 40.7021 13.3217 40.3152 13.3288 40.1201C14.9258 39.7368 16.5583 39.5877 18.1907 39.46Z" fill="black"/>
<path opacity="0.89" d="M23.0352 40.1023C23.2126 40.2904 23.2126 40.2904 23.0352 40.1023V40.1023Z" fill="black"/>
<path opacity="0.89" d="M20.8769 40.7767C21.4553 40.4679 22.0977 40.6135 22.6407 40.9222C21.3595 42.3595 19.3402 41.8555 17.7361 42.6044C15.2768 43.5129 12.6932 42.7499 10.1735 42.7179C8.36361 42.6328 6.67433 41.813 4.85376 41.8201C4.15109 41.8839 3.63651 41.419 3.17871 40.9683C4.74376 40.8157 6.36914 40.7093 7.88095 41.2381C10.1025 41.9585 12.4341 42.285 14.7586 42.4056C16.856 42.143 18.9605 41.6959 20.8769 40.7767Z" fill="black"/>
<path opacity="0.89" d="M16.012 44.3467C17.5735 43.8996 19.103 43.3388 20.6752 42.9094C19.9228 44.8542 17.4422 44.7619 15.7139 44.9216C15.7884 44.7797 15.9374 44.4922 16.012 44.3467Z" fill="black"/>
<path opacity="0.89" d="M6.34375 44.0807C7.33743 42.8066 8.94152 44.0168 10.1623 44.2617C11.7984 45.0282 13.587 44.1801 15.262 44.4675C15.6027 45.337 14.2506 45.3086 13.7183 45.3512C11.1702 45.5996 8.74633 44.7727 6.34375 44.0807Z" fill="black"/>
</svg>
