<svg width="22" height="34" viewBox="0 0 22 34" fill="none" xmlns="http://www.w3.org/2000/svg">
<path d="M21.3309 23.2974L14.46 10.4141C14.1045 9.74781 13.4144 9.33366 12.6594 9.33366H12.5222V8.7818C12.5222 7.94239 11.8392 7.25964 11 7.25964C10.1606 7.25964 9.47784 7.94239 9.47784 8.7818V9.33366H9.34063C8.58537 9.33366 7.89529 9.74781 7.54002 10.4141L0.669072 23.2974C-0.0265628 24.6015 -0.186006 26.1024 0.220055 27.5235L1.07362 30.5112C1.51253 32.0471 2.93437 33.1197 4.53158 33.1197H17.4682C19.0654 33.1197 20.4875 32.0471 20.9261 30.5112L21.7799 27.5235C22.186 26.1024 22.0266 24.6015 21.3309 23.2974ZM10.4481 8.7818C10.4481 8.47757 10.6958 8.22994 11 8.22994C11.3042 8.22994 11.5519 8.47757 11.5519 8.7818V9.33366H10.4481V8.7818ZM9.34063 10.304H12.6594C13.0556 10.304 13.4174 10.5213 13.6039 10.8707L13.8902 11.4079H10.4815C10.2137 11.4079 9.99634 11.6252 9.99634 11.8931C9.99634 12.1609 10.2137 12.3782 10.4815 12.3782H14.4077L16.9337 17.1145C16.391 17.1362 16.0807 17.2949 15.828 17.4246C15.595 17.5441 15.4267 17.6305 15.0384 17.6305C14.6503 17.6305 14.482 17.5441 14.249 17.4246C13.9774 17.2853 13.6393 17.112 13.0167 17.112C12.3943 17.112 12.0562 17.2853 11.7846 17.4246C11.5519 17.5441 11.3836 17.6305 10.9955 17.6305C10.6071 17.6305 10.4388 17.5441 10.2058 17.4246C9.93419 17.2853 9.5961 17.112 8.97349 17.112C8.35062 17.112 8.01253 17.2853 7.7409 17.4246C7.50818 17.5441 7.33989 17.6305 6.95152 17.6305C6.56315 17.6305 6.39486 17.5441 6.16189 17.4246C5.91072 17.2959 5.60245 17.1383 5.06575 17.115L7.59207 12.3782H8.40748C8.67532 12.3782 8.89263 12.1609 8.89263 11.8931C8.89263 11.6252 8.67532 11.4079 8.40748 11.4079H8.10956L8.39611 10.8707C8.58259 10.5213 8.94443 10.304 9.34063 10.304ZM20.847 27.2569L19.9932 30.2447C19.6728 31.3661 18.6346 32.1494 17.4682 32.1494H4.53158C3.3652 32.1494 2.32692 31.3661 2.00652 30.2447L1.15296 27.2569C0.923018 26.4522 0.912153 25.6165 1.11202 24.8231H17.2226C17.4904 24.8231 17.7077 24.6058 17.7077 24.338C17.7077 24.0701 17.4904 23.8528 17.2226 23.8528H1.47538C1.49206 23.82 1.50773 23.7866 1.52516 23.754L4.52577 18.1278C4.64377 18.0975 4.7734 18.082 4.92955 18.082C5.31793 18.082 5.48621 18.1685 5.71919 18.288C5.99082 18.4272 6.32891 18.6008 6.95152 18.6008C7.57413 18.6008 7.91222 18.4272 8.18385 18.288C8.41683 18.1685 8.58511 18.082 8.97349 18.082C9.36186 18.082 9.53015 18.1685 9.76312 18.288C10.0348 18.4272 10.3728 18.6008 10.9955 18.6008C11.6181 18.6008 11.9562 18.4272 12.2275 18.288C12.4605 18.1685 12.6288 18.082 13.0169 18.082C13.405 18.082 13.5733 18.1685 13.8063 18.288C14.0779 18.4272 14.4158 18.6008 15.0384 18.6008C15.6612 18.6008 15.9993 18.4272 16.271 18.288C16.5039 18.1685 16.6722 18.082 17.0606 18.082C17.2425 18.082 17.3732 18.102 17.4747 18.129L20.4748 23.754C20.4923 23.7866 20.5079 23.82 20.5246 23.8528H19.2968C19.029 23.8528 18.8117 24.0701 18.8117 24.338C18.8117 24.6058 19.029 24.8231 19.2968 24.8231H20.888C21.0876 25.6165 21.077 26.4522 20.847 27.2569Z" fill="black"/>
<path d="M11.0053 4.66663H11.0002C10.7321 4.66663 10.5176 4.88393 10.5176 5.15178C10.5176 5.41962 10.7374 5.63693 11.0053 5.63693C11.2734 5.63693 11.4904 5.41962 11.4904 5.15178C11.4904 4.88393 11.2734 4.66663 11.0053 4.66663Z" fill="black"/>
<path d="M11.0004 2.52584C11.2682 2.52584 11.4855 2.30879 11.4855 2.04069C11.4855 1.77285 11.2682 1.55554 11.0004 1.55554H10.9951C10.7272 1.55554 10.5127 1.77285 10.5127 2.04069C10.5127 2.30879 10.7323 2.52584 11.0004 2.52584Z" fill="black"/>
<path d="M9.96269 4.08138H9.96951C10.2374 4.08138 10.4547 3.86408 10.4547 3.59623C10.4547 3.32814 10.2374 3.11108 9.96951 3.11108H9.96269C9.69459 3.11108 9.47754 3.32814 9.47754 3.59623C9.47754 3.86408 9.69459 4.08138 9.96269 4.08138Z" fill="black"/>
<path d="M9.96269 0.970301H9.96951C10.2374 0.970301 10.4547 0.752994 10.4547 0.485151C10.4547 0.217307 10.2374 0 9.96951 0H9.96269C9.69459 0 9.47754 0.217307 9.47754 0.485151C9.47754 0.752994 9.69459 0.970301 9.96269 0.970301Z" fill="black"/>
<path d="M8.92955 2.52584C9.1974 2.52584 9.41471 2.30879 9.41471 2.04069C9.41471 1.77285 9.1974 1.55554 8.92955 1.55554H8.92526C8.65742 1.55554 8.44238 1.77285 8.44238 2.04069C8.44238 2.30879 8.66146 2.52584 8.92955 2.52584Z" fill="black"/>
<path d="M13.0799 2.52584C13.3478 2.52584 13.5651 2.30879 13.5651 2.04069C13.5651 1.77285 13.3478 1.55554 13.0799 1.55554H13.0759C12.8078 1.55554 12.5928 1.77285 12.5928 2.04069C12.5928 2.30879 12.8118 2.52584 13.0799 2.52584Z" fill="black"/>
<path d="M14.1151 0.970301C14.3829 0.970301 14.6003 0.752994 14.6003 0.485151C14.6003 0.217307 14.3829 0 14.1151 0H14.1111C13.843 0 13.6279 0.217307 13.6279 0.485151C13.6279 0.752994 13.8473 0.970301 14.1151 0.970301Z" fill="black"/>
<path d="M7.89245 0.970301C8.16054 0.970301 8.3776 0.752994 8.3776 0.485151C8.3776 0.217307 8.16054 0 7.89245 0H7.8884C7.62056 0 7.40527 0.217307 7.40527 0.485151C7.40527 0.752994 7.6246 0.970301 7.89245 0.970301Z" fill="black"/>
<path d="M12.0359 4.08138H12.0428C12.3109 4.08138 12.5279 3.86408 12.5279 3.59623C12.5279 3.32814 12.3109 3.11108 12.0428 3.11108H12.0359C11.7681 3.11108 11.5508 3.32814 11.5508 3.59623C11.5508 3.86408 11.7681 4.08138 12.0359 4.08138Z" fill="black"/>
<path d="M12.0359 0.970301H12.0428C12.3109 0.970301 12.5279 0.752994 12.5279 0.485151C12.5279 0.217307 12.3109 0 12.0428 0H12.0359C11.7681 0 11.5508 0.217307 11.5508 0.485151C11.5508 0.752994 11.7681 0.970301 12.0359 0.970301Z" fill="black"/>
<path d="M11.0047 14.4521H11.01C11.2778 14.4521 11.4926 14.2351 11.4926 13.967C11.4926 13.6991 11.2728 13.4818 11.0047 13.4818C10.7368 13.4818 10.5195 13.6991 10.5195 13.967C10.5195 14.2351 10.7368 14.4521 11.0047 14.4521Z" fill="black"/>
<path d="M12.034 16.0081H12.0408C12.3089 16.0081 12.526 15.7908 12.526 15.523C12.526 15.2549 12.3089 15.0378 12.0408 15.0378H12.034C11.7661 15.0378 11.5488 15.2549 11.5488 15.523C11.5488 15.7908 11.7661 16.0081 12.034 16.0081Z" fill="black"/>
<path d="M13.074 14.4521H13.0783C13.3462 14.4521 13.5612 14.2351 13.5612 13.967C13.5612 13.6991 13.3421 13.4818 13.074 13.4818C12.8062 13.4818 12.5889 13.6991 12.5889 13.967C12.5889 14.2351 12.8062 14.4521 13.074 14.4521Z" fill="black"/>
<path d="M8.43945 13.967C8.43945 14.2351 8.65676 14.4521 8.9246 14.4521H8.92865C9.19674 14.4521 9.41178 14.2351 9.41178 13.967C9.41178 13.6991 9.19245 13.4818 8.9246 13.4818C8.65676 13.4818 8.43945 13.6991 8.43945 13.967Z" fill="black"/>
<path d="M7.88945 15.0378C7.6216 15.0378 7.4043 15.2549 7.4043 15.523C7.4043 15.7908 7.6216 16.0081 7.88945 16.0081H7.89349C8.16159 16.0081 8.37662 15.7908 8.37662 15.523C8.37662 15.2549 8.15729 15.0378 7.88945 15.0378Z" fill="black"/>
<path d="M14.1111 16.0081H14.1152C14.383 16.0081 14.5983 15.7908 14.5983 15.523C14.5983 15.2549 14.379 15.0378 14.1111 15.0378C13.843 15.0378 13.626 15.2549 13.626 15.523C13.626 15.7908 13.843 16.0081 14.1111 16.0081Z" fill="black"/>
<path d="M9.96171 16.0081H9.96879C10.2366 16.0081 10.4539 15.7908 10.4539 15.523C10.4539 15.2549 10.2366 15.0378 9.96879 15.0378H9.96171C9.69387 15.0378 9.47656 15.2549 9.47656 15.523C9.47656 15.7908 9.69387 16.0081 9.96171 16.0081Z" fill="black"/>
<path d="M9.18979 26.6767C8.19195 27.6746 8.19195 29.2983 9.18979 30.2962C9.68858 30.7952 10.344 31.0446 10.9995 31.0446C11.6547 31.0446 12.3102 30.7952 12.8092 30.2962C13.8071 29.2983 13.8071 27.6746 12.8092 26.6767C11.8114 25.6789 10.1876 25.6789 9.18979 26.6767ZM12.1229 29.6101C11.5036 30.2294 10.4954 30.2294 9.87582 29.6101C9.25624 28.9905 9.25624 27.9823 9.87582 27.3628C10.1856 27.053 10.5927 26.8981 10.9995 26.8981C11.2492 26.8981 11.4988 26.9572 11.726 27.0737L11.3899 27.41C11.2004 27.5995 11.2004 27.9068 11.3899 28.0963C11.4847 28.1911 11.6087 28.2383 11.7328 28.2383C11.8571 28.2383 11.9812 28.1911 12.0759 28.0963L12.4122 27.76C12.719 28.3576 12.623 29.1101 12.1229 29.6101Z" fill="black"/>
<path d="M6.85131 28.0012H6.33281C6.06471 28.0012 5.84766 28.2185 5.84766 28.4864C5.84766 28.7542 6.06471 28.9715 6.33281 28.9715H6.85131C7.11916 28.9715 7.33646 28.7542 7.33646 28.4864C7.33646 28.2185 7.11916 28.0012 6.85131 28.0012Z" fill="black"/>
<path d="M15.6667 28.0012H15.1482C14.8801 28.0012 14.6631 28.2185 14.6631 28.4864C14.6631 28.7542 14.8801 28.9715 15.1482 28.9715H15.6667C15.9346 28.9715 16.1519 28.7542 16.1519 28.4864C16.1519 28.2185 15.9346 28.0012 15.6667 28.0012Z" fill="black"/>
</svg>
