<svg xmlns="http://www.w3.org/2000/svg" width="90" height="120" viewBox="0 0 90 120" fill="none"><g clip-path="url(#clip0)"><path opacity="0.91" d="M63.1515 0C64.3111 1.35665 63.9769 3.21811 64.1231 4.86397C64.2746 7.07248 63.8514 9.38615 64.6402 11.5105C65.7474 13.6191 67.5022 15.3596 68.3377 17.626C69.2467 20.5654 68.6355 23.7257 69.372 26.6966C69.9465 28.9998 70.406 31.3555 70.38 33.7428C70.0562 35.5832 68.3275 36.6928 66.6822 37.2448C65.3818 39.7109 62.504 40.3682 60.065 41.0782C58.5085 41.4568 57.349 40.1211 56.294 39.2167C56.294 40.3788 56.2836 41.5462 56.2991 42.7136C59.1718 43.0869 62.0392 43.4971 64.9065 43.9073C66.1391 44.0755 67.1366 44.9694 67.9619 45.8527C67.2149 55.849 66.583 65.866 65.8622 75.8674C65.3137 80.2371 65.1624 84.6436 64.9744 89.0397C64.9221 90.9536 64.2902 92.831 64.4573 94.7554C65.178 95.7073 66.1704 96.4224 66.8389 97.4214C66.8702 98.8254 66.6039 100.214 66.4419 101.607C65.951 105.041 66.1495 108.601 65.0474 111.929C64.7132 112.855 64.3266 113.854 63.4753 114.422C58.1794 117.871 51.7763 119.165 45.5351 119.17C38.7088 119.081 31.8512 120.106 25.0511 119.154C21.3272 118.881 17.7862 117.635 14.1615 116.856C10.7928 115.757 7.10029 115.084 4.47322 112.492C4.00315 108.369 3.75246 104.215 2.98469 100.135C2.82802 99.083 2.56687 98.0209 2.72357 96.9639C3.32942 96.3593 4.05538 95.9018 4.67689 95.3233C4.76046 94.2874 4.62989 93.2569 4.49932 92.2366C2.97426 81.9304 3.12049 71.461 1.5902 61.1598C0.686654 56.1118 0.58743 50.9691 0.0651476 45.8792C-0.399683 43.9599 1.726 43.2238 3.16751 42.8398C7.11596 42.072 11.1532 41.867 15.1695 41.7039C22.5441 41.0361 29.9554 41.2991 37.3456 41.4568C38.0717 39.1484 38.4894 36.7295 38.1709 34.3107C37.8 31.8235 39.5392 29.7992 40.2025 27.5327C41.3358 24.5564 41.3358 21.0702 43.4301 18.5252C44.7463 16.7163 47.1279 15.7119 47.7287 13.4088C48.7627 10.1591 48.8255 6.69387 48.7523 3.31276C48.7104 2.37677 48.9247 1.46182 49.1753 0.573159C50.2879 2.0455 49.9743 3.97006 49.8544 5.68428C49.4207 8.81299 49.896 12.2152 48.2925 15.0757C46.9189 17.1738 44.4486 18.3411 43.399 20.6969C42.443 22.9685 42.0723 25.4346 41.1791 27.7325C40.3852 30.0514 38.9646 32.3336 39.4295 34.8943C39.7742 37.5446 38.8968 40.1055 38.3485 42.661C39.5027 42.0931 41.0329 41.7566 41.6335 40.4682C42.4744 38.449 42.6833 36.2248 42.6311 34.0531C42.9132 34.0425 43.4773 34.0163 43.7592 34.0058C45.1014 32.2494 46.7414 30.7771 48.3711 29.2996C49.8909 27.9482 50.2511 25.85 51.1339 24.1043C51.1339 27.0541 49.5983 29.7255 47.5039 31.7025C49.1806 33.1697 49.3947 35.4781 49.9639 37.5078C50.9249 40.931 50.5333 44.5173 50.7578 48.0193C52.1942 47.9405 53.6303 47.8511 55.0615 47.7458C55.2756 44.2805 55.4271 40.81 55.333 37.3396C54.3408 37.4236 53.3484 37.4711 52.3559 37.4762C53.4527 36.9504 54.6332 36.6402 55.8187 36.3563C56.8216 37.8181 57.5788 39.9845 59.553 40.2894C60.984 40.0528 62.7808 39.1957 62.7704 37.4919C62.9949 34.884 63.0263 32.2599 63.3082 29.6571C62.4362 29.4152 61.569 29.1575 60.7176 28.8632C61.0781 28.4371 61.4437 28.0217 61.8302 27.622L61.966 28.8211C63.7523 28.2688 63.2248 26.1602 62.551 24.9404C62.3943 24.0412 61.7833 24.6406 61.381 25.0087C61.3601 25.9237 61.3968 26.8386 61.4907 27.7535C61.2192 27.6485 60.6761 27.4381 60.4097 27.3328C60.3992 26.9437 60.3783 26.1602 60.3679 25.766C59.8247 29.7992 59.2657 33.9215 60.1849 37.9442C59.8352 37.6393 59.13 37.0293 58.78 36.7244C58.4406 36.9451 57.7618 37.3974 57.4222 37.6234C59.4226 34.0269 58.4981 29.7992 59.4538 25.9499C59.8872 23.9781 62.1594 23.6415 63.5955 22.6372C65.3035 21.5224 66.5151 23.8677 67.8313 24.6563C67.8313 22.7108 67.8887 20.7442 67.591 18.8196C67.0583 16.3903 65.4079 14.4657 64.0498 12.4675C63.1097 11.2003 63.2248 9.54389 63.1883 8.05053C63.2561 5.36351 62.8278 2.67649 63.1515 0ZM64.6767 27.8008C65.5645 26.5073 66.0398 24.1358 64.2953 23.3523C62.7181 24.404 64.5042 26.4233 64.6767 27.8008ZM67.006 24.8246C67.0532 26.0498 66.7815 27.5275 67.8992 28.3846C67.9096 27.133 67.7058 25.8815 67.006 24.8246ZM64.5042 28.6474C64.2955 31.9129 63.9559 35.1732 63.9769 38.4544C64.729 37.7709 65.6638 37.082 65.7002 35.9566C66.0189 33.1959 66.1337 30.409 66.186 27.6326C65.6219 27.9691 65.0632 28.3058 64.5042 28.6474ZM67.0164 29.1365C66.9746 31.4187 66.8389 33.7006 66.7866 35.9829C67.7634 35.4519 69.1161 35.0363 69.3197 33.7482C69.4503 32.0549 69.1003 30.3774 68.9436 28.7001C68.3012 28.8473 67.6537 28.9893 67.0164 29.1365ZM43.9786 35.436C43.5661 37.5024 43.5087 39.648 42.7356 41.641C44.992 41.7882 47.2429 41.9615 49.5044 42.1036C49.4156 40.6785 49.212 39.264 48.7941 37.9021C48.1935 36.0039 48.2874 33.7744 46.7467 32.3126C45.7806 33.3118 44.668 34.2108 43.9786 35.436ZM15.7493 42.7609C10.892 42.8346 6.05571 43.2972 1.29773 44.2753C1.43874 44.9956 1.24028 46.0896 2.13861 46.3682C6.19674 47.6564 10.3854 48.5978 14.6525 48.7607C25.8242 50.17 37.142 50.2908 48.3448 49.234C45.6551 49.0131 42.9757 49.6073 40.2808 49.4023C34.5096 49.4285 28.754 49.1131 22.9933 48.8449C18.3555 48.2349 13.634 48.5978 9.03272 47.6353C6.48922 46.9624 3.18315 47.5038 1.68421 44.8327C3.68455 44.5014 6.02438 43.2762 7.81059 44.8117C6.33775 44.9167 4.87535 45.0536 3.43386 45.3585C9.47143 47.1411 15.8381 47.1673 22.0689 47.5881C31.2402 48.1244 40.4479 48.6345 49.6296 47.951C49.5722 46.6993 49.5148 45.4479 49.4312 44.2016C35.5176 43.6286 21.557 43.5549 7.66958 44.7118C7.74791 44.4382 7.91504 43.8811 7.99862 43.6024C13.0073 43.4025 18.0003 42.7609 23.0194 42.6504C27.6991 42.6558 32.3839 42.6294 37.0637 42.577L37.0479 42.3717C29.9449 42.419 22.8262 41.9669 15.7493 42.7609ZM56.3879 44.7223C56.2785 45.8055 56.1792 46.8992 56.0591 47.9878C56.4037 47.9983 57.0826 48.014 57.4273 48.0245L57.4587 48.8079C57.0461 48.866 56.2106 48.9921 55.7927 49.0553C57.302 49.1603 58.8218 49.0499 60.3209 48.8133C59.4173 48.7134 58.4981 48.6502 57.5998 48.5978L57.5005 48.0771C60.4148 47.6513 63.4179 47.7091 66.2592 46.8624C63.3865 44.9167 59.689 45.1692 56.3879 44.7223ZM1.42307 47.2673C1.69466 51.0218 2.00803 54.7763 2.31095 58.5306C3.50175 66.192 3.9248 73.943 4.58287 81.6622C4.52544 87.2677 6.00872 92.7468 6.10793 98.3363C7.30396 99.2199 8.74024 99.5826 10.1713 99.9086C9.48709 93.8405 8.82905 87.7513 8.84471 81.6411C8.81336 76.5458 8.12916 71.4977 7.9046 66.4183C7.6121 61.6646 6.46309 56.9373 6.86525 52.1576C7.57034 49.9016 10.0721 49.5022 12.1246 49.5441C8.46343 49.2864 4.9537 48.1717 1.42307 47.2673ZM57.1089 50.1803C58.7539 50.6275 60.3521 51.2373 61.8512 52.0682C61.1929 54.8657 61.12 57.742 61.1513 60.6024C60.8745 64.378 60.8378 68.1744 60.2582 71.9184C59.4122 81.2887 58.8741 90.6908 58.5973 100.098C60.0023 99.6247 61.4072 99.1357 62.7964 98.5993C62.9898 95.5442 63.4651 92.5259 63.8462 89.4918C64.4417 76.0516 66.0921 62.6743 66.3898 49.213C63.3082 49.6599 60.1849 49.7123 57.1089 50.1803ZM8.67235 51.3742C13.0647 52.9254 17.7653 52.4099 22.3039 53.0199C27.5947 53.5562 32.9271 52.8938 38.2284 53.3829C42.2917 53.4039 46.3551 53.3145 50.4236 53.2408C50.319 52.2786 50.2146 51.3162 50.1208 50.3591C41.2837 51.1584 32.4049 50.9586 23.5469 50.58C18.5853 50.0963 13.6027 50.8376 8.67235 51.3742ZM51.2071 50.2962C51.3324 51.1533 51.4681 52.0207 51.5987 52.8884C52.732 52.8149 53.8706 52.7307 55.0143 52.6624C55.0092 51.8735 55.0041 51.085 54.9988 50.2962C53.7295 50.2594 52.4656 50.2646 51.2071 50.2962ZM56.0591 51.3899C55.6151 52.3785 57.6625 52.8938 57.7615 51.8473C57.5265 51.2268 56.5553 50.9219 56.0591 51.3899ZM7.99339 52.7939C7.82625 56.7272 8.51568 60.613 8.95962 64.5042C9.89971 64.8039 10.8346 65.1458 11.712 65.6189C12.8715 65.519 14.031 65.2562 15.2061 65.3508C16.4491 65.6978 17.5772 66.455 18.9038 66.4971C20.8259 66.6076 22.6956 66.0553 24.5758 65.7451C24.7483 65.0143 24.931 64.2887 25.119 63.5682C25.8242 63.6208 26.5344 63.6997 27.2447 63.8047C27.3126 64.499 27.3753 65.1982 27.4223 65.903C28.8117 65.8714 30.2113 65.8082 31.5535 65.3929C34.3686 67.5382 37.7061 65.6767 40.8031 65.5768C44.2554 65.8398 47.7757 65.398 51.1599 66.35C53.8601 65.5873 56.691 65.5822 59.4747 65.5717C60.0492 61.4229 59.7359 57.2265 60.2426 53.0726C59.8456 53.1252 59.057 53.2251 58.6601 53.2724C58.8218 54.0191 58.9682 54.7658 59.1195 55.523C57.8296 55.6019 56.8372 55.1074 56.3149 53.8981C56.2417 56.6586 56.0955 59.4299 55.5733 62.1485C55.756 62.9581 55.8866 63.768 56.0381 64.5935C55.2128 64.2203 54.4816 63.6997 53.9438 62.974C53.2282 62.6006 52.5128 62.2484 51.7918 61.9014C51.3272 61.9119 50.3871 61.9433 49.9223 61.9538C49.6924 60.9654 50.1572 60.4185 51.3063 60.3081C51.0242 58.3467 50.7264 56.3802 50.5961 54.3977C49.6401 54.5028 48.6895 54.6081 47.7443 54.7026C47.8958 55.2022 48.0525 55.7069 48.2142 56.2171C47.0809 56.2011 46.3707 55.6229 46.0678 54.5554C40.1293 54.6921 34.1964 54.2451 28.2632 54.4976C24.3983 54.6343 20.5961 53.8033 16.7416 53.7877C13.7959 53.7666 10.892 53.267 7.99339 52.7939ZM51.8286 54.2557C51.8441 54.6237 51.8809 55.3599 51.9015 55.728C52.1837 55.8541 52.7478 56.1012 53.0297 56.2276C53.1759 56.7272 53.3328 57.2319 53.4894 57.742C51.1494 58.2784 52.0791 61.5911 54.1841 61.5806C53.9175 60.7866 53.0141 59.8295 53.8706 59.1039C55.3488 57.805 54.8212 55.7069 54.9413 53.9716C53.902 54.0558 52.8626 54.1506 51.8286 54.2557ZM9.10586 65.7766C9.26253 71.9552 10.3698 78.0918 10.0512 84.286C10.3541 89.7759 10.9338 95.2499 11.524 100.718C13.6863 101.612 16.1149 101.197 18.3711 101.723C21.1131 102.322 23.923 102.601 26.7329 102.48C32.2742 102.165 37.8365 103.137 43.3676 102.401C48.0055 101.697 52.7373 101.623 57.2706 100.298C57.4952 89.2185 58.4197 78.1548 59.4173 67.1385C57.0931 67.0335 54.7429 67.0597 52.4919 67.7224C50.643 68.3322 48.9194 66.9179 47.0705 67.044C45.4096 67.1701 43.7332 67.6959 42.0879 67.1385C39.3302 66.2341 36.7555 68.7372 33.9874 67.8328C31.2193 67.0966 28.3415 67.5225 25.5474 67.0702C22.1054 67.4172 18.2771 68.8949 15.133 66.7337C13.7803 66.8757 12.438 67.0597 11.0957 67.2069C10.4324 66.7232 9.76916 66.2447 9.10586 65.7766ZM4.37918 96.8956C3.46519 97.248 3.45476 99.2251 4.47322 99.3198C4.52544 98.6204 5.24094 97.2059 4.37918 96.8956ZM59.6158 101.15C50.8571 102.874 41.9157 104.289 32.9585 103.637C28.8012 103.216 24.5968 104.016 20.4603 103.232C17.4206 102.606 14.3287 102.317 11.2367 102.165C13.0647 102.974 15.039 103.369 17.0236 103.584C22.8262 104.247 28.6548 104.893 34.5045 104.815C39.043 104.615 43.5816 104.157 48.1308 104.257C45.8431 106.208 42.5318 105.341 39.7795 105.614C31.4856 106.292 23.1709 105.451 14.945 104.415C11.3308 103.532 7.70091 102.522 4.40008 100.766C4.47842 103.868 5.03205 106.923 5.39241 109.994C5.58044 111.756 6.88094 113.27 8.50522 113.891C11.9001 115.121 15.3367 116.236 18.883 116.956C25.8242 119.065 33.1412 118.46 40.2808 118.25C43.9054 117.929 47.5667 118.323 51.1757 117.777C55.2442 116.983 59.3808 115.784 62.6921 113.181C64.2379 111.913 64.5514 109.836 64.7445 107.959C64.917 105.588 65.1833 103.227 65.34 100.855C63.1569 101.849 60.9842 102.916 58.6233 103.405C55.5838 104.047 52.5598 105.183 49.4051 104.704C51.5518 103.111 54.4138 103.968 56.7744 102.916C59.7778 101.691 63.4597 101.171 65.4915 98.3733C63.6164 99.4722 61.8147 100.808 59.6158 101.15ZM5.71622 99.8772C7.17862 101.291 9.19464 101.723 11.1166 102.144C9.51324 100.976 7.65389 100.24 5.71622 99.8772Z" fill="black"></path><path opacity="0.91" d="M85.3279 40.8629C86.9836 41.7568 86.6076 43.7498 86.5344 45.3272C86.503 46.0949 85.7353 46.4736 85.2131 46.8838C84.1005 45.0433 85.1348 42.8189 85.3279 40.8629Z" fill="black"></path><path opacity="0.91" d="M88.9268 40.8994C89.7937 42.2559 90.1123 43.8651 89.9661 45.4636C88.8589 46.3259 87.9971 44.9483 88.0336 43.9335C88.1379 42.8765 88.5507 41.8827 88.9268 40.8994Z" fill="black"></path><path opacity="0.91" d="M74.9969 42.8713C77.4933 42.1406 79.3526 44.449 80.2981 46.4576C79.2169 49.5338 77.4045 52.2522 75.4878 54.8552C77.4673 54.7342 79.4363 54.3923 81.421 54.3923C82.0164 55.0602 81.6822 55.9751 81.6927 56.7693C78.82 56.4115 75.9631 56.7272 73.101 56.9794C72.7355 56.2802 72.5316 55.4072 73.075 54.7342C74.8453 51.9789 77.5142 49.702 78.35 46.4104C78.0941 44.6802 75.7959 44.2281 74.506 45.1325C74.0463 45.9424 73.733 46.8309 73.3779 47.6934C71.2366 46.3788 72.8503 43.1184 74.9969 42.8713Z" fill="black"></path><path opacity="0.91" d="M10.5105 56.2432C10.7664 55.0864 12.0147 54.5446 13.0853 54.9233C13.195 55.5438 13.242 56.1801 13.2943 56.8112C12.3594 56.7007 11.1007 57.2476 10.5105 56.2432Z" fill="black"></path><path opacity="0.91" d="M17.9373 56.1803C18.4125 55.7334 18.8826 55.2759 19.3474 54.8184C19.8592 55.1917 20.3763 55.5597 20.8986 55.9332C20.8255 56.3221 20.674 57.1058 20.5957 57.5001C19.6973 57.0847 18.8042 56.6535 17.9373 56.1803Z" fill="black"></path><path opacity="0.91" d="M26.0801 56.8217C26.3725 56.2802 26.5345 55.6386 27.0046 55.2181C27.6417 55.5282 28.2685 55.8595 28.8847 56.2171C28.2162 57.3002 27.1455 57.2424 26.0801 56.8217Z" fill="black"></path><path opacity="0.91" d="M33.1675 55.6065C33.7578 54.9284 34.4367 56.185 35.0373 56.2849C34.489 56.8212 33.9405 57.3576 33.3869 57.8887C33.0266 57.2368 32.2169 56.1693 33.1675 55.6065Z" fill="black"></path><path opacity="0.91" d="M39.6171 55.9962C39.8993 56.1172 40.4685 56.3643 40.7557 56.4852C40.9333 57.0375 41.1162 57.5895 41.3043 58.1417C40.62 58.1101 39.9358 58.0626 39.2673 57.9576C39.3717 57.2951 39.4918 56.6483 39.6171 55.9962Z" fill="black"></path><path opacity="0.91" d="M44.1091 60.2557C44.4069 59.4879 44.4171 58.3418 45.4095 58.1471C45.8848 58.3785 46.3547 58.6205 46.8249 58.8833C46.381 59.5932 45.9476 60.3029 45.5088 61.0129C45.0388 60.7553 44.5686 60.5028 44.1091 60.2557Z" fill="black"></path><path opacity="0.91" d="M58.3254 58.7407C58.8267 58.2517 59.8087 58.9036 59.6416 59.5293C59.861 60.4075 58.7223 60.2603 58.2261 60.5285C57.9651 59.9028 57.9963 59.3086 58.3254 58.7407Z" fill="black"></path><path opacity="0.91" d="M15.5144 60.4188C15.8382 59.8139 16.0263 59.0567 16.7261 58.7728C17.2849 59.2619 17.4991 59.9665 17.6505 60.6659C17.1178 60.6027 16.0471 60.4766 15.5144 60.4188Z" fill="black"></path><path opacity="0.91" d="M22.2043 60.3923C22.3924 59.8349 22.6326 59.2986 22.8938 58.7728C23.6197 59.4828 25.2285 61.0234 23.5727 61.6964C23.0609 61.3232 22.5856 60.8919 22.2043 60.3923Z" fill="black"></path><path opacity="0.91" d="M26.4407 59.33C27.5584 59.6141 28.6707 60.0661 28.4827 61.4912C27.3234 61.2441 26.5399 60.5606 26.4407 59.33Z" fill="black"></path><path opacity="0.91" d="M30.3003 60.024C30.859 59.8609 31.4022 59.6611 31.9402 59.4245C32.1489 59.7348 32.5668 60.3605 32.7707 60.6759C32.3997 61.3122 31.679 61.5279 31.0784 61.859C30.8067 61.2492 30.5508 60.6392 30.3003 60.024Z" fill="black"></path><path opacity="0.91" d="M35.6848 60.9074C36.2542 60.8809 36.8181 60.8442 37.3926 60.802C37.4554 61.4332 37.5337 62.064 37.612 62.6951C37.1837 62.8056 36.7556 62.9106 36.3326 63.0159C36.1027 62.3165 35.8833 61.6119 35.6848 60.9074Z" fill="black"></path><path opacity="0.91" d="M10.7198 64.499C9.86847 63.5209 10.1244 61.7331 11.5555 61.5071C11.9576 61.8331 12.3807 62.1379 12.8246 62.4166C12.1352 63.1266 11.4197 63.8101 10.7198 64.499Z" fill="black"></path><path opacity="0.91" d="M39.9729 65.0721C40.114 64.2255 40.1923 62.7952 41.3728 62.8425C42.1249 62.6743 42.8403 63.647 42.4642 64.32C41.9629 65.2193 40.7722 64.8668 39.9729 65.0721Z" fill="black"></path><path opacity="0.91" d="M20.1471 65.1877C18.5594 65.1088 19.019 63.4315 19.8703 62.6794C20.1314 63.4839 20.6276 64.3465 20.1471 65.1877Z" fill="black"></path><path opacity="0.91" d="M47.8171 63.0162C48.7991 63.1685 49.8696 63.3578 50.3816 64.3359C49.9168 64.6251 49.4989 65.2562 48.8774 65.0248C47.7911 65.0405 48.0888 63.6997 47.8171 63.0162Z" fill="black"></path><path opacity="0.91" d="M27.856 81.7778C28.1391 82.0575 28.1391 82.0575 27.856 81.7778V81.7778Z" fill="black"></path><path opacity="0.91" d="M40.856 82.3034C41.1549 82.6043 41.1549 82.6043 40.856 82.3034V82.3034Z" fill="black"></path><path opacity="0.91" d="M22.1313 87.5623C22.4144 87.8743 22.4144 87.8743 22.1313 87.5623V87.5623Z" fill="black"></path><path opacity="0.91" d="M29.9343 87.552C30.2389 87.8368 30.2389 87.8368 29.9343 87.552V87.552Z" fill="black"></path><path opacity="0.91" d="M17.9949 89.0814C19.5983 88.3033 18.0366 90.8378 17.9949 89.0814V89.0814Z" fill="black"></path><path opacity="0.91" d="M37.2879 89.6549C37.9721 89.9863 37.9775 90.3438 37.2984 90.7224C36.609 90.3859 36.609 90.0284 37.2879 89.6549Z" fill="black"></path><path opacity="0.91" d="M41.1479 90.7114C41.7225 90.1962 42.0723 90.3118 42.182 91.0636C41.597 91.5737 41.2523 91.4528 41.1479 90.7114Z" fill="black"></path><path opacity="0.91" d="M46.679 94.3661C46.9728 94.6727 46.9728 94.6727 46.679 94.3661V94.3661Z" fill="black"></path><path opacity="0.91" d="M36.2701 96.1122C37.1161 95.8438 37.4138 96.133 37.163 96.9901C36.3119 97.2532 36.0142 96.9639 36.2701 96.1122Z" fill="black"></path><path opacity="0.91" d="M61.7781 104.357C63.3658 104.42 62.5249 106.939 61.6893 107.639C61.1982 106.587 61.1722 105.362 61.7781 104.357Z" fill="black"></path><path opacity="0.91" d="M60.9636 109.621C62.0394 109.011 62.3058 111.388 61.2664 111.488C60.4987 111.283 60.4829 110.115 60.9636 109.621Z" fill="black"></path></g><defs><clipPath id="clip0"><rect width="90" height="120" fill="white"></rect></clipPath></defs></svg>