<svg width="66" height="33" viewBox="0 0 66 33" fill="none" xmlns="http://www.w3.org/2000/svg">
<path d="M0.365692 1.33215C1.74107 0.358614 3.4748 0.317187 5.08632 0.134907C9.81937 -0.0722291 14.5649 -0.0432301 19.2938 0.238475C21.0337 0.580249 22.8275 0.743886 24.4887 1.40258C25.0107 1.65321 25.6819 1.94942 25.7647 2.59982C25.7999 4.90525 25.2448 7.15889 25.1205 9.45395C24.7684 11.6993 24.8844 13.9882 24.5488 16.2356C24.3562 17.4743 24.3458 18.7316 24.147 19.9723C24.5612 20.2043 25.1516 20.4529 25.1164 21.0266C25.106 23.5288 24.6835 26.0083 24.6462 28.5084C22.6266 30.3975 19.7909 31.0437 17.1209 31.3586C13.9849 31.6237 10.7908 31.7273 7.69002 31.0997C6.68955 30.7351 5.63937 30.53 4.63476 30.18C3.86007 29.7989 2.94867 29.6207 2.33555 28.9765C2.11806 28.7632 1.90264 28.5498 1.67893 28.3448C1.54637 26.7892 1.30609 25.2481 1.08238 23.7028C0.904244 22.7438 0.616323 21.7661 0.769603 20.7864C0.831744 20.2375 1.37652 20.0013 1.75765 19.6948C1.61886 17.7208 1.52565 15.7488 1.20459 13.7955C0.920814 10.181 0.481683 6.58512 0.0756963 2.98095C0.0363405 2.41547 -0.181147 1.734 0.365692 1.33215ZM4.4732 0.737673C3.14338 0.8081 1.81357 1.09395 0.639107 1.734C0.8421 1.90178 1.05338 2.10477 1.33301 1.93699C3.15374 1.36529 5.05525 1.1913 6.94433 1.01938C10.1901 1.05045 13.4401 0.735599 16.6839 0.967591C16.6652 1.04009 16.63 1.18302 16.6134 1.25551C15.1241 1.48336 13.6017 1.26794 12.1062 1.48129C10.3269 1.72364 8.52685 1.41915 6.7434 1.57036C5.52337 1.83549 4.25363 1.76092 3.05017 2.11513C2.61519 2.27255 2.03521 2.09648 1.70379 2.46519C2.64626 2.42376 3.51623 2.95402 4.46698 2.8691C6.05364 2.75103 7.62581 3.0286 9.20004 3.17566C10.8716 3.17359 12.5308 3.3973 14.2044 3.3973C15.7248 3.33723 17.2473 3.22952 18.7677 3.29994C20.5014 3.23573 22.2372 3.16117 23.9688 3.15288C24.0807 3.09281 24.1925 3.03274 24.3065 2.97474C23.5235 3.04102 23.0595 2.30569 22.3221 2.21869C21.5453 2.0737 20.7976 1.79407 20.0022 1.75471C19.0059 1.52272 17.9557 1.58279 16.9987 1.18923C19.0576 0.959307 21.1435 1.2493 23.1134 1.86035C23.7721 2.28705 24.5488 2.39062 25.2986 2.56461C25.0169 2.33469 24.7456 2.07577 24.4038 1.94321C22.7322 1.29073 20.9322 1.10016 19.184 0.760455C14.2873 0.464251 9.36989 0.408327 4.4732 0.737673ZM0.634966 2.72203C0.873172 4.94875 1.11345 7.17753 1.3413 9.40632C1.62508 10.9143 1.51115 12.4616 1.78457 13.9716C2.16777 16.2584 2.08285 18.599 2.50748 20.8817C2.52198 21.4637 3.1061 21.6978 3.55973 21.907C3.53487 22.0872 3.51208 22.3627 3.75236 22.4C5.31624 22.6112 6.8014 23.1954 8.37356 23.3486C9.65988 23.736 11.0083 23.6863 12.3361 23.7608C14.0014 23.7422 15.6751 23.8126 17.3301 23.5661C18.8381 23.4211 20.375 23.3466 21.8146 22.8308C22.8462 22.4352 23.9709 22.0188 24.582 21.0308C24.4722 20.921 24.3645 20.8133 24.2588 20.7077C24.1594 20.9624 24.1988 21.6336 23.7886 21.5051C23.2708 21.5631 23.5297 20.9169 23.4904 20.6331C23.9129 17.5302 24.2588 14.4107 24.3645 11.2768C24.3852 10.3094 24.6462 9.36696 24.669 8.39963C24.7456 6.70733 25.2199 5.05646 25.1868 3.35794C24.2091 3.77429 23.132 3.65415 22.1005 3.77843C19.4077 3.82607 16.7108 3.81778 14.0201 3.90478C10.8302 3.80121 7.64652 3.54229 4.45248 3.51329C3.12474 3.57958 1.93371 2.88153 0.634966 2.72203ZM1.96064 21.6418C1.88814 21.6936 1.74107 21.7951 1.66857 21.8448L2.10977 21.7205C1.87571 21.2959 1.82807 20.805 1.6955 20.3472C1.22737 20.7801 1.50701 21.3208 1.96064 21.6418ZM1.33923 21.9173C1.64372 23.939 1.95856 25.9544 2.24441 27.9823C2.77675 29.0532 4.00714 29.3121 4.99311 29.7989C5.96872 30.035 6.93811 30.2918 7.89094 30.6108C12.0026 31.2592 16.2758 31.2157 20.3212 30.1758C21.6945 29.7015 23.4324 29.2624 24.0144 27.7627C24.3355 26.4225 24.2174 25.0264 24.4432 23.6718C24.5322 23.1601 24.5095 22.6402 24.5198 22.1265C23.4324 22.9157 22.144 23.3549 20.8473 23.6531C18.8422 23.8768 16.8496 24.2248 14.8321 24.2952C12.9616 24.2517 11.0746 24.3367 9.22076 24.0322C8.37564 23.8251 7.5036 23.7588 6.65434 23.5723C5.64351 23.388 4.66997 23.0504 3.65708 22.8743C2.84925 22.6547 1.97721 22.4973 1.33923 21.9173Z" fill="#202020"/>
<path d="M41.7715 1.11241C46.2477 0.793423 50.7446 0.685713 55.2312 0.892849C56.4036 0.874207 57.576 0.903206 58.7463 0.938419C61.0662 1.32576 63.5166 1.11241 65.7226 2.05695C65.9857 2.18538 66.0126 2.51886 65.9961 2.77986C65.6336 8.75573 64.7139 14.6695 64.0718 20.6184C64.0904 22.4226 63.7383 24.1998 63.6679 25.9998C63.6347 27.1867 63.1977 28.3384 63.2805 29.5294C63.3571 29.8194 63.1397 30.0327 62.9988 30.2502C62.7088 30.9131 61.9714 31.0974 61.3583 31.3294C59.2144 32.1973 56.8821 32.5681 54.5746 32.4107C53.4022 32.3775 52.2402 32.1538 51.0678 32.1828C49.0689 32.0047 47.1405 31.4206 45.2597 30.7494C44.3213 30.2689 43.3333 29.7966 42.6166 28.9991C42.3743 26.8884 42.4903 24.7446 42.076 22.6525C42.0532 21.2667 41.699 19.9224 41.5913 18.545C41.5623 16.8734 41.3324 15.2163 41.1252 13.5613C40.8974 9.57392 40.4976 5.59276 39.7437 1.66754C40.247 1.07098 41.0631 1.11448 41.7715 1.11241ZM40.3216 1.83324C40.5743 2.02381 40.769 2.36352 41.1273 2.37594C44.8164 3.03464 48.5676 3.38263 52.3168 3.24384C54.5249 3.18585 56.7309 3.44684 58.9369 3.29977C61.0724 3.20034 63.3116 3.37848 65.3208 2.51887C64.0034 2.05281 62.626 1.77939 61.2278 1.74418C58.7608 1.35062 56.2586 1.45212 53.773 1.34648C50.2475 1.25327 46.72 1.34855 43.1966 1.50804C42.2355 1.60747 41.2454 1.51011 40.3216 1.83324ZM40.5991 2.73014C40.769 4.35409 41.1605 5.95111 41.1977 7.58955C41.5271 9.57806 41.5374 11.5956 41.6928 13.6006C42.0449 15.701 42.1444 17.8324 42.2852 19.9556C42.4861 20.8628 42.6125 21.7825 42.6725 22.7084C42.7533 22.7084 42.9149 22.7043 42.9957 22.7043C43.4887 22.4371 44.021 22.551 44.5285 22.7167C44.4125 22.1409 44.3773 21.5567 44.4166 20.9726C44.0977 21.0472 43.7807 21.2087 43.4472 21.1715C42.9335 21.0472 42.7181 20.5045 42.3971 20.1503C42.5358 20.0612 42.6767 19.9742 42.8196 19.8893C43.006 20.1337 43.1717 20.4154 43.4162 20.6143C43.7704 20.7344 44.1184 20.4941 44.4643 20.4278C44.2654 18.2094 43.9609 16.0034 43.8449 13.7788C43.6709 11.8524 43.6896 9.91362 43.3623 8.00383C43.6419 7.74905 43.9112 7.48391 44.166 7.20635C47.387 6.53109 50.7074 6.2701 53.9905 6.51245C56.2586 6.50831 58.5537 6.53316 60.7721 7.05929C61.5468 7.28921 62.4603 7.58956 62.8103 8.39324C62.9843 8.71016 62.8124 9.08093 62.8124 9.42064C62.7275 11.2144 62.4499 12.9979 62.3981 14.7937C62.2614 16.6808 62.2117 18.5698 62.0377 20.4548C62.5245 20.3056 62.9636 20.5873 63.3986 20.7634C63.7797 18.661 63.8667 16.5171 64.2603 14.4147C64.5834 10.7422 65.1655 7.0945 65.3353 3.40955C64.9252 3.44062 64.515 3.46133 64.1111 3.5359C61.93 3.9916 59.6888 3.73889 57.4828 3.93774C55.2001 3.88803 52.9154 3.75961 50.6328 3.83418C47.2668 3.72854 43.8884 3.49241 40.5991 2.73014ZM44.1204 8.00383C44.2116 8.17161 44.3938 8.50717 44.4871 8.67495C44.951 8.49267 45.4109 8.28553 45.8977 8.16125C46.5874 8.18197 47.273 8.11775 47.9566 8.01625C49.9658 7.97068 51.9812 7.97276 53.9884 7.84847C55.0137 7.68898 56.0453 7.90026 57.0726 7.76148C58.0441 7.63099 58.9845 7.95825 59.9498 7.99554C60.5401 8.26896 61.1491 8.50717 61.7871 8.6563C61.9279 8.75159 62.0729 8.84687 62.222 8.94009C62.2179 8.17368 61.4163 7.83397 60.7845 7.68691C58.4232 7.1815 55.9935 7.13592 53.5886 7.09657C51.3785 6.88736 49.158 7.12143 46.9561 7.31199C45.995 7.44249 44.9697 7.48806 44.1204 8.00383ZM46.2933 8.60659C45.9598 8.70188 45.6553 8.86551 45.3425 9.00844C46.3264 9.31707 47.3331 9.65678 48.3771 9.6257C49.3465 9.60913 50.3034 9.81627 51.2728 9.80177C53.833 9.97783 56.3912 9.63399 58.9514 9.6112C59.6204 9.6257 60.2584 9.39785 60.8715 9.14929C59.724 8.4761 58.361 8.48645 57.0747 8.3746C53.4809 8.34975 49.8788 9.00222 46.2933 8.60659ZM44.1701 9.14929C44.3296 10.7629 44.2033 12.391 44.4042 14.0025C44.5161 16.1463 44.9283 18.2591 45.0712 20.4009C45.0898 21.2978 45.0525 22.2071 45.2452 23.0916C45.5435 23.2863 45.8894 23.5038 46.2581 23.4893C46.9023 23.2035 47.6003 22.5717 48.3129 23.0833C47.7287 23.2843 47.2275 23.6364 46.6993 23.9388C46.2332 24.2702 45.6967 23.9119 45.2141 23.8228C45.2473 24.2702 45.2617 24.7218 45.328 25.1692C45.8769 25.5731 46.3409 26.1407 46.9913 26.383C47.8447 26.3747 48.4227 25.6 49.2201 25.4281C49.9596 25.453 50.5023 26.1386 51.2604 26.1324C51.6125 26.2256 52.1138 25.9749 52.3499 26.3416C51.3661 27.197 50.1667 26.2939 49.1953 25.9211C48.4434 26.2525 47.8012 26.8843 46.952 26.9568C46.2539 26.9278 45.8231 26.3519 45.3363 25.9377C45.4979 26.6109 45.5683 27.3545 46.0551 27.893C46.4466 28.4792 47.07 28.8334 47.6542 29.2021C48.4434 29.6868 49.4024 29.6765 50.2682 29.9395C51.2687 30.2689 52.3354 30.1425 53.3691 30.2109C55.7097 30.2875 58.158 29.9499 60.1859 28.7071C60.9254 28.2679 60.9357 27.34 61.0538 26.5901C60.7866 26.5446 60.5173 26.5031 60.2522 26.4659C59.7944 26.8076 59.3511 27.2447 58.767 27.3358C58.1663 27.3027 57.6298 27.021 57.0726 26.8325C56.5424 26.6171 56.0059 26.9112 55.4881 27.0148C55.6828 26.7206 55.8754 26.3664 56.2731 26.3374C57.1555 26.093 57.926 26.8159 58.7877 26.8221C59.5313 26.5135 60.1238 25.7657 61.0207 26.0661C61.0662 25.4861 61.1077 24.9061 61.147 24.3282C60.5815 24.2454 60.0471 24.0569 59.5355 23.8166C58.9576 23.5722 58.3714 23.9264 57.808 24.0237C58.011 23.6405 58.2989 23.2408 58.7649 23.1828C59.6163 22.9259 60.335 23.5556 61.1325 23.7254C61.437 22.0083 61.4494 20.2559 61.6317 18.5243C61.8223 16.8817 61.6856 15.2225 61.9279 13.5841C61.9942 12.2625 62.1723 10.9493 62.2676 9.63192C61.2899 9.77484 60.3371 10.0483 59.3636 10.2098C57.286 10.3217 55.2105 10.388 53.1308 10.475C51.3308 10.4957 49.5432 10.2368 47.7453 10.2326C46.4983 10.1042 45.3135 9.6402 44.1701 9.14929ZM62.0543 20.8235C61.8948 21.565 61.8326 22.3231 61.8181 23.0813C62.2883 22.9238 62.7813 22.8617 63.2743 22.988C62.7792 23.305 62.1226 23.4334 61.7726 23.9326C61.6131 24.7549 61.6276 25.6062 61.6151 26.4431C62.0978 26.3747 62.5659 26.2339 63.0444 26.1324C62.8704 26.8304 62.2013 26.8967 61.5965 26.8408C61.4701 27.429 61.4101 28.038 61.6255 28.6139C61.9486 28.7278 62.2738 28.8459 62.597 28.9639C63.1583 26.4886 63.1397 23.9409 63.469 21.4345C62.976 21.2771 62.5265 21.0223 62.0543 20.8235ZM42.8238 23.0564C43.0205 24.8896 42.9687 26.7434 43.3043 28.56C43.8594 28.2307 44.4643 28.0049 45.0878 27.8412C44.8703 27.1038 44.7522 26.3457 44.6403 25.5876C44.2344 25.6104 43.8284 25.6332 43.4245 25.6249C43.7352 25.2583 44.195 25.134 44.6238 24.9703C44.6258 24.4421 44.6155 23.916 44.6362 23.3899C44.0417 23.2159 43.4576 22.8721 42.8238 23.0564ZM43.6792 29.2001C44.5036 29.6744 45.2721 30.2958 46.2249 30.5009C48.1202 31.1389 50.0901 31.6608 52.1097 31.6215C54.4669 31.8825 56.8821 32.015 59.1999 31.4123C60.4034 31.0249 61.8741 30.8447 62.5514 29.6268C61.9756 29.2643 61.2174 28.8811 60.5608 29.2788C59.2869 29.9457 57.9198 30.4512 56.4947 30.6687C54.8377 30.9131 53.1619 30.7722 51.4965 30.7515C49.421 30.4677 47.1405 30.0327 45.6905 28.3777C45.036 28.7174 44.2199 28.618 43.6792 29.2001Z" fill="#202020"/>
<path d="M23.8126 4.5415C24.4568 4.60364 24.2062 5.24576 24.1917 5.67868C24.1006 6.44301 24.0426 7.20941 24.0571 7.97789C24.0612 9.74476 23.5682 11.493 23.7091 13.2599C23.5019 13.4131 23.3611 13.9123 23.0317 13.5498C23.067 11.551 23.5703 9.57698 23.5164 7.56983C23.5102 6.55279 23.649 5.54197 23.8126 4.5415Z" fill="#202020"/>
<path d="M60.2739 11.6772C60.2718 11.3437 60.4914 11.0993 60.742 10.9087C60.9678 12.9303 60.539 14.9913 60.9781 16.9985C60.8228 17.2761 60.6239 17.5205 60.3836 17.7297C60.1454 17.0503 60.2407 16.3253 60.2117 15.621C60.133 14.3078 60.1972 12.9883 60.2739 11.6772Z" fill="#202020"/>
<path d="M22.9212 14.7544C23.0082 14.7813 23.1822 14.8373 23.2692 14.8662C23.3106 15.8812 23.263 16.9107 23.1201 17.9174C23.0248 17.9484 22.8322 18.0106 22.7369 18.0416L22.5049 17.878C22.6602 16.8382 22.652 15.7756 22.9212 14.7544Z" fill="#202020"/>
<path d="M60.1156 20.0034C60.0389 19.3882 60.07 18.6736 60.6065 18.2676C60.6831 18.8911 60.7245 19.5208 60.7163 20.1504C60.5133 20.109 60.3123 20.0614 60.1156 20.0034Z" fill="#202020"/>
<path d="M22.082 20.1919C22.227 19.7901 22.3658 19.3841 22.5688 19.0071C22.7221 19.3882 22.8422 19.7838 22.9624 20.1774C22.8795 20.2582 22.7138 20.4198 22.6309 20.5005C22.4466 20.397 22.2622 20.2934 22.082 20.1919Z" fill="#202020"/>
<path d="M51.123 22.0339C51.5 21.4125 52.2996 21.0334 52.9873 21.3959C53.6812 21.5782 54.0105 22.4709 54.7997 22.3591C55.2658 22.2182 55.6158 21.8599 56.0446 21.6445C56.7965 21.6797 57.6437 21.719 58.2423 22.239C58.5841 22.2576 58.9259 22.2804 59.2697 22.326C59.0667 22.9142 58.4557 22.7299 57.9875 22.6967C57.8985 22.5952 57.7203 22.3943 57.6313 22.2928C57.1694 22.2472 56.7074 22.1416 56.2435 22.183C55.6883 22.5517 55.1477 23.1628 54.4062 22.9888C53.6625 22.966 53.3332 22.212 52.747 21.891C52.2043 21.7273 51.6533 21.9469 51.123 22.0339Z" fill="#202020"/>
<path d="M22.9356 21.4676C23.3022 21.2356 23.7683 21.7121 23.3913 22.0497C22.1505 22.2465 21.003 22.7809 19.7643 22.9756C18.5526 23.22 17.318 23.4023 16.0794 23.3464C15.1203 23.3008 14.0059 23.7689 13.1919 23.0584C14.6377 22.9569 16.0794 22.812 17.5314 22.8554C19.3625 22.5551 21.235 22.2506 22.9356 21.4676Z" fill="#202020"/>
<path d="M3.84229 22.2801C3.87543 22.1289 3.91478 21.9818 3.96242 21.8389C5.49316 22.2034 7.06946 22.4396 8.61884 22.7441C9.92587 22.626 11.208 22.9346 12.5151 22.9491C12.629 23.0403 12.8589 23.2246 12.9728 23.3178C11.728 23.6575 10.4768 23.1293 9.22367 23.1894C7.38431 23.2308 5.65265 22.4727 3.84229 22.2801Z" fill="#202020"/>
<path d="M2.76524 22.7061C3.2168 23.344 3.06352 24.2326 3.54407 24.8748C3.87549 24.9493 4.21312 24.8002 4.54247 24.7463C5.12038 24.0234 6.3487 24.0959 6.91418 24.7981C6.38391 24.8458 5.85364 24.6883 5.32959 24.7629C4.84489 25.3035 4.15719 25.5231 3.44672 25.5376C3.52957 26.043 3.6145 26.5691 3.19401 26.9668C2.71346 26.1611 3.27273 24.9162 2.44625 24.3176L1.86628 24.4854C1.6985 23.9302 2.27226 23.6713 2.7321 23.632C2.74039 23.4 2.75696 22.938 2.76524 22.7061Z" fill="#202020"/>
<path d="M23.3517 23.2898C23.8012 22.8175 23.8447 23.6191 23.8136 23.9112C23.6769 24.9655 23.3393 25.9887 23.2129 27.0451C23.1176 27.1052 22.9291 27.2274 22.8359 27.2875C22.896 26.7821 23.1798 26.2932 23.0182 25.7775C23.3558 24.9862 23.2751 24.1245 23.3517 23.2898Z" fill="#202020"/>
<path d="M19.9416 25.7829C20.4739 25.1201 21.3729 24.4987 22.2387 24.9337C22.1786 25.3148 21.7292 25.2444 21.4682 25.3687C20.8985 25.4266 20.6686 26.0294 20.2046 26.2759C19.4776 26.4395 18.7568 26.1868 18.1146 25.8637C17.7666 25.9569 17.4145 26.0377 17.0645 26.1102C17.3689 25.7953 17.661 25.3189 18.1623 25.3355C18.7588 25.4743 19.3202 25.7519 19.9416 25.7829Z" fill="#202020"/>
<path d="M5.61865 25.7966C6.49069 25.7572 7.02511 26.4366 7.60923 26.9545C8.70291 26.7887 9.84837 25.9726 10.9524 26.5712C11.5738 26.9027 12.2905 26.7908 12.9678 26.8467C12.6074 27.2507 12.0751 27.5054 11.5345 27.3294C10.9607 27.3066 10.6127 26.7162 10.0596 26.6686C9.15446 26.8612 8.36113 27.8058 7.37723 27.4371C6.72683 26.9689 6.16756 26.3786 5.61865 25.7966Z" fill="#202020"/>
<path d="M3.37256 26.8159C3.89454 27.3669 4.47038 27.8744 5.18707 28.1582C5.71527 28.5103 6.35118 28.2493 6.93323 28.3425C7.56292 28.6615 8.12633 29.1379 8.82231 29.3161C9.63842 28.7879 10.7383 28.3467 11.5834 29.0923C11.2541 29.3057 10.9082 29.2705 10.5809 29.0923C10.2039 29.0923 9.85385 29.2249 9.53071 29.4051C11.6228 29.7593 13.7563 29.546 15.867 29.5501C17.1616 29.5708 18.3796 29.0986 19.6182 28.7941C20.6726 28.5269 21.6026 27.9407 22.5471 27.4228C23.0961 27.3338 22.8019 27.9386 22.4871 28.0359C21.7497 28.386 21.1303 28.9577 20.3453 29.2104C18.7483 29.6205 17.1512 30.242 15.4693 30.01C13.9634 30.1446 12.4285 30.3207 10.9247 30.0245C10.1003 29.8505 9.25729 29.8567 8.42254 29.7925C7.86741 29.7635 7.61678 29.1628 7.159 28.9349C6.4216 28.7837 5.65727 28.8748 4.95301 29.1234C4.98408 28.9867 5.04622 28.7174 5.07729 28.5807C4.30674 28.2369 3.49063 27.7356 3.37256 26.8159Z" fill="#202020"/>
<path d="M18.9486 27.7254C19.4872 27.8145 20.0237 27.7213 20.556 27.6301C20.1935 28.5022 19.2635 28.1873 18.5613 28.0693C17.9067 28.3965 17.5132 29.2624 16.7012 29.2126C15.9182 29.2251 15.4004 28.4172 14.6174 28.467C14.4186 28.4607 14.023 28.4483 13.8262 28.4421C14.0768 28.2515 14.2819 27.9139 14.6319 27.9139C15.475 27.7482 16.055 28.6741 16.8711 28.6368C17.5712 28.3613 18.1201 27.5659 18.9486 27.7254Z" fill="#202020"/>
<path d="M50.4111 28.7236C51.018 27.9096 52.0661 28.299 52.7538 28.7671C53.338 29.2912 53.8082 28.4026 54.3944 28.3425C54.8356 28.3549 55.2726 28.4378 55.7076 28.5186C55.8049 29.1855 54.9847 28.8251 54.5953 28.908C53.949 28.8148 53.5347 29.7531 52.8843 29.3595C52.0931 29.0053 51.3246 28.5123 50.4111 28.7236Z" fill="#202020"/>
</svg>
