<svg width="97" height="61" viewBox="0 0 97 61" fill="none" xmlns="http://www.w3.org/2000/svg">
<path d="M66.9253 3.97834C67.8016 2.63632 68.7141 1.3172 69.6247 0C75.7812 3.2052 82.3538 5.61053 89.1498 7.02891C91.6239 7.55388 94.1189 7.97195 96.6292 8.28312C96.6292 8.37857 96.6273 8.56947 96.6273 8.66492C87.8193 9.41133 78.8947 7.70469 70.7968 4.22651C69.9874 5.4769 69.155 6.71392 68.3533 7.97004C64.7529 6.72347 61.0437 5.75561 57.2563 5.29554C52.4857 4.68848 47.6197 4.91183 42.9045 5.84533C41.2189 6.17368 39.4722 6.48866 37.7636 6.13741C36.6163 5.92933 35.5148 5.47308 34.3427 5.40817C33.1725 5.43299 32.1073 6.05341 30.9371 6.06486C29.3583 6.1565 27.9438 5.34708 26.4624 4.94429C21.3654 3.36937 15.9133 3.63854 10.7228 4.57013C7.11096 5.18864 3.58697 6.20231 0.0324323 7.069C0.0228874 6.7082 0.347413 6.61848 0.5994 6.52303C7.06897 4.38496 13.7371 2.36715 20.619 2.43969C23.6371 2.48169 26.6189 3.07157 29.4729 4.03561C31.0879 4.63122 32.5673 3.461 34.1575 3.40182C35.9844 3.27774 37.693 4.23033 39.5199 4.0757C41.1215 3.95352 42.6583 3.45145 44.2313 3.16511C51.7202 1.71236 59.57 1.90326 66.9253 3.97834Z" fill="#3E3E3E"/>
<path d="M17.3418 14.1281C17.2902 12.9656 17.6415 11.8259 18.323 10.8848C19.6917 11.9385 20.8199 13.2557 21.9138 14.5844C21.3716 15.0177 20.8333 15.5179 20.1327 15.6687C18.785 16.0085 17.1852 15.3766 16.6641 14.0346C16.834 14.0594 17.1738 14.1052 17.3418 14.1281ZM18.3917 12.2707C18.0404 12.8797 17.7846 13.5383 17.6415 14.2293C18.3153 14.2408 18.9892 14.1854 19.6535 14.069C19.2756 13.439 18.8499 12.8415 18.3917 12.2707Z" fill="#3E3E3E"/>
<path d="M43.0721 14.1243C43.0186 12.9617 43.3623 11.8182 44.0533 10.8828C45.4201 11.9423 46.5464 13.2595 47.6441 14.5843C47.0981 15.0101 46.5636 15.5083 45.8688 15.6668C44.5191 16.0104 42.9442 15.3823 42.3887 14.0613C42.5586 14.0766 42.9022 14.109 43.0721 14.1243ZM44.1201 12.2706C43.7708 12.8796 43.515 13.5363 43.368 14.2255C44.0399 14.2369 44.7157 14.1949 45.3762 14.0613C44.9925 13.439 44.5687 12.8453 44.1201 12.2706Z" fill="#3E3E3E"/>
<path d="M75.0234 17.9673C75.6019 16.7646 76.2299 15.5696 77.2245 14.6514C78.1351 16.1614 78.7135 17.9119 78.5455 19.693C77.2589 19.3971 75.9779 18.9141 75.0234 17.9673ZM75.5904 17.616C76.0409 17.5931 76.4953 17.5702 76.9496 17.5549C76.9019 17.1598 76.8541 16.7684 76.8026 16.3771C76.3903 16.7799 75.9837 17.1922 75.5904 17.616Z" fill="#3E3E3E"/>
<path d="M54.6215 20.9682C55.009 20.6093 55.5932 20.7773 55.9062 21.1495C56.7233 22.0353 57.3991 23.0623 57.8152 24.1982C56.6298 24.9236 54.8544 25.1088 53.9056 23.9061C54.5012 23.6942 55.1045 23.5033 55.7001 23.2876C55.4882 22.7836 55.2591 22.2873 55.0109 21.8005C54.4211 22.3713 54.0736 23.1158 53.6479 23.8011C53.5754 22.7836 53.8503 21.6764 54.6215 20.9682Z" fill="#3E3E3E"/>
<path d="M23.2551 22.8355C23.6026 22.2724 24.2974 21.9841 24.9408 22.1502C26.4451 22.4709 27.81 23.2383 29.0527 24.1241C27.474 25.5711 26.3095 27.3789 25.1183 29.139C23.7152 28.5167 22.3369 27.8352 21.0254 27.0372C20.8937 27.1155 20.6303 27.2701 20.4985 27.3465C20.5539 27.2167 20.6646 26.959 20.72 26.8291C20.1855 26.5294 19.6529 26.2259 19.126 25.9147C19.7903 26.0216 20.4508 26.1381 21.1151 26.2507C21.8196 25.1072 22.5106 23.9523 23.2551 22.8355ZM24.307 23.0226C23.2799 24.0382 22.4514 25.2294 21.5237 26.3309C22.5011 26.539 23.467 26.7986 24.4234 27.0888C25.1088 26.0064 26.0346 25.1187 26.9471 24.2329C26.1263 23.7137 25.2634 23.2326 24.307 23.0226Z" fill="#3E3E3E"/>
<path d="M81.1531 22.1846C82.6917 22.3392 83.7054 23.8836 83.7741 25.3363C83.8677 26.2698 83.4611 27.1498 82.9323 27.8943C81.4967 27.3236 79.981 26.936 78.6504 26.1285C79.3052 24.7693 80.0764 23.4369 81.1855 22.3946C81.2886 23.3834 81.0748 24.3608 80.8247 25.3115C81.3994 25.6494 81.9721 25.993 82.5543 26.3156C82.8445 25.5329 82.9418 24.6548 82.6097 23.8702C82.3634 23.1314 81.6991 22.6828 81.1531 22.1846Z" fill="#3E3E3E"/>
<path d="M69.7788 28.7012C71.1666 30.0432 71.9035 31.9293 72.0314 33.8363C71.0368 33.7924 69.964 33.7581 69.145 33.1186C68.5838 32.7578 68.2039 32.1984 67.8984 31.6219C68.0454 31.62 68.3413 31.6181 68.4883 31.6181C68.7002 30.5605 69.1584 29.5774 69.7788 28.7012ZM68.7365 31.6849C69.2405 31.7785 69.7425 31.8644 70.2522 31.9407C70.111 31.3547 69.9487 30.7743 69.7502 30.2074C69.3703 30.6693 69.0343 31.1657 68.7365 31.6849Z" fill="#3E3E3E"/>
<path d="M31.3936 32.0614C32.453 31.672 33.5354 31.3475 34.6236 31.0439C34.7343 32.1531 35.0054 33.2584 34.8374 34.377C33.8733 34.4801 32.8157 34.4286 32.0522 33.7566C31.4566 33.4073 31.4241 32.6742 31.3936 32.0614ZM31.9643 32.6475C31.9682 32.8842 31.9739 33.1228 31.9815 33.3615C32.4855 33.1858 33.0849 33.0999 33.398 32.6131C32.9188 32.5998 32.4416 32.617 31.9643 32.6475Z" fill="#3E3E3E"/>
<path d="M89.0879 34.1005C90.8613 33.1746 92.8753 32.6401 94.8855 32.8138C95.5422 32.8673 96.2198 32.9665 96.7944 33.3159C95.1814 33.1708 93.5205 33.1212 91.9781 33.6919C88.3472 34.9843 85.539 37.802 83.1299 40.7094C82.4789 41.5379 81.6122 42.2824 80.5318 42.4294C79.2756 42.5917 78.0214 42.3149 76.7749 42.1965C72.3097 41.6887 67.8503 41.1026 63.3986 40.4727C62.7858 40.4269 62.0699 40.2818 61.5526 40.7056C60.8482 41.2687 60.2659 42.0705 59.3362 42.2709C57.6602 42.6756 56.0394 41.8605 54.5332 41.2325C51.3567 39.8523 48.3767 37.7848 44.8623 37.3763C42.8769 37.1071 40.9431 37.844 39.2403 38.7985C37.3027 39.8465 35.304 41.1217 33.0132 41.0511C31.549 41.0759 30.1325 40.3219 28.6645 40.6598C26.9846 41.0816 25.717 42.374 24.1154 42.9849C22.8211 43.5252 21.3874 43.4679 20.0168 43.3858C13.3868 42.9353 6.75883 42.458 0.128906 42.0304C0.130815 41.9712 0.134635 41.8567 0.136544 41.7994C6.25677 42.0896 12.3808 42.3397 18.501 42.6127C20.0282 42.6547 21.5879 42.8761 23.0883 42.4867C25.0737 41.9273 26.5073 40.2054 28.5366 39.7473C30.3845 39.3311 32.1999 40.36 34.0517 39.963C36.5314 39.4323 38.4843 37.6665 40.8152 36.7654C42.7872 35.9598 45.0188 35.9541 47.0576 36.5096C50.5224 37.4336 53.552 39.4666 56.95 40.57C57.6602 40.7819 58.4829 41.0225 59.1797 40.6426C59.8288 40.2207 60.2487 39.5201 60.9379 39.1478C61.774 38.6687 62.7762 38.7183 63.6983 38.8386C68.7418 39.4743 73.7778 40.1634 78.7984 40.9423C79.5525 41.0416 80.3924 41.1733 81.0816 40.7628C81.7669 40.3123 82.2479 39.6327 82.8111 39.0524C84.6514 37.1167 86.7112 35.347 89.0879 34.1005Z" fill="#3E3E3E"/>
<path d="M16.4305 33.0449C16.6138 33.0716 16.9803 33.1232 17.1636 33.1499C18.1467 34.511 19.0668 35.9466 19.5002 37.5864C18.2841 37.9873 17.0643 38.3748 15.8559 38.8024C14.8575 38.1725 14.1168 37.0385 14.3268 35.8187C14.4356 34.5817 15.5008 33.6615 16.6768 33.4382C16.6138 33.3389 16.4916 33.1423 16.4305 33.0449ZM16.0506 35.2975C15.8425 35.9008 16.0793 36.5288 16.2396 37.1149C16.881 37.0232 17.5186 36.9106 18.1543 36.7865C17.8832 35.834 17.5263 34.9062 17.0567 34.0338C16.6653 34.4022 16.2186 34.7649 16.0506 35.2975Z" fill="#3E3E3E"/>
<path d="M44.2658 42.0137C46.2645 42.9796 47.9196 44.8046 48.2957 47.04C47.0625 47.5097 45.7968 47.9888 44.4682 48.0614C43.9585 48.1167 43.5156 47.8227 43.3037 47.3741C43.5824 47.2481 43.7275 47.0401 43.7409 46.7461C43.9069 45.1673 44.0463 43.5867 44.2658 42.0137ZM43.9833 47.3245C44.7469 46.8797 45.4971 46.4101 46.2779 45.992C45.9896 45.1807 45.5449 44.44 44.9855 43.789C44.6572 44.9688 44.2926 46.139 43.9833 47.3245Z" fill="#3E3E3E"/>
<path d="M57.1228 48.45C57.329 47.3905 57.81 46.4169 58.4057 45.5273C59.8011 46.8617 60.538 48.7497 60.6621 50.6549C59.0223 50.7618 57.1476 50.0803 56.5635 48.4118C56.7028 48.4214 56.9835 48.4405 57.1228 48.45ZM57.3748 48.5111C57.8749 48.6046 58.3789 48.6982 58.8848 48.7784C58.7512 48.1808 58.5832 47.5929 58.3694 47.0202C58.0029 47.4936 57.6783 47.9957 57.3748 48.5111Z" fill="#3E3E3E"/>
<path d="M26.6514 50.4814C27.2088 49.2597 27.8483 48.0608 28.8524 47.1426C29.7458 48.6526 30.3815 50.4031 30.1582 52.1804C28.8792 51.8845 27.625 51.3882 26.6514 50.4814ZM27.2126 50.1015C27.6593 50.0805 28.1079 50.0633 28.5585 50.0462C28.5203 49.651 28.4802 49.2577 28.4382 48.8664C28.0144 49.2635 27.6078 49.6777 27.2126 50.1015Z" fill="#3E3E3E"/>
<path d="M71.7568 51.0676C72.32 49.8554 72.9595 48.6585 73.956 47.7402C74.88 49.2502 75.4431 51.0084 75.3076 52.7933C74.0152 52.4879 72.7285 52.0049 71.7568 51.0676ZM72.3181 50.6858C72.7629 50.6839 73.2077 50.682 73.6525 50.6782C73.6238 50.2715 73.5895 49.8668 73.5513 49.4621C73.1218 49.8516 72.7152 50.2639 72.3181 50.6858Z" fill="#3E3E3E"/>
<path d="M95.7339 54.256C96.0757 54.1835 96.4212 54.1281 96.7724 54.0938C96.0642 54.5767 95.2109 54.7581 94.4015 54.9948C90.2647 56.1154 85.9485 56.1994 81.6933 56.27C76.6689 56.249 71.6425 56.312 66.6199 56.2204C63.2219 56.207 59.7189 55.9054 56.4336 56.9801C53.9881 57.8048 51.7203 59.1831 49.1355 59.5611C45.9532 60.0517 42.7976 59.1507 39.7528 58.326C35.4003 57.1138 30.9123 56.4628 26.4204 56.0371C22.3237 55.6744 18.2194 55.3976 14.1113 55.2181C10.2551 55.0922 6.55738 56.5067 3.24719 58.368C2.14189 58.9388 1.13394 59.6833 0 60.1968C0.484883 59.6012 1.1893 59.2709 1.82118 58.8624C4.66366 57.0832 7.71232 55.4892 11.0454 54.8974C12.6891 54.5844 14.369 54.6359 16.0336 54.6512C23.3775 54.8917 30.7767 55.1456 37.9851 56.6976C41.3869 57.4402 44.7868 58.6772 48.3223 58.3145C51.4606 57.9518 54.0569 55.9302 57.0769 55.1647C60.4386 54.2885 63.9474 54.5042 67.3835 54.5481C72.4748 54.6225 77.5623 54.8402 82.6497 54.9967C87.0156 55.1647 91.4483 55.2411 95.7339 54.256Z" fill="#3E3E3E"/>
</svg>
