<svg width="17" height="43" viewBox="0 0 17 43" fill="none" xmlns="http://www.w3.org/2000/svg">
<path d="M4.54609 1.50464C5.30876 0.94321 6.27651 0.622761 7.2276 0.768885C7.69418 0.854766 8.15562 0.970127 8.62732 1.03678C8.91829 1.46234 9.38743 1.711 9.71172 2.10195C10.1091 2.79412 10.5359 3.51833 10.5692 4.33868C10.9525 4.21691 11.3473 4.12975 11.7511 4.11565L11.8254 4.23486C12.5214 4.28997 13.2161 4.13616 13.9083 4.24767C14.6453 4.26562 15.3772 3.9926 16.1156 4.10924C16.5719 4.20538 16.7693 4.96676 16.2796 5.15262C15.6874 5.34745 15.0555 5.40129 14.4351 5.43333C13.1444 5.42693 11.8408 5.47563 10.5808 5.13724C10.6526 5.72558 10.9422 6.27163 10.923 6.87279C10.9756 7.56752 11.1012 8.25456 11.1717 8.94673C11.9549 8.93007 12.7432 8.87751 13.5238 8.97493C13.7314 9.07107 13.8737 9.25949 14.0365 9.41459C13.7968 9.67992 13.5699 10.0786 13.1559 10.0414C12.5086 10.0427 11.8626 9.9837 11.2153 10.0324C11.114 11.0168 11.2024 12.0051 11.1717 12.9908C12.3407 12.928 13.5097 13.0164 14.6774 12.9331C15.3516 12.9549 16.0271 13.0087 16.6924 13.1279C16.8193 13.451 16.827 13.797 16.7026 14.1213C15.7323 14.3341 14.7479 14.0803 13.7712 14.2098C12.9111 14.0842 12.0433 14.2572 11.1832 14.1265C11.196 15.3813 11.1243 16.6349 11.1191 17.8885C11.9356 17.6873 12.8047 17.5706 13.6263 17.8116C13.9878 17.9231 14.3031 18.4205 13.9762 18.7345C13.7648 19.0691 13.3456 19.0191 13.0085 18.9896C12.3843 18.9101 11.7485 19.096 11.1358 18.9063C11.1358 20.0496 11.2101 21.1981 11.0614 22.3351C12.06 22.3556 13.0598 22.2761 14.0557 22.3722C14.8863 22.262 15.708 22.4722 16.5386 22.4363C16.9064 22.3581 16.8859 22.8029 17 23.0349C16.5027 23.3605 15.9143 23.563 15.3132 23.5028C13.8852 23.4079 12.4496 23.5951 11.0256 23.4438C11.0666 23.8053 11.1537 24.1693 11.1025 24.5346C11.0345 25.0871 11.1678 25.6383 11.1691 26.1907C11.8741 26.1856 12.5804 26.1023 13.2854 26.183C13.3495 26.3689 13.4199 26.5522 13.4892 26.738C13.4558 26.9482 13.3341 27.1264 13.2469 27.3161C12.5368 27.3571 11.819 27.5122 11.1166 27.3277C11.032 27.9673 11.0371 28.6133 11.0051 29.2568C11.5831 29.6118 12.0843 30.0733 12.6175 30.4898C12.9931 30.7859 13.22 31.2128 13.4123 31.6409C13.8096 32.36 13.8776 33.197 14.2083 33.943C14.1442 34.9261 14.4954 35.9041 14.2518 36.8783C13.9903 37.9063 13.9122 39.0035 13.3559 39.9341C12.9521 40.798 12.2292 41.4505 11.4319 41.9491C9.73479 42.8745 7.73776 43.1629 5.83429 42.9156C4.26281 42.6618 2.65288 42.0952 1.57617 40.8685C0.458449 39.4932 0.0726285 37.6576 0.154663 35.9208C0.132873 36.2861 0.0982651 36.6514 0.0482752 37.0142C-0.00427838 36.3323 -0.0350417 35.6414 0.0700654 34.9633C0.113646 34.4108 0.093138 33.843 0.327706 33.3265C0.56612 32.4087 0.853241 31.4614 1.46978 30.7206C2.08248 30.1591 2.72338 29.6169 3.43734 29.1863C3.40017 28.5415 3.48476 27.9006 3.53347 27.2584C3.54629 25.9766 3.61038 24.6923 3.50527 23.4131C3.43862 22.4927 3.53347 21.5686 3.44503 20.6482C3.19764 18.7935 3.76804 16.9349 3.51809 15.0776C3.40658 13.0715 3.62961 11.0617 3.52066 9.05568C3.46169 8.11356 3.68216 7.16504 3.48733 6.22933C3.52065 5.21158 3.55526 4.18999 3.65781 3.17609C3.73984 2.54032 4.0244 1.89815 4.54609 1.50464ZM6.06245 2.05965C5.9676 2.14553 5.87275 2.23269 5.77789 2.31857C5.67407 2.32114 5.4677 2.32755 5.36516 2.33011C4.89858 2.77105 4.6794 3.394 4.63966 4.02464C4.58326 4.94112 4.22436 5.82941 4.33588 6.75486C4.40253 7.52009 4.40125 8.28789 4.48072 9.05184C4.57301 10.9335 4.46149 12.8203 4.54481 14.702C4.89986 16.7311 4.27948 18.7781 4.5948 20.8072C4.67427 21.5852 4.57685 22.3697 4.65761 23.1477C4.86141 25.1999 4.51917 27.2572 4.64735 29.3106C4.65504 29.5605 4.56147 29.7964 4.48841 30.031C3.7219 30.4206 3.06049 30.9821 2.43882 31.5678C1.79664 32.3305 1.61078 33.3406 1.34032 34.2724C1.12883 35.7388 1.3557 37.227 1.76716 38.6395C2.01967 39.2983 2.36448 39.961 2.94257 40.3917C4.1654 41.3184 5.72278 41.7107 7.24298 41.662C8.69141 41.6927 10.1552 41.2864 11.3319 40.4314C11.9459 40.002 12.2881 39.3009 12.5599 38.6254C12.9162 37.3859 13.1226 36.0951 13.0649 34.8044C12.8457 33.7136 12.6214 32.5612 11.942 31.6524C11.3345 31.0333 10.6615 30.4642 9.89117 30.0579C9.85144 29.7643 9.79119 29.4734 9.77837 29.1773C9.99243 27.5635 10.0629 25.9331 10.0258 24.3065C9.98474 23.7797 10.2129 23.2554 10.0591 22.7363C9.98218 21.1674 10.0591 19.5959 9.96552 18.0282C9.94757 16.1004 10.0886 14.1777 10.1398 12.2525C10.0719 11.6116 9.98987 10.9745 10.095 10.3324C10.0014 9.39408 10.0719 8.44299 9.89245 7.51369C9.77453 6.77153 9.84118 6.00117 9.59636 5.28208C9.47459 4.89498 9.44126 4.48737 9.33359 4.0977C9.19644 3.66702 8.96059 3.27864 8.7414 2.88641C8.28508 2.68773 7.88773 2.38523 7.51601 2.05709C7.03149 2.05068 6.54697 2.04683 6.06245 2.05965Z" fill="black"/>
<path d="M7.44308 21.7174C7.92888 21.5251 8.43647 22.0212 8.43775 22.5005C8.43903 23.235 8.65181 23.9605 8.48902 24.6898C8.72231 26.4164 8.52876 28.1699 8.63771 29.9055C8.74153 30.4848 8.73769 31.0757 8.73513 31.6628C9.45421 31.9627 10.1156 32.3922 10.6553 32.9561C11.1564 33.3894 11.5692 34.0111 11.5128 34.7007C11.441 36.0465 11.3756 37.454 10.6783 38.6499C9.99 39.6022 8.88894 40.1444 7.79557 40.4905C7.01239 40.5828 6.14718 40.6572 5.44348 40.2239C4.75131 39.8291 3.97711 39.46 3.53489 38.7691C3.2029 38.2448 3.06703 37.6321 2.86323 37.0553C2.62994 36.3721 2.71198 35.6466 2.72351 34.9404C2.7312 34.3571 3.02217 33.8316 3.30032 33.3368C3.49259 32.9766 3.80791 32.7036 4.15143 32.4947C4.79489 32.1037 5.47168 31.7718 6.17538 31.5064C6.2446 30.7771 6.29587 30.0439 6.2164 29.3133C6.12539 28.3737 6.28177 27.4355 6.26126 26.4959C6.1459 25.1398 6.17282 23.749 6.49455 22.4224C6.55479 21.9494 7.07007 21.8507 7.44308 21.7174ZM7.10981 25.4641C7.31746 25.0244 7.5751 24.6104 7.8571 24.2143C7.84428 23.949 7.82761 23.6836 7.81095 23.4196C7.53793 24.0874 7.27516 24.7603 7.10981 25.4641ZM7.73148 25.7627C7.64304 26.2639 7.60715 26.7907 7.35079 27.2432C7.15724 27.5944 7.08674 27.9917 7.04828 28.3865C7.31618 27.8943 7.49948 27.338 7.91734 26.9445C7.91862 26.5459 7.91862 26.1485 7.92247 25.7499C7.87504 25.7537 7.77891 25.7601 7.73148 25.7627ZM7.77891 28.7916C7.50076 29.3479 7.20979 29.9093 7.06751 30.5194C7.28542 30.1541 7.41103 29.7452 7.54818 29.3453C7.63663 29.3505 7.8148 29.3607 7.90324 29.3658C7.8712 29.0236 7.95067 28.6865 7.96348 28.3468C7.85581 28.4737 7.81736 28.6339 7.77891 28.7916ZM7.4136 31.4577C7.55716 31.4539 7.69943 31.4513 7.843 31.4487C7.84171 31.1078 7.84043 30.7668 7.83018 30.4259C7.70072 30.7732 7.56357 31.118 7.4136 31.4577ZM5.83186 32.6011C5.72676 33.3407 5.36144 34.0034 5.16405 34.7173C4.97691 35.3723 4.76156 36.0171 4.5616 36.6682C4.44881 37.031 4.23859 37.3642 4.18348 37.7449C4.3014 37.9962 4.42445 38.2448 4.54494 38.4961C4.71029 37.9641 4.88974 37.4386 5.09355 36.9207C5.39477 36.1786 5.47296 35.3698 5.7729 34.6263C6.04592 33.9688 6.17666 33.265 6.43302 32.6011C6.23306 32.5998 6.0331 32.5998 5.83186 32.6011ZM7.04059 32.6357C6.87781 33.2945 6.54326 33.8893 6.30741 34.5199C5.91646 35.53 5.74855 36.6131 5.28454 37.5962C5.08201 38.0115 5.0692 38.4794 5.10637 38.9319C5.22686 38.9498 5.34734 38.9703 5.46783 38.9908C5.76008 38.0397 6.07797 37.0976 6.39585 36.1555C6.65221 34.9698 7.22645 33.8931 7.62637 32.7562C7.43026 32.7164 7.23543 32.6767 7.04059 32.6357ZM8.2442 32.9305C7.5892 35.1147 6.74578 37.2399 6.16769 39.4484C6.28305 39.4664 6.51378 39.5048 6.62914 39.5228C7.20466 37.3065 7.82762 35.1019 8.58387 32.9382C8.49799 32.9369 8.3288 32.9318 8.2442 32.9305ZM4.15528 33.9418C3.6464 34.7699 3.75151 35.7876 3.77715 36.7156C4.31166 35.5031 4.4988 34.1559 5.18199 33.0074C4.80386 33.2727 4.35011 33.4932 4.15528 33.9418ZM9.19016 33.3138C8.55055 35.3351 7.9058 37.3565 7.42129 39.4228C7.52511 39.4202 7.73276 39.4151 7.83659 39.4138C7.9622 38.5819 8.19549 37.7757 8.49671 36.9925C8.76332 35.8389 9.26707 34.7635 9.64264 33.6457C9.49267 33.5342 9.34141 33.4227 9.19016 33.3138ZM9.28245 37.0028C9.02994 37.6642 8.84536 38.3474 8.71846 39.0434C9.32347 38.6806 9.81311 38.1525 10.1195 37.5155C9.90412 37.8423 9.64264 38.1307 9.36449 38.405C9.30552 37.336 9.80799 36.3183 10.3899 35.4531C10.3758 35.0583 10.3476 34.6622 10.2797 34.2725C9.80542 35.1237 9.54266 36.0696 9.28245 37.0028Z" fill="black"/>
</svg>
