<svg width="125" height="46" viewBox="0 0 125 46" fill="none" xmlns="http://www.w3.org/2000/svg">
<path d="M0 3.95724C5.80363 0.560727 12.8818 -0.713229 19.5604 0.383847C24.7105 1.22403 29.3981 3.56979 34.1096 5.63338C37.9635 7.32427 42.0193 8.96041 46.3227 8.94988C48.9998 9.02358 51.716 8.45083 54.0565 7.16424C55.4352 6.47778 56.5816 5.4544 57.7193 4.44998C56.2863 7.29269 53.6331 9.48474 50.5869 10.5671C46.7352 11.9969 42.421 11.8895 38.4803 10.8661C31.1199 8.9941 24.7344 4.49209 17.209 3.13391C11.5052 2.0242 5.60822 2.65591 0 3.95724Z" fill="#3E3E3E"/>
<path d="M74.5326 1.58286C78.4798 0.911133 82.5292 1.64392 86.2919 2.83786C90.0003 4.02969 93.4937 5.73743 96.9698 7.44727C100.939 9.36557 105.131 11.0017 109.561 11.545C113.638 12.0651 117.902 11.0607 121.266 8.75912C122.692 7.80313 123.915 6.59656 125 5.29102C123.732 8.50434 121.122 11.1575 117.965 12.6947C114.924 14.2382 111.4 14.7246 108.004 14.4319C103.559 14.0824 99.3169 12.5473 95.3414 10.6585C91.1098 8.6012 86.9497 6.34387 82.4293 4.92041C79.2137 3.87598 75.7506 3.34113 72.3788 3.89914C69.719 4.30554 67.2395 5.3584 64.7383 6.27228C67.5717 4.02337 70.8741 2.15771 74.5326 1.58286Z" fill="#3E3E3E"/>
<path d="M65.3405 11.805C72.03 9.37711 80.0461 10.2805 85.7064 14.6098C81.8634 13.2579 77.7294 12.582 73.6454 13.0032C70.6535 13.298 67.7419 14.2097 65.0778 15.549C61.2869 17.4925 57.7977 20.0531 53.6725 21.3228C45.2829 24.1319 35.2411 21.7735 29.3115 15.3152C32.6595 17.1872 36.3137 18.5917 40.1415 19.1771C44.4166 19.853 48.8784 19.4172 52.9082 17.8674C57.2484 16.2354 60.946 13.3274 65.3405 11.805Z" fill="#3E3E3E"/>
<path d="M62.4141 25.7543C65.8771 23.339 69.9134 21.6039 74.1668 21.0964C77.4236 20.6942 80.7325 21.1533 83.8699 22.0229C88.7095 23.3559 93.1974 25.609 97.872 27.3715C100.779 28.4601 103.797 29.3761 106.924 29.5951C111.192 29.913 115.58 28.5148 118.772 25.7353C119.725 24.9478 120.52 24.0086 121.323 23.0863C120.023 26.6092 117.128 29.4961 113.626 31.0291C109.714 32.8295 105.174 32.8653 101.018 31.924C93.2495 30.25 86.5318 25.6932 78.7784 23.9791C74.8659 23.0884 70.7645 23.4696 66.9128 24.4571C65.3908 24.8172 63.9144 25.3289 62.4141 25.7543Z" fill="#3E3E3E"/>
<path d="M0.178711 27.8466C2.86666 25.2292 6.74009 23.9995 10.4941 23.9468C14.7041 23.8268 18.8467 24.8776 22.7484 26.3305C27.6184 28.0951 32.2974 30.4198 37.3888 31.5527C40.3134 32.2118 43.3792 32.3192 46.3277 31.7443C49.9232 31.0747 53.2842 29.5459 56.3543 27.6466C53.7293 30.8304 50.0448 33.1635 46.0172 34.3048C42.4651 35.3261 38.6546 35.265 35.0591 34.4859C27.5576 32.8877 21.044 28.592 13.612 26.7938C9.98605 25.9136 6.07353 25.7135 2.50407 26.9327C1.70724 27.1833 0.949489 27.5329 0.178711 27.8466Z" fill="#3E3E3E"/>
<path d="M67.2239 36.6085C72.4109 34.9598 78.0995 34.8208 83.3582 36.2506C87.2207 37.314 90.8119 39.367 94.8916 39.5944C91.3504 40.4346 87.7635 39.3923 84.2853 38.7564C79.0353 37.7604 73.5161 38.1541 68.4767 39.8914C65.0006 41.0621 61.8198 42.9067 58.385 44.1807C54.8416 45.5199 50.979 46.1537 47.1815 45.7895C41.658 45.343 36.2756 42.9973 32.3652 39.1691C35.6546 40.8368 39.1459 42.2055 42.8391 42.7341C47.327 43.45 52.006 42.9194 56.2268 41.2832C59.9439 39.8387 63.3918 37.7793 67.2239 36.6085Z" fill="#3E3E3E"/>
</svg>
