<svg width="78" height="115" viewBox="0 0 78 115" fill="none" xmlns="http://www.w3.org/2000/svg">
<path opacity="0.96" d="M9.93705 111.459C8.23648 112.414 6.58828 113.535 4.76449 114.204C3.48907 114.002 2.23215 113.622 1.05531 113.057C1.06455 111.039 1.0245 109.022 0.962887 107.004C1.16005 101.163 1.00908 95.3215 1.02449 89.48C1.04605 84.7107 1.32332 79.9446 1.006 75.1785C1.00292 66.517 0.463799 57.862 0.719498 49.2005C0.442234 45.5196 0.796524 41.8354 0.842735 38.1511C0.870461 29.285 0.839649 20.4188 0.759552 11.5527C0.781116 8.27132 0.861217 4.97697 0.531578 1.70861C1.43423 1.38698 2.32148 0.990616 3.26418 0.834671C4.27158 1.33824 5.12802 2.12447 6.15082 2.60206C7.74047 3.3298 8.92964 4.72358 10.47 5.53255C12.3215 6.42598 13.828 7.92044 15.6425 8.88535C19.3887 11.387 23.2211 13.7684 26.7547 16.6112C30.2051 19.155 33.4646 22.0108 37.1799 24.129C39.0992 25.3539 40.9137 26.7574 42.8793 27.9042C43.8004 28.424 44.6784 29.0186 45.541 29.6359C46.1017 33.7554 45.7012 37.927 46.0709 42.0595C45.9168 49.9283 46.4837 57.7873 46.3512 65.656C46.2187 65.7893 45.9476 66.0492 45.8152 66.1824C45.7104 65.9387 45.5009 65.4579 45.3962 65.2174L45.7382 65.159C45.5348 65.12 45.1251 65.0355 44.9218 64.9965C45.4517 70.0908 44.894 75.2369 45.2237 80.3344C45.4763 77.6574 45.2483 74.9608 45.4517 72.2805C45.6118 70.2857 45.3777 68.2876 45.4701 66.2928C45.7382 66.6567 46.3389 66.8321 46.3697 67.3552C46.5453 68.8724 46.2742 70.3994 46.3913 71.9199C46.5823 75.0323 46.283 79.1874 46.3416 82.2965C45.9272 82.8619 45.2421 79.6806 46.3388 81.8346C45.5372 81.6291 46.1221 82.0401 46.342 82.2318C46.3398 82.1935 45.7322 81.0127 46.342 82.2318C46.3143 85.8673 46.4375 89.4995 46.4775 93.135C46.2465 93.135 45.7782 93.135 45.5441 93.135C45.3161 89.0576 45.4794 84.9738 45.273 80.8965C45.0758 81.4618 44.8756 82.0271 44.6722 82.5891C44.5644 81.3903 44.5521 80.0778 43.6648 79.1811C43.6587 79.9283 43.6833 80.6756 43.7172 81.4196C44.0838 82.6834 43.8836 84.0121 43.4338 85.2175C43.215 84.6164 43.1134 83.9797 43.1103 83.3331C43.0949 81.7119 42.7807 80.1168 42.793 78.4923C42.6944 78.3396 42.5003 78.0277 42.4048 77.875C42.5897 77.3097 42.7437 76.7249 42.6882 76.1206C42.5958 74.3273 42.5311 72.5274 42.3032 70.7438C42.6821 70.7665 43.061 70.7795 43.4369 70.786C43.443 73.018 43.517 75.2435 43.6248 77.4722C43.6494 78.0505 44.1085 78.4696 44.3426 78.9504C44.3303 73.2681 44.3765 67.5664 43.8435 61.9004C41.9273 62.222 39.9618 62.1375 38.0887 62.7353C34.3795 63.3786 30.618 63.6612 26.8934 64.2265C27.1182 67.6703 27.5218 71.0979 27.5496 74.5579C27.4695 78.3786 28.3567 82.17 27.91 85.9907C28.3351 88.2097 27.8022 90.5001 28.2088 92.7321C28.292 95.2857 28.6617 97.8913 28.1226 100.416C28.902 99.9446 29.7215 99.558 30.544 99.1876C30.2359 98.9147 29.9309 98.6385 29.6229 98.3559C30.2113 98.3819 30.7751 98.5443 31.3111 98.788C33.7172 97.6606 36.1078 96.478 38.597 95.5619C38.0363 95.3215 37.4479 95.2045 36.8595 95.0453C37.5527 94.6002 38.2859 94.2363 39.0314 93.9082C38.9945 94.3663 38.9544 94.8244 38.9082 95.2792C39.3364 94.9543 40.631 94.4847 41.0623 94.1631C41.2477 94.1631 41.8326 94.1631 41.0623 94.1631L41.422 94.1447L41.0527 94.1631C41.0527 94.1631 43.0549 93.018 44.1916 92.3227C43.1719 92.4072 42.2076 92.7808 41.2896 93.2422C40.8336 93.5671 40.3438 93.1674 39.8817 93.0797C40.9107 92.3845 42.069 91.9459 43.252 91.6405C43.175 89.7139 42.6728 87.6509 43.5354 85.8348C44.2748 87.7971 43.4677 89.9543 44.2594 91.9101C44.4042 90.7698 44.2964 89.6034 44.5891 88.4826C45.3223 89.7204 45.3377 91.3676 44.8232 92.6931C43.8928 93.7327 42.4325 93.9862 41.3389 94.8049C39.894 95.4936 38.48 96.2571 37.0444 96.9686C34.0561 98.1122 31.2711 99.7626 28.3197 101.01C26.6592 101.679 25.1558 102.716 23.4676 103.33C19.0714 105.435 14.555 107.255 10.1065 109.233C8.34739 110.023 6.78853 111.358 4.90005 111.757C5.1157 111.238 5.36216 110.734 5.67023 110.266C5.33751 106.819 5.57166 103.353 5.48848 99.8926C5.83044 94.7984 5.14651 89.7107 5.34984 84.6132C5.5162 80.6756 5.13728 76.7379 4.60431 72.8458C4.3979 71.0329 4.173 69.2071 4.27158 67.378C4.63511 61.9686 4.20381 56.5527 4.36709 51.1434C4.91238 36.7444 4.25926 22.3454 4.02205 7.94969C3.97892 6.65015 4.13911 5.35709 4.20997 4.06078C4.05593 4.07378 3.74786 4.10302 3.59382 4.11602C4.08058 8.09913 3.63696 12.1115 3.73862 16.1076C3.67085 19.9932 3.9173 23.8691 3.82796 27.7548C4.08982 31.3383 3.46444 34.8958 3.46752 38.4728C3.68625 44.2168 3.31963 49.9673 3.64927 55.708C3.98507 69.0186 4.44719 82.3325 4.75218 95.6431C4.99247 101.472 4.51497 107.313 4.85076 113.141C5.72877 112.693 6.64683 112.342 7.52791 111.904C11.2802 109.503 15.4854 108.067 19.4965 106.244C22.5033 104.928 25.2636 103.018 28.3906 102.014C31.4128 100.38 34.4966 98.8854 37.5681 97.3617C40.1343 96.0589 42.4603 94.2071 45.1775 93.2552C45.3685 93.3072 45.7474 93.4079 45.9353 93.4566C40.4054 96.9361 34.7153 100.217 28.634 102.505C25.1805 104.357 21.7177 106.215 18.1564 107.836C15.3437 108.853 12.6388 110.156 9.93705 111.459ZM4.16375 113.145C3.56609 107.216 4.19456 101.251 3.84336 95.3117C3.70473 87.1993 3.38742 79.0869 3.1995 70.9712C2.96844 61.2246 2.45396 51.4812 2.62032 41.7281C2.40159 38.1512 2.78667 34.5872 2.94071 31.0166C2.84212 27.8717 3.02696 24.7268 2.85444 21.5852C2.55253 14.9477 3.2457 8.29408 2.80824 1.66963C2.40775 1.80609 2.00417 1.94253 1.59443 2.07248C1.56363 3.48574 1.56055 4.89899 1.67453 6.30901C1.79776 14.6521 1.79775 22.9952 1.7577 31.3383C1.77618 35.1264 1.82548 38.9146 1.60675 42.6963C1.40034 45.6268 1.7423 48.5605 1.60675 51.491C1.44039 57.1278 1.83781 62.7548 1.85014 68.3883C2.01342 71.3058 1.85938 74.2298 2.05654 77.144C2.25679 81.0492 1.95795 84.9543 1.99184 88.8562C1.97952 92.5404 1.97337 96.2214 2.07811 99.9023C2.07503 104.006 1.87477 108.106 1.98875 112.212C2.70656 112.544 3.43053 112.856 4.16375 113.145ZM12.3677 107.479C16.921 105.539 21.4435 103.518 25.9229 101.4C25.8059 101.283 25.5686 101.046 25.4516 100.929C23.523 101.608 21.7301 102.622 19.857 103.444C18.4953 104.097 17.2322 104.99 15.7658 105.377C15.812 105.101 15.9013 104.551 15.9475 104.279C16.9488 103.928 17.9623 103.58 18.8742 103.012C20.6918 101.926 22.6635 101.169 24.5027 100.14C24.6906 99.2558 24.3148 98.2292 24.8816 97.4624C25.5625 98.3331 25.3653 99.5742 25.9722 100.49C25.8644 92.157 25.1774 83.8432 25.0973 75.5099C25.0572 72.1018 24.7522 68.7002 24.7307 65.2889C25.1527 65.3149 25.5748 65.3377 25.9907 65.3604C25.9322 65.068 25.8705 64.7724 25.8059 64.4767C22.1614 64.951 18.5508 65.6625 14.9217 66.2441C11.8317 66.9426 8.65238 67.0823 5.58398 67.9075C5.65791 68.9342 5.72877 69.9608 5.71645 70.9874C5.6764 73.4923 6.32027 75.955 6.16315 78.4631C6.4435 82.7776 6.043 87.0986 6.32642 91.4131C6.55132 95.1525 6.36956 98.8984 6.1231 102.631C5.93826 105.185 6.22169 107.742 6.52668 110.273C8.49218 109.383 10.3529 108.249 12.3677 107.479ZM27.9038 100.451L27.9901 100.841C27.7097 99.0284 27.4417 97.196 27.528 95.3507C27.6235 94.0934 27.4078 92.8491 27.2045 91.6145C27.2322 90.276 27.0628 88.9407 27.1152 87.6054C27.6943 85.3962 27.109 83.1122 27.0936 80.8672C26.499 76.0102 26.955 71.0492 25.9969 66.2376C25.4731 68.7717 26.0708 71.3416 25.9969 73.8984C25.9383 77.9075 26.2587 81.9069 26.3665 85.9095C26.3296 87.5372 26.3604 89.1648 26.4559 90.7893C26.7609 93.8172 26.6377 96.8712 26.8718 99.9056C26.6654 100.276 26.4621 100.643 26.2556 101.013C26.8102 100.835 27.3585 100.646 27.9038 100.451ZM8.52915 66.4748C16.0246 65.3247 23.4676 63.8139 30.9846 62.8165C33.3228 62.3747 35.7289 62.3974 38.0302 61.7249C39.9218 61.1271 41.9304 61.413 43.8651 61.0914C43.8743 60.825 43.8928 60.2922 43.9021 60.0225C42.6297 60.1817 41.342 60.2272 40.0789 60.4709C33.6001 61.8711 26.9796 62.3455 20.5101 63.7879C16.5267 64.311 12.5557 64.9381 8.55687 65.3052C7.80825 65.185 7.34307 64.4312 7.00419 63.775C8.24572 63.619 9.4811 63.4176 10.7257 63.3136C10.5563 63.7035 10.3837 64.0933 10.2112 64.4832C13.4306 63.8627 16.6777 63.4208 19.9217 62.992C21.4004 62.6606 22.8823 62.3585 24.3795 62.1473C24.4226 59.7919 24.703 57.4429 24.6013 55.0875C24.4935 50.3084 24.4411 45.5326 24.4596 40.7535C24.4318 39.1388 24.3856 37.4949 24.8293 35.9257C25.0018 36.0784 25.3437 36.3773 25.5163 36.53C25.3006 43.1349 25.4454 49.7431 25.6272 56.348C25.5964 58.2161 25.393 60.0777 25.4392 61.9491C26.2094 61.9069 26.9581 61.7379 27.6851 61.4683C27.5711 61.0232 27.5711 60.1915 28.2211 60.3409C31.4128 60.3604 34.4689 59.1453 37.6389 59.0901C38.6648 58.6677 39.7246 58.3169 40.8306 58.2681C41.8626 58.1284 42.8084 58.6937 43.7881 58.9244C43.5077 52.862 44.0253 46.8061 43.8558 40.7437C43.7542 38.1576 43.9175 35.5586 43.6525 32.9757C43.1873 32.6508 42.7252 32.3064 42.2939 31.9231C41.9427 31.2798 41.3481 30.8834 40.7535 30.5228C39.9834 29.7301 39.0746 29.1128 38.2951 28.3298C40.2791 28.8886 41.8133 30.4383 43.7665 31.0524C40.7443 27.8717 36.7763 26.0134 33.4152 23.2941C31.0123 21.8061 28.788 20.0355 26.4466 18.4468C26.6561 18.9146 26.6777 19.5092 27.1244 19.8081C28.3167 20.8412 29.6198 21.7216 30.8305 22.732C31.6284 23.4175 32.6235 23.9503 33.0825 24.9737C32.0905 24.9283 31.3296 24.2265 30.5841 23.6222C29.3703 22.5761 28.0456 21.6859 26.7054 20.8249C26.4528 31.2668 27.454 41.7281 26.5976 52.1603C26.7332 55.1655 27.0659 58.1739 26.9519 61.1921C26.69 61.3935 26.4251 61.5885 26.154 61.7737C25.9753 58.4631 25.8274 55.1427 25.9661 51.8256C26.4189 41.7346 25.7319 31.6437 25.7905 21.5494C25.7196 20.1784 26.6531 18.3136 25.1065 17.5079C25.2975 19.8438 25.162 22.183 25.2359 24.5189C25.2821 27.1148 25.5255 29.7073 25.4177 32.3032C25.4393 32.9172 25.0295 33.3818 24.7399 33.8626C24.5582 32.6021 24.5089 31.3285 24.4442 30.055C24.401 26.2635 23.9882 22.4559 24.4411 18.6774C24.5551 17.9334 24.0437 17.3324 23.6617 16.7769C23.4029 20.773 24.1854 24.7528 23.7911 28.7392C23.6617 32.5956 24.4935 36.6144 23.3105 40.3539C23.2088 39.7398 23.1226 39.1128 23.1256 38.4825C23.1318 35.2239 22.9747 31.9686 22.9562 28.7132C23.1256 25.2337 22.9223 21.7509 22.7621 18.2746C21.1509 16.2895 18.7756 15.3474 16.9056 13.6904C15.0326 12.7158 13.3166 11.4422 11.4897 10.3701C9.22539 9.23948 7.25372 7.57607 4.99247 6.42598C4.80762 11.1466 5.1958 15.8639 5.14959 20.5878C5.39912 29.6911 5.57473 38.8009 5.34367 47.9075C5.02636 53.5183 5.46383 59.1388 5.42686 64.7529C5.65175 64.951 5.87356 65.1525 6.09537 65.3507C5.92285 65.5001 5.58398 65.8022 5.41146 65.9517C5.44843 66.1401 5.51619 66.5203 5.55316 66.7087C6.54823 66.7022 7.54948 66.6892 8.52915 66.4748ZM9.478 64.5352C9.3024 64.1811 8.56612 64.3078 8.6647 64.7626C8.84647 65.1232 9.57658 64.9868 9.478 64.5352ZM45.5841 64.5417C45.1651 58.5638 45.2607 52.5371 45.0142 46.5397C45.0111 44.0608 45.0696 41.5787 44.9125 39.1031C44.7523 36.2018 44.9772 33.2811 44.6507 30.3928C44.4289 31.4552 44.5182 32.5501 44.5675 33.6255C44.663 36.5462 44.6476 39.4702 44.7123 42.3909C44.8417 46.2863 44.4597 50.1785 44.6106 54.0738C44.5921 57.5339 44.6599 60.9939 44.8971 64.441L44.6045 64.4637C44.9341 64.4897 45.2606 64.5157 45.5841 64.5417ZM36.7424 60.2467C35.8213 60.7243 36.7332 59.1648 36.7424 60.2467V60.2467ZM41.6808 28.2908C41.5052 28.1414 41.5052 28.1414 41.6808 28.2908V28.2908ZM22.9747 16.0036C21.003 14.6131 18.9636 13.3331 16.9549 12.0043C14.1484 9.94774 10.8736 8.62544 8.29193 6.22778C7.1459 5.57475 5.87973 5.15892 4.64127 4.73981C5.00788 5.27263 5.42685 5.78268 5.99987 6.06533C9.27468 7.82947 12.3554 9.96072 15.5409 11.8905C17.9007 13.1219 19.8508 15.029 22.1336 16.4C22.3431 16.3025 22.7652 16.1043 22.9747 16.0036ZM19.5243 12.5858C16.9981 10.4903 13.9974 9.17124 11.4435 7.11796C10.2913 6.22453 8.90807 5.72745 7.7836 4.78528C6.44657 3.5767 4.73061 3.0114 3.26418 2.001C4.46874 3.77488 6.5236 4.48315 8.18103 5.66573C12.0381 7.82948 15.7442 10.2856 19.5243 12.5858Z" fill="black"/>
<path opacity="0.96" d="M11.4334 107.581C10.4599 108.004 9.51107 108.699 8.40201 108.455C8.58993 108.182 8.77477 107.91 8.95654 107.637C10.0902 107.179 11.2147 106.685 12.4039 106.409C12.9461 106.223 13.4975 106.061 14.0459 105.921C13.4513 106.883 12.3669 107.149 11.4334 107.581Z" fill="black"/>
<path opacity="0.96" d="M34.9717 96.7219C33.9704 97.3489 32.8614 97.9499 31.6507 97.6575C32.4578 96.6536 33.8102 96.4619 34.9717 96.7219Z" fill="black"/>
<path opacity="0.96" d="M25.086 95.3921C24.778 94.8268 24.5007 94.2257 24.4514 93.563C24.0447 89.1413 24.0324 84.6903 23.7736 80.2589C23.749 79.4272 23.672 78.576 23.8476 77.7572C24.0355 77.7897 24.4052 77.8547 24.5931 77.8839C24.7933 79.5701 24.6332 81.292 24.399 82.9684C25.1199 85.0574 24.8827 87.3252 25.009 89.5019C25.0059 91.4675 25.4033 93.4363 25.086 95.3921Z" fill="black"/>
<path opacity="0.96" d="M16.2969 90.5864C16.0134 92.0256 15.5051 93.4486 14.6117 94.5955C14.2574 93.4941 15.2895 92.5617 15.5667 91.5708C15.3603 91.6552 14.9475 91.8242 14.7442 91.9086L14.7011 92.4025C14.624 92.214 14.4762 91.8404 14.4022 91.652C14.661 90.5051 15.2648 89.42 16.0905 88.6175C16.1059 89.381 15.8317 90.0893 15.4897 90.7488C15.6284 90.9275 15.7639 91.1062 15.8995 91.2784L16.2969 90.5864Z" fill="black"/>
<path opacity="0.96" d="M36.041 82.0365C35.5327 82.8 35.0151 83.5635 34.3528 84.1873C34.5653 83.1801 34.9782 82.2347 35.5204 81.3802C35.6498 81.5459 35.9116 81.8741 36.041 82.0365Z" fill="black"/>
<path opacity="0.96" d="M34.8395 81.4985C34.6455 81.4855 34.2573 81.4595 34.0632 81.4466C34.4298 80.6766 34.7533 79.7701 35.6221 79.4972C35.4033 80.1827 35.1291 80.8455 34.8395 81.4985Z" fill="black"/>
<path opacity="0.96" d="M24.4658 75.2757C24.2995 75.4641 23.9698 75.8378 23.8035 76.0229C23.443 73.1412 23.3444 70.227 23.1565 67.329C23.4954 67.2477 23.8343 67.1633 24.1701 67.0788C24.1146 69.8144 24.204 72.5532 24.4658 75.2757Z" fill="black"/>
<path opacity="0.96" d="M43.3081 65.7922C43.3759 66.978 43.5022 68.323 42.7412 69.3042C42.4362 68.1671 42.2791 66.9812 42.2822 65.7954C42.5472 65.0969 42.9692 65.3146 43.3081 65.7922Z" fill="black"/>
<path opacity="0.96" d="M13.9699 63.4522C13.1751 63.6276 12.0291 64.1897 11.5392 63.1501C12.8054 62.4678 14.2565 62.458 15.6366 62.2988C18.2306 62.1332 20.7383 61.2722 23.3477 61.2235C21.8289 62.4775 19.8418 62.5653 18.0272 62.9486C16.6902 63.2443 15.2885 63.0103 13.9699 63.4522Z" fill="black"/>
<path opacity="0.96" d="M24.1041 61.3034C23.9193 61.6056 23.7067 61.8882 23.4664 62.1514C23.3924 59.6725 23.0998 57.2001 23.2322 54.718C23.0659 51.4853 23.0628 48.2495 23.0844 45.0136C23.0782 43.7563 22.9796 42.486 23.2476 41.2449C23.7406 42.0409 23.7344 42.9798 23.7929 43.8862C24.1041 47.3918 23.8207 50.9103 23.8546 54.4223C23.6482 56.7258 24.483 59 24.1041 61.3034Z" fill="black"/>
<path opacity="0.96" d="M42.9195 57.2894C42.8148 57.3478 42.5991 57.4713 42.4913 57.5298C42.3126 56.3472 42.0538 55.1614 42.1616 53.9528C42.3988 54.0762 42.8733 54.3199 43.1074 54.4434C43.0581 55.392 42.9904 56.3407 42.9195 57.2894Z" fill="black"/>
<path opacity="0.96" d="M42.5854 51.2996C41.7999 48.0539 42.7148 44.7011 42.5331 41.41C42.5454 40.2177 42.0586 38.6875 43.1985 37.885C43.7037 39.7856 43.371 41.7349 43.3587 43.6647C43.3063 45.8512 43.0629 48.0312 43.1523 50.2177C43.0106 50.4873 42.7271 51.0299 42.5854 51.2996Z" fill="black"/>
<path opacity="0.96" d="M15.2204 48.8745C15.1187 47.2338 16.1754 45.8271 17.0596 44.5828C16.7515 46.1357 16.0676 47.575 15.2204 48.8745Z" fill="black"/>
<path opacity="0.96" d="M16.8811 42.4011C16.9674 43.2133 16.6008 43.7916 15.9169 44.0938C16.1726 43.4895 16.4929 42.9209 16.8811 42.4011Z" fill="black"/>
<path opacity="0.96" d="M31.71 41.9159C31.3464 42.4585 30.9644 42.9978 30.4284 43.3584C30.5947 42.7216 30.7765 42.0816 30.9921 41.4578C31.1708 41.5715 31.5313 41.8022 31.71 41.9159Z" fill="black"/>
<path opacity="0.96" d="M33.9313 42.6179C33.7957 42.9266 33.5677 43.0013 33.2535 42.8454C33.5647 41.7635 34.1007 40.7499 34.7908 39.8824C34.9202 40.8928 34.4211 41.7992 33.9313 42.6179Z" fill="black"/>
<path opacity="0.96" d="M34.8905 36.5328C34.9952 38.2612 33.9015 39.7914 33.0482 41.1787C33.1714 39.4633 33.9909 37.9234 34.8905 36.5328Z" fill="black"/>
<path opacity="0.96" d="M42.8048 37.6052C42.5213 36.5786 42.2348 35.4772 42.4443 34.4051C42.7062 34.1712 42.9742 33.9503 43.2515 33.7391C43.4301 35.0516 43.2268 36.3674 42.8048 37.6052Z" fill="black"/>
<path opacity="0.96" d="M38.1338 28.238C36.3285 27.8222 34.2829 26.9287 33.4788 25.0379C35.1794 25.8111 36.8337 26.8313 38.1338 28.238Z" fill="black"/>
<path d="M76.9657 110.939C77.1609 110.744 77.1609 110.427 76.9657 110.232L73.7837 107.05C73.5884 106.855 73.2718 106.855 73.0766 107.05C72.8813 107.245 72.8813 107.562 73.0766 107.757L75.905 110.586L73.0766 113.414C72.8813 113.609 72.8813 113.926 73.0766 114.121C73.2718 114.316 73.5884 114.316 73.7837 114.121L76.9657 110.939ZM9.72363 111.086H41.12V110.086H9.72363V111.086ZM41.12 111.086H76.6121V110.086H41.12V111.086Z" fill="black"/>
</svg>
